<?xml version="1.0" encoding="UTF-8" standalone="no"?>
<!-- Created with Inkscape (http://www.inkscape.org/) -->

<svg
   xmlns:dc="http://purl.org/dc/elements/1.1/"
   xmlns:cc="http://creativecommons.org/ns#"
   xmlns:rdf="http://www.w3.org/1999/02/22-rdf-syntax-ns#"
   xmlns:svg="http://www.w3.org/2000/svg"
   xmlns="http://www.w3.org/2000/svg"
   xmlns:sodipodi="http://sodipodi.sourceforge.net/DTD/sodipodi-0.dtd"
   xmlns:inkscape="http://www.inkscape.org/namespaces/inkscape"
   width="4212.9922"
   height="2979.9211"
   id="svg2"
   version="1.1"
   inkscape:version="0.92.1 r15371"
   sodipodi:docname="hole_template.svg">
  <sodipodi:namedview
     id="base"
     pagecolor="#ffffff"
     bordercolor="#666666"
     borderopacity="1.0"
     inkscape:pageopacity="0.0"
     inkscape:pageshadow="2"
     inkscape:zoom="1"
     inkscape:cx="393.77858"
     inkscape:cy="1568.9979"
     inkscape:document-units="mm"
     inkscape:current-layer="layer1"
     showgrid="true"
     units="mm"
     width="1200mm"
     inkscape:window-width="1920"
     inkscape:window-height="1017"
     inkscape:window-x="-8"
     inkscape:window-y="-8"
     inkscape:window-maximized="1"
     showguides="true">
    <inkscape:grid
       originy="0"
       originx="0"
       spacingy="3.5433071"
       spacingx="3.5433071"
       units="mm"
       snapvisiblegridlinesonly="true"
       enabled="true"
       visible="true"
       empspacing="5"
       id="grid2985"
       type="xygrid" />
  </sodipodi:namedview>
  <title
     id="title2987">Laser A0 Template</title>
  <defs
     id="defs4">
    <marker
       id="DistanceX"
       orient="auto"
       refX="0.0"
       refY="0.0"
       style="overflow:visible">
      <path
         d="M 3,-3 L -3,3 M 0,-5 L  0,5"
         style="stroke:#000000; stroke-width:0.5"
         id="path3608" />
    </marker>
    <pattern
       height="8"
       id="Hatch"
       patternUnits="userSpaceOnUse"
       width="8"
       x="0"
       y="0">
      <path
         d="M8 4 l-4,4"
         linecap="square"
         stroke="#000000"
         stroke-width="0.25"
         id="path3611" />
      <path
         d="M6 2 l-4,4"
         linecap="square"
         stroke="#000000"
         stroke-width="0.25"
         id="path3613" />
      <path
         d="M4 0 l-4,4"
         linecap="square"
         stroke="#000000"
         stroke-width="0.25"
         id="path3615" />
    </pattern>
    <symbol
       id="*Model_Space" />
    <symbol
       id="*Paper_Space" />
    <symbol
       id="*Paper_Space0" />
    <symbol
       id="SW_NOTE_0">
      <text
         style="line-height:0%;font-family:Arial;fill:#000000"
         x="0"
         y="1045.5109"
         id="text3621">
        <tspan
           style="font-size:5.30000019px;line-height:1.25"
           y="1045.5109"
           x="0"
           sodipodi:role="line"
           id="tspan3623">DEBUR AND</tspan>
      </text>
      <text
         style="line-height:0%;font-family:Arial;fill:#000000"
         x="0"
         y="1054.3691"
         id="text3625">
        <tspan
           style="font-size:5.30000019px;line-height:1.25"
           y="1054.3691"
           x="0"
           sodipodi:role="line"
           id="tspan3627">BREAK SHARP</tspan>
      </text>
      <text
         style="line-height:0%;font-family:Arial;fill:#000000"
         x="0"
         y="1063.2274"
         id="text3629">
        <tspan
           style="font-size:5.30000019px;line-height:1.25"
           y="1063.2274"
           x="0"
           sodipodi:role="line"
           id="tspan3631">EDGES</tspan>
      </text>
    </symbol>
    <symbol
       id="SW_NOTE_1">
      <text
         style="line-height:0%;font-family:Arial;fill:#000000"
         x="0"
         y="1045.5109"
         id="text3634">
        <tspan
           style="font-size:5.30000019px;line-height:1.25"
           y="1045.5109"
           x="0"
           sodipodi:role="line"
           id="tspan3636">UNLESS OTHERWISE SPECIFIED:</tspan>
      </text>
      <text
         style="line-height:0%;font-family:Arial;fill:#000000"
         x="0"
         y="1054.3691"
         id="text3638">
        <tspan
           style="font-size:5.30000019px;line-height:1.25"
           y="1054.3691"
           x="0"
           sodipodi:role="line"
           id="tspan3640">DIMENSIONS ARE IN MILLIMETERS</tspan>
      </text>
      <text
         style="line-height:0%;font-family:Arial;fill:#000000"
         x="0"
         y="1063.2274"
         id="text3642">
        <tspan
           style="font-size:5.30000019px;line-height:1.25"
           y="1063.2274"
           x="0"
           sodipodi:role="line"
           id="tspan3644">SURFACE FINISH:</tspan>
      </text>
      <text
         style="line-height:0%;font-family:Arial;fill:#000000"
         x="0"
         y="1072.0857"
         id="text3646">
        <tspan
           style="font-size:5.30000019px;line-height:1.25"
           y="1072.0857"
           x="0"
           sodipodi:role="line"
           id="tspan3648">TOLERANCES:</tspan>
      </text>
      <text
         style="line-height:0%;font-family:Arial;fill:#000000"
         x="5.979331"
         y="1080.944"
         id="text3650">
        <tspan
           style="font-size:5.30000019px;line-height:1.25"
           y="1080.944"
           x="5.979331"
           sodipodi:role="line"
           id="tspan3652">LINEAR:</tspan>
      </text>
      <text
         style="line-height:0%;font-family:Arial;fill:#000000"
         x="5.979331"
         y="1089.8022"
         id="text3654">
        <tspan
           style="font-size:5.30000019px;line-height:1.25"
           y="1089.8022"
           x="5.979331"
           sodipodi:role="line"
           id="tspan3656">ANGULAR:</tspan>
      </text>
    </symbol>
  </defs>
  <metadata
     id="metadata7">
    <rdf:RDF>
      <cc:Work
         rdf:about="">
        <dc:format>image/svg+xml</dc:format>
        <dc:type
           rdf:resource="http://purl.org/dc/dcmitype/StillImage" />
        <dc:title>Laser A0 Template</dc:title>
      </cc:Work>
    </rdf:RDF>
  </metadata>
  <g
     transform="translate(0,1927.5603)"
     id="layer1"
     inkscape:groupmode="layer"
     inkscape:label="Layer 1">
    <g
       transform="translate(859.61884,-1704.1731)"
       id="g4554">
      <g
         id="g3756"
         transform="translate(-11.81102,-1.4173393)"
         style="fill:none;stroke:none">
        <circle
           r="8.5039368"
           style="fill:none;stroke:none;stroke-width:0.32000002"
           cy="1043.8569"
           cx="8.5039368"
           id="path3735" />
        <circle
           id="circle3737"
           cx="204.09448"
           cy="1043.8569"
           style="fill:none;stroke:none;stroke-width:0.32000002"
           r="8.5039368" />
        <circle
           id="circle3739"
           cx="8.5039368"
           cy="655.51044"
           style="fill:none;stroke:none;stroke-width:0.32000002"
           r="8.5039368" />
        <circle
           r="8.5039368"
           style="fill:none;stroke:none;stroke-width:0.32000002"
           cy="655.51044"
           cx="204.09448"
           id="circle3741" />
      </g>
      <g
         id="g3750">
        <rect
           style="fill:none;stroke:none;stroke-width:1.31122422"
           y="719.76239"
           x="0"
           height="257.00787"
           width="188.97638"
           id="rect3733" />
        <rect
           id="rect3743"
           width="128.50394"
           height="75.590553"
           x="30.236221"
           y="976.77026"
           style="fill:none;stroke:none;stroke-width:0.58639729" />
        <rect
           style="fill:none;stroke:none;stroke-width:0.58639729"
           y="644.17188"
           x="30.236221"
           height="75.590553"
           width="128.50394"
           id="rect3745" />
      </g>
    </g>
    <g
       transform="translate(731.82358,-1255.118)"
       id="g4537">
      <rect
         style="fill:none;stroke:none;stroke-width:0;stroke-miterlimit:4;stroke-dasharray:none"
         id="rect4528"
         width="408.18896"
         height="264.56693"
         x="412.67719"
         y="266.92776"
         rx="28.346457"
         ry="28.346457" />
      <rect
         style="fill:none;stroke:none;stroke-width:0;stroke-miterlimit:4;stroke-dasharray:none"
         id="rect4530"
         width="287.24408"
         height="98.267715"
         x="473.1496"
         y="350.07736" />
      <rect
         style="fill:none;stroke:none;stroke-width:0;stroke-miterlimit:4;stroke-dasharray:none"
         id="rect4532"
         width="502.67715"
         height="359.05511"
         x="365.43307"
         y="219.68367" />
    </g>
    <circle
       r="29.763779"
       cy="-855.9068"
       cx="1654.7119"
       id="path4541"
       style="fill:none;stroke:none;stroke-width:0;stroke-miterlimit:4;stroke-dasharray:none" />
    <g
       id="g5125"
       transform="translate(1234.3709,-663.23352)">
      <g
         id="New_Symbol" />
      <g
         id="g5113">
        <path
           id="path5111"
           d="m 175.262,51.21 c -33.712,-33.709 -88.367,-33.709 -122.073,0 -33.713,33.712 -33.713,88.365 0,122.075 33.706,33.71 88.364,33.71 122.073,0 33.71,-33.71 33.71,-88.363 0,-122.075 z m -27.482,90.331 -19.69,-19.687 6.193,-6.193 -3.275,-3.274 -16.645,16.646 3.271,3.277 6.41,-6.413 19.695,19.688 -29.514,29.514 -19.692,-19.689 3.359,-3.356 -23.471,-23.474 -3.363,3.36 -19.687,-19.69 29.515,-29.515 19.688,19.688 -6.414,6.412 4.031,4.03 16.65,-16.647 -4.029,-4.03 -6.197,6.196 -19.689,-19.69 29.3,-29.295 19.685,19.688 -3.355,3.36 23.47,23.472 3.361,-3.36 19.688,19.691 z"
           inkscape:connector-curvature="0"
           style="fill:#26592c" />
      </g>
    </g>
    <rect
       style="fill:none;stroke:none;stroke-width:0;stroke-miterlimit:4;stroke-dasharray:none"
       id="rect7420"
       width="162.51968"
       height="120.94489"
       x="194.8819"
       y="-574.48956" />
  </g>
  <g
     id="g4961"
     inkscape:groupmode="layer"
     inkscape:label="newlayer" />
  <path
     id="path4963"
     inkscape:label="part"
     style="stroke:#000000;stroke-width:1;fill:none"
     d="M 793.700787417,1591.18110239 L 847.200000014,1591.18110239 L 847.200000014,1568.50393704 L 892.89448821,1568.50393704 L 892.89448821,1591.18110239 L 946.223622063,1591.18110239 L 946.223622063,1568.50393704 L 991.918110259,1568.50393704 L 991.918110259,1591.18110239 L 1045.24724411,1591.18110239 L 1045.24724411,1568.50393704 L 1090.94173231,1568.50393704 L 1090.94173231,1591.18110239 L 1144.27086616,1591.18110239 L 1144.27086616,1568.50393704 L 1189.96535436,1568.50393704 L 1189.96535436,1591.18110239 L 1243.29448821,1591.18110239 L 1243.29448821,1568.50393704 L 1288.98897641,1568.50393704 L 1288.98897641,1591.18110239 L 1342.31811026,1591.18110239 L 1342.31811026,1568.50393704 L 1388.01259846,1568.50393704 L 1388.01259846,1591.18110239 L 1441.34173231,1591.18110239 L 1441.34173231,1568.50393704 L 1487.03622051,1568.50393704 L 1487.03622051,1591.18110239 L 1540.36535436,1591.18110239 L 1540.36535436,1568.50393704 L 1586.05984255,1568.50393704 L 1586.05984255,1591.18110239 L 1639.38897641,1591.18110239 L 1639.38897641,1568.50393704 L 1685.0834646,1568.50393704 L 1685.0834646,1591.18110239 L 1738.5826772,1591.18110239 " />
  <path
     id="path4965"
     inkscape:label="part"
     style="fill:none;stroke:#000000;stroke-width:1"
     d="m 1738.5827,1591.1811 v 32.2961 h -22.6772 v 45.0141 h 22.6772 v 55.1433 h -22.6772 v 45.0142 h 22.6772 v 55.1433 h -22.6772 v 45.0142 h 22.6772 v 55.1433 h -22.6772 v 45.0142 h 22.6772 v 55.1433 h -22.6772 v 45.0142 h 22.6772 v 55.1433 h -22.6772 v 45.0141 h 22.6772 v 55.1433 h -22.6772 v 99.9892 l -899.52755,0 v -99.9892 h -22.67716 v -55.1433 h 22.67716 v -45.0141 h -22.67716 v -55.1433 h 22.67716 v -45.0142 h -22.67716 v -55.1433 h 22.67716 v -45.0142 h -22.67716 v -55.1433 h 22.67716 v -45.0142 h -22.67716 v -55.1433 h 22.67716 v -45.0142 h -22.67716 v -55.1433 h 22.67716 v -45.0141 h -22.67716 v -32.2961"
     inkscape:connector-curvature="0"
     sodipodi:nodetypes="cccccccccccccccccccccccccccccccccccccccccccccccccccccccc" />
  <path
     id="path4973"
     inkscape:label="part"
     style="stroke:#000000;stroke-width:1;fill:none"
     d="M 752.125984267,816.377952772 L 752.125984267,848.333858281 L 774.803149622,848.333858281 L 774.803149622,894.028346478 L 752.125984267,894.028346478 L 752.125984267,948.491338598 L 774.803149622,948.491338598 L 774.803149622,994.185826795 L 752.125984267,994.185826795 L 752.125984267,1048.64881892 L 774.803149622,1048.64881892 L 774.803149622,1094.34330711 L 752.125984267,1094.34330711 L 752.125984267,1148.80629923 L 774.803149622,1148.80629923 L 774.803149622,1194.50078743 L 752.125984267,1194.50078743 L 752.125984267,1248.96377955 L 774.803149622,1248.96377955 L 774.803149622,1294.65826775 L 752.125984267,1294.65826775 L 752.125984267,1349.12125987 L 774.803149622,1349.12125987 L 774.803149622,1394.81574806 L 752.125984267,1394.81574806 L 752.125984267,1449.27874018 L 774.803149622,1449.27874018 L 774.803149622,1494.97322838 L 752.125984267,1494.97322838 L 752.125984267,1526.92913389 " />
  <path
     id="path4975"
     inkscape:label="part"
     style="fill:none;stroke:#000000;stroke-width:1"
     d="m 752.12598,1526.9291 h -31.9559 v 22.6772 h -45.69449 v -22.6772 H 620.0126 v 22.6772 h -45.69449 v -22.6772 h -54.46299 v 22.6772 h -45.69449 v -22.6772 h -54.46299 v 22.6772 h -45.69449 v -22.6772 h -54.46299 v 22.6772 h -45.69449 v -22.6772 h -54.46299 v 22.6772 h -45.69449 v -22.6772 H 119.2252 v 22.6754 l -100.327562,-2e-4 V 1526.9291 816.37795 793.70079 H 119.2252 v 22.67894 l 54.46299,-0.002 v -22.67716 h 45.69449 v 22.67716 h 54.46299 v -22.67716 h 45.69449 v 22.67716 h 54.46299 v -22.67716 h 45.69449 v 22.67716 h 54.46299 v -22.67716 h 45.69449 v 22.67716 h 54.46299 v -22.67716 h 45.69449 v 22.67716 h 54.46299 v -22.67716 h 45.69449 v 22.67716 h 31.9559"
     inkscape:connector-curvature="0"
     sodipodi:nodetypes="cccccccccccccccccccccccccccccccccccccccccccccccccccccccccc" />
  <g
     id="g5108">
    <path
       d="M 793.700787417,793.700787417 L 847.5401575,793.700787417 L 847.5401575,816.377952772 L 892.554330723,816.377952772 L 892.554330723,793.700787417 L 946.56377955,793.700787417 L 946.56377955,816.377952772 L 991.577952772,816.377952772 L 991.577952772,793.700787417 L 1045.5874016,793.700787417 L 1045.5874016,816.377952772 L 1090.60157482,816.377952772 L 1090.60157482,793.700787417 L 1144.61102365,793.700787417 L 1144.61102365,816.377952772 L 1189.62519687,816.377952772 L 1189.62519687,793.700787417 L 1243.6346457,793.700787417 L 1243.6346457,816.377952772 L 1288.64881892,816.377952772 L 1288.64881892,793.700787417 L 1342.65826775,793.700787417 L 1342.65826775,816.377952772 L 1387.67244097,816.377952772 L 1387.67244097,793.700787417 L 1441.6818898,793.700787417 L 1441.6818898,816.377952772 L 1486.69606302,816.377952772 L 1486.69606302,793.700787417 L 1540.70551184,793.700787417 L 1540.70551184,816.377952772 L 1585.71968507,816.377952772 L 1585.71968507,793.700787417 L 1639.72913389,793.700787417 L 1639.72913389,816.377952772 L 1684.74330712,816.377952772 L 1684.74330712,793.700787417 L 1738.5826772,793.700787417 "
       style="stroke:#000000;stroke-width:1;fill:none"
       inkscape:label="part"
       id="path4979" />
    <path
       d="M 1738.5826772,793.700787417 L 1738.5826772,848.674015768 L 1715.90551185,848.674015768 L 1715.90551185,893.688188991 L 1738.5826772,893.688188991 L 1738.5826772,948.831496085 L 1715.90551185,948.831496085 L 1715.90551185,993.845669308 L 1738.5826772,993.845669308 L 1738.5826772,1048.9889764 L 1715.90551185,1048.9889764 L 1715.90551185,1094.00314962 L 1738.5826772,1094.00314962 L 1738.5826772,1149.14645672 L 1715.90551185,1149.14645672 L 1715.90551185,1194.16062994 L 1738.5826772,1194.16062994 L 1738.5826772,1249.30393704 L 1715.90551185,1249.30393704 L 1715.90551185,1294.31811026 L 1738.5826772,1294.31811026 L 1738.5826772,1349.46141735 L 1715.90551185,1349.46141735 L 1715.90551185,1394.47559058 L 1738.5826772,1394.47559058 L 1738.5826772,1449.61889767 L 1715.90551185,1449.61889767 L 1715.90551185,1494.63307089 L 1738.5826772,1494.63307089 L 1738.5826772,1549.60629924 "
       style="stroke:#000000;stroke-width:1;fill:none"
       inkscape:label="part"
       id="path4981" />
    <path
       d="M 1738.5826772,1549.60629924 L 1684.74330712,1549.60629924 L 1684.74330712,1526.92913389 L 1639.72913389,1526.92913389 L 1639.72913389,1549.60629924 L 1585.71968507,1549.60629924 L 1585.71968507,1526.92913389 L 1540.70551184,1526.92913389 L 1540.70551184,1549.60629924 L 1486.69606302,1549.60629924 L 1486.69606302,1526.92913389 L 1441.6818898,1526.92913389 L 1441.6818898,1549.60629924 L 1387.67244097,1549.60629924 L 1387.67244097,1526.92913389 L 1342.65826775,1526.92913389 L 1342.65826775,1549.60629924 L 1288.64881892,1549.60629924 L 1288.64881892,1526.92913389 L 1243.6346457,1526.92913389 L 1243.6346457,1549.60629924 L 1189.62519687,1549.60629924 L 1189.62519687,1526.92913389 L 1144.61102365,1526.92913389 L 1144.61102365,1549.60629924 L 1090.60157482,1549.60629924 L 1090.60157482,1526.92913389 L 1045.5874016,1526.92913389 L 1045.5874016,1549.60629924 L 991.577952772,1549.60629924 L 991.577952772,1526.92913389 L 946.56377955,1526.92913389 L 946.56377955,1549.60629924 L 892.554330723,1549.60629924 L 892.554330723,1526.92913389 L 847.5401575,1526.92913389 L 847.5401575,1549.60629924 L 793.700787417,1549.60629924 "
       style="stroke:#000000;stroke-width:1;fill:none"
       inkscape:label="part"
       id="path4983" />
    <path
       d="M 793.700787417,1549.60629924 L 793.700787417,1494.63307089 L 816.377952772,1494.63307089 L 816.377952772,1449.61889767 L 793.700787417,1449.61889767 L 793.700787417,1394.47559058 L 816.377952772,1394.47559058 L 816.377952772,1349.46141735 L 793.700787417,1349.46141735 L 793.700787417,1294.31811026 L 816.377952772,1294.31811026 L 816.377952772,1249.30393704 L 793.700787417,1249.30393704 L 793.700787417,1194.16062994 L 816.377952772,1194.16062994 L 816.377952772,1149.14645672 L 793.700787417,1149.14645672 L 793.700787417,1094.00314962 L 816.377952772,1094.00314962 L 816.377952772,1048.9889764 L 793.700787417,1048.9889764 L 793.700787417,993.845669308 L 816.377952772,993.845669308 L 816.377952772,948.831496085 L 793.700787417,948.831496085 L 793.700787417,893.688188991 L 816.377952772,893.688188991 L 816.377952772,848.674015768 L 793.700787417,848.674015768 L 793.700787417,793.700787417 "
       style="stroke:#000000;stroke-width:1;fill:none"
       inkscape:label="part"
       id="path4985" />
  </g>
  <path
     id="path4987"
     inkscape:label="part"
     style="fill:none;stroke:#000000;stroke-width:1"
     d="m 1780.1575,816.37795 h 31.9559 v -22.67716 h 45.6945 v 22.67716 h 54.463 v -22.67716 h 45.6945 v 22.67716 h 54.4629 v -22.67716 h 45.6945 v 22.67716 h 54.463 v -22.67539 l 45.6945,-0.002 v 22.67716 h 54.463 v -22.67716 h 45.6945 v 22.67716 h 54.463 v -22.67716 h 45.6945 v 22.67716 h 54.463 v -22.67716 h 100.3275 l 0,22.67716 v 710.55118 22.6772 h -100.3275 v -22.6772 h -54.463 v 22.6772 h -45.6945 v -22.6772 h -54.463 v 22.6772 h -45.6945 v -22.6772 h -54.463 v 22.6772 h -45.6945 v -22.6772 h -54.463 v 22.6772 h -45.6945 v -22.6772 h -54.4629 v 22.6772 h -45.6945 v -22.6772 h -54.463 v 22.6772 h -45.6945 v -22.6772 h -31.9559"
     inkscape:connector-curvature="0"
     sodipodi:nodetypes="cccccccccccccccccccccccccccccccccccccccccccccccccccccccccc" />
  <path
     id="path4993"
     inkscape:label="part"
     style="stroke:#000000;stroke-width:1;fill:none"
     d="M 1780.15748035,1526.92913389 L 1780.15748035,1494.97322838 L 1757.480315,1494.97322838 L 1757.480315,1449.27874018 L 1780.15748035,1449.27874018 L 1780.15748035,1394.81574806 L 1757.480315,1394.81574806 L 1757.480315,1349.12125987 L 1780.15748035,1349.12125987 L 1780.15748035,1294.65826775 L 1757.480315,1294.65826775 L 1757.480315,1248.96377955 L 1780.15748035,1248.96377955 L 1780.15748035,1194.50078743 L 1757.480315,1194.50078743 L 1757.480315,1148.80629923 L 1780.15748035,1148.80629923 L 1780.15748035,1094.34330711 L 1757.480315,1094.34330711 L 1757.480315,1048.64881892 L 1780.15748035,1048.64881892 L 1780.15748035,994.185826795 L 1757.480315,994.185826795 L 1757.480315,948.491338598 L 1780.15748035,948.491338598 L 1780.15748035,894.028346478 L 1757.480315,894.028346478 L 1757.480315,848.333858281 L 1780.15748035,848.333858281 L 1780.15748035,816.377952772 " />
  <path
     id="path5007"
     inkscape:label="part"
     style="stroke:#000000;stroke-width:1;fill:none"
     d="M 1738.5826772,752.125984267 L 1685.0834646,752.125984267 L 1685.0834646,774.803149622 L 1639.38897641,774.803149622 L 1639.38897641,752.125984267 L 1586.05984255,752.125984267 L 1586.05984255,774.803149622 L 1540.36535436,774.803149622 L 1540.36535436,752.125984267 L 1487.03622051,752.125984267 L 1487.03622051,774.803149622 L 1441.34173231,774.803149622 L 1441.34173231,752.125984267 L 1388.01259846,752.125984267 L 1388.01259846,774.803149622 L 1342.31811026,774.803149622 L 1342.31811026,752.125984267 L 1288.98897641,752.125984267 L 1288.98897641,774.803149622 L 1243.29448821,774.803149622 L 1243.29448821,752.125984267 L 1189.96535436,752.125984267 L 1189.96535436,774.803149622 L 1144.27086616,774.803149622 L 1144.27086616,752.125984267 L 1090.94173231,752.125984267 L 1090.94173231,774.803149622 L 1045.24724411,774.803149622 L 1045.24724411,752.125984267 L 991.918110259,752.125984267 L 991.918110259,774.803149622 L 946.223622063,774.803149622 L 946.223622063,752.125984267 L 892.89448821,752.125984267 L 892.89448821,774.803149622 L 847.200000014,774.803149622 L 847.200000014,752.125984267 L 793.700787417,752.125984267 " />
  <path
     id="path5009"
     inkscape:label="part"
     style="fill:none;stroke:#000000;stroke-width:1"
     d="m 793.70079,752.12598 v -32.29606 h 22.67716 v -45.01417 h -22.67716 v -55.14331 h 22.67716 v -45.01417 h -22.67716 v -55.14331 h 22.67716 v -45.01417 h -22.67716 v -55.14331 h 22.67716 V 374.34331 H 793.70079 V 319.2 h 22.67716 v -45.01417 h -22.67716 v -55.14331 h 22.67716 v -45.01417 h -22.67716 v -55.14331 h 22.67716 V 18.895631 h 899.52755 v 99.989409 h 22.6772 v 55.14331 h -22.6772 v 45.01417 h 22.6772 v 55.14331 h -22.6772 V 319.2 h 22.6772 v 55.14331 h -22.6772 v 45.01417 h 22.6772 v 55.14331 h -22.6772 v 45.01417 h 22.6772 v 55.14331 h -22.6772 v 45.01417 h 22.6772 v 55.14331 h -22.6772 v 45.01417 h 22.6772 v 32.29606"
     inkscape:connector-curvature="0"
     sodipodi:nodetypes="cccccccccccccccccccccccccccccccccccccccccccccccccccccccc" />
  <rect
     style="fill:none;stroke:none;stroke-width:0;stroke-miterlimit:4;stroke-dasharray:none"
     id="rect5144"
     width="26.456694"
     height="710.55121"
     x="55.333042"
     y="816.37781" />
  <path
     style="fill:none;stroke:none;stroke-width:0;stroke-miterlimit:4;stroke-dasharray:none"
     d="m 2706.1426,818.26953 v 51.01953 h -45.3555 c -20.9386,0 -37.7949,25.28546 -37.7949,56.69336 v 37.79492 c 0,31.4079 16.8563,56.69336 37.7949,56.69336 h 45.3555 v 75.5898 h -45.3555 c -20.9386,0 -37.7949,25.2855 -37.7949,56.6934 v 37.7949 c 0,31.4079 16.8563,56.6934 37.7949,56.6934 h 45.3555 v 75.5898 h -45.3555 c -20.9386,0 -37.7949,25.2855 -37.7949,56.6934 v 37.7949 c 0,31.4079 16.8563,56.6934 37.7949,56.6934 h 45.3555 v 51.0273 h 922.2039 V 818.26953 Z"
     id="rect5146"
     inkscape:connector-curvature="0"
     sodipodi:nodetypes="ccssssccssssccssssccccc" />
  <path
     style="fill:none;stroke:none;stroke-width:0;stroke-miterlimit:4;stroke-dasharray:none"
     d="m 2450.4937,1096.0608 h 26.4567 v 151.1811 h -26.4567 z"
     id="rect5149"
     inkscape:connector-curvature="0"
     sodipodi:nodetypes="ccccc" />
  <path
     inkscape:connector-curvature="0"
     style="fill:none;stroke:none;stroke-width:0;stroke-miterlimit:4;stroke-dasharray:none"
     d="m 2450.4937,869.28919 h 26.4567 v 151.18111 h -26.4567 z"
     id="rect5159" />
  <path
     inkscape:connector-curvature="0"
     style="fill:none;stroke:none;stroke-width:0;stroke-miterlimit:4;stroke-dasharray:none"
     d="m 2450.4937,1322.8325 h 26.4567 v 151.1812 h -26.4567 z"
     id="rect5167" />
  <g
     id="g6155"
     transform="translate(214.0725)">
    <circle
       r="8.5039368"
       cy="1171.6514"
       cx="2455.219"
       id="path6137"
       style="fill:none;stroke:none;stroke-width:0;stroke-miterlimit:4;stroke-dasharray:none" />
  </g>
</svg>
