  0
SECTION
  2
HEADER
  9
$ACADVER
  1
AC1014
  9
$HANDSEED
  5
FFFF
  9
$MEASUREMENT
 70
     1
  0
ENDSEC
  0
SECTION
  2
TABLES
  0
TABLE
  2
VPORT
  5
8
330
0
100
AcDbSymbolTable
 70
     4
  0
VPORT
  5
2E
330
8
100
AcDbSymbolTableRecord
100
AcDbViewportTableRecord
  2
*ACTIVE
 70
     0
 10
0.0
 20
0.0
 11
1.0
 21
1.0
 12
210.0
 22
148.5
 13
0.0
 23
0.0
 14
10.0
 24
10.0
 15
10.0
 25
10.0
 16
0.0
 26
0.0
 36
1.0
 17
0.0
 27
0.0
 37
0.0
 40
341.0
 41
1.24
 42
50.0
 43
0.0
 44
0.0
 50
0.0
 51
0.0
 71
     0
 72
   100
 73
     1
 74
     3
 75
     0
 76
     0
 77
     0
 78
     0
  0
ENDTAB
  0
TABLE
  2
LTYPE
  5
5
330
0
100
AcDbSymbolTable
 70
     1
  0
LTYPE
  5
14
330
5
100
AcDbSymbolTableRecord
100
AcDbLinetypeTableRecord
  2
BYBLOCK
 70
     0
  3

 72
    65
 73
     0
 40
0.0
  0
LTYPE
  5
15
330
5
100
AcDbSymbolTableRecord
100
AcDbLinetypeTableRecord
  2
BYLAYER
 70
     0
  3

 72
    65
 73
     0
 40
0.0
  0
LTYPE
  5
16
330
5
100
AcDbSymbolTableRecord
100
AcDbLinetypeTableRecord
  2
CONTINUOUS
 70
     0
  3
Solid line
 72
    65
 73
     0
 40
0.0
  0
ENDTAB
  0
TABLE
  2
LAYER
  5
2
100
AcDbSymbolTable
 70
3
  0
LAYER
  5
50
100
AcDbSymbolTableRecord
100
AcDbLayerTableRecord
  2
0
 70
0
  6
CONTINUOUS
  0
LAYER
  5
51
100
AcDbSymbolTableRecord
100
AcDbLayerTableRecord
  2
Layer_1
 70
0
  6
CONTINUOUS
  0
LAYER
  5
52
100
AcDbSymbolTableRecord
100
AcDbLayerTableRecord
  2
newlayer
 70
0
  6
CONTINUOUS
  0
ENDTAB
  0
TABLE
  2
STYLE
  5
3
330
0
100
AcDbSymbolTable
 70
     1
  0
STYLE
  5
11
330
3
100
AcDbSymbolTableRecord
100
AcDbTextStyleTableRecord
  2
STANDARD
 70
     0
 40
0.0
 41
1.0
 50
0.0
 71
     0
 42
2.5
  3
txt
  4

  0
ENDTAB
  0
TABLE
  2
VIEW
  5
6
330
0
100
AcDbSymbolTable
 70
     0
  0
ENDTAB
  0
TABLE
  2
UCS
  5
7
330
0
100
AcDbSymbolTable
 70
     0
  0
ENDTAB
  0
TABLE
  2
APPID
  5
9
330
0
100
AcDbSymbolTable
 70
     2
  0
APPID
  5
12
330
9
100
AcDbSymbolTableRecord
100
AcDbRegAppTableRecord
  2
ACAD
 70
     0
  0
ENDTAB
  0
TABLE
  2
DIMSTYLE
  5
A
330
0
100
AcDbSymbolTable
 70
     1
  0
DIMSTYLE
105
27
330
A
100
AcDbSymbolTableRecord
100
AcDbDimStyleTableRecord
  2
ISO-25
 70
     0
  3

  4

  5

  6

  7

 40
1.0
 41
2.5
 42
0.625
 43
3.75
 44
1.25
 45
0.0
 46
0.0
 47
0.0
 48
0.0
140
2.5
141
2.5
142
0.0
143
0.03937007874016
144
1.0
145
0.0
146
1.0
147
0.625
 71
     0
 72
     0
 73
     0
 74
     0
 75
     0
 76
     0
 77
     1
 78
     8
170
     0
171
     3
172
     1
173
     0
174
     0
175
     0
176
     0
177
     0
178
     0
270
     2
271
     2
272
     2
273
     2
274
     3
340
11
275
     0
280
     0
281
     0
282
     0
283
     0
284
     8
285
     0
286
     0
287
     3
288
     0
  0
ENDTAB
  0
TABLE
  2
BLOCK_RECORD
  5
1
330
0
100
AcDbSymbolTable
 70
     1
  0
BLOCK_RECORD
  5
1F
330
1
100
AcDbSymbolTableRecord
100
AcDbBlockTableRecord
  2
*MODEL_SPACE
  0
BLOCK_RECORD
  5
1B
330
1
100
AcDbSymbolTableRecord
100
AcDbBlockTableRecord
  2
*PAPER_SPACE
  0
ENDTAB
  0
ENDSEC
  0
SECTION
  2
BLOCKS
  0
BLOCK
  5
20
330
1F
100
AcDbEntity
  8
0
100
AcDbBlockBegin
  2
*MODEL_SPACE
 70
     0
 10
0.0
 20
0.0
 30
0.0
  3
*MODEL_SPACE
  1

  0
ENDBLK
  5
21
330
1F
100
AcDbEntity
  8
0
100
AcDbBlockEnd
  0
BLOCK
  5
1C
330
1B
100
AcDbEntity
 67
     1
  8
0
100
AcDbBlockBegin
  2
*PAPER_SPACE
  1

  0
ENDBLK
  5
1D
330
1B
100
AcDbEntity
 67
     1
  8
0
100
AcDbBlockEnd
  0
ENDSEC
  0
SECTION
  2
ENTITIES
  0
SPLINE
  5
100
100
AcDbEntity
  8
Layer_1
 62
7
100
AcDbSpline
 70
8
 71
3
 72
8
 73
4
 74
0
 40
0
 40
0
 40
0
 40
0
 40
1
 40
1
 40
1
 40
1
 10
228.815819
 20
453.520794
 30
0.0
 10
228.815819
 20
452.716946
 30
0.0
 10
228.386971
 20
451.974161
 30
0.0
 10
227.690819
 20
451.572237
 30
0.0
  0
SPLINE
  5
101
100
AcDbEntity
  8
Layer_1
 62
7
100
AcDbSpline
 70
8
 71
3
 72
8
 73
4
 74
0
 40
0
 40
0
 40
0
 40
0
 40
1
 40
1
 40
1
 40
1
 10
227.690819
 20
451.572237
 30
0.0
 10
226.994667
 20
451.170313
 30
0.0
 10
226.136971
 20
451.170313
 30
0.0
 10
225.440819
 20
451.572237
 30
0.0
  0
SPLINE
  5
102
100
AcDbEntity
  8
Layer_1
 62
7
100
AcDbSpline
 70
8
 71
3
 72
8
 73
4
 74
0
 40
0
 40
0
 40
0
 40
0
 40
1
 40
1
 40
1
 40
1
 10
225.440819
 20
451.572237
 30
0.0
 10
224.744667
 20
451.974161
 30
0.0
 10
224.315819
 20
452.716946
 30
0.0
 10
224.315819
 20
453.520794
 30
0.0
  0
SPLINE
  5
103
100
AcDbEntity
  8
Layer_1
 62
7
100
AcDbSpline
 70
8
 71
3
 72
8
 73
4
 74
0
 40
0
 40
0
 40
0
 40
0
 40
1
 40
1
 40
1
 40
1
 10
224.315819
 20
453.520794
 30
0.0
 10
224.315819
 20
454.324641
 30
0.0
 10
224.744667
 20
455.067427
 30
0.0
 10
225.440819
 20
455.469351
 30
0.0
  0
SPLINE
  5
104
100
AcDbEntity
  8
Layer_1
 62
7
100
AcDbSpline
 70
8
 71
3
 72
8
 73
4
 74
0
 40
0
 40
0
 40
0
 40
0
 40
1
 40
1
 40
1
 40
1
 10
225.440819
 20
455.469351
 30
0.0
 10
226.136971
 20
455.871275
 30
0.0
 10
226.994667
 20
455.871275
 30
0.0
 10
227.690819
 20
455.469351
 30
0.0
  0
SPLINE
  5
105
100
AcDbEntity
  8
Layer_1
 62
7
100
AcDbSpline
 70
8
 71
3
 72
8
 73
4
 74
0
 40
0
 40
0
 40
0
 40
0
 40
1
 40
1
 40
1
 40
1
 10
227.690819
 20
455.469351
 30
0.0
 10
228.386971
 20
455.067427
 30
0.0
 10
228.815819
 20
454.324641
 30
0.0
 10
228.815819
 20
453.520794
 30
0.0
  0
LINE
  5
106
100
AcDbEntity
  8
Layer_1
 62
7
100
AcDbLine
 10
228.815819
 20
453.520794
 30
0.0
 11
228.815819
 21
453.520794
 31
0.0
  0
SPLINE
  5
107
100
AcDbEntity
  8
Layer_1
 62
7
100
AcDbSpline
 70
8
 71
3
 72
8
 73
4
 74
0
 40
0
 40
0
 40
0
 40
0
 40
1
 40
1
 40
1
 40
1
 10
280.565817
 20
453.520794
 30
0.0
 10
280.565817
 20
452.716946
 30
0.0
 10
280.136969
 20
451.974161
 30
0.0
 10
279.440817
 20
451.572237
 30
0.0
  0
SPLINE
  5
108
100
AcDbEntity
  8
Layer_1
 62
7
100
AcDbSpline
 70
8
 71
3
 72
8
 73
4
 74
0
 40
0
 40
0
 40
0
 40
0
 40
1
 40
1
 40
1
 40
1
 10
279.440817
 20
451.572237
 30
0.0
 10
278.744664
 20
451.170313
 30
0.0
 10
277.886969
 20
451.170313
 30
0.0
 10
277.190817
 20
451.572237
 30
0.0
  0
SPLINE
  5
109
100
AcDbEntity
  8
Layer_1
 62
7
100
AcDbSpline
 70
8
 71
3
 72
8
 73
4
 74
0
 40
0
 40
0
 40
0
 40
0
 40
1
 40
1
 40
1
 40
1
 10
277.190817
 20
451.572237
 30
0.0
 10
276.494664
 20
451.974161
 30
0.0
 10
276.065817
 20
452.716946
 30
0.0
 10
276.065817
 20
453.520794
 30
0.0
  0
SPLINE
  5
10a
100
AcDbEntity
  8
Layer_1
 62
7
100
AcDbSpline
 70
8
 71
3
 72
8
 73
4
 74
0
 40
0
 40
0
 40
0
 40
0
 40
1
 40
1
 40
1
 40
1
 10
276.065817
 20
453.520794
 30
0.0
 10
276.065817
 20
454.324641
 30
0.0
 10
276.494664
 20
455.067427
 30
0.0
 10
277.190817
 20
455.469351
 30
0.0
  0
SPLINE
  5
10b
100
AcDbEntity
  8
Layer_1
 62
7
100
AcDbSpline
 70
8
 71
3
 72
8
 73
4
 74
0
 40
0
 40
0
 40
0
 40
0
 40
1
 40
1
 40
1
 40
1
 10
277.190817
 20
455.469351
 30
0.0
 10
277.886969
 20
455.871275
 30
0.0
 10
278.744664
 20
455.871275
 30
0.0
 10
279.440817
 20
455.469351
 30
0.0
  0
SPLINE
  5
10c
100
AcDbEntity
  8
Layer_1
 62
7
100
AcDbSpline
 70
8
 71
3
 72
8
 73
4
 74
0
 40
0
 40
0
 40
0
 40
0
 40
1
 40
1
 40
1
 40
1
 10
279.440817
 20
455.469351
 30
0.0
 10
280.136969
 20
455.067427
 30
0.0
 10
280.565817
 20
454.324641
 30
0.0
 10
280.565817
 20
453.520794
 30
0.0
  0
LINE
  5
10d
100
AcDbEntity
  8
Layer_1
 62
7
100
AcDbLine
 10
280.565817
 20
453.520794
 30
0.0
 11
280.565817
 21
453.520794
 31
0.0
  0
SPLINE
  5
10e
100
AcDbEntity
  8
Layer_1
 62
7
100
AcDbSpline
 70
8
 71
3
 72
8
 73
4
 74
0
 40
0
 40
0
 40
0
 40
0
 40
1
 40
1
 40
1
 40
1
 10
228.815819
 20
556.270795
 30
0.0
 10
228.815819
 20
555.466947
 30
0.0
 10
228.386971
 20
554.724161
 30
0.0
 10
227.690819
 20
554.322238
 30
0.0
  0
SPLINE
  5
10f
100
AcDbEntity
  8
Layer_1
 62
7
100
AcDbSpline
 70
8
 71
3
 72
8
 73
4
 74
0
 40
0
 40
0
 40
0
 40
0
 40
1
 40
1
 40
1
 40
1
 10
227.690819
 20
554.322238
 30
0.0
 10
226.994667
 20
553.920314
 30
0.0
 10
226.136971
 20
553.920314
 30
0.0
 10
225.440819
 20
554.322238
 30
0.0
  0
SPLINE
  5
110
100
AcDbEntity
  8
Layer_1
 62
7
100
AcDbSpline
 70
8
 71
3
 72
8
 73
4
 74
0
 40
0
 40
0
 40
0
 40
0
 40
1
 40
1
 40
1
 40
1
 10
225.440819
 20
554.322238
 30
0.0
 10
224.744667
 20
554.724161
 30
0.0
 10
224.315819
 20
555.466947
 30
0.0
 10
224.315819
 20
556.270795
 30
0.0
  0
SPLINE
  5
111
100
AcDbEntity
  8
Layer_1
 62
7
100
AcDbSpline
 70
8
 71
3
 72
8
 73
4
 74
0
 40
0
 40
0
 40
0
 40
0
 40
1
 40
1
 40
1
 40
1
 10
224.315819
 20
556.270795
 30
0.0
 10
224.315819
 20
557.074642
 30
0.0
 10
224.744667
 20
557.817428
 30
0.0
 10
225.440819
 20
558.219352
 30
0.0
  0
SPLINE
  5
112
100
AcDbEntity
  8
Layer_1
 62
7
100
AcDbSpline
 70
8
 71
3
 72
8
 73
4
 74
0
 40
0
 40
0
 40
0
 40
0
 40
1
 40
1
 40
1
 40
1
 10
225.440819
 20
558.219352
 30
0.0
 10
226.136971
 20
558.621276
 30
0.0
 10
226.994667
 20
558.621276
 30
0.0
 10
227.690819
 20
558.219352
 30
0.0
  0
SPLINE
  5
113
100
AcDbEntity
  8
Layer_1
 62
7
100
AcDbSpline
 70
8
 71
3
 72
8
 73
4
 74
0
 40
0
 40
0
 40
0
 40
0
 40
1
 40
1
 40
1
 40
1
 10
227.690819
 20
558.219352
 30
0.0
 10
228.386971
 20
557.817428
 30
0.0
 10
228.815819
 20
557.074642
 30
0.0
 10
228.815819
 20
556.270795
 30
0.0
  0
LINE
  5
114
100
AcDbEntity
  8
Layer_1
 62
7
100
AcDbLine
 10
228.815819
 20
556.270795
 30
0.0
 11
228.815819
 21
556.270795
 31
0.0
  0
SPLINE
  5
115
100
AcDbEntity
  8
Layer_1
 62
7
100
AcDbSpline
 70
8
 71
3
 72
8
 73
4
 74
0
 40
0
 40
0
 40
0
 40
0
 40
1
 40
1
 40
1
 40
1
 10
280.565817
 20
556.270795
 30
0.0
 10
280.565817
 20
555.466947
 30
0.0
 10
280.136969
 20
554.724161
 30
0.0
 10
279.440817
 20
554.322238
 30
0.0
  0
SPLINE
  5
116
100
AcDbEntity
  8
Layer_1
 62
7
100
AcDbSpline
 70
8
 71
3
 72
8
 73
4
 74
0
 40
0
 40
0
 40
0
 40
0
 40
1
 40
1
 40
1
 40
1
 10
279.440817
 20
554.322238
 30
0.0
 10
278.744664
 20
553.920314
 30
0.0
 10
277.886969
 20
553.920314
 30
0.0
 10
277.190817
 20
554.322238
 30
0.0
  0
SPLINE
  5
117
100
AcDbEntity
  8
Layer_1
 62
7
100
AcDbSpline
 70
8
 71
3
 72
8
 73
4
 74
0
 40
0
 40
0
 40
0
 40
0
 40
1
 40
1
 40
1
 40
1
 10
277.190817
 20
554.322238
 30
0.0
 10
276.494664
 20
554.724161
 30
0.0
 10
276.065817
 20
555.466947
 30
0.0
 10
276.065817
 20
556.270795
 30
0.0
  0
SPLINE
  5
118
100
AcDbEntity
  8
Layer_1
 62
7
100
AcDbSpline
 70
8
 71
3
 72
8
 73
4
 74
0
 40
0
 40
0
 40
0
 40
0
 40
1
 40
1
 40
1
 40
1
 10
276.065817
 20
556.270795
 30
0.0
 10
276.065817
 20
557.074642
 30
0.0
 10
276.494664
 20
557.817428
 30
0.0
 10
277.190817
 20
558.219352
 30
0.0
  0
SPLINE
  5
119
100
AcDbEntity
  8
Layer_1
 62
7
100
AcDbSpline
 70
8
 71
3
 72
8
 73
4
 74
0
 40
0
 40
0
 40
0
 40
0
 40
1
 40
1
 40
1
 40
1
 10
277.190817
 20
558.219352
 30
0.0
 10
277.886969
 20
558.621276
 30
0.0
 10
278.744664
 20
558.621276
 30
0.0
 10
279.440817
 20
558.219352
 30
0.0
  0
SPLINE
  5
11a
100
AcDbEntity
  8
Layer_1
 62
7
100
AcDbSpline
 70
8
 71
3
 72
8
 73
4
 74
0
 40
0
 40
0
 40
0
 40
0
 40
1
 40
1
 40
1
 40
1
 10
279.440817
 20
558.219352
 30
0.0
 10
280.136969
 20
557.817428
 30
0.0
 10
280.565817
 20
557.074642
 30
0.0
 10
280.565817
 20
556.270795
 30
0.0
  0
LINE
  5
11b
100
AcDbEntity
  8
Layer_1
 62
7
100
AcDbLine
 10
280.565817
 20
556.270795
 30
0.0
 11
280.565817
 21
556.270795
 31
0.0
  0
LINE
  5
11c
100
AcDbEntity
  8
Layer_1
 62
7
100
AcDbLine
 10
227.440818
 20
538.895795
 30
0.0
 11
277.440819
 21
538.895795
 31
0.0
  0
LINE
  5
11d
100
AcDbEntity
  8
Layer_1
 62
7
100
AcDbLine
 10
277.440819
 20
538.895795
 30
0.0
 11
277.440819
 21
470.895796
 31
0.0
  0
LINE
  5
11e
100
AcDbEntity
  8
Layer_1
 62
7
100
AcDbLine
 10
277.440819
 20
470.895796
 30
0.0
 11
227.440818
 21
470.895796
 31
0.0
  0
LINE
  5
11f
100
AcDbEntity
  8
Layer_1
 62
7
100
AcDbLine
 10
227.440818
 20
470.895796
 30
0.0
 11
227.440818
 21
538.895795
 31
0.0
  0
LINE
  5
120
100
AcDbEntity
  8
Layer_1
 62
7
100
AcDbLine
 10
235.440818
 20
470.895796
 30
0.0
 11
269.440819
 21
470.895796
 31
0.0
  0
LINE
  5
121
100
AcDbEntity
  8
Layer_1
 62
7
100
AcDbLine
 10
269.440819
 20
470.895796
 30
0.0
 11
269.440819
 21
450.895796
 31
0.0
  0
LINE
  5
122
100
AcDbEntity
  8
Layer_1
 62
7
100
AcDbLine
 10
269.440819
 20
450.895796
 30
0.0
 11
235.440818
 21
450.895796
 31
0.0
  0
LINE
  5
123
100
AcDbEntity
  8
Layer_1
 62
7
100
AcDbLine
 10
235.440818
 20
450.895796
 30
0.0
 11
235.440818
 21
470.895796
 31
0.0
  0
LINE
  5
124
100
AcDbEntity
  8
Layer_1
 62
7
100
AcDbLine
 10
235.440818
 20
558.895784
 30
0.0
 11
269.440819
 21
558.895784
 31
0.0
  0
LINE
  5
125
100
AcDbEntity
  8
Layer_1
 62
7
100
AcDbLine
 10
269.440819
 20
558.895784
 30
0.0
 11
269.440819
 21
538.895784
 31
0.0
  0
LINE
  5
126
100
AcDbEntity
  8
Layer_1
 62
7
100
AcDbLine
 10
269.440819
 20
538.895784
 30
0.0
 11
235.440818
 21
538.895784
 31
0.0
  0
LINE
  5
127
100
AcDbEntity
  8
Layer_1
 62
7
100
AcDbLine
 10
235.440818
 20
538.895784
 30
0.0
 11
235.440818
 21
558.895784
 31
0.0
  0
LINE
  5
128
100
AcDbEntity
  8
Layer_1
 62
7
100
AcDbLine
 10
302.815829
 20
539.895796
 30
0.0
 11
410.815824
 21
539.895796
 31
0.0
  0
LINE
  5
129
100
AcDbEntity
  8
Layer_1
 62
7
100
AcDbLine
 10
410.815824
 20
539.895796
 30
0.0
 11
410.815824
 21
469.895796
 31
0.0
  0
LINE
  5
12a
100
AcDbEntity
  8
Layer_1
 62
7
100
AcDbLine
 10
410.815824
 20
469.895796
 30
0.0
 11
302.815829
 21
469.895796
 31
0.0
  0
LINE
  5
12b
100
AcDbEntity
  8
Layer_1
 62
7
100
AcDbLine
 10
302.815829
 20
469.895796
 30
0.0
 11
302.815829
 21
539.895796
 31
0.0
  0
LINE
  5
12c
100
AcDbEntity
  8
Layer_1
 62
7
100
AcDbLine
 10
318.815821
 20
517.895798
 30
0.0
 11
394.815817
 21
517.895798
 31
0.0
  0
LINE
  5
12d
100
AcDbEntity
  8
Layer_1
 62
7
100
AcDbLine
 10
394.815817
 20
517.895798
 30
0.0
 11
394.815817
 21
491.895798
 31
0.0
  0
LINE
  5
12e
100
AcDbEntity
  8
Layer_1
 62
7
100
AcDbLine
 10
394.815817
 20
491.895798
 30
0.0
 11
318.815821
 21
491.895798
 31
0.0
  0
LINE
  5
12f
100
AcDbEntity
  8
Layer_1
 62
7
100
AcDbLine
 10
318.815821
 20
491.895798
 30
0.0
 11
318.815821
 21
517.895798
 31
0.0
  0
LINE
  5
130
100
AcDbEntity
  8
Layer_1
 62
7
100
AcDbLine
 10
290.315822
 20
552.395795
 30
0.0
 11
423.315818
 21
552.395795
 31
0.0
  0
LINE
  5
131
100
AcDbEntity
  8
Layer_1
 62
7
100
AcDbLine
 10
423.315818
 20
552.395795
 30
0.0
 11
423.315818
 21
457.395797
 31
0.0
  0
LINE
  5
132
100
AcDbEntity
  8
Layer_1
 62
7
100
AcDbLine
 10
423.315818
 20
457.395797
 30
0.0
 11
290.315822
 21
457.395797
 31
0.0
  0
LINE
  5
133
100
AcDbEntity
  8
Layer_1
 62
7
100
AcDbLine
 10
290.315822
 20
457.395797
 30
0.0
 11
290.315822
 21
552.395795
 31
0.0
  0
SPLINE
  5
134
100
AcDbEntity
  8
Layer_1
 62
7
100
AcDbSpline
 70
8
 71
3
 72
8
 73
4
 74
0
 40
0
 40
0
 40
0
 40
0
 40
1
 40
1
 40
1
 40
1
 10
445.684190
 20
504.895802
 30
0.0
 10
445.684190
 20
502.082336
 30
0.0
 10
444.183224
 20
499.482586
 30
0.0
 10
441.746690
 20
498.075853
 30
0.0
  0
SPLINE
  5
135
100
AcDbEntity
  8
Layer_1
 62
7
100
AcDbSpline
 70
8
 71
3
 72
8
 73
4
 74
0
 40
0
 40
0
 40
0
 40
0
 40
1
 40
1
 40
1
 40
1
 10
441.746690
 20
498.075853
 30
0.0
 10
439.310157
 20
496.669119
 30
0.0
 10
436.308224
 20
496.669119
 30
0.0
 10
433.871690
 20
498.075853
 30
0.0
  0
SPLINE
  5
136
100
AcDbEntity
  8
Layer_1
 62
7
100
AcDbSpline
 70
8
 71
3
 72
8
 73
4
 74
0
 40
0
 40
0
 40
0
 40
0
 40
1
 40
1
 40
1
 40
1
 10
433.871690
 20
498.075853
 30
0.0
 10
431.435157
 20
499.482586
 30
0.0
 10
429.934190
 20
502.082336
 30
0.0
 10
429.934190
 20
504.895802
 30
0.0
  0
SPLINE
  5
137
100
AcDbEntity
  8
Layer_1
 62
7
100
AcDbSpline
 70
8
 71
3
 72
8
 73
4
 74
0
 40
0
 40
0
 40
0
 40
0
 40
1
 40
1
 40
1
 40
1
 10
429.934190
 20
504.895802
 30
0.0
 10
429.934190
 20
507.709269
 30
0.0
 10
431.435157
 20
510.309019
 30
0.0
 10
433.871690
 20
511.715752
 30
0.0
  0
SPLINE
  5
138
100
AcDbEntity
  8
Layer_1
 62
7
100
AcDbSpline
 70
8
 71
3
 72
8
 73
4
 74
0
 40
0
 40
0
 40
0
 40
0
 40
1
 40
1
 40
1
 40
1
 10
433.871690
 20
511.715752
 30
0.0
 10
436.308224
 20
513.122486
 30
0.0
 10
439.310157
 20
513.122486
 30
0.0
 10
441.746690
 20
511.715752
 30
0.0
  0
SPLINE
  5
139
100
AcDbEntity
  8
Layer_1
 62
7
100
AcDbSpline
 70
8
 71
3
 72
8
 73
4
 74
0
 40
0
 40
0
 40
0
 40
0
 40
1
 40
1
 40
1
 40
1
 10
441.746690
 20
511.715752
 30
0.0
 10
444.183224
 20
510.309019
 30
0.0
 10
445.684190
 20
507.709269
 30
0.0
 10
445.684190
 20
504.895802
 30
0.0
  0
LINE
  5
13a
100
AcDbEntity
  8
Layer_1
 62
7
100
AcDbLine
 10
445.684190
 20
504.895802
 30
0.0
 11
445.684190
 21
504.895802
 31
0.0
  0
SPLINE
  5
13b
100
AcDbEntity
  8
Layer_1
 62
7
100
AcDbSpline
 70
8
 71
3
 72
8
 73
4
 74
0
 40
0
 40
0
 40
0
 40
0
 40
1
 40
1
 40
1
 40
1
 10
372.965371
 20
440.368351
 30
0.0
 10
364.045738
 20
449.287191
 30
0.0
 10
349.584936
 20
449.287191
 30
0.0
 10
340.666890
 20
440.368351
 30
0.0
  0
SPLINE
  5
13c
100
AcDbEntity
  8
Layer_1
 62
7
100
AcDbSpline
 70
8
 71
3
 72
8
 73
4
 74
0
 40
0
 40
0
 40
0
 40
0
 40
1
 40
1
 40
1
 40
1
 10
340.666890
 20
440.368351
 30
0.0
 10
331.746992
 20
431.448718
 30
0.0
 10
331.746992
 20
416.988445
 30
0.0
 10
340.666890
 20
408.069341
 30
0.0
  0
SPLINE
  5
13d
100
AcDbEntity
  8
Layer_1
 62
7
100
AcDbSpline
 70
8
 71
3
 72
8
 73
4
 74
0
 40
0
 40
0
 40
0
 40
0
 40
1
 40
1
 40
1
 40
1
 10
340.666890
 20
408.069341
 30
0.0
 10
349.584936
 20
399.150237
 30
0.0
 10
364.046532
 20
399.150237
 30
0.0
 10
372.965371
 20
408.069341
 30
0.0
  0
SPLINE
  5
13e
100
AcDbEntity
  8
Layer_1
 62
7
100
AcDbSpline
 70
8
 71
3
 72
8
 73
4
 74
0
 40
0
 40
0
 40
0
 40
0
 40
1
 40
1
 40
1
 40
1
 10
372.965371
 20
408.069341
 30
0.0
 10
381.884476
 20
416.988445
 30
0.0
 10
381.884476
 20
431.448718
 30
0.0
 10
372.965371
 20
440.368351
 30
0.0
  0
LINE
  5
13f
100
AcDbEntity
  8
Layer_1
 62
7
100
AcDbLine
 10
372.965371
 20
440.368351
 30
0.0
 11
372.965371
 21
440.368351
 31
0.0
  0
LINE
  5
140
100
AcDbEntity
  8
Layer_1
 62
7
100
AcDbLine
 10
365.694092
 20
416.468274
 30
0.0
 11
360.484446
 21
421.677126
 31
0.0
  0
LINE
  5
141
100
AcDbEntity
  8
Layer_1
 62
7
100
AcDbLine
 10
360.484446
 20
421.677126
 30
0.0
 11
362.123011
 21
423.315691
 31
0.0
  0
LINE
  5
142
100
AcDbEntity
  8
Layer_1
 62
7
100
AcDbLine
 10
362.123011
 20
423.315691
 30
0.0
 11
361.256501
 21
424.181937
 31
0.0
  0
LINE
  5
143
100
AcDbEntity
  8
Layer_1
 62
7
100
AcDbLine
 10
361.256501
 20
424.181937
 30
0.0
 11
356.852511
 21
419.777683
 31
0.0
  0
LINE
  5
144
100
AcDbEntity
  8
Layer_1
 62
7
100
AcDbLine
 10
356.852511
 20
419.777683
 30
0.0
 11
357.717963
 21
418.910643
 31
0.0
  0
LINE
  5
145
100
AcDbEntity
  8
Layer_1
 62
7
100
AcDbLine
 10
357.717963
 20
418.910643
 30
0.0
 11
359.413942
 21
420.607416
 31
0.0
  0
LINE
  5
146
100
AcDbEntity
  8
Layer_1
 62
7
100
AcDbLine
 10
359.413942
 20
420.607416
 30
0.0
 11
364.624911
 21
415.398299
 31
0.0
  0
LINE
  5
147
100
AcDbEntity
  8
Layer_1
 62
7
100
AcDbLine
 10
364.624911
 20
415.398299
 30
0.0
 11
356.815999
 21
407.589387
 31
0.0
  0
LINE
  5
148
100
AcDbEntity
  8
Layer_1
 62
7
100
AcDbLine
 10
356.815999
 20
407.589387
 30
0.0
 11
351.605824
 21
412.798768
 31
0.0
  0
LINE
  5
149
100
AcDbEntity
  8
Layer_1
 62
7
100
AcDbLine
 10
351.605824
 20
412.798768
 30
0.0
 11
352.494559
 21
413.686710
 31
0.0
  0
LINE
  5
14a
100
AcDbEntity
  8
Layer_1
 62
7
100
AcDbLine
 10
352.494559
 20
413.686710
 30
0.0
 11
346.284524
 21
419.897539
 31
0.0
  0
LINE
  5
14b
100
AcDbEntity
  8
Layer_1
 62
7
100
AcDbLine
 10
346.284524
 20
419.897539
 30
0.0
 11
345.394730
 21
419.008539
 31
0.0
  0
LINE
  5
14c
100
AcDbEntity
  8
Layer_1
 62
7
100
AcDbLine
 10
345.394730
 20
419.008539
 30
0.0
 11
340.185878
 21
424.218185
 31
0.0
  0
LINE
  5
14d
100
AcDbEntity
  8
Layer_1
 62
7
100
AcDbLine
 10
340.185878
 20
424.218185
 30
0.0
 11
347.995055
 21
432.027362
 31
0.0
  0
LINE
  5
14e
100
AcDbEntity
  8
Layer_1
 62
7
100
AcDbLine
 10
347.995055
 20
432.027362
 30
0.0
 11
353.204171
 21
426.818245
 31
0.0
  0
LINE
  5
14f
100
AcDbEntity
  8
Layer_1
 62
7
100
AcDbLine
 10
353.204171
 20
426.818245
 30
0.0
 11
351.507134
 21
425.121737
 31
0.0
  0
LINE
  5
150
100
AcDbEntity
  8
Layer_1
 62
7
100
AcDbLine
 10
351.507134
 20
425.121737
 30
0.0
 11
352.573669
 21
424.055466
 31
0.0
  0
LINE
  5
151
100
AcDbEntity
  8
Layer_1
 62
7
100
AcDbLine
 10
352.573669
 20
424.055466
 30
0.0
 11
356.978982
 21
428.459985
 31
0.0
  0
LINE
  5
152
100
AcDbEntity
  8
Layer_1
 62
7
100
AcDbLine
 10
356.978982
 20
428.459985
 30
0.0
 11
355.912976
 21
429.526255
 31
0.0
  0
LINE
  5
153
100
AcDbEntity
  8
Layer_1
 62
7
100
AcDbLine
 10
355.912976
 20
429.526255
 30
0.0
 11
354.273353
 21
427.886897
 31
0.0
  0
LINE
  5
154
100
AcDbEntity
  8
Layer_1
 62
7
100
AcDbLine
 10
354.273353
 20
427.886897
 30
0.0
 11
349.063971
 21
433.096543
 31
0.0
  0
LINE
  5
155
100
AcDbEntity
  8
Layer_1
 62
7
100
AcDbLine
 10
349.063971
 20
433.096543
 30
0.0
 11
356.816263
 21
440.847512
 31
0.0
  0
LINE
  5
156
100
AcDbEntity
  8
Layer_1
 62
7
100
AcDbLine
 10
356.816263
 20
440.847512
 30
0.0
 11
362.024586
 21
435.638395
 31
0.0
  0
LINE
  5
157
100
AcDbEntity
  8
Layer_1
 62
7
100
AcDbLine
 10
362.024586
 20
435.638395
 30
0.0
 11
361.136909
 21
434.749395
 31
0.0
  0
LINE
  5
158
100
AcDbEntity
  8
Layer_1
 62
7
100
AcDbLine
 10
361.136909
 20
434.749395
 30
0.0
 11
367.346680
 21
428.539095
 31
0.0
  0
LINE
  5
159
100
AcDbEntity
  8
Layer_1
 62
7
100
AcDbLine
 10
367.346680
 20
428.539095
 30
0.0
 11
368.235944
 21
429.428095
 31
0.0
  0
LINE
  5
15a
100
AcDbEntity
  8
Layer_1
 62
7
100
AcDbLine
 10
368.235944
 20
429.428095
 30
0.0
 11
373.445061
 21
424.218185
 31
0.0
  0
LINE
  5
15b
100
AcDbEntity
  8
Layer_1
 62
7
100
AcDbLine
 10
373.445061
 20
424.218185
 30
0.0
 11
365.694092
 21
416.468274
 31
0.0
  0
LINE
  5
15c
100
AcDbEntity
  8
Layer_1
 62
7
100
AcDbLine
 10
51.562503
 20
430.437491
 30
0.0
 11
94.562501
 21
430.437491
 31
0.0
  0
LINE
  5
15d
100
AcDbEntity
  8
Layer_1
 62
7
100
AcDbLine
 10
94.562501
 20
430.437491
 30
0.0
 11
94.562501
 21
398.437489
 31
0.0
  0
LINE
  5
15e
100
AcDbEntity
  8
Layer_1
 62
7
100
AcDbLine
 10
94.562501
 20
398.437489
 30
0.0
 11
51.562503
 21
398.437489
 31
0.0
  0
LINE
  5
15f
100
AcDbEntity
  8
Layer_1
 62
7
100
AcDbLine
 10
51.562503
 20
398.437489
 30
0.0
 11
51.562503
 21
430.437491
 31
0.0
  0
LINE
  5
160
100
AcDbEntity
  8
newlayer
 62
7
100
AcDbLine
 10
210.000000
 20
367.437458
 30
0.0
 11
224.155000
 21
367.437458
 31
0.0
  0
LINE
  5
161
100
AcDbEntity
  8
newlayer
 62
7
100
AcDbLine
 10
224.155000
 20
367.437458
 30
0.0
 11
224.155000
 21
373.437458
 31
0.0
  0
LINE
  5
162
100
AcDbEntity
  8
newlayer
 62
7
100
AcDbLine
 10
224.155000
 20
373.437458
 30
0.0
 11
236.245000
 21
373.437458
 31
0.0
  0
LINE
  5
163
100
AcDbEntity
  8
newlayer
 62
7
100
AcDbLine
 10
236.245000
 20
373.437458
 30
0.0
 11
236.245000
 21
367.437458
 31
0.0
  0
LINE
  5
164
100
AcDbEntity
  8
newlayer
 62
7
100
AcDbLine
 10
236.245000
 20
367.437458
 30
0.0
 11
250.355000
 21
367.437458
 31
0.0
  0
LINE
  5
165
100
AcDbEntity
  8
newlayer
 62
7
100
AcDbLine
 10
250.355000
 20
367.437458
 30
0.0
 11
250.355000
 21
373.437458
 31
0.0
  0
LINE
  5
166
100
AcDbEntity
  8
newlayer
 62
7
100
AcDbLine
 10
250.355000
 20
373.437458
 30
0.0
 11
262.445000
 21
373.437458
 31
0.0
  0
LINE
  5
167
100
AcDbEntity
  8
newlayer
 62
7
100
AcDbLine
 10
262.445000
 20
373.437458
 30
0.0
 11
262.445000
 21
367.437458
 31
0.0
  0
LINE
  5
168
100
AcDbEntity
  8
newlayer
 62
7
100
AcDbLine
 10
262.445000
 20
367.437458
 30
0.0
 11
276.555000
 21
367.437458
 31
0.0
  0
LINE
  5
169
100
AcDbEntity
  8
newlayer
 62
7
100
AcDbLine
 10
276.555000
 20
367.437458
 30
0.0
 11
276.555000
 21
373.437458
 31
0.0
  0
LINE
  5
16a
100
AcDbEntity
  8
newlayer
 62
7
100
AcDbLine
 10
276.555000
 20
373.437458
 30
0.0
 11
288.645000
 21
373.437458
 31
0.0
  0
LINE
  5
16b
100
AcDbEntity
  8
newlayer
 62
7
100
AcDbLine
 10
288.645000
 20
373.437458
 30
0.0
 11
288.645000
 21
367.437458
 31
0.0
  0
LINE
  5
16c
100
AcDbEntity
  8
newlayer
 62
7
100
AcDbLine
 10
288.645000
 20
367.437458
 30
0.0
 11
302.755000
 21
367.437458
 31
0.0
  0
LINE
  5
16d
100
AcDbEntity
  8
newlayer
 62
7
100
AcDbLine
 10
302.755000
 20
367.437458
 30
0.0
 11
302.755000
 21
373.437458
 31
0.0
  0
LINE
  5
16e
100
AcDbEntity
  8
newlayer
 62
7
100
AcDbLine
 10
302.755000
 20
373.437458
 30
0.0
 11
314.845000
 21
373.437458
 31
0.0
  0
LINE
  5
16f
100
AcDbEntity
  8
newlayer
 62
7
100
AcDbLine
 10
314.845000
 20
373.437458
 30
0.0
 11
314.845000
 21
367.437458
 31
0.0
  0
LINE
  5
170
100
AcDbEntity
  8
newlayer
 62
7
100
AcDbLine
 10
314.845000
 20
367.437458
 30
0.0
 11
328.955000
 21
367.437458
 31
0.0
  0
LINE
  5
171
100
AcDbEntity
  8
newlayer
 62
7
100
AcDbLine
 10
328.955000
 20
367.437458
 30
0.0
 11
328.955000
 21
373.437458
 31
0.0
  0
LINE
  5
172
100
AcDbEntity
  8
newlayer
 62
7
100
AcDbLine
 10
328.955000
 20
373.437458
 30
0.0
 11
341.045000
 21
373.437458
 31
0.0
  0
LINE
  5
173
100
AcDbEntity
  8
newlayer
 62
7
100
AcDbLine
 10
341.045000
 20
373.437458
 30
0.0
 11
341.045000
 21
367.437458
 31
0.0
  0
LINE
  5
174
100
AcDbEntity
  8
newlayer
 62
7
100
AcDbLine
 10
341.045000
 20
367.437458
 30
0.0
 11
355.155000
 21
367.437458
 31
0.0
  0
LINE
  5
175
100
AcDbEntity
  8
newlayer
 62
7
100
AcDbLine
 10
355.155000
 20
367.437458
 30
0.0
 11
355.155000
 21
373.437458
 31
0.0
  0
LINE
  5
176
100
AcDbEntity
  8
newlayer
 62
7
100
AcDbLine
 10
355.155000
 20
373.437458
 30
0.0
 11
367.245000
 21
373.437458
 31
0.0
  0
LINE
  5
177
100
AcDbEntity
  8
newlayer
 62
7
100
AcDbLine
 10
367.245000
 20
373.437458
 30
0.0
 11
367.245000
 21
367.437458
 31
0.0
  0
LINE
  5
178
100
AcDbEntity
  8
newlayer
 62
7
100
AcDbLine
 10
367.245000
 20
367.437458
 30
0.0
 11
381.355000
 21
367.437458
 31
0.0
  0
LINE
  5
179
100
AcDbEntity
  8
newlayer
 62
7
100
AcDbLine
 10
381.355000
 20
367.437458
 30
0.0
 11
381.355000
 21
373.437458
 31
0.0
  0
LINE
  5
17a
100
AcDbEntity
  8
newlayer
 62
7
100
AcDbLine
 10
381.355000
 20
373.437458
 30
0.0
 11
393.445000
 21
373.437458
 31
0.0
  0
LINE
  5
17b
100
AcDbEntity
  8
newlayer
 62
7
100
AcDbLine
 10
393.445000
 20
373.437458
 30
0.0
 11
393.445000
 21
367.437458
 31
0.0
  0
LINE
  5
17c
100
AcDbEntity
  8
newlayer
 62
7
100
AcDbLine
 10
393.445000
 20
367.437458
 30
0.0
 11
407.555000
 21
367.437458
 31
0.0
  0
LINE
  5
17d
100
AcDbEntity
  8
newlayer
 62
7
100
AcDbLine
 10
407.555000
 20
367.437458
 30
0.0
 11
407.555000
 21
373.437458
 31
0.0
  0
LINE
  5
17e
100
AcDbEntity
  8
newlayer
 62
7
100
AcDbLine
 10
407.555000
 20
373.437458
 30
0.0
 11
419.645000
 21
373.437458
 31
0.0
  0
LINE
  5
17f
100
AcDbEntity
  8
newlayer
 62
7
100
AcDbLine
 10
419.645000
 20
373.437458
 30
0.0
 11
419.645000
 21
367.437458
 31
0.0
  0
LINE
  5
180
100
AcDbEntity
  8
newlayer
 62
7
100
AcDbLine
 10
419.645000
 20
367.437458
 30
0.0
 11
433.755000
 21
367.437458
 31
0.0
  0
LINE
  5
181
100
AcDbEntity
  8
newlayer
 62
7
100
AcDbLine
 10
433.755000
 20
367.437458
 30
0.0
 11
433.755000
 21
373.437458
 31
0.0
  0
LINE
  5
182
100
AcDbEntity
  8
newlayer
 62
7
100
AcDbLine
 10
433.755000
 20
373.437458
 30
0.0
 11
445.845000
 21
373.437458
 31
0.0
  0
LINE
  5
183
100
AcDbEntity
  8
newlayer
 62
7
100
AcDbLine
 10
445.845000
 20
373.437458
 30
0.0
 11
445.845000
 21
367.437458
 31
0.0
  0
LINE
  5
184
100
AcDbEntity
  8
newlayer
 62
7
100
AcDbLine
 10
445.845000
 20
367.437458
 30
0.0
 11
460.000000
 21
367.437458
 31
0.0
  0
LINE
  5
185
100
AcDbEntity
  8
newlayer
 62
7
100
AcDbLine
 10
460.000006
 20
367.437458
 30
0.0
 11
460.000006
 21
358.892449
 31
0.0
  0
LINE
  5
186
100
AcDbEntity
  8
newlayer
 62
7
100
AcDbLine
 10
460.000006
 20
358.892449
 30
0.0
 11
453.999997
 21
358.892449
 31
0.0
  0
LINE
  5
187
100
AcDbEntity
  8
newlayer
 62
7
100
AcDbLine
 10
453.999997
 20
358.892449
 30
0.0
 11
453.999997
 21
346.982468
 31
0.0
  0
LINE
  5
188
100
AcDbEntity
  8
newlayer
 62
7
100
AcDbLine
 10
453.999997
 20
346.982468
 30
0.0
 11
460.000006
 21
346.982468
 31
0.0
  0
LINE
  5
189
100
AcDbEntity
  8
newlayer
 62
7
100
AcDbLine
 10
460.000006
 20
346.982468
 30
0.0
 11
460.000006
 21
332.392470
 31
0.0
  0
LINE
  5
18a
100
AcDbEntity
  8
newlayer
 62
7
100
AcDbLine
 10
460.000006
 20
332.392470
 30
0.0
 11
453.999997
 21
332.392470
 31
0.0
  0
LINE
  5
18b
100
AcDbEntity
  8
newlayer
 62
7
100
AcDbLine
 10
453.999997
 20
332.392470
 30
0.0
 11
453.999997
 21
320.482463
 31
0.0
  0
LINE
  5
18c
100
AcDbEntity
  8
newlayer
 62
7
100
AcDbLine
 10
453.999997
 20
320.482463
 30
0.0
 11
460.000006
 21
320.482463
 31
0.0
  0
LINE
  5
18d
100
AcDbEntity
  8
newlayer
 62
7
100
AcDbLine
 10
460.000006
 20
320.482463
 30
0.0
 11
460.000006
 21
305.892465
 31
0.0
  0
LINE
  5
18e
100
AcDbEntity
  8
newlayer
 62
7
100
AcDbLine
 10
460.000006
 20
305.892465
 30
0.0
 11
453.999997
 21
305.892465
 31
0.0
  0
LINE
  5
18f
100
AcDbEntity
  8
newlayer
 62
7
100
AcDbLine
 10
453.999997
 20
305.892465
 30
0.0
 11
453.999997
 21
293.982457
 31
0.0
  0
LINE
  5
190
100
AcDbEntity
  8
newlayer
 62
7
100
AcDbLine
 10
453.999997
 20
293.982457
 30
0.0
 11
460.000006
 21
293.982457
 31
0.0
  0
LINE
  5
191
100
AcDbEntity
  8
newlayer
 62
7
100
AcDbLine
 10
460.000006
 20
293.982457
 30
0.0
 11
460.000006
 21
279.392459
 31
0.0
  0
LINE
  5
192
100
AcDbEntity
  8
newlayer
 62
7
100
AcDbLine
 10
460.000006
 20
279.392459
 30
0.0
 11
453.999997
 21
279.392459
 31
0.0
  0
LINE
  5
193
100
AcDbEntity
  8
newlayer
 62
7
100
AcDbLine
 10
453.999997
 20
279.392459
 30
0.0
 11
453.999997
 21
267.482452
 31
0.0
  0
LINE
  5
194
100
AcDbEntity
  8
newlayer
 62
7
100
AcDbLine
 10
453.999997
 20
267.482452
 30
0.0
 11
460.000006
 21
267.482452
 31
0.0
  0
LINE
  5
195
100
AcDbEntity
  8
newlayer
 62
7
100
AcDbLine
 10
460.000006
 20
267.482452
 30
0.0
 11
460.000006
 21
252.892454
 31
0.0
  0
LINE
  5
196
100
AcDbEntity
  8
newlayer
 62
7
100
AcDbLine
 10
460.000006
 20
252.892454
 30
0.0
 11
453.999997
 21
252.892454
 31
0.0
  0
LINE
  5
197
100
AcDbEntity
  8
newlayer
 62
7
100
AcDbLine
 10
453.999997
 20
252.892454
 30
0.0
 11
453.999997
 21
240.982447
 31
0.0
  0
LINE
  5
198
100
AcDbEntity
  8
newlayer
 62
7
100
AcDbLine
 10
453.999997
 20
240.982447
 30
0.0
 11
460.000006
 21
240.982447
 31
0.0
  0
LINE
  5
199
100
AcDbEntity
  8
newlayer
 62
7
100
AcDbLine
 10
460.000006
 20
240.982447
 30
0.0
 11
460.000006
 21
226.392449
 31
0.0
  0
LINE
  5
19a
100
AcDbEntity
  8
newlayer
 62
7
100
AcDbLine
 10
460.000006
 20
226.392449
 30
0.0
 11
453.999997
 21
226.392449
 31
0.0
  0
LINE
  5
19b
100
AcDbEntity
  8
newlayer
 62
7
100
AcDbLine
 10
453.999997
 20
226.392449
 30
0.0
 11
453.999997
 21
214.482468
 31
0.0
  0
LINE
  5
19c
100
AcDbEntity
  8
newlayer
 62
7
100
AcDbLine
 10
453.999997
 20
214.482468
 30
0.0
 11
460.000006
 21
214.482468
 31
0.0
  0
LINE
  5
19d
100
AcDbEntity
  8
newlayer
 62
7
100
AcDbLine
 10
460.000006
 20
214.482468
 30
0.0
 11
460.000006
 21
199.892470
 31
0.0
  0
LINE
  5
19e
100
AcDbEntity
  8
newlayer
 62
7
100
AcDbLine
 10
460.000006
 20
199.892470
 30
0.0
 11
453.999997
 21
199.892470
 31
0.0
  0
LINE
  5
19f
100
AcDbEntity
  8
newlayer
 62
7
100
AcDbLine
 10
453.999997
 20
199.892470
 30
0.0
 11
453.999997
 21
173.436994
 31
0.0
  0
LINE
  5
1a0
100
AcDbEntity
  8
newlayer
 62
7
100
AcDbLine
 10
453.999997
 20
173.436994
 30
0.0
 11
215.999999
 21
173.436994
 31
0.0
  0
LINE
  5
1a1
100
AcDbEntity
  8
newlayer
 62
7
100
AcDbLine
 10
215.999999
 20
173.436994
 30
0.0
 11
215.999999
 21
199.892470
 31
0.0
  0
LINE
  5
1a2
100
AcDbEntity
  8
newlayer
 62
7
100
AcDbLine
 10
215.999999
 20
199.892470
 30
0.0
 11
210.000001
 21
199.892470
 31
0.0
  0
LINE
  5
1a3
100
AcDbEntity
  8
newlayer
 62
7
100
AcDbLine
 10
210.000001
 20
199.892470
 30
0.0
 11
210.000001
 21
214.482468
 31
0.0
  0
LINE
  5
1a4
100
AcDbEntity
  8
newlayer
 62
7
100
AcDbLine
 10
210.000001
 20
214.482468
 30
0.0
 11
215.999999
 21
214.482468
 31
0.0
  0
LINE
  5
1a5
100
AcDbEntity
  8
newlayer
 62
7
100
AcDbLine
 10
215.999999
 20
214.482468
 30
0.0
 11
215.999999
 21
226.392449
 31
0.0
  0
LINE
  5
1a6
100
AcDbEntity
  8
newlayer
 62
7
100
AcDbLine
 10
215.999999
 20
226.392449
 30
0.0
 11
210.000001
 21
226.392449
 31
0.0
  0
LINE
  5
1a7
100
AcDbEntity
  8
newlayer
 62
7
100
AcDbLine
 10
210.000001
 20
226.392449
 30
0.0
 11
210.000001
 21
240.982447
 31
0.0
  0
LINE
  5
1a8
100
AcDbEntity
  8
newlayer
 62
7
100
AcDbLine
 10
210.000001
 20
240.982447
 30
0.0
 11
215.999999
 21
240.982447
 31
0.0
  0
LINE
  5
1a9
100
AcDbEntity
  8
newlayer
 62
7
100
AcDbLine
 10
215.999999
 20
240.982447
 30
0.0
 11
215.999999
 21
252.892454
 31
0.0
  0
LINE
  5
1aa
100
AcDbEntity
  8
newlayer
 62
7
100
AcDbLine
 10
215.999999
 20
252.892454
 30
0.0
 11
210.000001
 21
252.892454
 31
0.0
  0
LINE
  5
1ab
100
AcDbEntity
  8
newlayer
 62
7
100
AcDbLine
 10
210.000001
 20
252.892454
 30
0.0
 11
210.000001
 21
267.482452
 31
0.0
  0
LINE
  5
1ac
100
AcDbEntity
  8
newlayer
 62
7
100
AcDbLine
 10
210.000001
 20
267.482452
 30
0.0
 11
215.999999
 21
267.482452
 31
0.0
  0
LINE
  5
1ad
100
AcDbEntity
  8
newlayer
 62
7
100
AcDbLine
 10
215.999999
 20
267.482452
 30
0.0
 11
215.999999
 21
279.392459
 31
0.0
  0
LINE
  5
1ae
100
AcDbEntity
  8
newlayer
 62
7
100
AcDbLine
 10
215.999999
 20
279.392459
 30
0.0
 11
210.000001
 21
279.392459
 31
0.0
  0
LINE
  5
1af
100
AcDbEntity
  8
newlayer
 62
7
100
AcDbLine
 10
210.000001
 20
279.392459
 30
0.0
 11
210.000001
 21
293.982457
 31
0.0
  0
LINE
  5
1b0
100
AcDbEntity
  8
newlayer
 62
7
100
AcDbLine
 10
210.000001
 20
293.982457
 30
0.0
 11
215.999999
 21
293.982457
 31
0.0
  0
LINE
  5
1b1
100
AcDbEntity
  8
newlayer
 62
7
100
AcDbLine
 10
215.999999
 20
293.982457
 30
0.0
 11
215.999999
 21
305.892465
 31
0.0
  0
LINE
  5
1b2
100
AcDbEntity
  8
newlayer
 62
7
100
AcDbLine
 10
215.999999
 20
305.892465
 30
0.0
 11
210.000001
 21
305.892465
 31
0.0
  0
LINE
  5
1b3
100
AcDbEntity
  8
newlayer
 62
7
100
AcDbLine
 10
210.000001
 20
305.892465
 30
0.0
 11
210.000001
 21
320.482463
 31
0.0
  0
LINE
  5
1b4
100
AcDbEntity
  8
newlayer
 62
7
100
AcDbLine
 10
210.000001
 20
320.482463
 30
0.0
 11
215.999999
 21
320.482463
 31
0.0
  0
LINE
  5
1b5
100
AcDbEntity
  8
newlayer
 62
7
100
AcDbLine
 10
215.999999
 20
320.482463
 30
0.0
 11
215.999999
 21
332.392470
 31
0.0
  0
LINE
  5
1b6
100
AcDbEntity
  8
newlayer
 62
7
100
AcDbLine
 10
215.999999
 20
332.392470
 30
0.0
 11
210.000001
 21
332.392470
 31
0.0
  0
LINE
  5
1b7
100
AcDbEntity
  8
newlayer
 62
7
100
AcDbLine
 10
210.000001
 20
332.392470
 30
0.0
 11
210.000001
 21
346.982468
 31
0.0
  0
LINE
  5
1b8
100
AcDbEntity
  8
newlayer
 62
7
100
AcDbLine
 10
210.000001
 20
346.982468
 30
0.0
 11
215.999999
 21
346.982468
 31
0.0
  0
LINE
  5
1b9
100
AcDbEntity
  8
newlayer
 62
7
100
AcDbLine
 10
215.999999
 20
346.982468
 30
0.0
 11
215.999999
 21
358.892449
 31
0.0
  0
LINE
  5
1ba
100
AcDbEntity
  8
newlayer
 62
7
100
AcDbLine
 10
215.999999
 20
358.892449
 30
0.0
 11
210.000001
 21
358.892449
 31
0.0
  0
LINE
  5
1bb
100
AcDbEntity
  8
newlayer
 62
7
100
AcDbLine
 10
210.000001
 20
358.892449
 30
0.0
 11
210.000001
 21
367.437458
 31
0.0
  0
LINE
  5
1bc
100
AcDbEntity
  8
newlayer
 62
7
100
AcDbLine
 10
199.000000
 20
572.437458
 30
0.0
 11
199.000000
 21
563.982458
 31
0.0
  0
LINE
  5
1bd
100
AcDbEntity
  8
newlayer
 62
7
100
AcDbLine
 10
199.000000
 20
563.982458
 30
0.0
 11
205.000000
 21
563.982458
 31
0.0
  0
LINE
  5
1be
100
AcDbEntity
  8
newlayer
 62
7
100
AcDbLine
 10
205.000000
 20
563.982458
 30
0.0
 11
205.000000
 21
551.892458
 31
0.0
  0
LINE
  5
1bf
100
AcDbEntity
  8
newlayer
 62
7
100
AcDbLine
 10
205.000000
 20
551.892458
 30
0.0
 11
199.000000
 21
551.892458
 31
0.0
  0
LINE
  5
1c0
100
AcDbEntity
  8
newlayer
 62
7
100
AcDbLine
 10
199.000000
 20
551.892458
 30
0.0
 11
199.000000
 21
537.482458
 31
0.0
  0
LINE
  5
1c1
100
AcDbEntity
  8
newlayer
 62
7
100
AcDbLine
 10
199.000000
 20
537.482458
 30
0.0
 11
205.000000
 21
537.482458
 31
0.0
  0
LINE
  5
1c2
100
AcDbEntity
  8
newlayer
 62
7
100
AcDbLine
 10
205.000000
 20
537.482458
 30
0.0
 11
205.000000
 21
525.392458
 31
0.0
  0
LINE
  5
1c3
100
AcDbEntity
  8
newlayer
 62
7
100
AcDbLine
 10
205.000000
 20
525.392458
 30
0.0
 11
199.000000
 21
525.392458
 31
0.0
  0
LINE
  5
1c4
100
AcDbEntity
  8
newlayer
 62
7
100
AcDbLine
 10
199.000000
 20
525.392458
 30
0.0
 11
199.000000
 21
510.982458
 31
0.0
  0
LINE
  5
1c5
100
AcDbEntity
  8
newlayer
 62
7
100
AcDbLine
 10
199.000000
 20
510.982458
 30
0.0
 11
205.000000
 21
510.982458
 31
0.0
  0
LINE
  5
1c6
100
AcDbEntity
  8
newlayer
 62
7
100
AcDbLine
 10
205.000000
 20
510.982458
 30
0.0
 11
205.000000
 21
498.892458
 31
0.0
  0
LINE
  5
1c7
100
AcDbEntity
  8
newlayer
 62
7
100
AcDbLine
 10
205.000000
 20
498.892458
 30
0.0
 11
199.000000
 21
498.892458
 31
0.0
  0
LINE
  5
1c8
100
AcDbEntity
  8
newlayer
 62
7
100
AcDbLine
 10
199.000000
 20
498.892458
 30
0.0
 11
199.000000
 21
484.482458
 31
0.0
  0
LINE
  5
1c9
100
AcDbEntity
  8
newlayer
 62
7
100
AcDbLine
 10
199.000000
 20
484.482458
 30
0.0
 11
205.000000
 21
484.482458
 31
0.0
  0
LINE
  5
1ca
100
AcDbEntity
  8
newlayer
 62
7
100
AcDbLine
 10
205.000000
 20
484.482458
 30
0.0
 11
205.000000
 21
472.392458
 31
0.0
  0
LINE
  5
1cb
100
AcDbEntity
  8
newlayer
 62
7
100
AcDbLine
 10
205.000000
 20
472.392458
 30
0.0
 11
199.000000
 21
472.392458
 31
0.0
  0
LINE
  5
1cc
100
AcDbEntity
  8
newlayer
 62
7
100
AcDbLine
 10
199.000000
 20
472.392458
 30
0.0
 11
199.000000
 21
457.982458
 31
0.0
  0
LINE
  5
1cd
100
AcDbEntity
  8
newlayer
 62
7
100
AcDbLine
 10
199.000000
 20
457.982458
 30
0.0
 11
205.000000
 21
457.982458
 31
0.0
  0
LINE
  5
1ce
100
AcDbEntity
  8
newlayer
 62
7
100
AcDbLine
 10
205.000000
 20
457.982458
 30
0.0
 11
205.000000
 21
445.892458
 31
0.0
  0
LINE
  5
1cf
100
AcDbEntity
  8
newlayer
 62
7
100
AcDbLine
 10
205.000000
 20
445.892458
 30
0.0
 11
199.000000
 21
445.892458
 31
0.0
  0
LINE
  5
1d0
100
AcDbEntity
  8
newlayer
 62
7
100
AcDbLine
 10
199.000000
 20
445.892458
 30
0.0
 11
199.000000
 21
431.482458
 31
0.0
  0
LINE
  5
1d1
100
AcDbEntity
  8
newlayer
 62
7
100
AcDbLine
 10
199.000000
 20
431.482458
 30
0.0
 11
205.000000
 21
431.482458
 31
0.0
  0
LINE
  5
1d2
100
AcDbEntity
  8
newlayer
 62
7
100
AcDbLine
 10
205.000000
 20
431.482458
 30
0.0
 11
205.000000
 21
419.392458
 31
0.0
  0
LINE
  5
1d3
100
AcDbEntity
  8
newlayer
 62
7
100
AcDbLine
 10
205.000000
 20
419.392458
 30
0.0
 11
199.000000
 21
419.392458
 31
0.0
  0
LINE
  5
1d4
100
AcDbEntity
  8
newlayer
 62
7
100
AcDbLine
 10
199.000000
 20
419.392458
 30
0.0
 11
199.000000
 21
404.982458
 31
0.0
  0
LINE
  5
1d5
100
AcDbEntity
  8
newlayer
 62
7
100
AcDbLine
 10
199.000000
 20
404.982458
 30
0.0
 11
205.000000
 21
404.982458
 31
0.0
  0
LINE
  5
1d6
100
AcDbEntity
  8
newlayer
 62
7
100
AcDbLine
 10
205.000000
 20
404.982458
 30
0.0
 11
205.000000
 21
392.892458
 31
0.0
  0
LINE
  5
1d7
100
AcDbEntity
  8
newlayer
 62
7
100
AcDbLine
 10
205.000000
 20
392.892458
 30
0.0
 11
199.000000
 21
392.892458
 31
0.0
  0
LINE
  5
1d8
100
AcDbEntity
  8
newlayer
 62
7
100
AcDbLine
 10
199.000000
 20
392.892458
 30
0.0
 11
199.000000
 21
384.437458
 31
0.0
  0
LINE
  5
1d9
100
AcDbEntity
  8
newlayer
 62
7
100
AcDbLine
 10
198.999999
 20
384.437467
 30
0.0
 11
190.545000
 21
384.437467
 31
0.0
  0
LINE
  5
1da
100
AcDbEntity
  8
newlayer
 62
7
100
AcDbLine
 10
190.545000
 20
384.437467
 30
0.0
 11
190.545000
 21
378.437457
 31
0.0
  0
LINE
  5
1db
100
AcDbEntity
  8
newlayer
 62
7
100
AcDbLine
 10
190.545000
 20
378.437457
 30
0.0
 11
178.455000
 21
378.437457
 31
0.0
  0
LINE
  5
1dc
100
AcDbEntity
  8
newlayer
 62
7
100
AcDbLine
 10
178.455000
 20
378.437457
 30
0.0
 11
178.455000
 21
384.437467
 31
0.0
  0
LINE
  5
1dd
100
AcDbEntity
  8
newlayer
 62
7
100
AcDbLine
 10
178.455000
 20
384.437467
 30
0.0
 11
164.045000
 21
384.437467
 31
0.0
  0
LINE
  5
1de
100
AcDbEntity
  8
newlayer
 62
7
100
AcDbLine
 10
164.045000
 20
384.437467
 30
0.0
 11
164.045000
 21
378.437457
 31
0.0
  0
LINE
  5
1df
100
AcDbEntity
  8
newlayer
 62
7
100
AcDbLine
 10
164.045000
 20
378.437457
 30
0.0
 11
151.955000
 21
378.437457
 31
0.0
  0
LINE
  5
1e0
100
AcDbEntity
  8
newlayer
 62
7
100
AcDbLine
 10
151.955000
 20
378.437457
 30
0.0
 11
151.955000
 21
384.437467
 31
0.0
  0
LINE
  5
1e1
100
AcDbEntity
  8
newlayer
 62
7
100
AcDbLine
 10
151.955000
 20
384.437467
 30
0.0
 11
137.545001
 21
384.437467
 31
0.0
  0
LINE
  5
1e2
100
AcDbEntity
  8
newlayer
 62
7
100
AcDbLine
 10
137.545001
 20
384.437467
 30
0.0
 11
137.545001
 21
378.437457
 31
0.0
  0
LINE
  5
1e3
100
AcDbEntity
  8
newlayer
 62
7
100
AcDbLine
 10
137.545001
 20
378.437457
 30
0.0
 11
125.455000
 21
378.437457
 31
0.0
  0
LINE
  5
1e4
100
AcDbEntity
  8
newlayer
 62
7
100
AcDbLine
 10
125.455000
 20
378.437457
 30
0.0
 11
125.455000
 21
384.437467
 31
0.0
  0
LINE
  5
1e5
100
AcDbEntity
  8
newlayer
 62
7
100
AcDbLine
 10
125.455000
 20
384.437467
 30
0.0
 11
111.045001
 21
384.437467
 31
0.0
  0
LINE
  5
1e6
100
AcDbEntity
  8
newlayer
 62
7
100
AcDbLine
 10
111.045001
 20
384.437467
 30
0.0
 11
111.045001
 21
378.437457
 31
0.0
  0
LINE
  5
1e7
100
AcDbEntity
  8
newlayer
 62
7
100
AcDbLine
 10
111.045001
 20
378.437457
 30
0.0
 11
98.955000
 21
378.437457
 31
0.0
  0
LINE
  5
1e8
100
AcDbEntity
  8
newlayer
 62
7
100
AcDbLine
 10
98.955000
 20
378.437457
 30
0.0
 11
98.955000
 21
384.437467
 31
0.0
  0
LINE
  5
1e9
100
AcDbEntity
  8
newlayer
 62
7
100
AcDbLine
 10
98.955000
 20
384.437467
 30
0.0
 11
84.545001
 21
384.437467
 31
0.0
  0
LINE
  5
1ea
100
AcDbEntity
  8
newlayer
 62
7
100
AcDbLine
 10
84.545001
 20
384.437467
 30
0.0
 11
84.545001
 21
378.437457
 31
0.0
  0
LINE
  5
1eb
100
AcDbEntity
  8
newlayer
 62
7
100
AcDbLine
 10
84.545001
 20
378.437457
 30
0.0
 11
72.455000
 21
378.437457
 31
0.0
  0
LINE
  5
1ec
100
AcDbEntity
  8
newlayer
 62
7
100
AcDbLine
 10
72.455000
 20
378.437457
 30
0.0
 11
72.455000
 21
384.437467
 31
0.0
  0
LINE
  5
1ed
100
AcDbEntity
  8
newlayer
 62
7
100
AcDbLine
 10
72.455000
 20
384.437467
 30
0.0
 11
58.045001
 21
384.437467
 31
0.0
  0
LINE
  5
1ee
100
AcDbEntity
  8
newlayer
 62
7
100
AcDbLine
 10
58.045001
 20
384.437467
 30
0.0
 11
58.045001
 21
378.437457
 31
0.0
  0
LINE
  5
1ef
100
AcDbEntity
  8
newlayer
 62
7
100
AcDbLine
 10
58.045001
 20
378.437457
 30
0.0
 11
45.955000
 21
378.437457
 31
0.0
  0
LINE
  5
1f0
100
AcDbEntity
  8
newlayer
 62
7
100
AcDbLine
 10
45.955000
 20
378.437457
 30
0.0
 11
45.955000
 21
384.437467
 31
0.0
  0
LINE
  5
1f1
100
AcDbEntity
  8
newlayer
 62
7
100
AcDbLine
 10
45.955000
 20
384.437467
 30
0.0
 11
31.545001
 21
384.437467
 31
0.0
  0
LINE
  5
1f2
100
AcDbEntity
  8
newlayer
 62
7
100
AcDbLine
 10
31.545001
 20
384.437467
 30
0.0
 11
31.545001
 21
378.437934
 31
0.0
  0
LINE
  5
1f3
100
AcDbEntity
  8
newlayer
 62
7
100
AcDbLine
 10
31.545001
 20
378.437934
 30
0.0
 11
5.000000
 21
378.437987
 31
0.0
  0
LINE
  5
1f4
100
AcDbEntity
  8
newlayer
 62
7
100
AcDbLine
 10
5.000000
 20
378.437987
 30
0.0
 11
5.000000
 21
384.437467
 31
0.0
  0
LINE
  5
1f5
100
AcDbEntity
  8
newlayer
 62
7
100
AcDbLine
 10
5.000000
 20
384.437467
 30
0.0
 11
5.000000
 21
572.437458
 31
0.0
  0
LINE
  5
1f6
100
AcDbEntity
  8
newlayer
 62
7
100
AcDbLine
 10
5.000000
 20
572.437458
 30
0.0
 11
5.000000
 21
578.437457
 31
0.0
  0
LINE
  5
1f7
100
AcDbEntity
  8
newlayer
 62
7
100
AcDbLine
 10
5.000000
 20
578.437457
 30
0.0
 11
31.545001
 21
578.437457
 31
0.0
  0
LINE
  5
1f8
100
AcDbEntity
  8
newlayer
 62
7
100
AcDbLine
 10
31.545001
 20
578.437457
 30
0.0
 11
31.545001
 21
572.436987
 31
0.0
  0
LINE
  5
1f9
100
AcDbEntity
  8
newlayer
 62
7
100
AcDbLine
 10
31.545001
 20
572.436987
 30
0.0
 11
45.955000
 21
572.437517
 31
0.0
  0
LINE
  5
1fa
100
AcDbEntity
  8
newlayer
 62
7
100
AcDbLine
 10
45.955000
 20
572.437517
 30
0.0
 11
45.955000
 21
578.437515
 31
0.0
  0
LINE
  5
1fb
100
AcDbEntity
  8
newlayer
 62
7
100
AcDbLine
 10
45.955000
 20
578.437515
 30
0.0
 11
58.045001
 21
578.437515
 31
0.0
  0
LINE
  5
1fc
100
AcDbEntity
  8
newlayer
 62
7
100
AcDbLine
 10
58.045001
 20
578.437515
 30
0.0
 11
58.045001
 21
572.437517
 31
0.0
  0
LINE
  5
1fd
100
AcDbEntity
  8
newlayer
 62
7
100
AcDbLine
 10
58.045001
 20
572.437517
 30
0.0
 11
72.455000
 21
572.437517
 31
0.0
  0
LINE
  5
1fe
100
AcDbEntity
  8
newlayer
 62
7
100
AcDbLine
 10
72.455000
 20
572.437517
 30
0.0
 11
72.455000
 21
578.437515
 31
0.0
  0
LINE
  5
1ff
100
AcDbEntity
  8
newlayer
 62
7
100
AcDbLine
 10
72.455000
 20
578.437515
 30
0.0
 11
84.545001
 21
578.437515
 31
0.0
  0
LINE
  5
200
100
AcDbEntity
  8
newlayer
 62
7
100
AcDbLine
 10
84.545001
 20
578.437515
 30
0.0
 11
84.545001
 21
572.437517
 31
0.0
  0
LINE
  5
201
100
AcDbEntity
  8
newlayer
 62
7
100
AcDbLine
 10
84.545001
 20
572.437517
 30
0.0
 11
98.955000
 21
572.437517
 31
0.0
  0
LINE
  5
202
100
AcDbEntity
  8
newlayer
 62
7
100
AcDbLine
 10
98.955000
 20
572.437517
 30
0.0
 11
98.955000
 21
578.437515
 31
0.0
  0
LINE
  5
203
100
AcDbEntity
  8
newlayer
 62
7
100
AcDbLine
 10
98.955000
 20
578.437515
 30
0.0
 11
111.045001
 21
578.437515
 31
0.0
  0
LINE
  5
204
100
AcDbEntity
  8
newlayer
 62
7
100
AcDbLine
 10
111.045001
 20
578.437515
 30
0.0
 11
111.045001
 21
572.437517
 31
0.0
  0
LINE
  5
205
100
AcDbEntity
  8
newlayer
 62
7
100
AcDbLine
 10
111.045001
 20
572.437517
 30
0.0
 11
125.455000
 21
572.437517
 31
0.0
  0
LINE
  5
206
100
AcDbEntity
  8
newlayer
 62
7
100
AcDbLine
 10
125.455000
 20
572.437517
 30
0.0
 11
125.455000
 21
578.437515
 31
0.0
  0
LINE
  5
207
100
AcDbEntity
  8
newlayer
 62
7
100
AcDbLine
 10
125.455000
 20
578.437515
 30
0.0
 11
137.545000
 21
578.437515
 31
0.0
  0
LINE
  5
208
100
AcDbEntity
  8
newlayer
 62
7
100
AcDbLine
 10
137.545000
 20
578.437515
 30
0.0
 11
137.545000
 21
572.437517
 31
0.0
  0
LINE
  5
209
100
AcDbEntity
  8
newlayer
 62
7
100
AcDbLine
 10
137.545000
 20
572.437517
 30
0.0
 11
151.955000
 21
572.437517
 31
0.0
  0
LINE
  5
20a
100
AcDbEntity
  8
newlayer
 62
7
100
AcDbLine
 10
151.955000
 20
572.437517
 30
0.0
 11
151.955000
 21
578.437515
 31
0.0
  0
LINE
  5
20b
100
AcDbEntity
  8
newlayer
 62
7
100
AcDbLine
 10
151.955000
 20
578.437515
 30
0.0
 11
164.045000
 21
578.437515
 31
0.0
  0
LINE
  5
20c
100
AcDbEntity
  8
newlayer
 62
7
100
AcDbLine
 10
164.045000
 20
578.437515
 30
0.0
 11
164.045000
 21
572.437517
 31
0.0
  0
LINE
  5
20d
100
AcDbEntity
  8
newlayer
 62
7
100
AcDbLine
 10
164.045000
 20
572.437517
 30
0.0
 11
178.455000
 21
572.437517
 31
0.0
  0
LINE
  5
20e
100
AcDbEntity
  8
newlayer
 62
7
100
AcDbLine
 10
178.455000
 20
572.437517
 30
0.0
 11
178.455000
 21
578.437515
 31
0.0
  0
LINE
  5
20f
100
AcDbEntity
  8
newlayer
 62
7
100
AcDbLine
 10
178.455000
 20
578.437515
 30
0.0
 11
190.545000
 21
578.437515
 31
0.0
  0
LINE
  5
210
100
AcDbEntity
  8
newlayer
 62
7
100
AcDbLine
 10
190.545000
 20
578.437515
 30
0.0
 11
190.545000
 21
572.437517
 31
0.0
  0
LINE
  5
211
100
AcDbEntity
  8
newlayer
 62
7
100
AcDbLine
 10
190.545000
 20
572.437517
 30
0.0
 11
198.999999
 21
572.437517
 31
0.0
  0
LINE
  5
212
100
AcDbEntity
  8
newlayer
 62
7
100
AcDbLine
 10
210.000000
 20
578.437458
 30
0.0
 11
224.245000
 21
578.437458
 31
0.0
  0
LINE
  5
213
100
AcDbEntity
  8
newlayer
 62
7
100
AcDbLine
 10
224.245000
 20
578.437458
 30
0.0
 11
224.245000
 21
572.437458
 31
0.0
  0
LINE
  5
214
100
AcDbEntity
  8
newlayer
 62
7
100
AcDbLine
 10
224.245000
 20
572.437458
 30
0.0
 11
236.155000
 21
572.437458
 31
0.0
  0
LINE
  5
215
100
AcDbEntity
  8
newlayer
 62
7
100
AcDbLine
 10
236.155000
 20
572.437458
 30
0.0
 11
236.155000
 21
578.437458
 31
0.0
  0
LINE
  5
216
100
AcDbEntity
  8
newlayer
 62
7
100
AcDbLine
 10
236.155000
 20
578.437458
 30
0.0
 11
250.445000
 21
578.437458
 31
0.0
  0
LINE
  5
217
100
AcDbEntity
  8
newlayer
 62
7
100
AcDbLine
 10
250.445000
 20
578.437458
 30
0.0
 11
250.445000
 21
572.437458
 31
0.0
  0
LINE
  5
218
100
AcDbEntity
  8
newlayer
 62
7
100
AcDbLine
 10
250.445000
 20
572.437458
 30
0.0
 11
262.355000
 21
572.437458
 31
0.0
  0
LINE
  5
219
100
AcDbEntity
  8
newlayer
 62
7
100
AcDbLine
 10
262.355000
 20
572.437458
 30
0.0
 11
262.355000
 21
578.437458
 31
0.0
  0
LINE
  5
21a
100
AcDbEntity
  8
newlayer
 62
7
100
AcDbLine
 10
262.355000
 20
578.437458
 30
0.0
 11
276.645000
 21
578.437458
 31
0.0
  0
LINE
  5
21b
100
AcDbEntity
  8
newlayer
 62
7
100
AcDbLine
 10
276.645000
 20
578.437458
 30
0.0
 11
276.645000
 21
572.437458
 31
0.0
  0
LINE
  5
21c
100
AcDbEntity
  8
newlayer
 62
7
100
AcDbLine
 10
276.645000
 20
572.437458
 30
0.0
 11
288.555000
 21
572.437458
 31
0.0
  0
LINE
  5
21d
100
AcDbEntity
  8
newlayer
 62
7
100
AcDbLine
 10
288.555000
 20
572.437458
 30
0.0
 11
288.555000
 21
578.437458
 31
0.0
  0
LINE
  5
21e
100
AcDbEntity
  8
newlayer
 62
7
100
AcDbLine
 10
288.555000
 20
578.437458
 30
0.0
 11
302.845000
 21
578.437458
 31
0.0
  0
LINE
  5
21f
100
AcDbEntity
  8
newlayer
 62
7
100
AcDbLine
 10
302.845000
 20
578.437458
 30
0.0
 11
302.845000
 21
572.437458
 31
0.0
  0
LINE
  5
220
100
AcDbEntity
  8
newlayer
 62
7
100
AcDbLine
 10
302.845000
 20
572.437458
 30
0.0
 11
314.755000
 21
572.437458
 31
0.0
  0
LINE
  5
221
100
AcDbEntity
  8
newlayer
 62
7
100
AcDbLine
 10
314.755000
 20
572.437458
 30
0.0
 11
314.755000
 21
578.437458
 31
0.0
  0
LINE
  5
222
100
AcDbEntity
  8
newlayer
 62
7
100
AcDbLine
 10
314.755000
 20
578.437458
 30
0.0
 11
329.045000
 21
578.437458
 31
0.0
  0
LINE
  5
223
100
AcDbEntity
  8
newlayer
 62
7
100
AcDbLine
 10
329.045000
 20
578.437458
 30
0.0
 11
329.045000
 21
572.437458
 31
0.0
  0
LINE
  5
224
100
AcDbEntity
  8
newlayer
 62
7
100
AcDbLine
 10
329.045000
 20
572.437458
 30
0.0
 11
340.955000
 21
572.437458
 31
0.0
  0
LINE
  5
225
100
AcDbEntity
  8
newlayer
 62
7
100
AcDbLine
 10
340.955000
 20
572.437458
 30
0.0
 11
340.955000
 21
578.437458
 31
0.0
  0
LINE
  5
226
100
AcDbEntity
  8
newlayer
 62
7
100
AcDbLine
 10
340.955000
 20
578.437458
 30
0.0
 11
355.245000
 21
578.437458
 31
0.0
  0
LINE
  5
227
100
AcDbEntity
  8
newlayer
 62
7
100
AcDbLine
 10
355.245000
 20
578.437458
 30
0.0
 11
355.245000
 21
572.437458
 31
0.0
  0
LINE
  5
228
100
AcDbEntity
  8
newlayer
 62
7
100
AcDbLine
 10
355.245000
 20
572.437458
 30
0.0
 11
367.155000
 21
572.437458
 31
0.0
  0
LINE
  5
229
100
AcDbEntity
  8
newlayer
 62
7
100
AcDbLine
 10
367.155000
 20
572.437458
 30
0.0
 11
367.155000
 21
578.437458
 31
0.0
  0
LINE
  5
22a
100
AcDbEntity
  8
newlayer
 62
7
100
AcDbLine
 10
367.155000
 20
578.437458
 30
0.0
 11
381.445000
 21
578.437458
 31
0.0
  0
LINE
  5
22b
100
AcDbEntity
  8
newlayer
 62
7
100
AcDbLine
 10
381.445000
 20
578.437458
 30
0.0
 11
381.445000
 21
572.437458
 31
0.0
  0
LINE
  5
22c
100
AcDbEntity
  8
newlayer
 62
7
100
AcDbLine
 10
381.445000
 20
572.437458
 30
0.0
 11
393.355000
 21
572.437458
 31
0.0
  0
LINE
  5
22d
100
AcDbEntity
  8
newlayer
 62
7
100
AcDbLine
 10
393.355000
 20
572.437458
 30
0.0
 11
393.355000
 21
578.437458
 31
0.0
  0
LINE
  5
22e
100
AcDbEntity
  8
newlayer
 62
7
100
AcDbLine
 10
393.355000
 20
578.437458
 30
0.0
 11
407.645000
 21
578.437458
 31
0.0
  0
LINE
  5
22f
100
AcDbEntity
  8
newlayer
 62
7
100
AcDbLine
 10
407.645000
 20
578.437458
 30
0.0
 11
407.645000
 21
572.437458
 31
0.0
  0
LINE
  5
230
100
AcDbEntity
  8
newlayer
 62
7
100
AcDbLine
 10
407.645000
 20
572.437458
 30
0.0
 11
419.555000
 21
572.437458
 31
0.0
  0
LINE
  5
231
100
AcDbEntity
  8
newlayer
 62
7
100
AcDbLine
 10
419.555000
 20
572.437458
 30
0.0
 11
419.555000
 21
578.437458
 31
0.0
  0
LINE
  5
232
100
AcDbEntity
  8
newlayer
 62
7
100
AcDbLine
 10
419.555000
 20
578.437458
 30
0.0
 11
433.845000
 21
578.437458
 31
0.0
  0
LINE
  5
233
100
AcDbEntity
  8
newlayer
 62
7
100
AcDbLine
 10
433.845000
 20
578.437458
 30
0.0
 11
433.845000
 21
572.437458
 31
0.0
  0
LINE
  5
234
100
AcDbEntity
  8
newlayer
 62
7
100
AcDbLine
 10
433.845000
 20
572.437458
 30
0.0
 11
445.755000
 21
572.437458
 31
0.0
  0
LINE
  5
235
100
AcDbEntity
  8
newlayer
 62
7
100
AcDbLine
 10
445.755000
 20
572.437458
 30
0.0
 11
445.755000
 21
578.437458
 31
0.0
  0
LINE
  5
236
100
AcDbEntity
  8
newlayer
 62
7
100
AcDbLine
 10
445.755000
 20
578.437458
 30
0.0
 11
460.000000
 21
578.437458
 31
0.0
  0
LINE
  5
237
100
AcDbEntity
  8
newlayer
 62
7
100
AcDbLine
 10
460.000000
 20
578.437458
 30
0.0
 11
460.000000
 21
563.892458
 31
0.0
  0
LINE
  5
238
100
AcDbEntity
  8
newlayer
 62
7
100
AcDbLine
 10
460.000000
 20
563.892458
 30
0.0
 11
454.000000
 21
563.892458
 31
0.0
  0
LINE
  5
239
100
AcDbEntity
  8
newlayer
 62
7
100
AcDbLine
 10
454.000000
 20
563.892458
 30
0.0
 11
454.000000
 21
551.982458
 31
0.0
  0
LINE
  5
23a
100
AcDbEntity
  8
newlayer
 62
7
100
AcDbLine
 10
454.000000
 20
551.982458
 30
0.0
 11
460.000000
 21
551.982458
 31
0.0
  0
LINE
  5
23b
100
AcDbEntity
  8
newlayer
 62
7
100
AcDbLine
 10
460.000000
 20
551.982458
 30
0.0
 11
460.000000
 21
537.392458
 31
0.0
  0
LINE
  5
23c
100
AcDbEntity
  8
newlayer
 62
7
100
AcDbLine
 10
460.000000
 20
537.392458
 30
0.0
 11
454.000000
 21
537.392458
 31
0.0
  0
LINE
  5
23d
100
AcDbEntity
  8
newlayer
 62
7
100
AcDbLine
 10
454.000000
 20
537.392458
 30
0.0
 11
454.000000
 21
525.482458
 31
0.0
  0
LINE
  5
23e
100
AcDbEntity
  8
newlayer
 62
7
100
AcDbLine
 10
454.000000
 20
525.482458
 30
0.0
 11
460.000000
 21
525.482458
 31
0.0
  0
LINE
  5
23f
100
AcDbEntity
  8
newlayer
 62
7
100
AcDbLine
 10
460.000000
 20
525.482458
 30
0.0
 11
460.000000
 21
510.892458
 31
0.0
  0
LINE
  5
240
100
AcDbEntity
  8
newlayer
 62
7
100
AcDbLine
 10
460.000000
 20
510.892458
 30
0.0
 11
454.000000
 21
510.892458
 31
0.0
  0
LINE
  5
241
100
AcDbEntity
  8
newlayer
 62
7
100
AcDbLine
 10
454.000000
 20
510.892458
 30
0.0
 11
454.000000
 21
498.982458
 31
0.0
  0
LINE
  5
242
100
AcDbEntity
  8
newlayer
 62
7
100
AcDbLine
 10
454.000000
 20
498.982458
 30
0.0
 11
460.000000
 21
498.982458
 31
0.0
  0
LINE
  5
243
100
AcDbEntity
  8
newlayer
 62
7
100
AcDbLine
 10
460.000000
 20
498.982458
 30
0.0
 11
460.000000
 21
484.392458
 31
0.0
  0
LINE
  5
244
100
AcDbEntity
  8
newlayer
 62
7
100
AcDbLine
 10
460.000000
 20
484.392458
 30
0.0
 11
454.000000
 21
484.392458
 31
0.0
  0
LINE
  5
245
100
AcDbEntity
  8
newlayer
 62
7
100
AcDbLine
 10
454.000000
 20
484.392458
 30
0.0
 11
454.000000
 21
472.482458
 31
0.0
  0
LINE
  5
246
100
AcDbEntity
  8
newlayer
 62
7
100
AcDbLine
 10
454.000000
 20
472.482458
 30
0.0
 11
460.000000
 21
472.482458
 31
0.0
  0
LINE
  5
247
100
AcDbEntity
  8
newlayer
 62
7
100
AcDbLine
 10
460.000000
 20
472.482458
 30
0.0
 11
460.000000
 21
457.892458
 31
0.0
  0
LINE
  5
248
100
AcDbEntity
  8
newlayer
 62
7
100
AcDbLine
 10
460.000000
 20
457.892458
 30
0.0
 11
454.000000
 21
457.892458
 31
0.0
  0
LINE
  5
249
100
AcDbEntity
  8
newlayer
 62
7
100
AcDbLine
 10
454.000000
 20
457.892458
 30
0.0
 11
454.000000
 21
445.982458
 31
0.0
  0
LINE
  5
24a
100
AcDbEntity
  8
newlayer
 62
7
100
AcDbLine
 10
454.000000
 20
445.982458
 30
0.0
 11
460.000000
 21
445.982458
 31
0.0
  0
LINE
  5
24b
100
AcDbEntity
  8
newlayer
 62
7
100
AcDbLine
 10
460.000000
 20
445.982458
 30
0.0
 11
460.000000
 21
431.392458
 31
0.0
  0
LINE
  5
24c
100
AcDbEntity
  8
newlayer
 62
7
100
AcDbLine
 10
460.000000
 20
431.392458
 30
0.0
 11
454.000000
 21
431.392458
 31
0.0
  0
LINE
  5
24d
100
AcDbEntity
  8
newlayer
 62
7
100
AcDbLine
 10
454.000000
 20
431.392458
 30
0.0
 11
454.000000
 21
419.482458
 31
0.0
  0
LINE
  5
24e
100
AcDbEntity
  8
newlayer
 62
7
100
AcDbLine
 10
454.000000
 20
419.482458
 30
0.0
 11
460.000000
 21
419.482458
 31
0.0
  0
LINE
  5
24f
100
AcDbEntity
  8
newlayer
 62
7
100
AcDbLine
 10
460.000000
 20
419.482458
 30
0.0
 11
460.000000
 21
404.892458
 31
0.0
  0
LINE
  5
250
100
AcDbEntity
  8
newlayer
 62
7
100
AcDbLine
 10
460.000000
 20
404.892458
 30
0.0
 11
454.000000
 21
404.892458
 31
0.0
  0
LINE
  5
251
100
AcDbEntity
  8
newlayer
 62
7
100
AcDbLine
 10
454.000000
 20
404.892458
 30
0.0
 11
454.000000
 21
392.982458
 31
0.0
  0
LINE
  5
252
100
AcDbEntity
  8
newlayer
 62
7
100
AcDbLine
 10
454.000000
 20
392.982458
 30
0.0
 11
460.000000
 21
392.982458
 31
0.0
  0
LINE
  5
253
100
AcDbEntity
  8
newlayer
 62
7
100
AcDbLine
 10
460.000000
 20
392.982458
 30
0.0
 11
460.000000
 21
378.437458
 31
0.0
  0
LINE
  5
254
100
AcDbEntity
  8
newlayer
 62
7
100
AcDbLine
 10
460.000000
 20
378.437458
 30
0.0
 11
445.755000
 21
378.437458
 31
0.0
  0
LINE
  5
255
100
AcDbEntity
  8
newlayer
 62
7
100
AcDbLine
 10
445.755000
 20
378.437458
 30
0.0
 11
445.755000
 21
384.437458
 31
0.0
  0
LINE
  5
256
100
AcDbEntity
  8
newlayer
 62
7
100
AcDbLine
 10
445.755000
 20
384.437458
 30
0.0
 11
433.845000
 21
384.437458
 31
0.0
  0
LINE
  5
257
100
AcDbEntity
  8
newlayer
 62
7
100
AcDbLine
 10
433.845000
 20
384.437458
 30
0.0
 11
433.845000
 21
378.437458
 31
0.0
  0
LINE
  5
258
100
AcDbEntity
  8
newlayer
 62
7
100
AcDbLine
 10
433.845000
 20
378.437458
 30
0.0
 11
419.555000
 21
378.437458
 31
0.0
  0
LINE
  5
259
100
AcDbEntity
  8
newlayer
 62
7
100
AcDbLine
 10
419.555000
 20
378.437458
 30
0.0
 11
419.555000
 21
384.437458
 31
0.0
  0
LINE
  5
25a
100
AcDbEntity
  8
newlayer
 62
7
100
AcDbLine
 10
419.555000
 20
384.437458
 30
0.0
 11
407.645000
 21
384.437458
 31
0.0
  0
LINE
  5
25b
100
AcDbEntity
  8
newlayer
 62
7
100
AcDbLine
 10
407.645000
 20
384.437458
 30
0.0
 11
407.645000
 21
378.437458
 31
0.0
  0
LINE
  5
25c
100
AcDbEntity
  8
newlayer
 62
7
100
AcDbLine
 10
407.645000
 20
378.437458
 30
0.0
 11
393.355000
 21
378.437458
 31
0.0
  0
LINE
  5
25d
100
AcDbEntity
  8
newlayer
 62
7
100
AcDbLine
 10
393.355000
 20
378.437458
 30
0.0
 11
393.355000
 21
384.437458
 31
0.0
  0
LINE
  5
25e
100
AcDbEntity
  8
newlayer
 62
7
100
AcDbLine
 10
393.355000
 20
384.437458
 30
0.0
 11
381.445000
 21
384.437458
 31
0.0
  0
LINE
  5
25f
100
AcDbEntity
  8
newlayer
 62
7
100
AcDbLine
 10
381.445000
 20
384.437458
 30
0.0
 11
381.445000
 21
378.437458
 31
0.0
  0
LINE
  5
260
100
AcDbEntity
  8
newlayer
 62
7
100
AcDbLine
 10
381.445000
 20
378.437458
 30
0.0
 11
367.155000
 21
378.437458
 31
0.0
  0
LINE
  5
261
100
AcDbEntity
  8
newlayer
 62
7
100
AcDbLine
 10
367.155000
 20
378.437458
 30
0.0
 11
367.155000
 21
384.437458
 31
0.0
  0
LINE
  5
262
100
AcDbEntity
  8
newlayer
 62
7
100
AcDbLine
 10
367.155000
 20
384.437458
 30
0.0
 11
355.245000
 21
384.437458
 31
0.0
  0
LINE
  5
263
100
AcDbEntity
  8
newlayer
 62
7
100
AcDbLine
 10
355.245000
 20
384.437458
 30
0.0
 11
355.245000
 21
378.437458
 31
0.0
  0
LINE
  5
264
100
AcDbEntity
  8
newlayer
 62
7
100
AcDbLine
 10
355.245000
 20
378.437458
 30
0.0
 11
340.955000
 21
378.437458
 31
0.0
  0
LINE
  5
265
100
AcDbEntity
  8
newlayer
 62
7
100
AcDbLine
 10
340.955000
 20
378.437458
 30
0.0
 11
340.955000
 21
384.437458
 31
0.0
  0
LINE
  5
266
100
AcDbEntity
  8
newlayer
 62
7
100
AcDbLine
 10
340.955000
 20
384.437458
 30
0.0
 11
329.045000
 21
384.437458
 31
0.0
  0
LINE
  5
267
100
AcDbEntity
  8
newlayer
 62
7
100
AcDbLine
 10
329.045000
 20
384.437458
 30
0.0
 11
329.045000
 21
378.437458
 31
0.0
  0
LINE
  5
268
100
AcDbEntity
  8
newlayer
 62
7
100
AcDbLine
 10
329.045000
 20
378.437458
 30
0.0
 11
314.755000
 21
378.437458
 31
0.0
  0
LINE
  5
269
100
AcDbEntity
  8
newlayer
 62
7
100
AcDbLine
 10
314.755000
 20
378.437458
 30
0.0
 11
314.755000
 21
384.437458
 31
0.0
  0
LINE
  5
26a
100
AcDbEntity
  8
newlayer
 62
7
100
AcDbLine
 10
314.755000
 20
384.437458
 30
0.0
 11
302.845000
 21
384.437458
 31
0.0
  0
LINE
  5
26b
100
AcDbEntity
  8
newlayer
 62
7
100
AcDbLine
 10
302.845000
 20
384.437458
 30
0.0
 11
302.845000
 21
378.437458
 31
0.0
  0
LINE
  5
26c
100
AcDbEntity
  8
newlayer
 62
7
100
AcDbLine
 10
302.845000
 20
378.437458
 30
0.0
 11
288.555000
 21
378.437458
 31
0.0
  0
LINE
  5
26d
100
AcDbEntity
  8
newlayer
 62
7
100
AcDbLine
 10
288.555000
 20
378.437458
 30
0.0
 11
288.555000
 21
384.437458
 31
0.0
  0
LINE
  5
26e
100
AcDbEntity
  8
newlayer
 62
7
100
AcDbLine
 10
288.555000
 20
384.437458
 30
0.0
 11
276.645000
 21
384.437458
 31
0.0
  0
LINE
  5
26f
100
AcDbEntity
  8
newlayer
 62
7
100
AcDbLine
 10
276.645000
 20
384.437458
 30
0.0
 11
276.645000
 21
378.437458
 31
0.0
  0
LINE
  5
270
100
AcDbEntity
  8
newlayer
 62
7
100
AcDbLine
 10
276.645000
 20
378.437458
 30
0.0
 11
262.355000
 21
378.437458
 31
0.0
  0
LINE
  5
271
100
AcDbEntity
  8
newlayer
 62
7
100
AcDbLine
 10
262.355000
 20
378.437458
 30
0.0
 11
262.355000
 21
384.437458
 31
0.0
  0
LINE
  5
272
100
AcDbEntity
  8
newlayer
 62
7
100
AcDbLine
 10
262.355000
 20
384.437458
 30
0.0
 11
250.445000
 21
384.437458
 31
0.0
  0
LINE
  5
273
100
AcDbEntity
  8
newlayer
 62
7
100
AcDbLine
 10
250.445000
 20
384.437458
 30
0.0
 11
250.445000
 21
378.437458
 31
0.0
  0
LINE
  5
274
100
AcDbEntity
  8
newlayer
 62
7
100
AcDbLine
 10
250.445000
 20
378.437458
 30
0.0
 11
236.155000
 21
378.437458
 31
0.0
  0
LINE
  5
275
100
AcDbEntity
  8
newlayer
 62
7
100
AcDbLine
 10
236.155000
 20
378.437458
 30
0.0
 11
236.155000
 21
384.437458
 31
0.0
  0
LINE
  5
276
100
AcDbEntity
  8
newlayer
 62
7
100
AcDbLine
 10
236.155000
 20
384.437458
 30
0.0
 11
224.245000
 21
384.437458
 31
0.0
  0
LINE
  5
277
100
AcDbEntity
  8
newlayer
 62
7
100
AcDbLine
 10
224.245000
 20
384.437458
 30
0.0
 11
224.245000
 21
378.437458
 31
0.0
  0
LINE
  5
278
100
AcDbEntity
  8
newlayer
 62
7
100
AcDbLine
 10
224.245000
 20
378.437458
 30
0.0
 11
210.000000
 21
378.437458
 31
0.0
  0
LINE
  5
279
100
AcDbEntity
  8
newlayer
 62
7
100
AcDbLine
 10
210.000000
 20
378.437458
 30
0.0
 11
210.000000
 21
392.982458
 31
0.0
  0
LINE
  5
27a
100
AcDbEntity
  8
newlayer
 62
7
100
AcDbLine
 10
210.000000
 20
392.982458
 30
0.0
 11
216.000000
 21
392.982458
 31
0.0
  0
LINE
  5
27b
100
AcDbEntity
  8
newlayer
 62
7
100
AcDbLine
 10
216.000000
 20
392.982458
 30
0.0
 11
216.000000
 21
404.892458
 31
0.0
  0
LINE
  5
27c
100
AcDbEntity
  8
newlayer
 62
7
100
AcDbLine
 10
216.000000
 20
404.892458
 30
0.0
 11
210.000000
 21
404.892458
 31
0.0
  0
LINE
  5
27d
100
AcDbEntity
  8
newlayer
 62
7
100
AcDbLine
 10
210.000000
 20
404.892458
 30
0.0
 11
210.000000
 21
419.482458
 31
0.0
  0
LINE
  5
27e
100
AcDbEntity
  8
newlayer
 62
7
100
AcDbLine
 10
210.000000
 20
419.482458
 30
0.0
 11
216.000000
 21
419.482458
 31
0.0
  0
LINE
  5
27f
100
AcDbEntity
  8
newlayer
 62
7
100
AcDbLine
 10
216.000000
 20
419.482458
 30
0.0
 11
216.000000
 21
431.392458
 31
0.0
  0
LINE
  5
280
100
AcDbEntity
  8
newlayer
 62
7
100
AcDbLine
 10
216.000000
 20
431.392458
 30
0.0
 11
210.000000
 21
431.392458
 31
0.0
  0
LINE
  5
281
100
AcDbEntity
  8
newlayer
 62
7
100
AcDbLine
 10
210.000000
 20
431.392458
 30
0.0
 11
210.000000
 21
445.982458
 31
0.0
  0
LINE
  5
282
100
AcDbEntity
  8
newlayer
 62
7
100
AcDbLine
 10
210.000000
 20
445.982458
 30
0.0
 11
216.000000
 21
445.982458
 31
0.0
  0
LINE
  5
283
100
AcDbEntity
  8
newlayer
 62
7
100
AcDbLine
 10
216.000000
 20
445.982458
 30
0.0
 11
216.000000
 21
457.892458
 31
0.0
  0
LINE
  5
284
100
AcDbEntity
  8
newlayer
 62
7
100
AcDbLine
 10
216.000000
 20
457.892458
 30
0.0
 11
210.000000
 21
457.892458
 31
0.0
  0
LINE
  5
285
100
AcDbEntity
  8
newlayer
 62
7
100
AcDbLine
 10
210.000000
 20
457.892458
 30
0.0
 11
210.000000
 21
472.482458
 31
0.0
  0
LINE
  5
286
100
AcDbEntity
  8
newlayer
 62
7
100
AcDbLine
 10
210.000000
 20
472.482458
 30
0.0
 11
216.000000
 21
472.482458
 31
0.0
  0
LINE
  5
287
100
AcDbEntity
  8
newlayer
 62
7
100
AcDbLine
 10
216.000000
 20
472.482458
 30
0.0
 11
216.000000
 21
484.392458
 31
0.0
  0
LINE
  5
288
100
AcDbEntity
  8
newlayer
 62
7
100
AcDbLine
 10
216.000000
 20
484.392458
 30
0.0
 11
210.000000
 21
484.392458
 31
0.0
  0
LINE
  5
289
100
AcDbEntity
  8
newlayer
 62
7
100
AcDbLine
 10
210.000000
 20
484.392458
 30
0.0
 11
210.000000
 21
498.982458
 31
0.0
  0
LINE
  5
28a
100
AcDbEntity
  8
newlayer
 62
7
100
AcDbLine
 10
210.000000
 20
498.982458
 30
0.0
 11
216.000000
 21
498.982458
 31
0.0
  0
LINE
  5
28b
100
AcDbEntity
  8
newlayer
 62
7
100
AcDbLine
 10
216.000000
 20
498.982458
 30
0.0
 11
216.000000
 21
510.892458
 31
0.0
  0
LINE
  5
28c
100
AcDbEntity
  8
newlayer
 62
7
100
AcDbLine
 10
216.000000
 20
510.892458
 30
0.0
 11
210.000000
 21
510.892458
 31
0.0
  0
LINE
  5
28d
100
AcDbEntity
  8
newlayer
 62
7
100
AcDbLine
 10
210.000000
 20
510.892458
 30
0.0
 11
210.000000
 21
525.482458
 31
0.0
  0
LINE
  5
28e
100
AcDbEntity
  8
newlayer
 62
7
100
AcDbLine
 10
210.000000
 20
525.482458
 30
0.0
 11
216.000000
 21
525.482458
 31
0.0
  0
LINE
  5
28f
100
AcDbEntity
  8
newlayer
 62
7
100
AcDbLine
 10
216.000000
 20
525.482458
 30
0.0
 11
216.000000
 21
537.392458
 31
0.0
  0
LINE
  5
290
100
AcDbEntity
  8
newlayer
 62
7
100
AcDbLine
 10
216.000000
 20
537.392458
 30
0.0
 11
210.000000
 21
537.392458
 31
0.0
  0
LINE
  5
291
100
AcDbEntity
  8
newlayer
 62
7
100
AcDbLine
 10
210.000000
 20
537.392458
 30
0.0
 11
210.000000
 21
551.982458
 31
0.0
  0
LINE
  5
292
100
AcDbEntity
  8
newlayer
 62
7
100
AcDbLine
 10
210.000000
 20
551.982458
 30
0.0
 11
216.000000
 21
551.982458
 31
0.0
  0
LINE
  5
293
100
AcDbEntity
  8
newlayer
 62
7
100
AcDbLine
 10
216.000000
 20
551.982458
 30
0.0
 11
216.000000
 21
563.892458
 31
0.0
  0
LINE
  5
294
100
AcDbEntity
  8
newlayer
 62
7
100
AcDbLine
 10
216.000000
 20
563.892458
 30
0.0
 11
210.000000
 21
563.892458
 31
0.0
  0
LINE
  5
295
100
AcDbEntity
  8
newlayer
 62
7
100
AcDbLine
 10
210.000000
 20
563.892458
 30
0.0
 11
210.000000
 21
578.437458
 31
0.0
  0
LINE
  5
296
100
AcDbEntity
  8
newlayer
 62
7
100
AcDbLine
 10
471.000005
 20
572.437458
 30
0.0
 11
479.455004
 21
572.437458
 31
0.0
  0
LINE
  5
297
100
AcDbEntity
  8
newlayer
 62
7
100
AcDbLine
 10
479.455004
 20
572.437458
 30
0.0
 11
479.455004
 21
578.437457
 31
0.0
  0
LINE
  5
298
100
AcDbEntity
  8
newlayer
 62
7
100
AcDbLine
 10
479.455004
 20
578.437457
 30
0.0
 11
491.545007
 21
578.437457
 31
0.0
  0
LINE
  5
299
100
AcDbEntity
  8
newlayer
 62
7
100
AcDbLine
 10
491.545007
 20
578.437457
 30
0.0
 11
491.545007
 21
572.437458
 31
0.0
  0
LINE
  5
29a
100
AcDbEntity
  8
newlayer
 62
7
100
AcDbLine
 10
491.545007
 20
572.437458
 30
0.0
 11
505.955009
 21
572.437458
 31
0.0
  0
LINE
  5
29b
100
AcDbEntity
  8
newlayer
 62
7
100
AcDbLine
 10
505.955009
 20
572.437458
 30
0.0
 11
505.955009
 21
578.437457
 31
0.0
  0
LINE
  5
29c
100
AcDbEntity
  8
newlayer
 62
7
100
AcDbLine
 10
505.955009
 20
578.437457
 30
0.0
 11
518.045012
 21
578.437457
 31
0.0
  0
LINE
  5
29d
100
AcDbEntity
  8
newlayer
 62
7
100
AcDbLine
 10
518.045012
 20
578.437457
 30
0.0
 11
518.045012
 21
572.437458
 31
0.0
  0
LINE
  5
29e
100
AcDbEntity
  8
newlayer
 62
7
100
AcDbLine
 10
518.045012
 20
572.437458
 30
0.0
 11
532.454988
 21
572.437458
 31
0.0
  0
LINE
  5
29f
100
AcDbEntity
  8
newlayer
 62
7
100
AcDbLine
 10
532.454988
 20
572.437458
 30
0.0
 11
532.454988
 21
578.437457
 31
0.0
  0
LINE
  5
2a0
100
AcDbEntity
  8
newlayer
 62
7
100
AcDbLine
 10
532.454988
 20
578.437457
 30
0.0
 11
544.544991
 21
578.437457
 31
0.0
  0
LINE
  5
2a1
100
AcDbEntity
  8
newlayer
 62
7
100
AcDbLine
 10
544.544991
 20
578.437457
 30
0.0
 11
544.544991
 21
572.437458
 31
0.0
  0
LINE
  5
2a2
100
AcDbEntity
  8
newlayer
 62
7
100
AcDbLine
 10
544.544991
 20
572.437458
 30
0.0
 11
558.954993
 21
572.437458
 31
0.0
  0
LINE
  5
2a3
100
AcDbEntity
  8
newlayer
 62
7
100
AcDbLine
 10
558.954993
 20
572.437458
 30
0.0
 11
558.954993
 21
578.436989
 31
0.0
  0
LINE
  5
2a4
100
AcDbEntity
  8
newlayer
 62
7
100
AcDbLine
 10
558.954993
 20
578.436989
 30
0.0
 11
571.044996
 21
578.437518
 31
0.0
  0
LINE
  5
2a5
100
AcDbEntity
  8
newlayer
 62
7
100
AcDbLine
 10
571.044996
 20
578.437518
 30
0.0
 11
571.044996
 21
572.437519
 31
0.0
  0
LINE
  5
2a6
100
AcDbEntity
  8
newlayer
 62
7
100
AcDbLine
 10
571.044996
 20
572.437519
 30
0.0
 11
585.454998
 21
572.437519
 31
0.0
  0
LINE
  5
2a7
100
AcDbEntity
  8
newlayer
 62
7
100
AcDbLine
 10
585.454998
 20
572.437519
 30
0.0
 11
585.454998
 21
578.437518
 31
0.0
  0
LINE
  5
2a8
100
AcDbEntity
  8
newlayer
 62
7
100
AcDbLine
 10
585.454998
 20
578.437518
 30
0.0
 11
597.545001
 21
578.437518
 31
0.0
  0
LINE
  5
2a9
100
AcDbEntity
  8
newlayer
 62
7
100
AcDbLine
 10
597.545001
 20
578.437518
 30
0.0
 11
597.545001
 21
572.437519
 31
0.0
  0
LINE
  5
2aa
100
AcDbEntity
  8
newlayer
 62
7
100
AcDbLine
 10
597.545001
 20
572.437519
 30
0.0
 11
611.955003
 21
572.437519
 31
0.0
  0
LINE
  5
2ab
100
AcDbEntity
  8
newlayer
 62
7
100
AcDbLine
 10
611.955003
 20
572.437519
 30
0.0
 11
611.955003
 21
578.437518
 31
0.0
  0
LINE
  5
2ac
100
AcDbEntity
  8
newlayer
 62
7
100
AcDbLine
 10
611.955003
 20
578.437518
 30
0.0
 11
624.045006
 21
578.437518
 31
0.0
  0
LINE
  5
2ad
100
AcDbEntity
  8
newlayer
 62
7
100
AcDbLine
 10
624.045006
 20
578.437518
 30
0.0
 11
624.045006
 21
572.437519
 31
0.0
  0
LINE
  5
2ae
100
AcDbEntity
  8
newlayer
 62
7
100
AcDbLine
 10
624.045006
 20
572.437519
 30
0.0
 11
638.455009
 21
572.437519
 31
0.0
  0
LINE
  5
2af
100
AcDbEntity
  8
newlayer
 62
7
100
AcDbLine
 10
638.455009
 20
572.437519
 30
0.0
 11
638.455009
 21
578.437518
 31
0.0
  0
LINE
  5
2b0
100
AcDbEntity
  8
newlayer
 62
7
100
AcDbLine
 10
638.455009
 20
578.437518
 30
0.0
 11
664.999993
 21
578.437518
 31
0.0
  0
LINE
  5
2b1
100
AcDbEntity
  8
newlayer
 62
7
100
AcDbLine
 10
664.999993
 20
578.437518
 30
0.0
 11
664.999993
 21
572.437519
 31
0.0
  0
LINE
  5
2b2
100
AcDbEntity
  8
newlayer
 62
7
100
AcDbLine
 10
664.999993
 20
572.437519
 30
0.0
 11
664.999993
 21
384.437520
 31
0.0
  0
LINE
  5
2b3
100
AcDbEntity
  8
newlayer
 62
7
100
AcDbLine
 10
664.999993
 20
384.437520
 30
0.0
 11
664.999993
 21
378.437510
 31
0.0
  0
LINE
  5
2b4
100
AcDbEntity
  8
newlayer
 62
7
100
AcDbLine
 10
664.999993
 20
378.437510
 30
0.0
 11
638.455009
 21
378.437510
 31
0.0
  0
LINE
  5
2b5
100
AcDbEntity
  8
newlayer
 62
7
100
AcDbLine
 10
638.455009
 20
378.437510
 30
0.0
 11
638.455009
 21
384.437520
 31
0.0
  0
LINE
  5
2b6
100
AcDbEntity
  8
newlayer
 62
7
100
AcDbLine
 10
638.455009
 20
384.437520
 30
0.0
 11
624.045006
 21
384.437520
 31
0.0
  0
LINE
  5
2b7
100
AcDbEntity
  8
newlayer
 62
7
100
AcDbLine
 10
624.045006
 20
384.437520
 30
0.0
 11
624.045006
 21
378.437510
 31
0.0
  0
LINE
  5
2b8
100
AcDbEntity
  8
newlayer
 62
7
100
AcDbLine
 10
624.045006
 20
378.437510
 30
0.0
 11
611.955003
 21
378.437510
 31
0.0
  0
LINE
  5
2b9
100
AcDbEntity
  8
newlayer
 62
7
100
AcDbLine
 10
611.955003
 20
378.437510
 30
0.0
 11
611.955003
 21
384.437520
 31
0.0
  0
LINE
  5
2ba
100
AcDbEntity
  8
newlayer
 62
7
100
AcDbLine
 10
611.955003
 20
384.437520
 30
0.0
 11
597.545001
 21
384.437520
 31
0.0
  0
LINE
  5
2bb
100
AcDbEntity
  8
newlayer
 62
7
100
AcDbLine
 10
597.545001
 20
384.437520
 30
0.0
 11
597.545001
 21
378.437510
 31
0.0
  0
LINE
  5
2bc
100
AcDbEntity
  8
newlayer
 62
7
100
AcDbLine
 10
597.545001
 20
378.437510
 30
0.0
 11
585.454998
 21
378.437510
 31
0.0
  0
LINE
  5
2bd
100
AcDbEntity
  8
newlayer
 62
7
100
AcDbLine
 10
585.454998
 20
378.437510
 30
0.0
 11
585.454998
 21
384.437520
 31
0.0
  0
LINE
  5
2be
100
AcDbEntity
  8
newlayer
 62
7
100
AcDbLine
 10
585.454998
 20
384.437520
 30
0.0
 11
571.044996
 21
384.437520
 31
0.0
  0
LINE
  5
2bf
100
AcDbEntity
  8
newlayer
 62
7
100
AcDbLine
 10
571.044996
 20
384.437520
 30
0.0
 11
571.044996
 21
378.437510
 31
0.0
  0
LINE
  5
2c0
100
AcDbEntity
  8
newlayer
 62
7
100
AcDbLine
 10
571.044996
 20
378.437510
 30
0.0
 11
558.954993
 21
378.437510
 31
0.0
  0
LINE
  5
2c1
100
AcDbEntity
  8
newlayer
 62
7
100
AcDbLine
 10
558.954993
 20
378.437510
 30
0.0
 11
558.954993
 21
384.437520
 31
0.0
  0
LINE
  5
2c2
100
AcDbEntity
  8
newlayer
 62
7
100
AcDbLine
 10
558.954993
 20
384.437520
 30
0.0
 11
544.544991
 21
384.437520
 31
0.0
  0
LINE
  5
2c3
100
AcDbEntity
  8
newlayer
 62
7
100
AcDbLine
 10
544.544991
 20
384.437520
 30
0.0
 11
544.544991
 21
378.437510
 31
0.0
  0
LINE
  5
2c4
100
AcDbEntity
  8
newlayer
 62
7
100
AcDbLine
 10
544.544991
 20
378.437510
 30
0.0
 11
532.454988
 21
378.437510
 31
0.0
  0
LINE
  5
2c5
100
AcDbEntity
  8
newlayer
 62
7
100
AcDbLine
 10
532.454988
 20
378.437510
 30
0.0
 11
532.454988
 21
384.437520
 31
0.0
  0
LINE
  5
2c6
100
AcDbEntity
  8
newlayer
 62
7
100
AcDbLine
 10
532.454988
 20
384.437520
 30
0.0
 11
518.045012
 21
384.437520
 31
0.0
  0
LINE
  5
2c7
100
AcDbEntity
  8
newlayer
 62
7
100
AcDbLine
 10
518.045012
 20
384.437520
 30
0.0
 11
518.045012
 21
378.437510
 31
0.0
  0
LINE
  5
2c8
100
AcDbEntity
  8
newlayer
 62
7
100
AcDbLine
 10
518.045012
 20
378.437510
 30
0.0
 11
505.955009
 21
378.437510
 31
0.0
  0
LINE
  5
2c9
100
AcDbEntity
  8
newlayer
 62
7
100
AcDbLine
 10
505.955009
 20
378.437510
 30
0.0
 11
505.955009
 21
384.437520
 31
0.0
  0
LINE
  5
2ca
100
AcDbEntity
  8
newlayer
 62
7
100
AcDbLine
 10
505.955009
 20
384.437520
 30
0.0
 11
491.545007
 21
384.437520
 31
0.0
  0
LINE
  5
2cb
100
AcDbEntity
  8
newlayer
 62
7
100
AcDbLine
 10
491.545007
 20
384.437520
 30
0.0
 11
491.545007
 21
378.437510
 31
0.0
  0
LINE
  5
2cc
100
AcDbEntity
  8
newlayer
 62
7
100
AcDbLine
 10
491.545007
 20
378.437510
 30
0.0
 11
479.455004
 21
378.437510
 31
0.0
  0
LINE
  5
2cd
100
AcDbEntity
  8
newlayer
 62
7
100
AcDbLine
 10
479.455004
 20
378.437510
 30
0.0
 11
479.455004
 21
384.437520
 31
0.0
  0
LINE
  5
2ce
100
AcDbEntity
  8
newlayer
 62
7
100
AcDbLine
 10
479.455004
 20
384.437520
 30
0.0
 11
471.000005
 21
384.437520
 31
0.0
  0
LINE
  5
2cf
100
AcDbEntity
  8
newlayer
 62
7
100
AcDbLine
 10
471.000000
 20
384.437458
 30
0.0
 11
471.000000
 21
392.892458
 31
0.0
  0
LINE
  5
2d0
100
AcDbEntity
  8
newlayer
 62
7
100
AcDbLine
 10
471.000000
 20
392.892458
 30
0.0
 11
465.000000
 21
392.892458
 31
0.0
  0
LINE
  5
2d1
100
AcDbEntity
  8
newlayer
 62
7
100
AcDbLine
 10
465.000000
 20
392.892458
 30
0.0
 11
465.000000
 21
404.982458
 31
0.0
  0
LINE
  5
2d2
100
AcDbEntity
  8
newlayer
 62
7
100
AcDbLine
 10
465.000000
 20
404.982458
 30
0.0
 11
471.000000
 21
404.982458
 31
0.0
  0
LINE
  5
2d3
100
AcDbEntity
  8
newlayer
 62
7
100
AcDbLine
 10
471.000000
 20
404.982458
 30
0.0
 11
471.000000
 21
419.392458
 31
0.0
  0
LINE
  5
2d4
100
AcDbEntity
  8
newlayer
 62
7
100
AcDbLine
 10
471.000000
 20
419.392458
 30
0.0
 11
465.000000
 21
419.392458
 31
0.0
  0
LINE
  5
2d5
100
AcDbEntity
  8
newlayer
 62
7
100
AcDbLine
 10
465.000000
 20
419.392458
 30
0.0
 11
465.000000
 21
431.482458
 31
0.0
  0
LINE
  5
2d6
100
AcDbEntity
  8
newlayer
 62
7
100
AcDbLine
 10
465.000000
 20
431.482458
 30
0.0
 11
471.000000
 21
431.482458
 31
0.0
  0
LINE
  5
2d7
100
AcDbEntity
  8
newlayer
 62
7
100
AcDbLine
 10
471.000000
 20
431.482458
 30
0.0
 11
471.000000
 21
445.892458
 31
0.0
  0
LINE
  5
2d8
100
AcDbEntity
  8
newlayer
 62
7
100
AcDbLine
 10
471.000000
 20
445.892458
 30
0.0
 11
465.000000
 21
445.892458
 31
0.0
  0
LINE
  5
2d9
100
AcDbEntity
  8
newlayer
 62
7
100
AcDbLine
 10
465.000000
 20
445.892458
 30
0.0
 11
465.000000
 21
457.982458
 31
0.0
  0
LINE
  5
2da
100
AcDbEntity
  8
newlayer
 62
7
100
AcDbLine
 10
465.000000
 20
457.982458
 30
0.0
 11
471.000000
 21
457.982458
 31
0.0
  0
LINE
  5
2db
100
AcDbEntity
  8
newlayer
 62
7
100
AcDbLine
 10
471.000000
 20
457.982458
 30
0.0
 11
471.000000
 21
472.392458
 31
0.0
  0
LINE
  5
2dc
100
AcDbEntity
  8
newlayer
 62
7
100
AcDbLine
 10
471.000000
 20
472.392458
 30
0.0
 11
465.000000
 21
472.392458
 31
0.0
  0
LINE
  5
2dd
100
AcDbEntity
  8
newlayer
 62
7
100
AcDbLine
 10
465.000000
 20
472.392458
 30
0.0
 11
465.000000
 21
484.482458
 31
0.0
  0
LINE
  5
2de
100
AcDbEntity
  8
newlayer
 62
7
100
AcDbLine
 10
465.000000
 20
484.482458
 30
0.0
 11
471.000000
 21
484.482458
 31
0.0
  0
LINE
  5
2df
100
AcDbEntity
  8
newlayer
 62
7
100
AcDbLine
 10
471.000000
 20
484.482458
 30
0.0
 11
471.000000
 21
498.892458
 31
0.0
  0
LINE
  5
2e0
100
AcDbEntity
  8
newlayer
 62
7
100
AcDbLine
 10
471.000000
 20
498.892458
 30
0.0
 11
465.000000
 21
498.892458
 31
0.0
  0
LINE
  5
2e1
100
AcDbEntity
  8
newlayer
 62
7
100
AcDbLine
 10
465.000000
 20
498.892458
 30
0.0
 11
465.000000
 21
510.982458
 31
0.0
  0
LINE
  5
2e2
100
AcDbEntity
  8
newlayer
 62
7
100
AcDbLine
 10
465.000000
 20
510.982458
 30
0.0
 11
471.000000
 21
510.982458
 31
0.0
  0
LINE
  5
2e3
100
AcDbEntity
  8
newlayer
 62
7
100
AcDbLine
 10
471.000000
 20
510.982458
 30
0.0
 11
471.000000
 21
525.392458
 31
0.0
  0
LINE
  5
2e4
100
AcDbEntity
  8
newlayer
 62
7
100
AcDbLine
 10
471.000000
 20
525.392458
 30
0.0
 11
465.000000
 21
525.392458
 31
0.0
  0
LINE
  5
2e5
100
AcDbEntity
  8
newlayer
 62
7
100
AcDbLine
 10
465.000000
 20
525.392458
 30
0.0
 11
465.000000
 21
537.482458
 31
0.0
  0
LINE
  5
2e6
100
AcDbEntity
  8
newlayer
 62
7
100
AcDbLine
 10
465.000000
 20
537.482458
 30
0.0
 11
471.000000
 21
537.482458
 31
0.0
  0
LINE
  5
2e7
100
AcDbEntity
  8
newlayer
 62
7
100
AcDbLine
 10
471.000000
 20
537.482458
 30
0.0
 11
471.000000
 21
551.892458
 31
0.0
  0
LINE
  5
2e8
100
AcDbEntity
  8
newlayer
 62
7
100
AcDbLine
 10
471.000000
 20
551.892458
 30
0.0
 11
465.000000
 21
551.892458
 31
0.0
  0
LINE
  5
2e9
100
AcDbEntity
  8
newlayer
 62
7
100
AcDbLine
 10
465.000000
 20
551.892458
 30
0.0
 11
465.000000
 21
563.982458
 31
0.0
  0
LINE
  5
2ea
100
AcDbEntity
  8
newlayer
 62
7
100
AcDbLine
 10
465.000000
 20
563.982458
 30
0.0
 11
471.000000
 21
563.982458
 31
0.0
  0
LINE
  5
2eb
100
AcDbEntity
  8
newlayer
 62
7
100
AcDbLine
 10
471.000000
 20
563.982458
 30
0.0
 11
471.000000
 21
572.437458
 31
0.0
  0
LINE
  5
2ec
100
AcDbEntity
  8
newlayer
 62
7
100
AcDbLine
 10
460.000000
 20
589.437458
 30
0.0
 11
445.845000
 21
589.437458
 31
0.0
  0
LINE
  5
2ed
100
AcDbEntity
  8
newlayer
 62
7
100
AcDbLine
 10
445.845000
 20
589.437458
 30
0.0
 11
445.845000
 21
583.437458
 31
0.0
  0
LINE
  5
2ee
100
AcDbEntity
  8
newlayer
 62
7
100
AcDbLine
 10
445.845000
 20
583.437458
 30
0.0
 11
433.755000
 21
583.437458
 31
0.0
  0
LINE
  5
2ef
100
AcDbEntity
  8
newlayer
 62
7
100
AcDbLine
 10
433.755000
 20
583.437458
 30
0.0
 11
433.755000
 21
589.437458
 31
0.0
  0
LINE
  5
2f0
100
AcDbEntity
  8
newlayer
 62
7
100
AcDbLine
 10
433.755000
 20
589.437458
 30
0.0
 11
419.645000
 21
589.437458
 31
0.0
  0
LINE
  5
2f1
100
AcDbEntity
  8
newlayer
 62
7
100
AcDbLine
 10
419.645000
 20
589.437458
 30
0.0
 11
419.645000
 21
583.437458
 31
0.0
  0
LINE
  5
2f2
100
AcDbEntity
  8
newlayer
 62
7
100
AcDbLine
 10
419.645000
 20
583.437458
 30
0.0
 11
407.555000
 21
583.437458
 31
0.0
  0
LINE
  5
2f3
100
AcDbEntity
  8
newlayer
 62
7
100
AcDbLine
 10
407.555000
 20
583.437458
 30
0.0
 11
407.555000
 21
589.437458
 31
0.0
  0
LINE
  5
2f4
100
AcDbEntity
  8
newlayer
 62
7
100
AcDbLine
 10
407.555000
 20
589.437458
 30
0.0
 11
393.445000
 21
589.437458
 31
0.0
  0
LINE
  5
2f5
100
AcDbEntity
  8
newlayer
 62
7
100
AcDbLine
 10
393.445000
 20
589.437458
 30
0.0
 11
393.445000
 21
583.437458
 31
0.0
  0
LINE
  5
2f6
100
AcDbEntity
  8
newlayer
 62
7
100
AcDbLine
 10
393.445000
 20
583.437458
 30
0.0
 11
381.355000
 21
583.437458
 31
0.0
  0
LINE
  5
2f7
100
AcDbEntity
  8
newlayer
 62
7
100
AcDbLine
 10
381.355000
 20
583.437458
 30
0.0
 11
381.355000
 21
589.437458
 31
0.0
  0
LINE
  5
2f8
100
AcDbEntity
  8
newlayer
 62
7
100
AcDbLine
 10
381.355000
 20
589.437458
 30
0.0
 11
367.245000
 21
589.437458
 31
0.0
  0
LINE
  5
2f9
100
AcDbEntity
  8
newlayer
 62
7
100
AcDbLine
 10
367.245000
 20
589.437458
 30
0.0
 11
367.245000
 21
583.437458
 31
0.0
  0
LINE
  5
2fa
100
AcDbEntity
  8
newlayer
 62
7
100
AcDbLine
 10
367.245000
 20
583.437458
 30
0.0
 11
355.155000
 21
583.437458
 31
0.0
  0
LINE
  5
2fb
100
AcDbEntity
  8
newlayer
 62
7
100
AcDbLine
 10
355.155000
 20
583.437458
 30
0.0
 11
355.155000
 21
589.437458
 31
0.0
  0
LINE
  5
2fc
100
AcDbEntity
  8
newlayer
 62
7
100
AcDbLine
 10
355.155000
 20
589.437458
 30
0.0
 11
341.045000
 21
589.437458
 31
0.0
  0
LINE
  5
2fd
100
AcDbEntity
  8
newlayer
 62
7
100
AcDbLine
 10
341.045000
 20
589.437458
 30
0.0
 11
341.045000
 21
583.437458
 31
0.0
  0
LINE
  5
2fe
100
AcDbEntity
  8
newlayer
 62
7
100
AcDbLine
 10
341.045000
 20
583.437458
 30
0.0
 11
328.955000
 21
583.437458
 31
0.0
  0
LINE
  5
2ff
100
AcDbEntity
  8
newlayer
 62
7
100
AcDbLine
 10
328.955000
 20
583.437458
 30
0.0
 11
328.955000
 21
589.437458
 31
0.0
  0
LINE
  5
300
100
AcDbEntity
  8
newlayer
 62
7
100
AcDbLine
 10
328.955000
 20
589.437458
 30
0.0
 11
314.845000
 21
589.437458
 31
0.0
  0
LINE
  5
301
100
AcDbEntity
  8
newlayer
 62
7
100
AcDbLine
 10
314.845000
 20
589.437458
 30
0.0
 11
314.845000
 21
583.437458
 31
0.0
  0
LINE
  5
302
100
AcDbEntity
  8
newlayer
 62
7
100
AcDbLine
 10
314.845000
 20
583.437458
 30
0.0
 11
302.755000
 21
583.437458
 31
0.0
  0
LINE
  5
303
100
AcDbEntity
  8
newlayer
 62
7
100
AcDbLine
 10
302.755000
 20
583.437458
 30
0.0
 11
302.755000
 21
589.437458
 31
0.0
  0
LINE
  5
304
100
AcDbEntity
  8
newlayer
 62
7
100
AcDbLine
 10
302.755000
 20
589.437458
 30
0.0
 11
288.645000
 21
589.437458
 31
0.0
  0
LINE
  5
305
100
AcDbEntity
  8
newlayer
 62
7
100
AcDbLine
 10
288.645000
 20
589.437458
 30
0.0
 11
288.645000
 21
583.437458
 31
0.0
  0
LINE
  5
306
100
AcDbEntity
  8
newlayer
 62
7
100
AcDbLine
 10
288.645000
 20
583.437458
 30
0.0
 11
276.555000
 21
583.437458
 31
0.0
  0
LINE
  5
307
100
AcDbEntity
  8
newlayer
 62
7
100
AcDbLine
 10
276.555000
 20
583.437458
 30
0.0
 11
276.555000
 21
589.437458
 31
0.0
  0
LINE
  5
308
100
AcDbEntity
  8
newlayer
 62
7
100
AcDbLine
 10
276.555000
 20
589.437458
 30
0.0
 11
262.445000
 21
589.437458
 31
0.0
  0
LINE
  5
309
100
AcDbEntity
  8
newlayer
 62
7
100
AcDbLine
 10
262.445000
 20
589.437458
 30
0.0
 11
262.445000
 21
583.437458
 31
0.0
  0
LINE
  5
30a
100
AcDbEntity
  8
newlayer
 62
7
100
AcDbLine
 10
262.445000
 20
583.437458
 30
0.0
 11
250.355000
 21
583.437458
 31
0.0
  0
LINE
  5
30b
100
AcDbEntity
  8
newlayer
 62
7
100
AcDbLine
 10
250.355000
 20
583.437458
 30
0.0
 11
250.355000
 21
589.437458
 31
0.0
  0
LINE
  5
30c
100
AcDbEntity
  8
newlayer
 62
7
100
AcDbLine
 10
250.355000
 20
589.437458
 30
0.0
 11
236.245000
 21
589.437458
 31
0.0
  0
LINE
  5
30d
100
AcDbEntity
  8
newlayer
 62
7
100
AcDbLine
 10
236.245000
 20
589.437458
 30
0.0
 11
236.245000
 21
583.437458
 31
0.0
  0
LINE
  5
30e
100
AcDbEntity
  8
newlayer
 62
7
100
AcDbLine
 10
236.245000
 20
583.437458
 30
0.0
 11
224.155000
 21
583.437458
 31
0.0
  0
LINE
  5
30f
100
AcDbEntity
  8
newlayer
 62
7
100
AcDbLine
 10
224.155000
 20
583.437458
 30
0.0
 11
224.155000
 21
589.437458
 31
0.0
  0
LINE
  5
310
100
AcDbEntity
  8
newlayer
 62
7
100
AcDbLine
 10
224.155000
 20
589.437458
 30
0.0
 11
210.000000
 21
589.437458
 31
0.0
  0
LINE
  5
311
100
AcDbEntity
  8
newlayer
 62
7
100
AcDbLine
 10
210.000001
 20
589.437459
 30
0.0
 11
210.000001
 21
597.982458
 31
0.0
  0
LINE
  5
312
100
AcDbEntity
  8
newlayer
 62
7
100
AcDbLine
 10
210.000001
 20
597.982458
 30
0.0
 11
215.999999
 21
597.982458
 31
0.0
  0
LINE
  5
313
100
AcDbEntity
  8
newlayer
 62
7
100
AcDbLine
 10
215.999999
 20
597.982458
 30
0.0
 11
215.999999
 21
609.892457
 31
0.0
  0
LINE
  5
314
100
AcDbEntity
  8
newlayer
 62
7
100
AcDbLine
 10
215.999999
 20
609.892457
 30
0.0
 11
210.000001
 21
609.892457
 31
0.0
  0
LINE
  5
315
100
AcDbEntity
  8
newlayer
 62
7
100
AcDbLine
 10
210.000001
 20
609.892457
 30
0.0
 11
210.000001
 21
624.482458
 31
0.0
  0
LINE
  5
316
100
AcDbEntity
  8
newlayer
 62
7
100
AcDbLine
 10
210.000001
 20
624.482458
 30
0.0
 11
215.999999
 21
624.482458
 31
0.0
  0
LINE
  5
317
100
AcDbEntity
  8
newlayer
 62
7
100
AcDbLine
 10
215.999999
 20
624.482458
 30
0.0
 11
215.999999
 21
636.392457
 31
0.0
  0
LINE
  5
318
100
AcDbEntity
  8
newlayer
 62
7
100
AcDbLine
 10
215.999999
 20
636.392457
 30
0.0
 11
210.000001
 21
636.392457
 31
0.0
  0
LINE
  5
319
100
AcDbEntity
  8
newlayer
 62
7
100
AcDbLine
 10
210.000001
 20
636.392457
 30
0.0
 11
210.000001
 21
650.982458
 31
0.0
  0
LINE
  5
31a
100
AcDbEntity
  8
newlayer
 62
7
100
AcDbLine
 10
210.000001
 20
650.982458
 30
0.0
 11
215.999999
 21
650.982458
 31
0.0
  0
LINE
  5
31b
100
AcDbEntity
  8
newlayer
 62
7
100
AcDbLine
 10
215.999999
 20
650.982458
 30
0.0
 11
215.999999
 21
662.892457
 31
0.0
  0
LINE
  5
31c
100
AcDbEntity
  8
newlayer
 62
7
100
AcDbLine
 10
215.999999
 20
662.892457
 30
0.0
 11
210.000001
 21
662.892457
 31
0.0
  0
LINE
  5
31d
100
AcDbEntity
  8
newlayer
 62
7
100
AcDbLine
 10
210.000001
 20
662.892457
 30
0.0
 11
210.000001
 21
677.482458
 31
0.0
  0
LINE
  5
31e
100
AcDbEntity
  8
newlayer
 62
7
100
AcDbLine
 10
210.000001
 20
677.482458
 30
0.0
 11
215.999999
 21
677.482458
 31
0.0
  0
LINE
  5
31f
100
AcDbEntity
  8
newlayer
 62
7
100
AcDbLine
 10
215.999999
 20
677.482458
 30
0.0
 11
215.999999
 21
689.392457
 31
0.0
  0
LINE
  5
320
100
AcDbEntity
  8
newlayer
 62
7
100
AcDbLine
 10
215.999999
 20
689.392457
 30
0.0
 11
210.000001
 21
689.392457
 31
0.0
  0
LINE
  5
321
100
AcDbEntity
  8
newlayer
 62
7
100
AcDbLine
 10
210.000001
 20
689.392457
 30
0.0
 11
210.000001
 21
703.982458
 31
0.0
  0
LINE
  5
322
100
AcDbEntity
  8
newlayer
 62
7
100
AcDbLine
 10
210.000001
 20
703.982458
 30
0.0
 11
215.999999
 21
703.982458
 31
0.0
  0
LINE
  5
323
100
AcDbEntity
  8
newlayer
 62
7
100
AcDbLine
 10
215.999999
 20
703.982458
 30
0.0
 11
215.999999
 21
715.892457
 31
0.0
  0
LINE
  5
324
100
AcDbEntity
  8
newlayer
 62
7
100
AcDbLine
 10
215.999999
 20
715.892457
 30
0.0
 11
210.000001
 21
715.892457
 31
0.0
  0
LINE
  5
325
100
AcDbEntity
  8
newlayer
 62
7
100
AcDbLine
 10
210.000001
 20
715.892457
 30
0.0
 11
210.000001
 21
730.482458
 31
0.0
  0
LINE
  5
326
100
AcDbEntity
  8
newlayer
 62
7
100
AcDbLine
 10
210.000001
 20
730.482458
 30
0.0
 11
215.999999
 21
730.482458
 31
0.0
  0
LINE
  5
327
100
AcDbEntity
  8
newlayer
 62
7
100
AcDbLine
 10
215.999999
 20
730.482458
 30
0.0
 11
215.999999
 21
742.392457
 31
0.0
  0
LINE
  5
328
100
AcDbEntity
  8
newlayer
 62
7
100
AcDbLine
 10
215.999999
 20
742.392457
 30
0.0
 11
210.000001
 21
742.392457
 31
0.0
  0
LINE
  5
329
100
AcDbEntity
  8
newlayer
 62
7
100
AcDbLine
 10
210.000001
 20
742.392457
 30
0.0
 11
210.000001
 21
756.982458
 31
0.0
  0
LINE
  5
32a
100
AcDbEntity
  8
newlayer
 62
7
100
AcDbLine
 10
210.000001
 20
756.982458
 30
0.0
 11
215.999999
 21
756.982458
 31
0.0
  0
LINE
  5
32b
100
AcDbEntity
  8
newlayer
 62
7
100
AcDbLine
 10
215.999999
 20
756.982458
 30
0.0
 11
215.999999
 21
783.437989
 31
0.0
  0
LINE
  5
32c
100
AcDbEntity
  8
newlayer
 62
7
100
AcDbLine
 10
215.999999
 20
783.437989
 30
0.0
 11
453.999997
 21
783.437989
 31
0.0
  0
LINE
  5
32d
100
AcDbEntity
  8
newlayer
 62
7
100
AcDbLine
 10
453.999997
 20
783.437989
 30
0.0
 11
453.999997
 21
756.982458
 31
0.0
  0
LINE
  5
32e
100
AcDbEntity
  8
newlayer
 62
7
100
AcDbLine
 10
453.999997
 20
756.982458
 30
0.0
 11
460.000006
 21
756.982458
 31
0.0
  0
LINE
  5
32f
100
AcDbEntity
  8
newlayer
 62
7
100
AcDbLine
 10
460.000006
 20
756.982458
 30
0.0
 11
460.000006
 21
742.392457
 31
0.0
  0
LINE
  5
330
100
AcDbEntity
  8
newlayer
 62
7
100
AcDbLine
 10
460.000006
 20
742.392457
 30
0.0
 11
453.999997
 21
742.392457
 31
0.0
  0
LINE
  5
331
100
AcDbEntity
  8
newlayer
 62
7
100
AcDbLine
 10
453.999997
 20
742.392457
 30
0.0
 11
453.999997
 21
730.482458
 31
0.0
  0
LINE
  5
332
100
AcDbEntity
  8
newlayer
 62
7
100
AcDbLine
 10
453.999997
 20
730.482458
 30
0.0
 11
460.000006
 21
730.482458
 31
0.0
  0
LINE
  5
333
100
AcDbEntity
  8
newlayer
 62
7
100
AcDbLine
 10
460.000006
 20
730.482458
 30
0.0
 11
460.000006
 21
715.892457
 31
0.0
  0
LINE
  5
334
100
AcDbEntity
  8
newlayer
 62
7
100
AcDbLine
 10
460.000006
 20
715.892457
 30
0.0
 11
453.999997
 21
715.892457
 31
0.0
  0
LINE
  5
335
100
AcDbEntity
  8
newlayer
 62
7
100
AcDbLine
 10
453.999997
 20
715.892457
 30
0.0
 11
453.999997
 21
703.982458
 31
0.0
  0
LINE
  5
336
100
AcDbEntity
  8
newlayer
 62
7
100
AcDbLine
 10
453.999997
 20
703.982458
 30
0.0
 11
460.000006
 21
703.982458
 31
0.0
  0
LINE
  5
337
100
AcDbEntity
  8
newlayer
 62
7
100
AcDbLine
 10
460.000006
 20
703.982458
 30
0.0
 11
460.000006
 21
689.392457
 31
0.0
  0
LINE
  5
338
100
AcDbEntity
  8
newlayer
 62
7
100
AcDbLine
 10
460.000006
 20
689.392457
 30
0.0
 11
453.999997
 21
689.392457
 31
0.0
  0
LINE
  5
339
100
AcDbEntity
  8
newlayer
 62
7
100
AcDbLine
 10
453.999997
 20
689.392457
 30
0.0
 11
453.999997
 21
677.482458
 31
0.0
  0
LINE
  5
33a
100
AcDbEntity
  8
newlayer
 62
7
100
AcDbLine
 10
453.999997
 20
677.482458
 30
0.0
 11
460.000006
 21
677.482458
 31
0.0
  0
LINE
  5
33b
100
AcDbEntity
  8
newlayer
 62
7
100
AcDbLine
 10
460.000006
 20
677.482458
 30
0.0
 11
460.000006
 21
662.892457
 31
0.0
  0
LINE
  5
33c
100
AcDbEntity
  8
newlayer
 62
7
100
AcDbLine
 10
460.000006
 20
662.892457
 30
0.0
 11
453.999997
 21
662.892457
 31
0.0
  0
LINE
  5
33d
100
AcDbEntity
  8
newlayer
 62
7
100
AcDbLine
 10
453.999997
 20
662.892457
 30
0.0
 11
453.999997
 21
650.982458
 31
0.0
  0
LINE
  5
33e
100
AcDbEntity
  8
newlayer
 62
7
100
AcDbLine
 10
453.999997
 20
650.982458
 30
0.0
 11
460.000006
 21
650.982458
 31
0.0
  0
LINE
  5
33f
100
AcDbEntity
  8
newlayer
 62
7
100
AcDbLine
 10
460.000006
 20
650.982458
 30
0.0
 11
460.000006
 21
636.392457
 31
0.0
  0
LINE
  5
340
100
AcDbEntity
  8
newlayer
 62
7
100
AcDbLine
 10
460.000006
 20
636.392457
 30
0.0
 11
453.999997
 21
636.392457
 31
0.0
  0
LINE
  5
341
100
AcDbEntity
  8
newlayer
 62
7
100
AcDbLine
 10
453.999997
 20
636.392457
 30
0.0
 11
453.999997
 21
624.482458
 31
0.0
  0
LINE
  5
342
100
AcDbEntity
  8
newlayer
 62
7
100
AcDbLine
 10
453.999997
 20
624.482458
 30
0.0
 11
460.000006
 21
624.482458
 31
0.0
  0
LINE
  5
343
100
AcDbEntity
  8
newlayer
 62
7
100
AcDbLine
 10
460.000006
 20
624.482458
 30
0.0
 11
460.000006
 21
609.892457
 31
0.0
  0
LINE
  5
344
100
AcDbEntity
  8
newlayer
 62
7
100
AcDbLine
 10
460.000006
 20
609.892457
 30
0.0
 11
453.999997
 21
609.892457
 31
0.0
  0
LINE
  5
345
100
AcDbEntity
  8
newlayer
 62
7
100
AcDbLine
 10
453.999997
 20
609.892457
 30
0.0
 11
453.999997
 21
597.982458
 31
0.0
  0
LINE
  5
346
100
AcDbEntity
  8
newlayer
 62
7
100
AcDbLine
 10
453.999997
 20
597.982458
 30
0.0
 11
460.000006
 21
597.982458
 31
0.0
  0
LINE
  5
347
100
AcDbEntity
  8
newlayer
 62
7
100
AcDbLine
 10
460.000006
 20
597.982458
 30
0.0
 11
460.000006
 21
589.437459
 31
0.0
  0
LINE
  5
348
100
AcDbEntity
  8
newlayer
 62
7
100
AcDbLine
 10
14.640201
 20
572.437495
 30
0.0
 11
21.640201
 21
572.437495
 31
0.0
  0
LINE
  5
349
100
AcDbEntity
  8
newlayer
 62
7
100
AcDbLine
 10
21.640201
 20
572.437495
 30
0.0
 11
21.640201
 21
384.437488
 31
0.0
  0
LINE
  5
34a
100
AcDbEntity
  8
newlayer
 62
7
100
AcDbLine
 10
21.640201
 20
384.437488
 30
0.0
 11
14.640201
 21
384.437488
 31
0.0
  0
LINE
  5
34b
100
AcDbEntity
  8
newlayer
 62
7
100
AcDbLine
 10
14.640201
 20
384.437488
 30
0.0
 11
14.640201
 21
572.437495
 31
0.0
  0
LINE
  5
34c
100
AcDbEntity
  8
newlayer
 62
7
100
AcDbLine
 10
716.000230
 20
571.936978
 30
0.0
 11
716.000230
 21
558.438061
 31
0.0
  0
LINE
  5
34d
100
AcDbEntity
  8
newlayer
 62
7
100
AcDbLine
 10
716.000230
 20
558.438061
 30
0.0
 11
703.999920
 21
558.438061
 31
0.0
  0
SPLINE
  5
34e
100
AcDbEntity
  8
newlayer
 62
7
100
AcDbSpline
 70
8
 71
3
 72
8
 73
4
 74
0
 40
0
 40
0
 40
0
 40
0
 40
1
 40
1
 40
1
 40
1
 10
703.999920
 20
558.438061
 30
0.0
 10
698.459916
 20
558.438061
 30
0.0
 10
694.000020
 20
551.747949
 30
0.0
 10
694.000020
 20
543.437942
 30
0.0
  0
LINE
  5
34f
100
AcDbEntity
  8
newlayer
 62
7
100
AcDbLine
 10
694.000020
 20
543.437942
 30
0.0
 11
694.000020
 21
533.438036
 31
0.0
  0
SPLINE
  5
350
100
AcDbEntity
  8
newlayer
 62
7
100
AcDbSpline
 70
8
 71
3
 72
8
 73
4
 74
0
 40
0
 40
0
 40
0
 40
0
 40
1
 40
1
 40
1
 40
1
 10
694.000020
 20
533.438036
 30
0.0
 10
694.000020
 20
525.128030
 30
0.0
 10
698.459916
 20
518.437918
 30
0.0
 10
703.999920
 20
518.437918
 30
0.0
  0
LINE
  5
351
100
AcDbEntity
  8
newlayer
 62
7
100
AcDbLine
 10
703.999920
 20
518.437918
 30
0.0
 11
716.000230
 21
518.437918
 31
0.0
  0
LINE
  5
352
100
AcDbEntity
  8
newlayer
 62
7
100
AcDbLine
 10
716.000230
 20
518.437918
 30
0.0
 11
716.000230
 21
498.438117
 31
0.0
  0
LINE
  5
353
100
AcDbEntity
  8
newlayer
 62
7
100
AcDbLine
 10
716.000230
 20
498.438117
 30
0.0
 11
703.999920
 21
498.438117
 31
0.0
  0
SPLINE
  5
354
100
AcDbEntity
  8
newlayer
 62
7
100
AcDbSpline
 70
8
 71
3
 72
8
 73
4
 74
0
 40
0
 40
0
 40
0
 40
0
 40
1
 40
1
 40
1
 40
1
 10
703.999920
 20
498.438117
 30
0.0
 10
698.459916
 20
498.438117
 30
0.0
 10
694.000020
 20
491.747995
 30
0.0
 10
694.000020
 20
483.437988
 30
0.0
  0
LINE
  5
355
100
AcDbEntity
  8
newlayer
 62
7
100
AcDbLine
 10
694.000020
 20
483.437988
 30
0.0
 11
694.000020
 21
473.438088
 31
0.0
  0
SPLINE
  5
356
100
AcDbEntity
  8
newlayer
 62
7
100
AcDbSpline
 70
8
 71
3
 72
8
 73
4
 74
0
 40
0
 40
0
 40
0
 40
0
 40
1
 40
1
 40
1
 40
1
 10
694.000020
 20
473.438088
 30
0.0
 10
694.000020
 20
465.128081
 30
0.0
 10
698.459916
 20
458.437959
 30
0.0
 10
703.999920
 20
458.437959
 30
0.0
  0
LINE
  5
357
100
AcDbEntity
  8
newlayer
 62
7
100
AcDbLine
 10
703.999920
 20
458.437959
 30
0.0
 11
716.000230
 21
458.437959
 31
0.0
  0
LINE
  5
358
100
AcDbEntity
  8
newlayer
 62
7
100
AcDbLine
 10
716.000230
 20
458.437959
 30
0.0
 11
716.000230
 21
438.438158
 31
0.0
  0
LINE
  5
359
100
AcDbEntity
  8
newlayer
 62
7
100
AcDbLine
 10
716.000230
 20
438.438158
 30
0.0
 11
703.999920
 21
438.438158
 31
0.0
  0
SPLINE
  5
35a
100
AcDbEntity
  8
newlayer
 62
7
100
AcDbSpline
 70
8
 71
3
 72
8
 73
4
 74
0
 40
0
 40
0
 40
0
 40
0
 40
1
 40
1
 40
1
 40
1
 10
703.999920
 20
438.438158
 30
0.0
 10
698.459916
 20
438.438158
 30
0.0
 10
694.000020
 20
431.748036
 30
0.0
 10
694.000020
 20
423.438029
 30
0.0
  0
LINE
  5
35b
100
AcDbEntity
  8
newlayer
 62
7
100
AcDbLine
 10
694.000020
 20
423.438029
 30
0.0
 11
694.000020
 21
413.438128
 31
0.0
  0
SPLINE
  5
35c
100
AcDbEntity
  8
newlayer
 62
7
100
AcDbSpline
 70
8
 71
3
 72
8
 73
4
 74
0
 40
0
 40
0
 40
0
 40
0
 40
1
 40
1
 40
1
 40
1
 10
694.000020
 20
413.438128
 30
0.0
 10
694.000020
 20
405.128121
 30
0.0
 10
698.459916
 20
398.438000
 30
0.0
 10
703.999920
 20
398.438000
 30
0.0
  0
LINE
  5
35d
100
AcDbEntity
  8
newlayer
 62
7
100
AcDbLine
 10
703.999920
 20
398.438000
 30
0.0
 11
716.000230
 21
398.438000
 31
0.0
  0
LINE
  5
35e
100
AcDbEntity
  8
newlayer
 62
7
100
AcDbLine
 10
716.000230
 20
398.438000
 30
0.0
 11
716.000230
 21
384.937026
 31
0.0
  0
LINE
  5
35f
100
AcDbEntity
  8
newlayer
 62
7
100
AcDbLine
 10
716.000230
 20
384.937026
 30
0.0
 11
960.000011
 21
384.937026
 31
0.0
  0
LINE
  5
360
100
AcDbEntity
  8
newlayer
 62
7
100
AcDbLine
 10
960.000011
 20
384.937026
 30
0.0
 11
960.000011
 21
571.936978
 31
0.0
  0
LINE
  5
361
100
AcDbEntity
  8
newlayer
 62
7
100
AcDbLine
 10
960.000011
 20
571.936978
 30
0.0
 11
716.000230
 21
571.936978
 31
0.0
  0
LINE
  5
362
100
AcDbEntity
  8
newlayer
 62
7
100
AcDbLine
 10
648.359791
 20
498.438038
 30
0.0
 11
655.359793
 21
498.438038
 31
0.0
  0
LINE
  5
363
100
AcDbEntity
  8
newlayer
 62
7
100
AcDbLine
 10
655.359793
 20
498.438038
 30
0.0
 11
655.359793
 21
458.438038
 31
0.0
  0
LINE
  5
364
100
AcDbEntity
  8
newlayer
 62
7
100
AcDbLine
 10
655.359793
 20
458.438038
 30
0.0
 11
648.359791
 21
458.438038
 31
0.0
  0
LINE
  5
365
100
AcDbEntity
  8
newlayer
 62
7
100
AcDbLine
 10
648.359791
 20
458.438038
 30
0.0
 11
648.359791
 21
498.438038
 31
0.0
  0
LINE
  5
366
100
AcDbEntity
  8
newlayer
 62
7
100
AcDbLine
 10
648.359791
 20
558.438026
 30
0.0
 11
655.359793
 21
558.438026
 31
0.0
  0
LINE
  5
367
100
AcDbEntity
  8
newlayer
 62
7
100
AcDbLine
 10
655.359793
 20
558.438026
 30
0.0
 11
655.359793
 21
518.438024
 31
0.0
  0
LINE
  5
368
100
AcDbEntity
  8
newlayer
 62
7
100
AcDbLine
 10
655.359793
 20
518.438024
 30
0.0
 11
648.359791
 21
518.438024
 31
0.0
  0
LINE
  5
369
100
AcDbEntity
  8
newlayer
 62
7
100
AcDbLine
 10
648.359791
 20
518.438024
 30
0.0
 11
648.359791
 21
558.438026
 31
0.0
  0
LINE
  5
36a
100
AcDbEntity
  8
newlayer
 62
7
100
AcDbLine
 10
648.359791
 20
438.438025
 30
0.0
 11
655.359793
 21
438.438025
 31
0.0
  0
LINE
  5
36b
100
AcDbEntity
  8
newlayer
 62
7
100
AcDbLine
 10
655.359793
 20
438.438025
 30
0.0
 11
655.359793
 21
398.438000
 31
0.0
  0
LINE
  5
36c
100
AcDbEntity
  8
newlayer
 62
7
100
AcDbLine
 10
655.359793
 20
398.438000
 30
0.0
 11
648.359791
 21
398.438000
 31
0.0
  0
LINE
  5
36d
100
AcDbEntity
  8
newlayer
 62
7
100
AcDbLine
 10
648.359791
 20
398.438000
 30
0.0
 11
648.359791
 21
438.438025
 31
0.0
  0
SPLINE
  5
36e
100
AcDbEntity
  8
newlayer
 62
7
100
AcDbSpline
 70
8
 71
3
 72
8
 73
4
 74
0
 40
0
 40
0
 40
0
 40
0
 40
1
 40
1
 40
1
 40
1
 10
708.500043
 20
478.438025
 30
0.0
 10
708.500043
 20
477.634177
 30
0.0
 10
708.071195
 20
476.891391
 30
0.0
 10
707.375043
 20
476.489468
 30
0.0
  0
SPLINE
  5
36f
100
AcDbEntity
  8
newlayer
 62
7
100
AcDbSpline
 70
8
 71
3
 72
8
 73
4
 74
0
 40
0
 40
0
 40
0
 40
0
 40
1
 40
1
 40
1
 40
1
 10
707.375043
 20
476.489468
 30
0.0
 10
706.678890
 20
476.087544
 30
0.0
 10
705.821195
 20
476.087544
 30
0.0
 10
705.125043
 20
476.489468
 30
0.0
  0
SPLINE
  5
370
100
AcDbEntity
  8
newlayer
 62
7
100
AcDbSpline
 70
8
 71
3
 72
8
 73
4
 74
0
 40
0
 40
0
 40
0
 40
0
 40
1
 40
1
 40
1
 40
1
 10
705.125043
 20
476.489468
 30
0.0
 10
704.428890
 20
476.891391
 30
0.0
 10
704.000043
 20
477.634177
 30
0.0
 10
704.000043
 20
478.438025
 30
0.0
  0
SPLINE
  5
371
100
AcDbEntity
  8
newlayer
 62
7
100
AcDbSpline
 70
8
 71
3
 72
8
 73
4
 74
0
 40
0
 40
0
 40
0
 40
0
 40
1
 40
1
 40
1
 40
1
 10
704.000043
 20
478.438025
 30
0.0
 10
704.000043
 20
479.241872
 30
0.0
 10
704.428890
 20
479.984658
 30
0.0
 10
705.125043
 20
480.386582
 30
0.0
  0
SPLINE
  5
372
100
AcDbEntity
  8
newlayer
 62
7
100
AcDbSpline
 70
8
 71
3
 72
8
 73
4
 74
0
 40
0
 40
0
 40
0
 40
0
 40
1
 40
1
 40
1
 40
1
 10
705.125043
 20
480.386582
 30
0.0
 10
705.821195
 20
480.788506
 30
0.0
 10
706.678890
 20
480.788506
 30
0.0
 10
707.375043
 20
480.386582
 30
0.0
  0
SPLINE
  5
373
100
AcDbEntity
  8
newlayer
 62
7
100
AcDbSpline
 70
8
 71
3
 72
8
 73
4
 74
0
 40
0
 40
0
 40
0
 40
0
 40
1
 40
1
 40
1
 40
1
 10
707.375043
 20
480.386582
 30
0.0
 10
708.071195
 20
479.984658
 30
0.0
 10
708.500043
 20
479.241872
 30
0.0
 10
708.500043
 20
478.438025
 30
0.0
  0
LINE
  5
374
100
AcDbEntity
  8
newlayer
 62
7
100
AcDbLine
 10
708.500043
 20
478.438025
 30
0.0
 11
708.500043
 21
478.438025
 31
0.0
  0
ENDSEC
  0
SECTION
  2
OBJECTS
  0
DICTIONARY
  5
C
330
0
100
AcDbDictionary
  3
ACAD_GROUP
350
D
  3
ACAD_MLINESTYLE
350
17
  0
DICTIONARY
  5
D
330
C
100
AcDbDictionary
  0
DICTIONARY
  5
1A
330
C
100
AcDbDictionary
  0
DICTIONARY
  5
17
330
C
100
AcDbDictionary
  3
STANDARD
350
18
  0
DICTIONARY
  5
19
330
C
100
AcDbDictionary
  0
ENDSEC
  0
EOF
