<?xml version="1.0" encoding="UTF-8" standalone="no"?>
<!-- Created with Inkscape (http://www.inkscape.org/) -->

<svg
   xmlns:dc="http://purl.org/dc/elements/1.1/"
   xmlns:cc="http://creativecommons.org/ns#"
   xmlns:rdf="http://www.w3.org/1999/02/22-rdf-syntax-ns#"
   xmlns:svg="http://www.w3.org/2000/svg"
   xmlns="http://www.w3.org/2000/svg"
   xmlns:sodipodi="http://sodipodi.sourceforge.net/DTD/sodipodi-0.dtd"
   xmlns:inkscape="http://www.inkscape.org/namespaces/inkscape"
   width="3232.7832"
   height="3168.6094"
   viewBox="0 0 3232.7833 3168.6092"
   id="svg2"
   version="1.1"
   inkscape:version="0.48.4 r9939"
   sodipodi:docname="note-acceptor-2.svg">
  <sodipodi:namedview
     id="base"
     pagecolor="#ffffff"
     bordercolor="#666666"
     borderopacity="1.0"
     inkscape:pageopacity="0.0"
     inkscape:pageshadow="2"
     inkscape:zoom="0.7000859"
     inkscape:cx="3467.0613"
     inkscape:cy="2749.0576"
     inkscape:document-units="px"
     inkscape:current-layer="layer1"
     showgrid="false"
     inkscape:window-width="1920"
     inkscape:window-height="1018"
     inkscape:window-x="-8"
     inkscape:window-y="-8"
     inkscape:window-maximized="1"
     fit-margin-top="5"
     fit-margin-left="5"
     fit-margin-bottom="5"
     fit-margin-right="5"
     inkscape:object-nodes="true"
     inkscape:object-paths="true"
     inkscape:snap-bbox="false"
     inkscape:snap-page="false"
     inkscape:snap-nodes="true"
     showguides="true"
     inkscape:guide-bbox="true"
     inkscape:snap-grids="false"
     inkscape:snap-smooth-nodes="true"
     inkscape:snap-object-midpoints="true"
     inkscape:snap-center="true"
     inkscape:snap-intersection-paths="true" />
  <defs
     id="defs4" />
  <metadata
     id="metadata7">
    <rdf:RDF>
      <cc:Work
         rdf:about="">
        <dc:format>image/svg+xml</dc:format>
        <dc:type
           rdf:resource="http://purl.org/dc/dcmitype/StillImage" />
        <dc:title />
      </cc:Work>
    </rdf:RDF>
  </metadata>
  <g
     id="layer1"
     inkscape:groupmode="layer"
     inkscape:label="Layer 1"
     transform="translate(25.06203,-304.32241)">
    <path
       style="color:#000000;fill:#0000ff;fill-opacity:1;fill-rule:evenodd;stroke:#000000;stroke-width:0.99999994px;stroke-linecap:butt;stroke-linejoin:miter;stroke-miterlimit:4;stroke-opacity:1;stroke-dashoffset:0;marker:none;visibility:visible;display:inline;overflow:visible;enable-background:accumulate"
       d="M 208.875 831.125 L 164.875 875.125 L 859.375 1569.5938 L 859.375 1465.75 L 224.75 831.125 L 208.875 831.125 z M 112.96875 927.03125 L 61.03125 978.96875 L 859.375 1777.2812 L 859.375 1673.4375 L 112.96875 927.03125 z M 23.3125 1045.0625 L 23.3125 1148.9375 L 859.375 1984.9688 L 859.375 1881.125 L 23.3125 1045.0625 z M 23.3125 1252.75 L 23.3125 1356.625 L 798.34375 2131.625 L 850.28125 2079.7188 L 23.3125 1252.75 z M 23.3125 1460.4375 L 23.3125 1564.3125 L 609.53125 2150.5 L 713.375 2150.5 L 23.3125 1460.4375 z M 23.3125 1668.125 L 23.3125 1772 L 401.84375 2150.5 L 505.6875 2150.5 L 23.3125 1668.125 z M 23.3125 1875.8125 L 23.3125 1979.6562 L 194.15625 2150.5 L 298 2150.5 L 23.3125 1875.8125 z "
       id="rect3145"
       transform="translate(-25.06203,304.32228)" />
    <path
       id="path4275"
       style="color:#000000;fill:none;stroke:#000000;stroke-width:1.00000012;stroke-linecap:square;stroke-linejoin:miter;stroke-miterlimit:4;stroke-opacity:1;stroke-dasharray:none;stroke-dashoffset:0;marker:none;visibility:visible;display:inline;overflow:visible;enable-background:accumulate"
       d="M 1403.6752,1885.3994 A 28.290966,28.290966 0 0 1 1431.9661,1857.1084 28.290966,28.290966 0 0 1 1460.2571,1885.3994 28.290966,28.290966 0 0 1 1431.9661,1913.6904 28.290966,28.290966 0 0 1 1403.6752,1885.3994 z M 1370.4886,1956.0872 1023.6011,1956.0872 1023.6011,1814.7116 1370.4886,1814.7116 z M 928.34233,1559.0566 928.34233,1709.8066 938.96733,1709.8066 938.96733,1815.7753 928.34233,1815.7753 928.34233,1966.6816 938.96733,1966.6816 938.96733,2072.6816 928.34233,2072.6816 928.34233,2223.5879 938.96733,2223.5879 938.96733,2329.5566 928.34233,2329.5566 928.34233,2469.6816 1066.3736,2469.6816 1066.3736,2480.3066 1172.9986,2480.3066 1172.9986,2469.6816 1236.7798,2469.6816 1236.7798,2455.9941 1232.5923,2455.9941 1232.5923,2448.2753 1236.7798,2448.2753 1236.7798,2434.5879 1247.0611,2434.5879 1247.0611,2448.2753 1251.2798,2448.2753 1251.2798,2455.9941 1247.0611,2455.9941 1247.0611,2469.6816 1310.8736,2469.6816 1310.8736,2480.3066 1417.4673,2480.3066 1417.4673,2469.6816 1555.4986,2469.6816 1555.4986,2329.5566 1544.8736,2329.5566 1544.8736,2223.5879 1555.4986,2223.5879 1555.4986,2072.6816 1544.8736,2072.6816 1544.8736,1966.6816 1555.4986,1966.6816 1555.4986,1815.7753 1544.8736,1815.7753 1544.8736,1709.8066 1555.4986,1709.8066 1555.4986,1559.0566 928.34233,1559.0566 z" />
    <path
       style="fill:#000000;fill-opacity:1;stroke:#000000;stroke-width:1.00000012;stroke-linecap:round;stroke-linejoin:round;stroke-miterlimit:4;stroke-opacity:1;stroke-dasharray:none"
       d="M 1870.6959,1454.2038 2149.4307,1236.4323 2367.2024,1515.167 2088.4674,1732.9386 z"
       id="rect3121"
       inkscape:connector-curvature="0" />
    <path
       id="path4146-6-7-0"
       style="fill:none;stroke:#000000;stroke-width:1.00000012;stroke-miterlimit:4;stroke-dasharray:none"
       d="M 741.07115,1485.5217 747.62843,1477.1287 663.59835,1411.5052 657.06828,1419.8634 548.41276,1334.9724 554.97385,1326.6104 470.93996,1260.956 464.4137,1269.3452 364.01183,1190.9027 370.57292,1182.5407 286.53909,1116.8862 191.75072,1116.8862 191.75072,1127.5112 85.12572,1127.5112 85.12572,1116.8862 -8.90578,1116.8862 -8.90578,1200.4332 -19.56203,1200.4332 -19.56203,1307.0582 -8.90578,1307.0582 -8.90578,1457.3394 -19.56203,1457.3394 -19.56203,1563.9332 -8.90578,1563.9332 -8.90578,1703.7457 -19.56203,1703.7457 -19.56203,1810.3707 -8.90578,1810.3707 -8.90578,1960.6207 -19.56203,1960.6207 -19.56203,2067.2457 -8.90578,2067.2457 -8.90578,2217.527 -19.56203,2217.527 -19.56203,2324.152 -8.90578,2324.152 -8.90578,2463.9332 118.46921,2463.9332 118.46921,2474.5582 225.09421,2474.5582 225.09421,2463.9332 288.87546,2463.9332 288.87546,2450.2457 284.68796,2450.2457 284.68796,2442.527 288.87546,2442.527 288.87546,2428.8394 299.18796,2428.8394 299.18796,2442.527 303.37546,2442.527 303.37546,2450.2457 299.18796,2450.2457 299.18796,2463.9332 362.96921,2463.9332 362.96921,2474.5582 469.59421,2474.5582 469.59421,2463.9332 533.37546,2463.9332 533.37546,2450.2457 529.18796,2450.2457 529.18796,2442.527 533.37546,2442.527 533.37546,2428.8394 543.65671,2428.8394 543.65671,2442.527 547.87546,2442.527 547.87546,2450.2457 543.65671,2450.2457 543.65671,2463.9332 607.46921,2463.9332 607.46921,2474.5582 714.06296,2474.5582 714.06296,2463.9332 841.46921,2463.9332 841.46921,2324.152 852.09421,2324.152 852.09421,2217.527 841.46921,2217.527 841.46921,2067.2457 852.09421,2067.2457 852.09421,1960.6207 841.46921,1960.6207 841.46921,1810.3707 852.09421,1810.3707 852.09421,1703.7457 841.46921,1703.7457 841.46921,1563.9332 z"
       inkscape:connector-curvature="0"
       sodipodi:nodetypes="cccccccccccccccccccccccccccccccccccccccccccccccccccccccccccccccccccccccccccccccccccccccc" />
    <path
       id="path4364-2"
       style="color:#000000;fill:none;stroke:#000000;stroke-width:1.00000012;stroke-linecap:square;stroke-linejoin:miter;stroke-miterlimit:4;stroke-opacity:1;stroke-dasharray:none;stroke-dashoffset:0;marker:none;visibility:visible;display:inline;overflow:visible;enable-background:accumulate"
       d="M 1239.4165,3430.004 A 5.4672757,5.4672761 0 0 1 1233.9492,3435.4712 5.4672757,5.4672761 0 0 1 1228.4819,3430.004 5.4672757,5.4672761 0 0 1 1233.9492,3424.5367 5.4672757,5.4672761 0 0 1 1239.4165,3430.004 z M 1239.4165,2569.0448 A 5.4672754,5.4672754 0 0 1 1233.9492,2574.512 5.4672754,5.4672754 0 0 1 1228.4819,2569.0448 5.4672754,5.4672754 0 0 1 1233.9492,2563.5775 5.4672754,5.4672754 0 0 1 1239.4165,2569.0448 z M 1536.9023,2946.534 1536.9023,3052.5145 1547.4648,3052.5145 1547.4648,2946.534 1536.9023,2946.534 z M 1536.9023,2702.0457 1536.9023,2808.0261 1547.4648,2808.0261 1547.4648,2702.0457 1536.9023,2702.0457 z M 920.36722,2702.0457 920.36722,2808.0261 930.99612,2808.0261 930.99612,2702.0457 920.36722,2702.0457 z M 1303.2031,2563.7625 1303.2031,2574.3269 1409.1836,2574.3269 1409.1836,2563.7625 1303.2031,2563.7625 z M 1058.7148,2563.7625 1058.7148,2574.3269 1164.6953,2574.3269 1164.6953,2563.7625 1058.7148,2563.7625 z M 920.68652,2532.1268 1547.2123,2532.1268 C 1564.8792,2532.1268 1579.102,2546.3496 1579.102,2564.0165 L 1579.102,3435.5421 C 1579.102,3453.209 1564.8792,3467.4318 1547.2123,3467.4318 L 920.68652,3467.4318 C 903.01962,3467.4318 888.79682,3453.209 888.79682,3435.5421 L 888.79682,2564.0165 C 888.79682,2546.3496 903.01962,2532.1268 920.68652,2532.1268 z M 1536.9023,3191.0224 1536.9023,3297.0029 1547.4648,3297.0029 1547.4648,3191.0224 1536.9023,3191.0224 z M 920.36722,2946.534 920.36722,3052.5145 930.99612,3052.5145 930.99612,2946.534 920.36722,2946.534 z M 920.43362,3191.0223 920.43362,3297.0028 930.99612,3297.0028 930.99612,3191.0223 920.43362,3191.0223 z M 1303.2031,3435.2861 1303.2031,3424.7217 1409.1836,3424.7217 1409.1836,3435.2861 1303.2031,3435.2861 z M 1058.7148,3435.2861 1058.7148,3424.7217 1164.6953,3424.7217 1164.6953,3435.2861 1058.7148,3435.2861 z M 931.13632,2877.2801 A 5.4546508,5.4546508 0 0 1 925.68172,2882.7348 5.4546508,5.4546508 0 0 1 920.22702,2877.2801 5.4546508,5.4546508 0 0 1 925.68172,2871.8255 5.4546508,5.4546508 0 0 1 931.13632,2877.2801 z M 931.13632,3121.7684 A 5.4546511,5.4546515 0 0 1 925.68172,3127.2231 5.4546511,5.4546515 0 0 1 920.22702,3121.7684 5.4546511,5.4546515 0 0 1 925.68172,3116.3138 5.4546511,5.4546515 0 0 1 931.13632,3121.7684 z M 1547.6382,2877.28 A 5.4546511,5.4546515 0 0 1 1542.1836,2882.7347 5.4546511,5.4546515 0 0 1 1536.7289,2877.28 5.4546511,5.4546515 0 0 1 1542.1836,2871.8254 5.4546511,5.4546515 0 0 1 1547.6382,2877.28 z M 1547.6382,3121.7683 A 5.4546514,5.4546522 0 0 1 1542.1836,3127.223 5.4546514,5.4546522 0 0 1 1536.7289,3121.7683 5.4546514,5.4546522 0 0 1 1542.1836,3116.3137 5.4546514,5.4546522 0 0 1 1547.6382,3121.7683 z"
       inkscape:connector-curvature="0" />
    <path
       id="path4146-6-7-0-8"
       style="fill:none;stroke:#000000;stroke-width:1.00000012;stroke-miterlimit:4;stroke-dasharray:none"
       d="M 1786.693,1519.8621 1780.1358,1511.4691 1864.1658,1445.8456 1870.6959,1454.2038 1979.3514,1369.3128 1972.7903,1360.9508 2056.8242,1295.2964 2063.3505,1303.6856 2163.7524,1225.2431 2157.1913,1216.8811 2241.2251,1151.2266 2336.0135,1151.2266 2336.0135,1161.8516 2442.6385,1161.8516 2442.6385,1151.2266 2536.67,1151.2266 2536.67,1234.7736 2547.3262,1234.7736 2547.3262,1341.3986 2536.67,1341.3986 2536.67,1491.6798 2547.3262,1491.6798 2547.3262,1598.2736 2536.67,1598.2736 2536.67,1738.0861 2547.3262,1738.0861 2547.3262,1844.7111 2536.67,1844.7111 2536.67,1994.9611 2547.3262,1994.9611 2547.3262,2101.5861 2536.67,2101.5861 2536.67,2251.8674 2547.3262,2251.8674 2547.3262,2358.4925 2536.67,2358.4925 2536.67,2498.2737 2409.295,2498.2737 2409.295,2508.8987 2302.67,2508.8987 2302.67,2498.2737 2238.8887,2498.2737 2238.8887,2484.5862 2243.0762,2484.5862 2243.0762,2476.8675 2238.8887,2476.8675 2238.8887,2463.1799 2228.5762,2463.1799 2228.5762,2476.8675 2224.3887,2476.8675 2224.3887,2484.5862 2228.5762,2484.5862 2228.5762,2498.2737 2164.795,2498.2737 2164.795,2508.8987 2058.17,2508.8987 2058.17,2498.2737 1994.3887,2498.2737 1994.3887,2484.5862 1998.5762,2484.5862 1998.5762,2476.8675 1994.3887,2476.8675 1994.3887,2463.1799 1984.1075,2463.1799 1984.1075,2476.8675 1979.8887,2476.8675 1979.8887,2484.5862 1984.1075,2484.5862 1984.1075,2498.2737 1920.295,2498.2737 1920.295,2508.8987 1813.7012,2508.8987 1813.7012,2498.2737 1686.295,2498.2737 1686.295,2358.4925 1675.67,2358.4925 1675.67,2251.8674 1686.295,2251.8674 1686.295,2101.5861 1675.67,2101.5861 1675.67,1994.9611 1686.295,1994.9611 1686.295,1844.7111 1675.67,1844.7111 1675.67,1738.0861 1686.295,1738.0861 1686.295,1598.2736 z"
       inkscape:connector-curvature="0"
       sodipodi:nodetypes="cccccccccccccccccccccccccccccccccccccccccccccccccccccccccccccccccccccccccccccccccccccccc" />
    <path
       id="path5883"
       style="color:#000000;fill:none;stroke:currentColor;stroke-width:1;stroke-miterlimit:4;stroke-dasharray:none"
       d="M 2713.4547,1905.9987 3063.8405,1905.9987 3063.8405,2403.5274 2713.4547,2403.5274 z M 2843.0974,1811.3945 2934.1977,1811.3945 2934.1977,1835.9215 2843.0974,1835.9215 z M 2575.063,1147.1973 2575.063,1230.7285 2585.688,1230.7285 2585.688,1337.3535 2575.063,1337.3535 2575.063,1487.6035 2585.688,1487.6035 2585.688,1594.2285 2575.063,1594.2285 2575.063,1734.0411 2585.688,1734.0411 2585.688,1840.6661 2575.063,1840.6661 2575.063,1990.9161 2585.688,1990.9161 2585.688,2097.5411 2575.063,2097.5411 2575.063,2247.8223 2585.688,2247.8223 2585.688,2354.4473 2575.063,2354.4473 2575.063,2494.2285 2713.0942,2494.2285 2713.0942,2504.8535 2819.688,2504.8535 2819.688,2494.2285 2883.4692,2494.2285 2883.4692,2480.5411 2879.2818,2480.5411 2879.2818,2472.8223 2883.4692,2472.8223 2883.4692,2459.1348 2893.7818,2459.1348 2893.7818,2472.8223 2897.9692,2472.8223 2897.9692,2480.5411 2893.7818,2480.5411 2893.7818,2494.2285 2957.563,2494.2285 2957.563,2504.8535 3064.188,2504.8535 3064.188,2494.2285 3202.2192,2494.2285 3202.2192,2354.4473 3191.5942,2354.4473 3191.5942,2247.8223 3202.2192,2247.8223 3202.2192,2097.5411 3191.5942,2097.5411 3191.5942,1990.9161 3202.2192,1990.9161 3202.2192,1840.6661 3191.5942,1840.6661 3191.5942,1734.0411 3202.2192,1734.0411 3202.2192,1594.2285 3191.5942,1594.2285 3191.5942,1487.6035 3202.2192,1487.6035 3202.2192,1337.3535 3191.5942,1337.3535 3191.5942,1230.7285 3202.2192,1230.7285 3202.2192,1147.1973 3064.188,1147.1973 3064.188,1157.8223 2957.563,1157.8223 2957.563,1147.1973 2819.688,1147.1973 2819.688,1157.8223 2713.0942,1157.8223 2713.0942,1147.1973 z"
       inkscape:connector-curvature="0"
       sodipodi:nodetypes="ccccccccccccccccccccccccccccccccccccccccccccccccccccccccccccccccccccccccccccccccccc" />
    <path
       id="path4146-6-7-0-1-4"
       style="fill:none;stroke:#000000;stroke-width:1.00000012;stroke-miterlimit:4;stroke-dasharray:none"
       d="M 947.80802,505.10488 937.18302,505.10488 937.18302,611.72988 947.80802,611.72988 947.80802,705.76138 1553.3308,705.76138 1553.3308,611.72988 1563.9558,611.72988 1563.9558,505.10488 1553.3308,505.10488 1553.3308,410.31648 1426.3119,410.36448 1426.3119,399.63898 1319.6944,399.63898 1319.6944,410.36448 1181.8253,410.36448 1181.8253,399.63898 1075.208,399.63898 1075.208,410.36448 947.80802,410.31648 z"
       inkscape:connector-curvature="0"
       sodipodi:nodetypes="ccccccccccccccccccccc" />
    <path
       inkscape:connector-curvature="0"
       style="color:#000000;fill:none;stroke:#000000;stroke-width:1;stroke-linecap:butt;stroke-linejoin:miter;stroke-miterlimit:4;stroke-opacity:1;stroke-dashoffset:0;marker:none;visibility:visible;display:inline;overflow:visible;enable-background:accumulate"
       d="M 1746.9458,2602.3828 1746.9458,2581.7746 3083.3679,2581.7746 3083.3679,2602.3828 z"
       id="rect3057" />
    <path
       style="color:#000000;fill:none;stroke:#000000;stroke-width:1;stroke-linecap:butt;stroke-linejoin:miter;stroke-miterlimit:4;stroke-opacity:1;stroke-dashoffset:0;marker:none;visibility:visible;display:inline;overflow:visible;enable-background:accumulate"
       d="M 1922.6042,2677.8352 1922.6042,2657.2271 2811.9736,2657.2271 2811.9736,2677.8352 z"
       id="rect3057-4"
       inkscape:connector-curvature="0"
       sodipodi:nodetypes="ccccc" />
    <path
       id="path3359-82"
       style="opacity:1;color:#000000;fill:none;fill-opacity:1;fill-rule:nonzero;stroke:#000000;stroke-width:1.00000003000000000;marker:none;visibility:visible;display:inline;overflow:visible;enable-background:accumulate;stroke-opacity:1;stroke-miterlimit:4;stroke-dasharray:none"
       d="M 1755.544,1033.2723 C 1755.544,1037.1861 1752.3712,1040.3589 1748.4574,1040.3589 1744.5435,1040.3589 1741.3708,1037.1861 1741.3708,1033.2723 1741.3708,1029.3584 1744.5435,1026.1856 1748.4574,1026.1856 1752.3712,1026.1856 1755.544,1029.3584 1755.544,1033.2723 z M 2242.4715,1033.2722 C 2242.4715,1037.1861 2239.2987,1040.3589 2235.3849,1040.3589 2231.471,1040.3589 2228.2983,1037.1861 2228.2983,1033.2722 2228.2983,1029.3584 2231.471,1026.1856 2235.3849,1026.1856 2239.2987,1026.1856 2242.4715,1029.3584 2242.4715,1033.2722 z M 2242.4375,447.26276 C 2242.4375,451.17658 2239.2647,454.34937 2235.3509,454.34937 2231.437,454.34937 2228.2643,451.17658 2228.2643,447.26276 2228.2643,443.34893 2231.437,440.17614 2235.3509,440.17614 2239.2647,440.17614 2242.4375,443.34893 2242.4375,447.26276 z M 1755.544,447.14171 C 1755.544,451.05553 1752.3712,454.22832 1748.4574,454.22832 1744.5435,454.22832 1741.3708,451.05553 1741.3708,447.14171 1741.3708,443.22788 1744.5435,440.05509 1748.4574,440.05509 1752.3712,440.05509 1755.544,443.22788 1755.544,447.14171 z M 1748.4574,404.9574 2235.3509,404.9574 C 2258.8551,404.9574 2277.7773,423.87958 2277.7773,447.38381 L 2277.7773,1033.2723 C 2277.7773,1056.7765 2258.8551,1075.6987 2235.3509,1075.6987 L 1748.4574,1075.6987 C 1724.9532,1075.6987 1706.031,1056.7765 1706.031,1033.2723 L 1706.031,447.38381 C 1706.031,423.87958 1724.9532,404.9574 1748.4574,404.9574 z M 2174.8352,669.96986 1808.973,669.96986 1808.973,810.68617 2174.8352,810.68617 2174.8352,669.96986 z" />
    <path
       id="rect4280"
       style="color:#000000;fill:none;stroke:#000000;stroke-width:0.99999994px;stroke-linecap:butt;stroke-linejoin:miter;stroke-miterlimit:4;stroke-opacity:1;stroke-dashoffset:0;marker:none;visibility:visible;display:inline;overflow:visible;enable-background:accumulate"
       d="M 1070.125,537.4375 1070.125,586.53125 1022.5625,586.53125 1022.5625,1082.4375 1070.125,1082.4375 1070.125,1131.5312 1464.5938,1131.5312 1464.5938,1082.4375 1512.1562,1082.4375 1512.1562,586.53125 1464.5938,586.53125 1464.5938,537.4375 z M 1030.9826,1127.5378 C 1030.9826,1131.4516 1027.8098,1134.6244 1023.896,1134.6244 1019.9821,1134.6244 1016.8094,1131.4516 1016.8094,1127.5378 1016.8094,1123.6239 1019.9821,1120.4511 1023.896,1120.4511 1027.8098,1120.4511 1030.9826,1123.6239 1030.9826,1127.5378 z M 1517.91,1127.5377 C 1517.91,1131.4516 1514.7372,1134.6244 1510.8234,1134.6244 1506.9095,1134.6244 1503.7368,1131.4516 1503.7368,1127.5377 1503.7368,1123.6239 1506.9095,1120.4511 1510.8234,1120.4511 1514.7372,1120.4511 1517.91,1123.6239 1517.91,1127.5377 z M 1517.876,541.52825 C 1517.876,545.44207 1514.7032,548.61486 1510.7894,548.61486 1506.8755,548.61486 1503.7028,545.44207 1503.7028,541.52825 1503.7028,537.61442 1506.8755,534.44163 1510.7894,534.44163 1514.7032,534.44163 1517.876,537.61442 1517.876,541.52825 z M 1030.9826,541.4072 C 1030.9826,545.32102 1027.8098,548.49381 1023.896,548.49381 1019.9821,548.49381 1016.8094,545.32102 1016.8094,541.4072 1016.8094,537.49337 1019.9821,534.32058 1023.896,534.32058 1027.8098,534.32058 1030.9826,537.49337 1030.9826,541.4072 z M 954.15879,478.21089 1580.5606,478.21069 M 1580.5606,478.21069 1580.5607,605.61039 1569.9307,605.61039 1569.9306,712.22832 1580.5606,712.22832 1580.5606,850.09852 1569.9307,850.09842 1569.9307,956.71652 1580.5606,956.71642 1580.5605,1084.1162 1569.9306,1084.1162 1570.3116,1190.7343 M 1570.3116,1190.7343 964.78885,1190.7343 964.78871,1084.1162 954.15885,1084.1162 954.15878,956.71652 964.78864,956.71662 964.78865,850.09852 954.15871,850.09852 954.15872,712.22832 964.78879,712.22832 964.78865,605.61049 954.15879,605.61039 954.15879,478.21089"
       inkscape:connector-curvature="0"
       sodipodi:nodetypes="cccccccccccccssssssssssssssssssssccccccccccccccccccccccccccc"
       transform="translate(-25.06203,304.32228)" />
    <path
       id="rect4320-6"
       style="color:#000000;fill:none;stroke:#000000;stroke-width:1px;stroke-linecap:butt;stroke-linejoin:miter;stroke-miterlimit:4;stroke-opacity:1;stroke-dashoffset:0;marker:none;visibility:visible;display:inline;overflow:visible;enable-background:accumulate"
       d="M 564.89994,373.65273 653.31454,373.65273 653.31454,462.06688 564.89994,462.06688 z M 618.18214,417.06388 C 618.18214,420.9777 615.00934,424.15049 611.09554,424.15049 607.18164,424.15049 604.00894,420.9777 604.00894,417.06388 604.00894,413.15005 607.18164,409.97726 611.09554,409.97726 615.00934,409.97726 618.18214,413.15005 618.18214,417.06388 z"
       inkscape:connector-curvature="0" />
    <path
       id="rect4320-1-1"
       style="color:#000000;fill:none;stroke:#000000;stroke-width:1px;stroke-linecap:butt;stroke-linejoin:miter;stroke-miterlimit:4;stroke-opacity:1;stroke-dashoffset:0;marker:none;visibility:visible;display:inline;overflow:visible;enable-background:accumulate"
       d="M 82.016473,373.65273 170.43112,373.65273 170.43112,462.06688 82.016473,462.06688 z M 131.28872,416.94283 C 131.28872,420.85665 128.11592,424.02944 124.20208,424.02944 120.28818,424.02944 117.11548,420.85665 117.11548,416.94283 117.11548,413.029 120.28818,409.85621 124.20208,409.85621 128.11592,409.85621 131.28872,413.029 131.28872,416.94283 z"
       inkscape:connector-curvature="0" />
    <path
       id="rect4320-7-4"
       style="color:#000000;fill:none;stroke:#000000;stroke-width:1px;stroke-linecap:butt;stroke-linejoin:miter;stroke-miterlimit:4;stroke-opacity:1;stroke-dashoffset:0;marker:none;visibility:visible;display:inline;overflow:visible;enable-background:accumulate"
       d="M 79.159721,866.5558 167.57433,866.5558 167.57433,954.96991 79.159721,954.96991 z M 128.43193,911.6561 C 128.43193,915.5699 125.25913,918.7427 121.34529,918.7427 117.43139,918.7427 114.25869,915.5699 114.25869,911.6561 114.25869,907.7422 117.43139,904.5694 121.34529,904.5694 125.25913,904.5694 128.43193,907.7422 128.43193,911.6561 z" />
    <path
       id="rect4320-11-2"
       style="color:#000000;fill:none;stroke:#000000;stroke-width:1px;stroke-linecap:butt;stroke-linejoin:miter;stroke-miterlimit:4;stroke-opacity:1;stroke-dashoffset:0;marker:none;visibility:visible;display:inline;overflow:visible;enable-background:accumulate"
       d="M 562.04315,866.5558 650.45775,866.5558 650.45775,954.96991 562.04315,954.96991 z M 615.35935,911.656 C 615.35935,915.5699 612.18655,918.7427 608.27275,918.7427 604.35885,918.7427 601.18615,915.5699 601.18615,911.656 601.18615,907.7422 604.35885,904.5694 608.27275,904.5694 612.18655,904.5694 615.35935,907.7422 615.35935,911.656 z" />
    <path
       id="path4502"
       style="color:#000000;fill:none;stroke:#000000;stroke-width:1px;stroke-linecap:butt;stroke-linejoin:miter;stroke-miterlimit:4;stroke-opacity:1;stroke-dashoffset:0;marker:none;visibility:visible;display:inline;overflow:visible;enable-background:accumulate"
       d="M 84.782094,476.92285 173.19674,476.92285 173.19674,565.337 84.782094,565.337 z M 138.99184,513.23434 138.99184,527.19164 126.96772,534.17024 114.9436,527.19164 114.9436,513.23434 126.96772,506.25564 z"
       inkscape:connector-curvature="0" />
    <path
       inkscape:connector-curvature="0"
       d="M 132.75115,795.11753 132.75115,809.07483 120.72703,816.05343 108.70291,809.07483 108.70291,795.11753 120.72703,788.13883 z M 78.541439,756.99588 166.95605,756.99588 166.95605,845.41003 78.541439,845.41003 z"
       style="fill:none;stroke:#000000;stroke-width:0.99999994;stroke-linecap:butt;stroke-linejoin:miter;stroke-miterlimit:4;stroke-opacity:1;stroke-dashoffset:0"
       id="path2984-7-9-9" />
    <path
       inkscape:connector-curvature="0"
       d="M 622.73277,805.36137 622.73277,819.31867 610.70865,826.29727 598.68453,819.31867 598.68453,805.36137 610.70865,798.38267 z M 564.47905,767.23972 652.89365,767.23972 652.89365,855.65387 564.47905,855.65387 z"
       style="fill:none;stroke:#000000;stroke-width:0.99999994;stroke-linecap:butt;stroke-linejoin:miter;stroke-miterlimit:4;stroke-opacity:1;stroke-dashoffset:0"
       id="path2984-7-9-7" />
    <path
       inkscape:connector-curvature="0"
       d="M 624.40197,512.81373 624.40197,526.77103 612.37785,533.74963 600.35373,526.77103 600.35373,512.81373 612.37785,505.83503 z M 566.18225,476.38119 654.59685,476.38119 654.59685,564.79533 566.18225,564.79533 z"
       style="fill:none;stroke:#000000;stroke-width:0.99999994;stroke-linecap:butt;stroke-linejoin:miter;stroke-miterlimit:4;stroke-opacity:1;stroke-dashoffset:0"
       id="path2984-7-9-5" />
    <path
       id="path3483"
       style="color:#000000;fill:none;stroke:currentColor;stroke-width:1;stroke-miterlimit:4;stroke-dasharray:none"
       d="M 2671.5807,405.81657 3094.7006,405.81657 C 3104.5156,405.81657 3112.4172,413.71817 3112.4172,423.53317 L 3112.4172,1092.5349 2653.8642,1092.5349 2653.8642,423.53317 C 2653.8642,413.71817 2661.7657,405.81657 2671.5807,405.81657 z M 2837.5971,456.69627 2928.6974,456.69627 2928.6974,481.22327 2837.5971,481.22327 z"
       inkscape:connector-curvature="0" />
    <path
       style="color:#000000;fill:none;stroke:#000000;stroke-width:1;stroke-miterlimit:4;stroke-opacity:1;stroke-dasharray:none;marker:none;visibility:visible;display:inline;overflow:visible;enable-background:accumulate"
       d="M 3306.9927,422.60409 3793.8862,422.60409 C 3817.3904,422.60409 3836.3126,441.52627 3836.3126,465.0305 L 3836.3126,1050.919 C 3836.3126,1074.4232 3817.3904,1093.3454 3793.8862,1093.3454 L 3306.9927,1093.3454 C 3283.4885,1093.3454 3264.5663,1074.4232 3264.5663,1050.919 L 3264.5663,465.0305 C 3264.5663,441.52627 3283.4885,422.60409 3306.9927,422.60409 z"
       id="path3058" />
    <path
       inkscape:connector-curvature="0"
       style="color:#000000;fill:none;stroke:#000000;stroke-width:1;stroke-miterlimit:4;stroke-opacity:1;stroke-dasharray:none;marker:none;visibility:visible;display:inline;overflow:visible;enable-background:accumulate"
       d="M 3370.3205,493.57221 3730.0117,493.57221 C 3749.6935,493.57221 3765.5383,509.41707 3765.5383,529.09879 L 3765.5383,986.85074 C 3765.5383,1006.5324 3749.6935,1022.3773 3730.0117,1022.3773 L 3370.3205,1022.3773 C 3350.6387,1022.3773 3334.7938,1006.5324 3334.7938,986.85074 L 3334.7938,529.09879 C 3334.7938,509.41707 3350.6387,493.57221 3370.3205,493.57221 z"
       id="path3058-7"
       sodipodi:nodetypes="sssssssss" />
  </g>
  <g
     id="g3389"
     inkscape:groupmode="layer"
     inkscape:label="newlayer"
     transform="translate(25.06203,-304.32241)" />
</svg>
