  0
SECTION
  2
HEADER
  9
$ACADVER
  1
AC1014
  9
$HANDSEED
  5
FFFF
  9
$MEASUREMENT
 70
     1
  0
ENDSEC
  0
SECTION
  2
TABLES
  0
TABLE
  2
VPORT
  5
8
330
0
100
AcDbSymbolTable
 70
     4
  0
VPORT
  5
2E
330
8
100
AcDbSymbolTableRecord
100
AcDbViewportTableRecord
  2
*ACTIVE
 70
     0
 10
0.0
 20
0.0
 11
1.0
 21
1.0
 12
210.0
 22
148.5
 13
0.0
 23
0.0
 14
10.0
 24
10.0
 15
10.0
 25
10.0
 16
0.0
 26
0.0
 36
1.0
 17
0.0
 27
0.0
 37
0.0
 40
341.0
 41
1.24
 42
50.0
 43
0.0
 44
0.0
 50
0.0
 51
0.0
 71
     0
 72
   100
 73
     1
 74
     3
 75
     0
 76
     0
 77
     0
 78
     0
  0
ENDTAB
  0
TABLE
  2
LTYPE
  5
5
330
0
100
AcDbSymbolTable
 70
     1
  0
LTYPE
  5
14
330
5
100
AcDbSymbolTableRecord
100
AcDbLinetypeTableRecord
  2
BYBLOCK
 70
     0
  3

 72
    65
 73
     0
 40
0.0
  0
LTYPE
  5
15
330
5
100
AcDbSymbolTableRecord
100
AcDbLinetypeTableRecord
  2
BYLAYER
 70
     0
  3

 72
    65
 73
     0
 40
0.0
  0
LTYPE
  5
16
330
5
100
AcDbSymbolTableRecord
100
AcDbLinetypeTableRecord
  2
CONTINUOUS
 70
     0
  3
Solid line
 72
    65
 73
     0
 40
0.0
  0
ENDTAB
  0
TABLE
  2
LAYER
  5
2
100
AcDbSymbolTable
 70
3
  0
LAYER
  5
50
100
AcDbSymbolTableRecord
100
AcDbLayerTableRecord
  2
0
 70
0
  6
CONTINUOUS
  0
LAYER
  5
51
100
AcDbSymbolTableRecord
100
AcDbLayerTableRecord
  2
Layer_1
 70
0
  6
CONTINUOUS
  0
LAYER
  5
52
100
AcDbSymbolTableRecord
100
AcDbLayerTableRecord
  2
newlayer
 70
0
  6
CONTINUOUS
  0
ENDTAB
  0
TABLE
  2
STYLE
  5
3
330
0
100
AcDbSymbolTable
 70
     1
  0
STYLE
  5
11
330
3
100
AcDbSymbolTableRecord
100
AcDbTextStyleTableRecord
  2
STANDARD
 70
     0
 40
0.0
 41
1.0
 50
0.0
 71
     0
 42
2.5
  3
txt
  4

  0
ENDTAB
  0
TABLE
  2
VIEW
  5
6
330
0
100
AcDbSymbolTable
 70
     0
  0
ENDTAB
  0
TABLE
  2
UCS
  5
7
330
0
100
AcDbSymbolTable
 70
     0
  0
ENDTAB
  0
TABLE
  2
APPID
  5
9
330
0
100
AcDbSymbolTable
 70
     2
  0
APPID
  5
12
330
9
100
AcDbSymbolTableRecord
100
AcDbRegAppTableRecord
  2
ACAD
 70
     0
  0
ENDTAB
  0
TABLE
  2
DIMSTYLE
  5
A
330
0
100
AcDbSymbolTable
 70
     1
  0
DIMSTYLE
105
27
330
A
100
AcDbSymbolTableRecord
100
AcDbDimStyleTableRecord
  2
ISO-25
 70
     0
  3

  4

  5

  6

  7

 40
1.0
 41
2.5
 42
0.625
 43
3.75
 44
1.25
 45
0.0
 46
0.0
 47
0.0
 48
0.0
140
2.5
141
2.5
142
0.0
143
0.03937007874016
144
1.0
145
0.0
146
1.0
147
0.625
 71
     0
 72
     0
 73
     0
 74
     0
 75
     0
 76
     0
 77
     1
 78
     8
170
     0
171
     3
172
     1
173
     0
174
     0
175
     0
176
     0
177
     0
178
     0
270
     2
271
     2
272
     2
273
     2
274
     3
340
11
275
     0
280
     0
281
     0
282
     0
283
     0
284
     8
285
     0
286
     0
287
     3
288
     0
  0
ENDTAB
  0
TABLE
  2
BLOCK_RECORD
  5
1
330
0
100
AcDbSymbolTable
 70
     1
  0
BLOCK_RECORD
  5
1F
330
1
100
AcDbSymbolTableRecord
100
AcDbBlockTableRecord
  2
*MODEL_SPACE
  0
BLOCK_RECORD
  5
1B
330
1
100
AcDbSymbolTableRecord
100
AcDbBlockTableRecord
  2
*PAPER_SPACE
  0
ENDTAB
  0
ENDSEC
  0
SECTION
  2
BLOCKS
  0
BLOCK
  5
20
330
1F
100
AcDbEntity
  8
0
100
AcDbBlockBegin
  2
*MODEL_SPACE
 70
     0
 10
0.0
 20
0.0
 30
0.0
  3
*MODEL_SPACE
  1

  0
ENDBLK
  5
21
330
1F
100
AcDbEntity
  8
0
100
AcDbBlockEnd
  0
BLOCK
  5
1C
330
1B
100
AcDbEntity
 67
     1
  8
0
100
AcDbBlockBegin
  2
*PAPER_SPACE
  1

  0
ENDBLK
  5
1D
330
1B
100
AcDbEntity
 67
     1
  8
0
100
AcDbBlockEnd
  0
ENDSEC
  0
SECTION
  2
ENTITIES
  0
LINE
  5
100
100
AcDbEntity
  8
Layer_1
 62
7
100
AcDbLine
 10
58.949167
 20
659.690078
 30
0.0
 11
46.531389
 21
647.272301
 31
0.0
  0
LINE
  5
101
100
AcDbEntity
  8
Layer_1
 62
7
100
AcDbLine
 10
46.531389
 20
647.272301
 30
0.0
 11
242.534722
 21
451.277773
 31
0.0
  0
LINE
  5
102
100
AcDbEntity
  8
Layer_1
 62
7
100
AcDbLine
 10
242.534722
 20
451.277773
 30
0.0
 11
242.534722
 21
480.584801
 31
0.0
  0
LINE
  5
103
100
AcDbEntity
  8
Layer_1
 62
7
100
AcDbLine
 10
242.534722
 20
480.584801
 30
0.0
 11
63.429444
 21
659.690078
 31
0.0
  0
LINE
  5
104
100
AcDbEntity
  8
Layer_1
 62
7
100
AcDbLine
 10
63.429444
 20
659.690078
 30
0.0
 11
58.949167
 21
659.690078
 31
0.0
  0
LINE
  5
105
100
AcDbEntity
  8
Layer_1
 62
7
100
AcDbLine
 10
58.949167
 20
659.690078
 30
0.0
 11
58.949167
 21
659.690078
 31
0.0
  0
LINE
  5
106
100
AcDbEntity
  8
Layer_1
 62
7
100
AcDbLine
 10
31.882292
 20
632.623203
 30
0.0
 11
17.224375
 21
617.965287
 31
0.0
  0
LINE
  5
107
100
AcDbEntity
  8
Layer_1
 62
7
100
AcDbLine
 10
17.224375
 20
617.965287
 30
0.0
 11
242.534722
 21
392.663773
 31
0.0
  0
LINE
  5
108
100
AcDbEntity
  8
Layer_1
 62
7
100
AcDbLine
 10
242.534722
 20
392.663773
 30
0.0
 11
242.534722
 21
421.970773
 31
0.0
  0
LINE
  5
109
100
AcDbEntity
  8
Layer_1
 62
7
100
AcDbLine
 10
242.534722
 20
421.970773
 30
0.0
 11
31.882292
 21
632.623203
 31
0.0
  0
LINE
  5
10a
100
AcDbEntity
  8
Layer_1
 62
7
100
AcDbLine
 10
31.882292
 20
632.623203
 30
0.0
 11
31.882292
 21
632.623203
 31
0.0
  0
LINE
  5
10b
100
AcDbEntity
  8
Layer_1
 62
7
100
AcDbLine
 10
6.579306
 20
599.312162
 30
0.0
 11
6.579306
 21
569.996328
 31
0.0
  0
LINE
  5
10c
100
AcDbEntity
  8
Layer_1
 62
7
100
AcDbLine
 10
6.579306
 20
569.996328
 30
0.0
 11
242.534722
 21
334.049717
 31
0.0
  0
LINE
  5
10d
100
AcDbEntity
  8
Layer_1
 62
7
100
AcDbLine
 10
242.534722
 20
334.049717
 30
0.0
 11
242.534722
 21
363.356745
 31
0.0
  0
LINE
  5
10e
100
AcDbEntity
  8
Layer_1
 62
7
100
AcDbLine
 10
242.534722
 20
363.356745
 30
0.0
 11
6.579306
 21
599.312162
 31
0.0
  0
LINE
  5
10f
100
AcDbEntity
  8
Layer_1
 62
7
100
AcDbLine
 10
6.579306
 20
599.312162
 30
0.0
 11
6.579306
 21
599.312162
 31
0.0
  0
LINE
  5
110
100
AcDbEntity
  8
Layer_1
 62
7
100
AcDbLine
 10
6.579306
 20
540.698134
 30
0.0
 11
6.579306
 21
511.382301
 31
0.0
  0
LINE
  5
111
100
AcDbEntity
  8
Layer_1
 62
7
100
AcDbLine
 10
6.579306
 20
511.382301
 30
0.0
 11
225.310347
 21
292.660078
 31
0.0
  0
LINE
  5
112
100
AcDbEntity
  8
Layer_1
 62
7
100
AcDbLine
 10
225.310347
 20
292.660078
 30
0.0
 11
239.968264
 21
307.309162
 31
0.0
  0
LINE
  5
113
100
AcDbEntity
  8
Layer_1
 62
7
100
AcDbLine
 10
239.968264
 20
307.309162
 30
0.0
 11
6.579306
 21
540.698134
 31
0.0
  0
LINE
  5
114
100
AcDbEntity
  8
Layer_1
 62
7
100
AcDbLine
 10
6.579306
 20
540.698134
 30
0.0
 11
6.579306
 21
540.698134
 31
0.0
  0
LINE
  5
115
100
AcDbEntity
  8
Layer_1
 62
7
100
AcDbLine
 10
6.579306
 20
482.084106
 30
0.0
 11
6.579306
 21
452.768273
 31
0.0
  0
LINE
  5
116
100
AcDbEntity
  8
Layer_1
 62
7
100
AcDbLine
 10
6.579306
 20
452.768273
 30
0.0
 11
172.023264
 21
287.333134
 31
0.0
  0
LINE
  5
117
100
AcDbEntity
  8
Layer_1
 62
7
100
AcDbLine
 10
172.023264
 20
287.333134
 30
0.0
 11
201.330278
 21
287.333134
 31
0.0
  0
LINE
  5
118
100
AcDbEntity
  8
Layer_1
 62
7
100
AcDbLine
 10
201.330278
 20
287.333134
 30
0.0
 11
6.579306
 21
482.084106
 31
0.0
  0
LINE
  5
119
100
AcDbEntity
  8
Layer_1
 62
7
100
AcDbLine
 10
6.579306
 20
482.084106
 30
0.0
 11
6.579306
 21
482.084106
 31
0.0
  0
LINE
  5
11a
100
AcDbEntity
  8
Layer_1
 62
7
100
AcDbLine
 10
6.579306
 20
423.470078
 30
0.0
 11
6.579306
 21
394.154245
 31
0.0
  0
LINE
  5
11b
100
AcDbEntity
  8
Layer_1
 62
7
100
AcDbLine
 10
6.579306
 20
394.154245
 30
0.0
 11
113.409236
 21
287.333134
 31
0.0
  0
LINE
  5
11c
100
AcDbEntity
  8
Layer_1
 62
7
100
AcDbLine
 10
113.409236
 20
287.333134
 30
0.0
 11
142.716250
 21
287.333134
 31
0.0
  0
LINE
  5
11d
100
AcDbEntity
  8
Layer_1
 62
7
100
AcDbLine
 10
142.716250
 20
287.333134
 30
0.0
 11
6.579306
 21
423.470078
 31
0.0
  0
LINE
  5
11e
100
AcDbEntity
  8
Layer_1
 62
7
100
AcDbLine
 10
6.579306
 20
423.470078
 30
0.0
 11
6.579306
 21
423.470078
 31
0.0
  0
LINE
  5
11f
100
AcDbEntity
  8
Layer_1
 62
7
100
AcDbLine
 10
6.579306
 20
364.856051
 30
0.0
 11
6.579306
 21
335.549051
 31
0.0
  0
LINE
  5
120
100
AcDbEntity
  8
Layer_1
 62
7
100
AcDbLine
 10
6.579306
 20
335.549051
 30
0.0
 11
54.795208
 21
287.333134
 31
0.0
  0
LINE
  5
121
100
AcDbEntity
  8
Layer_1
 62
7
100
AcDbLine
 10
54.795208
 20
287.333134
 30
0.0
 11
84.102222
 21
287.333134
 31
0.0
  0
LINE
  5
122
100
AcDbEntity
  8
Layer_1
 62
7
100
AcDbLine
 10
84.102222
 20
287.333134
 30
0.0
 11
6.579306
 21
364.856051
 31
0.0
  0
LINE
  5
123
100
AcDbEntity
  8
Layer_1
 62
7
100
AcDbLine
 10
6.579306
 20
364.856051
 30
0.0
 11
6.579306
 21
364.856051
 31
0.0
  0
SPLINE
  5
124
100
AcDbEntity
  8
Layer_1
 62
7
100
AcDbSpline
 70
8
 71
3
 72
8
 73
4
 74
0
 40
0
 40
0
 40
0
 40
0
 40
1
 40
1
 40
1
 40
1
 10
403.221396
 20
448.036925
 30
0.0
 10
403.221391
 20
452.446550
 30
0.0
 10
406.796091
 20
456.021263
 30
0.0
 10
411.205717
 20
456.021273
 30
0.0
  0
SPLINE
  5
125
100
AcDbEntity
  8
Layer_1
 62
7
100
AcDbSpline
 70
8
 71
3
 72
8
 73
4
 74
0
 40
0
 40
0
 40
0
 40
0
 40
1
 40
1
 40
1
 40
1
 10
411.205717
 20
456.021273
 30
0.0
 10
413.323298
 20
456.021276
 30
0.0
 10
415.354150
 20
455.180071
 30
0.0
 10
416.851507
 20
453.682715
 30
0.0
  0
SPLINE
  5
126
100
AcDbEntity
  8
Layer_1
 62
7
100
AcDbSpline
 70
8
 71
3
 72
8
 73
4
 74
0
 40
0
 40
0
 40
0
 40
0
 40
1
 40
1
 40
1
 40
1
 10
416.851507
 20
453.682715
 30
0.0
 10
418.348863
 20
452.185358
 30
0.0
 10
419.190068
 20
450.154506
 30
0.0
 10
419.190066
 20
448.036925
 30
0.0
  0
SPLINE
  5
127
100
AcDbEntity
  8
Layer_1
 62
7
100
AcDbSpline
 70
8
 71
3
 72
8
 73
4
 74
0
 40
0
 40
0
 40
0
 40
0
 40
1
 40
1
 40
1
 40
1
 10
419.190066
 20
448.036925
 30
0.0
 10
419.190068
 20
445.919343
 30
0.0
 10
418.348863
 20
443.888491
 30
0.0
 10
416.851507
 20
442.391135
 30
0.0
  0
SPLINE
  5
128
100
AcDbEntity
  8
Layer_1
 62
7
100
AcDbSpline
 70
8
 71
3
 72
8
 73
4
 74
0
 40
0
 40
0
 40
0
 40
0
 40
1
 40
1
 40
1
 40
1
 10
416.851507
 20
442.391135
 30
0.0
 10
415.354150
 20
440.893778
 30
0.0
 10
413.323298
 20
440.052573
 30
0.0
 10
411.205717
 20
440.052576
 30
0.0
  0
SPLINE
  5
129
100
AcDbEntity
  8
Layer_1
 62
7
100
AcDbSpline
 70
8
 71
3
 72
8
 73
4
 74
0
 40
0
 40
0
 40
0
 40
0
 40
1
 40
1
 40
1
 40
1
 10
411.205717
 20
440.052576
 30
0.0
 10
406.796091
 20
440.052586
 30
0.0
 10
403.221391
 20
443.627299
 30
0.0
 10
403.221396
 20
448.036925
 30
0.0
  0
LINE
  5
12a
100
AcDbEntity
  8
Layer_1
 62
7
100
AcDbLine
 10
403.221396
 20
448.036925
 30
0.0
 11
403.221396
 21
448.036925
 31
0.0
  0
LINE
  5
12b
100
AcDbEntity
  8
Layer_1
 62
7
100
AcDbLine
 10
393.855400
 20
428.087257
 30
0.0
 11
295.956039
 21
428.087257
 31
0.0
  0
LINE
  5
12c
100
AcDbEntity
  8
Layer_1
 62
7
100
AcDbLine
 10
295.956039
 20
428.087257
 30
0.0
 11
295.956039
 21
467.986593
 31
0.0
  0
LINE
  5
12d
100
AcDbEntity
  8
Layer_1
 62
7
100
AcDbLine
 10
295.956039
 20
467.986593
 30
0.0
 11
393.855400
 21
467.986593
 31
0.0
  0
LINE
  5
12e
100
AcDbEntity
  8
Layer_1
 62
7
100
AcDbLine
 10
393.855400
 20
467.986593
 30
0.0
 11
393.855400
 21
428.087257
 31
0.0
  0
LINE
  5
12f
100
AcDbEntity
  8
Layer_1
 62
7
100
AcDbLine
 10
269.071897
 20
540.138115
 30
0.0
 11
269.071897
 21
497.593115
 31
0.0
  0
LINE
  5
130
100
AcDbEntity
  8
Layer_1
 62
7
100
AcDbLine
 10
269.071897
 20
497.593115
 30
0.0
 11
272.070508
 21
497.593115
 31
0.0
  0
LINE
  5
131
100
AcDbEntity
  8
Layer_1
 62
7
100
AcDbLine
 10
272.070508
 20
497.593115
 30
0.0
 11
272.070508
 21
467.686393
 31
0.0
  0
LINE
  5
132
100
AcDbEntity
  8
Layer_1
 62
7
100
AcDbLine
 10
272.070508
 20
467.686393
 30
0.0
 11
269.071897
 21
467.686393
 31
0.0
  0
LINE
  5
133
100
AcDbEntity
  8
Layer_1
 62
7
100
AcDbLine
 10
269.071897
 20
467.686393
 30
0.0
 11
269.071897
 21
425.097281
 31
0.0
  0
LINE
  5
134
100
AcDbEntity
  8
Layer_1
 62
7
100
AcDbLine
 10
269.071897
 20
425.097281
 30
0.0
 11
272.070508
 21
425.097281
 31
0.0
  0
LINE
  5
135
100
AcDbEntity
  8
Layer_1
 62
7
100
AcDbLine
 10
272.070508
 20
425.097281
 30
0.0
 11
272.070508
 21
395.181726
 31
0.0
  0
LINE
  5
136
100
AcDbEntity
  8
Layer_1
 62
7
100
AcDbLine
 10
272.070508
 20
395.181726
 30
0.0
 11
269.071897
 21
395.181726
 31
0.0
  0
LINE
  5
137
100
AcDbEntity
  8
Layer_1
 62
7
100
AcDbLine
 10
269.071897
 20
395.181726
 30
0.0
 11
269.071897
 21
352.592615
 31
0.0
  0
LINE
  5
138
100
AcDbEntity
  8
Layer_1
 62
7
100
AcDbLine
 10
269.071897
 20
352.592615
 30
0.0
 11
272.070508
 21
352.592615
 31
0.0
  0
LINE
  5
139
100
AcDbEntity
  8
Layer_1
 62
7
100
AcDbLine
 10
272.070508
 20
352.592615
 30
0.0
 11
272.070508
 21
322.685893
 31
0.0
  0
LINE
  5
13a
100
AcDbEntity
  8
Layer_1
 62
7
100
AcDbLine
 10
272.070508
 20
322.685893
 30
0.0
 11
269.071897
 21
322.685893
 31
0.0
  0
LINE
  5
13b
100
AcDbEntity
  8
Layer_1
 62
7
100
AcDbLine
 10
269.071897
 20
322.685893
 30
0.0
 11
269.071897
 21
283.139504
 31
0.0
  0
LINE
  5
13c
100
AcDbEntity
  8
Layer_1
 62
7
100
AcDbLine
 10
269.071897
 20
283.139504
 30
0.0
 11
308.027389
 21
283.139504
 31
0.0
  0
LINE
  5
13d
100
AcDbEntity
  8
Layer_1
 62
7
100
AcDbLine
 10
308.027389
 20
283.139504
 30
0.0
 11
308.027389
 21
280.140893
 31
0.0
  0
LINE
  5
13e
100
AcDbEntity
  8
Layer_1
 62
7
100
AcDbLine
 10
308.027389
 20
280.140893
 30
0.0
 11
338.119333
 21
280.140893
 31
0.0
  0
LINE
  5
13f
100
AcDbEntity
  8
Layer_1
 62
7
100
AcDbLine
 10
338.119333
 20
280.140893
 30
0.0
 11
338.119333
 21
283.139504
 31
0.0
  0
LINE
  5
140
100
AcDbEntity
  8
Layer_1
 62
7
100
AcDbLine
 10
338.119333
 20
283.139504
 30
0.0
 11
356.119805
 21
283.139504
 31
0.0
  0
LINE
  5
141
100
AcDbEntity
  8
Layer_1
 62
7
100
AcDbLine
 10
356.119805
 20
283.139504
 30
0.0
 11
356.119805
 21
287.002420
 31
0.0
  0
LINE
  5
142
100
AcDbEntity
  8
Layer_1
 62
7
100
AcDbLine
 10
356.119805
 20
287.002420
 30
0.0
 11
354.938000
 21
287.002420
 31
0.0
  0
LINE
  5
143
100
AcDbEntity
  8
Layer_1
 62
7
100
AcDbLine
 10
354.938000
 20
287.002420
 30
0.0
 11
354.938000
 21
289.180837
 31
0.0
  0
LINE
  5
144
100
AcDbEntity
  8
Layer_1
 62
7
100
AcDbLine
 10
354.938000
 20
289.180837
 30
0.0
 11
356.119805
 21
289.180837
 31
0.0
  0
LINE
  5
145
100
AcDbEntity
  8
Layer_1
 62
7
100
AcDbLine
 10
356.119805
 20
289.180837
 30
0.0
 11
356.119805
 21
293.043726
 31
0.0
  0
LINE
  5
146
100
AcDbEntity
  8
Layer_1
 62
7
100
AcDbLine
 10
356.119805
 20
293.043726
 30
0.0
 11
359.021417
 21
293.043726
 31
0.0
  0
LINE
  5
147
100
AcDbEntity
  8
Layer_1
 62
7
100
AcDbLine
 10
359.021417
 20
293.043726
 30
0.0
 11
359.021417
 21
289.180837
 31
0.0
  0
LINE
  5
148
100
AcDbEntity
  8
Layer_1
 62
7
100
AcDbLine
 10
359.021417
 20
289.180837
 30
0.0
 11
360.212028
 21
289.180837
 31
0.0
  0
LINE
  5
149
100
AcDbEntity
  8
Layer_1
 62
7
100
AcDbLine
 10
360.212028
 20
289.180837
 30
0.0
 11
360.212028
 21
287.002420
 31
0.0
  0
LINE
  5
14a
100
AcDbEntity
  8
Layer_1
 62
7
100
AcDbLine
 10
360.212028
 20
287.002420
 30
0.0
 11
359.021417
 21
287.002420
 31
0.0
  0
LINE
  5
14b
100
AcDbEntity
  8
Layer_1
 62
7
100
AcDbLine
 10
359.021417
 20
287.002420
 30
0.0
 11
359.021417
 21
283.139504
 31
0.0
  0
LINE
  5
14c
100
AcDbEntity
  8
Layer_1
 62
7
100
AcDbLine
 10
359.021417
 20
283.139504
 30
0.0
 11
377.030722
 21
283.139504
 31
0.0
  0
LINE
  5
14d
100
AcDbEntity
  8
Layer_1
 62
7
100
AcDbLine
 10
377.030722
 20
283.139504
 30
0.0
 11
377.030722
 21
280.140893
 31
0.0
  0
LINE
  5
14e
100
AcDbEntity
  8
Layer_1
 62
7
100
AcDbLine
 10
377.030722
 20
280.140893
 30
0.0
 11
407.113833
 21
280.140893
 31
0.0
  0
LINE
  5
14f
100
AcDbEntity
  8
Layer_1
 62
7
100
AcDbLine
 10
407.113833
 20
280.140893
 30
0.0
 11
407.113833
 21
283.139504
 31
0.0
  0
LINE
  5
150
100
AcDbEntity
  8
Layer_1
 62
7
100
AcDbLine
 10
407.113833
 20
283.139504
 30
0.0
 11
446.069333
 21
283.139504
 31
0.0
  0
LINE
  5
151
100
AcDbEntity
  8
Layer_1
 62
7
100
AcDbLine
 10
446.069333
 20
283.139504
 30
0.0
 11
446.069333
 21
322.685893
 31
0.0
  0
LINE
  5
152
100
AcDbEntity
  8
Layer_1
 62
7
100
AcDbLine
 10
446.069333
 20
322.685893
 30
0.0
 11
443.070722
 21
322.685893
 31
0.0
  0
LINE
  5
153
100
AcDbEntity
  8
Layer_1
 62
7
100
AcDbLine
 10
443.070722
 20
322.685893
 30
0.0
 11
443.070722
 21
352.592615
 31
0.0
  0
LINE
  5
154
100
AcDbEntity
  8
Layer_1
 62
7
100
AcDbLine
 10
443.070722
 20
352.592615
 30
0.0
 11
446.069333
 21
352.592615
 31
0.0
  0
LINE
  5
155
100
AcDbEntity
  8
Layer_1
 62
7
100
AcDbLine
 10
446.069333
 20
352.592615
 30
0.0
 11
446.069333
 21
395.181726
 31
0.0
  0
LINE
  5
156
100
AcDbEntity
  8
Layer_1
 62
7
100
AcDbLine
 10
446.069333
 20
395.181726
 30
0.0
 11
443.070722
 21
395.181726
 31
0.0
  0
LINE
  5
157
100
AcDbEntity
  8
Layer_1
 62
7
100
AcDbLine
 10
443.070722
 20
395.181726
 30
0.0
 11
443.070722
 21
425.097281
 31
0.0
  0
LINE
  5
158
100
AcDbEntity
  8
Layer_1
 62
7
100
AcDbLine
 10
443.070722
 20
425.097281
 30
0.0
 11
446.069333
 21
425.097281
 31
0.0
  0
LINE
  5
159
100
AcDbEntity
  8
Layer_1
 62
7
100
AcDbLine
 10
446.069333
 20
425.097281
 30
0.0
 11
446.069333
 21
467.686393
 31
0.0
  0
LINE
  5
15a
100
AcDbEntity
  8
Layer_1
 62
7
100
AcDbLine
 10
446.069333
 20
467.686393
 30
0.0
 11
443.070722
 21
467.686393
 31
0.0
  0
LINE
  5
15b
100
AcDbEntity
  8
Layer_1
 62
7
100
AcDbLine
 10
443.070722
 20
467.686393
 30
0.0
 11
443.070722
 21
497.593115
 31
0.0
  0
LINE
  5
15c
100
AcDbEntity
  8
Layer_1
 62
7
100
AcDbLine
 10
443.070722
 20
497.593115
 30
0.0
 11
446.069333
 21
497.593115
 31
0.0
  0
LINE
  5
15d
100
AcDbEntity
  8
Layer_1
 62
7
100
AcDbLine
 10
446.069333
 20
497.593115
 30
0.0
 11
446.069333
 21
540.138115
 31
0.0
  0
LINE
  5
15e
100
AcDbEntity
  8
Layer_1
 62
7
100
AcDbLine
 10
446.069333
 20
540.138115
 30
0.0
 11
269.071897
 21
540.138115
 31
0.0
  0
LINE
  5
15f
100
AcDbEntity
  8
Layer_1
 62
7
100
AcDbLine
 10
269.071897
 20
540.138115
 30
0.0
 11
269.071897
 21
540.138115
 31
0.0
  0
LINE
  5
160
100
AcDbEntity
  8
Layer_1
 62
7
100
AcDbLine
 10
535.025016
 20
569.729905
 30
0.0
 11
613.690170
 21
631.189862
 31
0.0
  0
LINE
  5
161
100
AcDbEntity
  8
Layer_1
 62
7
100
AcDbLine
 10
613.690170
 20
631.189862
 30
0.0
 11
675.150184
 21
552.524735
 31
0.0
  0
LINE
  5
162
100
AcDbEntity
  8
Layer_1
 62
7
100
AcDbLine
 10
675.150184
 20
552.524735
 30
0.0
 11
596.484972
 21
491.064750
 31
0.0
  0
LINE
  5
163
100
AcDbEntity
  8
Layer_1
 62
7
100
AcDbLine
 10
596.484972
 20
491.064750
 30
0.0
 11
535.025016
 21
569.729905
 31
0.0
  0
LINE
  5
164
100
AcDbEntity
  8
Layer_1
 62
7
100
AcDbLine
 10
216.219809
 20
560.891298
 30
0.0
 11
218.070419
 21
563.259989
 31
0.0
  0
LINE
  5
165
100
AcDbEntity
  8
Layer_1
 62
7
100
AcDbLine
 10
218.070419
 20
563.259989
 30
0.0
 11
194.355263
 21
581.780399
 31
0.0
  0
LINE
  5
166
100
AcDbEntity
  8
Layer_1
 62
7
100
AcDbLine
 10
194.355263
 20
581.780399
 30
0.0
 11
192.512332
 21
579.421529
 31
0.0
  0
LINE
  5
167
100
AcDbEntity
  8
Layer_1
 62
7
100
AcDbLine
 10
192.512332
 20
579.421529
 30
0.0
 11
161.847330
 21
603.379656
 31
0.0
  0
LINE
  5
168
100
AcDbEntity
  8
Layer_1
 62
7
100
AcDbLine
 10
161.847330
 20
603.379656
 30
0.0
 11
163.699015
 21
605.739598
 31
0.0
  0
LINE
  5
169
100
AcDbEntity
  8
Layer_1
 62
7
100
AcDbLine
 10
163.699015
 20
605.739598
 30
0.0
 11
139.982784
 21
624.268729
 31
0.0
  0
LINE
  5
16a
100
AcDbEntity
  8
Layer_1
 62
7
100
AcDbLine
 10
139.982784
 20
624.268729
 30
0.0
 11
138.140928
 21
621.901110
 31
0.0
  0
LINE
  5
16b
100
AcDbEntity
  8
Layer_1
 62
7
100
AcDbLine
 10
138.140928
 20
621.901110
 30
0.0
 11
109.805289
 21
644.039327
 31
0.0
  0
LINE
  5
16c
100
AcDbEntity
  8
Layer_1
 62
7
100
AcDbLine
 10
109.805289
 20
644.039327
 30
0.0
 11
111.656975
 21
646.399269
 31
0.0
  0
LINE
  5
16d
100
AcDbEntity
  8
Layer_1
 62
7
100
AcDbLine
 10
111.656975
 20
646.399269
 30
0.0
 11
87.940761
 21
664.928428
 31
0.0
  0
LINE
  5
16e
100
AcDbEntity
  8
Layer_1
 62
7
100
AcDbLine
 10
87.940761
 20
664.928428
 30
0.0
 11
61.189376
 21
664.928428
 31
0.0
  0
LINE
  5
16f
100
AcDbEntity
  8
Layer_1
 62
7
100
AcDbLine
 10
61.189376
 20
664.928428
 30
0.0
 11
61.189376
 21
661.929817
 31
0.0
  0
LINE
  5
170
100
AcDbEntity
  8
Layer_1
 62
7
100
AcDbLine
 10
61.189376
 20
661.929817
 30
0.0
 11
31.097432
 21
661.929817
 31
0.0
  0
LINE
  5
171
100
AcDbEntity
  8
Layer_1
 62
7
100
AcDbLine
 10
31.097432
 20
661.929817
 30
0.0
 11
31.097432
 21
664.928428
 31
0.0
  0
LINE
  5
172
100
AcDbEntity
  8
Layer_1
 62
7
100
AcDbLine
 10
31.097432
 20
664.928428
 30
0.0
 11
4.559653
 21
664.928428
 31
0.0
  0
LINE
  5
173
100
AcDbEntity
  8
Layer_1
 62
7
100
AcDbLine
 10
4.559653
 20
664.928428
 30
0.0
 11
4.559653
 21
641.349608
 31
0.0
  0
LINE
  5
174
100
AcDbEntity
  8
Layer_1
 62
7
100
AcDbLine
 10
4.559653
 20
641.349608
 30
0.0
 11
1.552222
 21
641.349608
 31
0.0
  0
LINE
  5
175
100
AcDbEntity
  8
Layer_1
 62
7
100
AcDbLine
 10
1.552222
 20
641.349608
 30
0.0
 11
1.552222
 21
611.257663
 31
0.0
  0
LINE
  5
176
100
AcDbEntity
  8
Layer_1
 62
7
100
AcDbLine
 10
1.552222
 20
611.257663
 30
0.0
 11
4.559653
 21
611.257663
 31
0.0
  0
LINE
  5
177
100
AcDbEntity
  8
Layer_1
 62
7
100
AcDbLine
 10
4.559653
 20
611.257663
 30
0.0
 11
4.559653
 21
568.844969
 31
0.0
  0
LINE
  5
178
100
AcDbEntity
  8
Layer_1
 62
7
100
AcDbLine
 10
4.559653
 20
568.844969
 30
0.0
 11
1.552222
 21
568.844969
 31
0.0
  0
LINE
  5
179
100
AcDbEntity
  8
Layer_1
 62
7
100
AcDbLine
 10
1.552222
 20
568.844969
 30
0.0
 11
1.552222
 21
538.761830
 31
0.0
  0
LINE
  5
17a
100
AcDbEntity
  8
Layer_1
 62
7
100
AcDbLine
 10
1.552222
 20
538.761830
 30
0.0
 11
4.559653
 21
538.761830
 31
0.0
  0
LINE
  5
17b
100
AcDbEntity
  8
Layer_1
 62
7
100
AcDbLine
 10
4.559653
 20
538.761830
 30
0.0
 11
4.559653
 21
499.303635
 31
0.0
  0
LINE
  5
17c
100
AcDbEntity
  8
Layer_1
 62
7
100
AcDbLine
 10
4.559653
 20
499.303635
 30
0.0
 11
1.552222
 21
499.303635
 31
0.0
  0
LINE
  5
17d
100
AcDbEntity
  8
Layer_1
 62
7
100
AcDbLine
 10
1.552222
 20
499.303635
 30
0.0
 11
1.552222
 21
469.211691
 31
0.0
  0
LINE
  5
17e
100
AcDbEntity
  8
Layer_1
 62
7
100
AcDbLine
 10
1.552222
 20
469.211691
 30
0.0
 11
4.559653
 21
469.211691
 31
0.0
  0
LINE
  5
17f
100
AcDbEntity
  8
Layer_1
 62
7
100
AcDbLine
 10
4.559653
 20
469.211691
 30
0.0
 11
4.559653
 21
426.807802
 31
0.0
  0
LINE
  5
180
100
AcDbEntity
  8
Layer_1
 62
7
100
AcDbLine
 10
4.559653
 20
426.807802
 30
0.0
 11
1.552222
 21
426.807802
 31
0.0
  0
LINE
  5
181
100
AcDbEntity
  8
Layer_1
 62
7
100
AcDbLine
 10
1.552222
 20
426.807802
 30
0.0
 11
1.552222
 21
396.715858
 31
0.0
  0
LINE
  5
182
100
AcDbEntity
  8
Layer_1
 62
7
100
AcDbLine
 10
1.552222
 20
396.715858
 30
0.0
 11
4.559653
 21
396.715858
 31
0.0
  0
LINE
  5
183
100
AcDbEntity
  8
Layer_1
 62
7
100
AcDbLine
 10
4.559653
 20
396.715858
 30
0.0
 11
4.559653
 21
354.303135
 31
0.0
  0
LINE
  5
184
100
AcDbEntity
  8
Layer_1
 62
7
100
AcDbLine
 10
4.559653
 20
354.303135
 30
0.0
 11
1.552222
 21
354.303135
 31
0.0
  0
LINE
  5
185
100
AcDbEntity
  8
Layer_1
 62
7
100
AcDbLine
 10
1.552222
 20
354.303135
 30
0.0
 11
1.552222
 21
324.211191
 31
0.0
  0
LINE
  5
186
100
AcDbEntity
  8
Layer_1
 62
7
100
AcDbLine
 10
1.552222
 20
324.211191
 30
0.0
 11
4.559653
 21
324.211191
 31
0.0
  0
LINE
  5
187
100
AcDbEntity
  8
Layer_1
 62
7
100
AcDbLine
 10
4.559653
 20
324.211191
 30
0.0
 11
4.559653
 21
284.761830
 31
0.0
  0
LINE
  5
188
100
AcDbEntity
  8
Layer_1
 62
7
100
AcDbLine
 10
4.559653
 20
284.761830
 30
0.0
 11
40.507706
 21
284.761830
 31
0.0
  0
LINE
  5
189
100
AcDbEntity
  8
Layer_1
 62
7
100
AcDbLine
 10
40.507706
 20
284.761830
 30
0.0
 11
40.507706
 21
281.763219
 31
0.0
  0
LINE
  5
18a
100
AcDbEntity
  8
Layer_1
 62
7
100
AcDbLine
 10
40.507706
 20
281.763219
 30
0.0
 11
70.599650
 21
281.763219
 31
0.0
  0
LINE
  5
18b
100
AcDbEntity
  8
Layer_1
 62
7
100
AcDbLine
 10
70.599650
 20
281.763219
 30
0.0
 11
70.599650
 21
284.761830
 31
0.0
  0
LINE
  5
18c
100
AcDbEntity
  8
Layer_1
 62
7
100
AcDbLine
 10
70.599650
 20
284.761830
 30
0.0
 11
88.600136
 21
284.761830
 31
0.0
  0
LINE
  5
18d
100
AcDbEntity
  8
Layer_1
 62
7
100
AcDbLine
 10
88.600136
 20
284.761830
 30
0.0
 11
88.600136
 21
288.624747
 31
0.0
  0
LINE
  5
18e
100
AcDbEntity
  8
Layer_1
 62
7
100
AcDbLine
 10
88.600136
 20
288.624747
 30
0.0
 11
87.418331
 21
288.624747
 31
0.0
  0
LINE
  5
18f
100
AcDbEntity
  8
Layer_1
 62
7
100
AcDbLine
 10
87.418331
 20
288.624747
 30
0.0
 11
87.418331
 21
290.803135
 31
0.0
  0
LINE
  5
190
100
AcDbEntity
  8
Layer_1
 62
7
100
AcDbLine
 10
87.418331
 20
290.803135
 30
0.0
 11
88.600136
 21
290.803135
 31
0.0
  0
LINE
  5
191
100
AcDbEntity
  8
Layer_1
 62
7
100
AcDbLine
 10
88.600136
 20
290.803135
 30
0.0
 11
88.600136
 21
294.666080
 31
0.0
  0
LINE
  5
192
100
AcDbEntity
  8
Layer_1
 62
7
100
AcDbLine
 10
88.600136
 20
294.666080
 30
0.0
 11
91.510553
 21
294.666080
 31
0.0
  0
LINE
  5
193
100
AcDbEntity
  8
Layer_1
 62
7
100
AcDbLine
 10
91.510553
 20
294.666080
 30
0.0
 11
91.510553
 21
290.803135
 31
0.0
  0
LINE
  5
194
100
AcDbEntity
  8
Layer_1
 62
7
100
AcDbLine
 10
91.510553
 20
290.803135
 30
0.0
 11
92.692358
 21
290.803135
 31
0.0
  0
LINE
  5
195
100
AcDbEntity
  8
Layer_1
 62
7
100
AcDbLine
 10
92.692358
 20
290.803135
 30
0.0
 11
92.692358
 21
288.624747
 31
0.0
  0
LINE
  5
196
100
AcDbEntity
  8
Layer_1
 62
7
100
AcDbLine
 10
92.692358
 20
288.624747
 30
0.0
 11
91.510553
 21
288.624747
 31
0.0
  0
LINE
  5
197
100
AcDbEntity
  8
Layer_1
 62
7
100
AcDbLine
 10
91.510553
 20
288.624747
 30
0.0
 11
91.510553
 21
284.761830
 31
0.0
  0
LINE
  5
198
100
AcDbEntity
  8
Layer_1
 62
7
100
AcDbLine
 10
91.510553
 20
284.761830
 30
0.0
 11
109.511039
 21
284.761830
 31
0.0
  0
LINE
  5
199
100
AcDbEntity
  8
Layer_1
 62
7
100
AcDbLine
 10
109.511039
 20
284.761830
 30
0.0
 11
109.511039
 21
281.763219
 31
0.0
  0
LINE
  5
19a
100
AcDbEntity
  8
Layer_1
 62
7
100
AcDbLine
 10
109.511039
 20
281.763219
 30
0.0
 11
139.602983
 21
281.763219
 31
0.0
  0
LINE
  5
19b
100
AcDbEntity
  8
Layer_1
 62
7
100
AcDbLine
 10
139.602983
 20
281.763219
 30
0.0
 11
139.602983
 21
284.761830
 31
0.0
  0
LINE
  5
19c
100
AcDbEntity
  8
Layer_1
 62
7
100
AcDbLine
 10
139.602983
 20
284.761830
 30
0.0
 11
157.603469
 21
284.761830
 31
0.0
  0
LINE
  5
19d
100
AcDbEntity
  8
Layer_1
 62
7
100
AcDbLine
 10
157.603469
 20
284.761830
 30
0.0
 11
157.603469
 21
288.624747
 31
0.0
  0
LINE
  5
19e
100
AcDbEntity
  8
Layer_1
 62
7
100
AcDbLine
 10
157.603469
 20
288.624747
 30
0.0
 11
156.421664
 21
288.624747
 31
0.0
  0
LINE
  5
19f
100
AcDbEntity
  8
Layer_1
 62
7
100
AcDbLine
 10
156.421664
 20
288.624747
 30
0.0
 11
156.421664
 21
290.803135
 31
0.0
  0
LINE
  5
1a0
100
AcDbEntity
  8
Layer_1
 62
7
100
AcDbLine
 10
156.421664
 20
290.803135
 30
0.0
 11
157.603469
 21
290.803135
 31
0.0
  0
LINE
  5
1a1
100
AcDbEntity
  8
Layer_1
 62
7
100
AcDbLine
 10
157.603469
 20
290.803135
 30
0.0
 11
157.603469
 21
294.666080
 31
0.0
  0
LINE
  5
1a2
100
AcDbEntity
  8
Layer_1
 62
7
100
AcDbLine
 10
157.603469
 20
294.666080
 30
0.0
 11
160.505067
 21
294.666080
 31
0.0
  0
LINE
  5
1a3
100
AcDbEntity
  8
Layer_1
 62
7
100
AcDbLine
 10
160.505067
 20
294.666080
 30
0.0
 11
160.505067
 21
290.803135
 31
0.0
  0
LINE
  5
1a4
100
AcDbEntity
  8
Layer_1
 62
7
100
AcDbLine
 10
160.505067
 20
290.803135
 30
0.0
 11
161.695692
 21
290.803135
 31
0.0
  0
LINE
  5
1a5
100
AcDbEntity
  8
Layer_1
 62
7
100
AcDbLine
 10
161.695692
 20
290.803135
 30
0.0
 11
161.695692
 21
288.624747
 31
0.0
  0
LINE
  5
1a6
100
AcDbEntity
  8
Layer_1
 62
7
100
AcDbLine
 10
161.695692
 20
288.624747
 30
0.0
 11
160.505067
 21
288.624747
 31
0.0
  0
LINE
  5
1a7
100
AcDbEntity
  8
Layer_1
 62
7
100
AcDbLine
 10
160.505067
 20
288.624747
 30
0.0
 11
160.505067
 21
284.761830
 31
0.0
  0
LINE
  5
1a8
100
AcDbEntity
  8
Layer_1
 62
7
100
AcDbLine
 10
160.505067
 20
284.761830
 30
0.0
 11
178.514372
 21
284.761830
 31
0.0
  0
LINE
  5
1a9
100
AcDbEntity
  8
Layer_1
 62
7
100
AcDbLine
 10
178.514372
 20
284.761830
 30
0.0
 11
178.514372
 21
281.763219
 31
0.0
  0
LINE
  5
1aa
100
AcDbEntity
  8
Layer_1
 62
7
100
AcDbLine
 10
178.514372
 20
281.763219
 30
0.0
 11
208.597497
 21
281.763219
 31
0.0
  0
LINE
  5
1ab
100
AcDbEntity
  8
Layer_1
 62
7
100
AcDbLine
 10
208.597497
 20
281.763219
 30
0.0
 11
208.597497
 21
284.761830
 31
0.0
  0
LINE
  5
1ac
100
AcDbEntity
  8
Layer_1
 62
7
100
AcDbLine
 10
208.597497
 20
284.761830
 30
0.0
 11
244.554372
 21
284.761830
 31
0.0
  0
LINE
  5
1ad
100
AcDbEntity
  8
Layer_1
 62
7
100
AcDbLine
 10
244.554372
 20
284.761830
 30
0.0
 11
244.554372
 21
324.211191
 31
0.0
  0
LINE
  5
1ae
100
AcDbEntity
  8
Layer_1
 62
7
100
AcDbLine
 10
244.554372
 20
324.211191
 30
0.0
 11
247.552983
 21
324.211191
 31
0.0
  0
LINE
  5
1af
100
AcDbEntity
  8
Layer_1
 62
7
100
AcDbLine
 10
247.552983
 20
324.211191
 30
0.0
 11
247.552983
 21
354.303135
 31
0.0
  0
LINE
  5
1b0
100
AcDbEntity
  8
Layer_1
 62
7
100
AcDbLine
 10
247.552983
 20
354.303135
 30
0.0
 11
244.554372
 21
354.303135
 31
0.0
  0
LINE
  5
1b1
100
AcDbEntity
  8
Layer_1
 62
7
100
AcDbLine
 10
244.554372
 20
354.303135
 30
0.0
 11
244.554372
 21
396.715858
 31
0.0
  0
LINE
  5
1b2
100
AcDbEntity
  8
Layer_1
 62
7
100
AcDbLine
 10
244.554372
 20
396.715858
 30
0.0
 11
247.552983
 21
396.715858
 31
0.0
  0
LINE
  5
1b3
100
AcDbEntity
  8
Layer_1
 62
7
100
AcDbLine
 10
247.552983
 20
396.715858
 30
0.0
 11
247.552983
 21
426.807802
 31
0.0
  0
LINE
  5
1b4
100
AcDbEntity
  8
Layer_1
 62
7
100
AcDbLine
 10
247.552983
 20
426.807802
 30
0.0
 11
244.554372
 21
426.807802
 31
0.0
  0
LINE
  5
1b5
100
AcDbEntity
  8
Layer_1
 62
7
100
AcDbLine
 10
244.554372
 20
426.807802
 30
0.0
 11
244.554372
 21
469.211691
 31
0.0
  0
LINE
  5
1b6
100
AcDbEntity
  8
Layer_1
 62
7
100
AcDbLine
 10
244.554372
 20
469.211691
 30
0.0
 11
247.552983
 21
469.211691
 31
0.0
  0
LINE
  5
1b7
100
AcDbEntity
  8
Layer_1
 62
7
100
AcDbLine
 10
247.552983
 20
469.211691
 30
0.0
 11
247.552983
 21
499.303635
 31
0.0
  0
LINE
  5
1b8
100
AcDbEntity
  8
Layer_1
 62
7
100
AcDbLine
 10
247.552983
 20
499.303635
 30
0.0
 11
244.554372
 21
499.303635
 31
0.0
  0
LINE
  5
1b9
100
AcDbEntity
  8
Layer_1
 62
7
100
AcDbLine
 10
244.554372
 20
499.303635
 30
0.0
 11
244.554372
 21
538.761830
 31
0.0
  0
LINE
  5
1ba
100
AcDbEntity
  8
Layer_1
 62
7
100
AcDbLine
 10
244.554372
 20
538.761830
 30
0.0
 11
216.219809
 21
560.891298
 31
0.0
  0
SPLINE
  5
1bb
100
AcDbEntity
  8
Layer_1
 62
7
100
AcDbSpline
 70
8
 71
3
 72
8
 73
4
 74
0
 40
0
 40
0
 40
0
 40
0
 40
1
 40
1
 40
1
 40
1
 10
356.863941
 20
12.115182
 30
0.0
 10
356.863929
 20
11.263020
 30
0.0
 10
356.173109
 20
10.572213
 30
0.0
 10
355.320947
 20
10.572217
 30
0.0
  0
SPLINE
  5
1bc
100
AcDbEntity
  8
Layer_1
 62
7
100
AcDbSpline
 70
8
 71
3
 72
8
 73
4
 74
0
 40
0
 40
0
 40
0
 40
0
 40
1
 40
1
 40
1
 40
1
 10
355.320947
 20
10.572217
 30
0.0
 10
354.468785
 20
10.572213
 30
0.0
 10
353.777965
 20
11.263020
 30
0.0
 10
353.777954
 20
12.115182
 30
0.0
  0
SPLINE
  5
1bd
100
AcDbEntity
  8
Layer_1
 62
7
100
AcDbSpline
 70
8
 71
3
 72
8
 73
4
 74
0
 40
0
 40
0
 40
0
 40
0
 40
1
 40
1
 40
1
 40
1
 10
353.777954
 20
12.115182
 30
0.0
 10
353.777952
 20
12.524410
 30
0.0
 10
353.940516
 20
12.916877
 30
0.0
 10
354.229884
 20
13.206245
 30
0.0
  0
SPLINE
  5
1be
100
AcDbEntity
  8
Layer_1
 62
7
100
AcDbSpline
 70
8
 71
3
 72
8
 73
4
 74
0
 40
0
 40
0
 40
0
 40
0
 40
1
 40
1
 40
1
 40
1
 10
354.229884
 20
13.206245
 30
0.0
 10
354.519252
 20
13.495613
 30
0.0
 10
354.911719
 20
13.658177
 30
0.0
 10
355.320947
 20
13.658175
 30
0.0
  0
SPLINE
  5
1bf
100
AcDbEntity
  8
Layer_1
 62
7
100
AcDbSpline
 70
8
 71
3
 72
8
 73
4
 74
0
 40
0
 40
0
 40
0
 40
0
 40
1
 40
1
 40
1
 40
1
 10
355.320947
 20
13.658175
 30
0.0
 10
355.730175
 20
13.658177
 30
0.0
 10
356.122642
 20
13.495613
 30
0.0
 10
356.412010
 20
13.206245
 30
0.0
  0
SPLINE
  5
1c0
100
AcDbEntity
  8
Layer_1
 62
7
100
AcDbSpline
 70
8
 71
3
 72
8
 73
4
 74
0
 40
0
 40
0
 40
0
 40
0
 40
1
 40
1
 40
1
 40
1
 10
356.412010
 20
13.206245
 30
0.0
 10
356.701378
 20
12.916877
 30
0.0
 10
356.863942
 20
12.524410
 30
0.0
 10
356.863941
 20
12.115182
 30
0.0
  0
LINE
  5
1c1
100
AcDbEntity
  8
Layer_1
 62
7
100
AcDbLine
 10
356.863941
 20
12.115182
 30
0.0
 11
356.863941
 21
12.115182
 31
0.0
  0
SPLINE
  5
1c2
100
AcDbEntity
  8
Layer_1
 62
7
100
AcDbSpline
 70
8
 71
3
 72
8
 73
4
 74
0
 40
0
 40
0
 40
0
 40
0
 40
1
 40
1
 40
1
 40
1
 10
356.863941
 20
255.097001
 30
0.0
 10
356.863929
 20
254.244838
 30
0.0
 10
356.173110
 20
253.554031
 30
0.0
 10
355.320947
 20
253.554035
 30
0.0
  0
SPLINE
  5
1c3
100
AcDbEntity
  8
Layer_1
 62
7
100
AcDbSpline
 70
8
 71
3
 72
8
 73
4
 74
0
 40
0
 40
0
 40
0
 40
0
 40
1
 40
1
 40
1
 40
1
 10
355.320947
 20
253.554035
 30
0.0
 10
354.468785
 20
253.554031
 30
0.0
 10
353.777965
 20
254.244838
 30
0.0
 10
353.777954
 20
255.097001
 30
0.0
  0
SPLINE
  5
1c4
100
AcDbEntity
  8
Layer_1
 62
7
100
AcDbSpline
 70
8
 71
3
 72
8
 73
4
 74
0
 40
0
 40
0
 40
0
 40
0
 40
1
 40
1
 40
1
 40
1
 10
353.777954
 20
255.097001
 30
0.0
 10
353.777952
 20
255.506228
 30
0.0
 10
353.940516
 20
255.898696
 30
0.0
 10
354.229884
 20
256.188064
 30
0.0
  0
SPLINE
  5
1c5
100
AcDbEntity
  8
Layer_1
 62
7
100
AcDbSpline
 70
8
 71
3
 72
8
 73
4
 74
0
 40
0
 40
0
 40
0
 40
0
 40
1
 40
1
 40
1
 40
1
 10
354.229884
 20
256.188064
 30
0.0
 10
354.519252
 20
256.477432
 30
0.0
 10
354.911719
 20
256.639996
 30
0.0
 10
355.320947
 20
256.639994
 30
0.0
  0
SPLINE
  5
1c6
100
AcDbEntity
  8
Layer_1
 62
7
100
AcDbSpline
 70
8
 71
3
 72
8
 73
4
 74
0
 40
0
 40
0
 40
0
 40
0
 40
1
 40
1
 40
1
 40
1
 10
355.320947
 20
256.639994
 30
0.0
 10
355.730175
 20
256.639996
 30
0.0
 10
356.122643
 20
256.477432
 30
0.0
 10
356.412010
 20
256.188064
 30
0.0
  0
SPLINE
  5
1c7
100
AcDbEntity
  8
Layer_1
 62
7
100
AcDbSpline
 70
8
 71
3
 72
8
 73
4
 74
0
 40
0
 40
0
 40
0
 40
0
 40
1
 40
1
 40
1
 40
1
 10
356.412010
 20
256.188064
 30
0.0
 10
356.701378
 20
255.898696
 30
0.0
 10
356.863943
 20
255.506228
 30
0.0
 10
356.863941
 20
255.097001
 30
0.0
  0
LINE
  5
1c8
100
AcDbEntity
  8
Layer_1
 62
7
100
AcDbLine
 10
356.863941
 20
255.097001
 30
0.0
 11
356.863941
 21
255.097001
 31
0.0
  0
LINE
  5
1c9
100
AcDbEntity
  8
Layer_1
 62
7
100
AcDbLine
 10
440.821044
 20
148.561160
 30
0.0
 11
440.821044
 21
118.651107
 31
0.0
  0
LINE
  5
1ca
100
AcDbEntity
  8
Layer_1
 62
7
100
AcDbLine
 10
440.821044
 20
118.651107
 30
0.0
 11
443.802016
 21
118.651107
 31
0.0
  0
LINE
  5
1cb
100
AcDbEntity
  8
Layer_1
 62
7
100
AcDbLine
 10
443.802016
 20
118.651107
 30
0.0
 11
443.802016
 21
148.561160
 31
0.0
  0
LINE
  5
1cc
100
AcDbEntity
  8
Layer_1
 62
7
100
AcDbLine
 10
443.802016
 20
148.561160
 30
0.0
 11
440.821044
 21
148.561160
 31
0.0
  0
LINE
  5
1cd
100
AcDbEntity
  8
Layer_1
 62
7
100
AcDbLine
 10
440.821044
 20
148.561160
 30
0.0
 11
440.821044
 21
148.561160
 31
0.0
  0
LINE
  5
1ce
100
AcDbEntity
  8
Layer_1
 62
7
100
AcDbLine
 10
440.821044
 20
217.561191
 30
0.0
 11
440.821044
 21
187.651167
 31
0.0
  0
LINE
  5
1cf
100
AcDbEntity
  8
Layer_1
 62
7
100
AcDbLine
 10
440.821044
 20
187.651167
 30
0.0
 11
443.802016
 21
187.651167
 31
0.0
  0
LINE
  5
1d0
100
AcDbEntity
  8
Layer_1
 62
7
100
AcDbLine
 10
443.802016
 20
187.651167
 30
0.0
 11
443.802016
 21
217.561191
 31
0.0
  0
LINE
  5
1d1
100
AcDbEntity
  8
Layer_1
 62
7
100
AcDbLine
 10
443.802016
 20
217.561191
 30
0.0
 11
440.821044
 21
217.561191
 31
0.0
  0
LINE
  5
1d2
100
AcDbEntity
  8
Layer_1
 62
7
100
AcDbLine
 10
440.821044
 20
217.561191
 30
0.0
 11
440.821044
 21
217.561191
 31
0.0
  0
LINE
  5
1d3
100
AcDbEntity
  8
Layer_1
 62
7
100
AcDbLine
 10
266.821144
 20
217.561191
 30
0.0
 11
266.821144
 21
187.651167
 31
0.0
  0
LINE
  5
1d4
100
AcDbEntity
  8
Layer_1
 62
7
100
AcDbLine
 10
266.821144
 20
187.651167
 30
0.0
 11
269.820856
 21
187.651167
 31
0.0
  0
LINE
  5
1d5
100
AcDbEntity
  8
Layer_1
 62
7
100
AcDbLine
 10
269.820856
 20
187.651167
 30
0.0
 11
269.820856
 21
217.561191
 31
0.0
  0
LINE
  5
1d6
100
AcDbEntity
  8
Layer_1
 62
7
100
AcDbLine
 10
269.820856
 20
217.561191
 30
0.0
 11
266.821144
 21
217.561191
 31
0.0
  0
LINE
  5
1d7
100
AcDbEntity
  8
Layer_1
 62
7
100
AcDbLine
 10
266.821144
 20
217.561191
 30
0.0
 11
266.821144
 21
217.561191
 31
0.0
  0
LINE
  5
1d8
100
AcDbEntity
  8
Layer_1
 62
7
100
AcDbLine
 10
374.865937
 20
256.587783
 30
0.0
 11
374.865937
 21
253.606275
 31
0.0
  0
LINE
  5
1d9
100
AcDbEntity
  8
Layer_1
 62
7
100
AcDbLine
 10
374.865937
 20
253.606275
 30
0.0
 11
404.775989
 21
253.606275
 31
0.0
  0
LINE
  5
1da
100
AcDbEntity
  8
Layer_1
 62
7
100
AcDbLine
 10
404.775989
 20
253.606275
 30
0.0
 11
404.775989
 21
256.587783
 31
0.0
  0
LINE
  5
1db
100
AcDbEntity
  8
Layer_1
 62
7
100
AcDbLine
 10
404.775989
 20
256.587783
 30
0.0
 11
374.865937
 21
256.587783
 31
0.0
  0
LINE
  5
1dc
100
AcDbEntity
  8
Layer_1
 62
7
100
AcDbLine
 10
374.865937
 20
256.587783
 30
0.0
 11
374.865937
 21
256.587783
 31
0.0
  0
LINE
  5
1dd
100
AcDbEntity
  8
Layer_1
 62
7
100
AcDbLine
 10
305.865905
 20
256.587783
 30
0.0
 11
305.865905
 21
253.606275
 31
0.0
  0
LINE
  5
1de
100
AcDbEntity
  8
Layer_1
 62
7
100
AcDbLine
 10
305.865905
 20
253.606275
 30
0.0
 11
335.775958
 21
253.606275
 31
0.0
  0
LINE
  5
1df
100
AcDbEntity
  8
Layer_1
 62
7
100
AcDbLine
 10
335.775958
 20
253.606275
 30
0.0
 11
335.775958
 21
256.587783
 31
0.0
  0
LINE
  5
1e0
100
AcDbEntity
  8
Layer_1
 62
7
100
AcDbLine
 10
335.775958
 20
256.587783
 30
0.0
 11
305.865905
 21
256.587783
 31
0.0
  0
LINE
  5
1e1
100
AcDbEntity
  8
Layer_1
 62
7
100
AcDbLine
 10
305.865905
 20
256.587783
 30
0.0
 11
305.865905
 21
256.587783
 31
0.0
  0
LINE
  5
1e2
100
AcDbEntity
  8
Layer_1
 62
7
100
AcDbLine
 10
266.911257
 20
265.516081
 30
0.0
 11
443.730755
 21
265.516081
 31
0.0
  0
SPLINE
  5
1e3
100
AcDbEntity
  8
Layer_1
 62
7
100
AcDbSpline
 70
8
 71
3
 72
8
 73
4
 74
0
 40
0
 40
0
 40
0
 40
0
 40
1
 40
1
 40
1
 40
1
 10
443.730755
 20
265.516081
 30
0.0
 10
448.716747
 20
265.516081
 30
0.0
 10
452.730737
 20
261.502090
 30
0.0
 10
452.730737
 20
256.516099
 30
0.0
  0
LINE
  5
1e4
100
AcDbEntity
  8
Layer_1
 62
7
100
AcDbLine
 10
452.730737
 20
256.516099
 30
0.0
 11
452.730737
 21
10.552207
 31
0.0
  0
SPLINE
  5
1e5
100
AcDbEntity
  8
Layer_1
 62
7
100
AcDbSpline
 70
8
 71
3
 72
8
 73
4
 74
0
 40
0
 40
0
 40
0
 40
0
 40
1
 40
1
 40
1
 40
1
 10
452.730737
 20
10.552207
 30
0.0
 10
452.730737
 20
5.566215
 30
0.0
 10
448.716747
 20
1.552225
 30
0.0
 10
443.730755
 20
1.552225
 30
0.0
  0
LINE
  5
1e6
100
AcDbEntity
  8
Layer_1
 62
7
100
AcDbLine
 10
443.730755
 20
1.552225
 30
0.0
 11
266.911257
 21
1.552225
 31
0.0
  0
SPLINE
  5
1e7
100
AcDbEntity
  8
Layer_1
 62
7
100
AcDbSpline
 70
8
 71
3
 72
8
 73
4
 74
0
 40
0
 40
0
 40
0
 40
0
 40
1
 40
1
 40
1
 40
1
 10
266.911257
 20
1.552225
 30
0.0
 10
261.925266
 20
1.552225
 30
0.0
 10
257.911275
 20
5.566215
 30
0.0
 10
257.911275
 20
10.552207
 30
0.0
  0
LINE
  5
1e8
100
AcDbEntity
  8
Layer_1
 62
7
100
AcDbLine
 10
257.911275
 20
10.552207
 30
0.0
 11
257.911275
 21
256.516099
 31
0.0
  0
SPLINE
  5
1e9
100
AcDbEntity
  8
Layer_1
 62
7
100
AcDbSpline
 70
8
 71
3
 72
8
 73
4
 74
0
 40
0
 40
0
 40
0
 40
0
 40
1
 40
1
 40
1
 40
1
 10
257.911275
 20
256.516099
 30
0.0
 10
257.911275
 20
261.502090
 30
0.0
 10
261.925266
 20
265.516081
 30
0.0
 10
266.911257
 20
265.516081
 30
0.0
  0
LINE
  5
1ea
100
AcDbEntity
  8
Layer_1
 62
7
100
AcDbLine
 10
266.911257
 20
265.516081
 30
0.0
 11
266.911257
 21
265.516081
 31
0.0
  0
LINE
  5
1eb
100
AcDbEntity
  8
Layer_1
 62
7
100
AcDbLine
 10
440.821044
 20
79.561100
 30
0.0
 11
440.821044
 21
49.651048
 31
0.0
  0
LINE
  5
1ec
100
AcDbEntity
  8
Layer_1
 62
7
100
AcDbLine
 10
440.821044
 20
49.651048
 30
0.0
 11
443.802016
 21
49.651048
 31
0.0
  0
LINE
  5
1ed
100
AcDbEntity
  8
Layer_1
 62
7
100
AcDbLine
 10
443.802016
 20
49.651048
 30
0.0
 11
443.802016
 21
79.561100
 31
0.0
  0
LINE
  5
1ee
100
AcDbEntity
  8
Layer_1
 62
7
100
AcDbLine
 10
443.802016
 20
79.561100
 30
0.0
 11
440.821044
 21
79.561100
 31
0.0
  0
LINE
  5
1ef
100
AcDbEntity
  8
Layer_1
 62
7
100
AcDbLine
 10
440.821044
 20
79.561100
 30
0.0
 11
440.821044
 21
79.561100
 31
0.0
  0
LINE
  5
1f0
100
AcDbEntity
  8
Layer_1
 62
7
100
AcDbLine
 10
266.821144
 20
148.561160
 30
0.0
 11
266.821144
 21
118.651107
 31
0.0
  0
LINE
  5
1f1
100
AcDbEntity
  8
Layer_1
 62
7
100
AcDbLine
 10
266.821144
 20
118.651107
 30
0.0
 11
269.820856
 21
118.651107
 31
0.0
  0
LINE
  5
1f2
100
AcDbEntity
  8
Layer_1
 62
7
100
AcDbLine
 10
269.820856
 20
118.651107
 30
0.0
 11
269.820856
 21
148.561160
 31
0.0
  0
LINE
  5
1f3
100
AcDbEntity
  8
Layer_1
 62
7
100
AcDbLine
 10
269.820856
 20
148.561160
 30
0.0
 11
266.821144
 21
148.561160
 31
0.0
  0
LINE
  5
1f4
100
AcDbEntity
  8
Layer_1
 62
7
100
AcDbLine
 10
266.821144
 20
148.561160
 30
0.0
 11
266.821144
 21
148.561160
 31
0.0
  0
LINE
  5
1f5
100
AcDbEntity
  8
Layer_1
 62
7
100
AcDbLine
 10
266.839883
 20
79.561128
 30
0.0
 11
266.839883
 21
49.651076
 31
0.0
  0
LINE
  5
1f6
100
AcDbEntity
  8
Layer_1
 62
7
100
AcDbLine
 10
266.839883
 20
49.651076
 30
0.0
 11
269.820856
 21
49.651076
 31
0.0
  0
LINE
  5
1f7
100
AcDbEntity
  8
Layer_1
 62
7
100
AcDbLine
 10
269.820856
 20
49.651076
 30
0.0
 11
269.820856
 21
79.561128
 31
0.0
  0
LINE
  5
1f8
100
AcDbEntity
  8
Layer_1
 62
7
100
AcDbLine
 10
269.820856
 20
79.561128
 30
0.0
 11
266.839883
 21
79.561128
 31
0.0
  0
LINE
  5
1f9
100
AcDbEntity
  8
Layer_1
 62
7
100
AcDbLine
 10
266.839883
 20
79.561128
 30
0.0
 11
266.839883
 21
79.561128
 31
0.0
  0
LINE
  5
1fa
100
AcDbEntity
  8
Layer_1
 62
7
100
AcDbLine
 10
374.865937
 20
10.624456
 30
0.0
 11
374.865937
 21
13.605964
 31
0.0
  0
LINE
  5
1fb
100
AcDbEntity
  8
Layer_1
 62
7
100
AcDbLine
 10
374.865937
 20
13.605964
 30
0.0
 11
404.775989
 21
13.605964
 31
0.0
  0
LINE
  5
1fc
100
AcDbEntity
  8
Layer_1
 62
7
100
AcDbLine
 10
404.775989
 20
13.605964
 30
0.0
 11
404.775989
 21
10.624456
 31
0.0
  0
LINE
  5
1fd
100
AcDbEntity
  8
Layer_1
 62
7
100
AcDbLine
 10
404.775989
 20
10.624456
 30
0.0
 11
374.865937
 21
10.624456
 31
0.0
  0
LINE
  5
1fe
100
AcDbEntity
  8
Layer_1
 62
7
100
AcDbLine
 10
374.865937
 20
10.624456
 30
0.0
 11
374.865937
 21
10.624456
 31
0.0
  0
LINE
  5
1ff
100
AcDbEntity
  8
Layer_1
 62
7
100
AcDbLine
 10
305.865905
 20
10.624456
 30
0.0
 11
305.865905
 21
13.605964
 31
0.0
  0
LINE
  5
200
100
AcDbEntity
  8
Layer_1
 62
7
100
AcDbLine
 10
305.865905
 20
13.605964
 30
0.0
 11
335.775958
 21
13.605964
 31
0.0
  0
LINE
  5
201
100
AcDbEntity
  8
Layer_1
 62
7
100
AcDbLine
 10
335.775958
 20
13.605964
 30
0.0
 11
335.775958
 21
10.624456
 31
0.0
  0
LINE
  5
202
100
AcDbEntity
  8
Layer_1
 62
7
100
AcDbLine
 10
335.775958
 20
10.624456
 30
0.0
 11
305.865905
 21
10.624456
 31
0.0
  0
LINE
  5
203
100
AcDbEntity
  8
Layer_1
 62
7
100
AcDbLine
 10
305.865905
 20
10.624456
 30
0.0
 11
305.865905
 21
10.624456
 31
0.0
  0
SPLINE
  5
204
100
AcDbEntity
  8
Layer_1
 62
7
100
AcDbSpline
 70
8
 71
3
 72
8
 73
4
 74
0
 40
0
 40
0
 40
0
 40
0
 40
1
 40
1
 40
1
 40
1
 10
269.860423
 20
168.106149
 30
0.0
 10
269.860431
 20
167.255949
 30
0.0
 10
269.171214
 20
166.566720
 30
0.0
 10
268.321014
 20
166.566712
 30
0.0
  0
SPLINE
  5
205
100
AcDbEntity
  8
Layer_1
 62
7
100
AcDbSpline
 70
8
 71
3
 72
8
 73
4
 74
0
 40
0
 40
0
 40
0
 40
0
 40
1
 40
1
 40
1
 40
1
 10
268.321014
 20
166.566712
 30
0.0
 10
267.912729
 20
166.566708
 30
0.0
 10
267.521164
 20
166.728897
 30
0.0
 10
267.232463
 20
167.017598
 30
0.0
  0
SPLINE
  5
206
100
AcDbEntity
  8
Layer_1
 62
7
100
AcDbSpline
 70
8
 71
3
 72
8
 73
4
 74
0
 40
0
 40
0
 40
0
 40
0
 40
1
 40
1
 40
1
 40
1
 10
267.232463
 20
167.017598
 30
0.0
 10
266.943762
 20
167.306300
 30
0.0
 10
266.781573
 20
167.697864
 30
0.0
 10
266.781576
 20
168.106149
 30
0.0
  0
SPLINE
  5
207
100
AcDbEntity
  8
Layer_1
 62
7
100
AcDbSpline
 70
8
 71
3
 72
8
 73
4
 74
0
 40
0
 40
0
 40
0
 40
0
 40
1
 40
1
 40
1
 40
1
 10
266.781576
 20
168.106149
 30
0.0
 10
266.781584
 20
168.956349
 30
0.0
 10
267.470814
 20
169.645566
 30
0.0
 10
268.321014
 20
169.645559
 30
0.0
  0
SPLINE
  5
208
100
AcDbEntity
  8
Layer_1
 62
7
100
AcDbSpline
 70
8
 71
3
 72
8
 73
4
 74
0
 40
0
 40
0
 40
0
 40
0
 40
1
 40
1
 40
1
 40
1
 10
268.321014
 20
169.645559
 30
0.0
 10
269.171203
 20
169.645551
 30
0.0
 10
269.860415
 20
168.956338
 30
0.0
 10
269.860423
 20
168.106149
 30
0.0
  0
LINE
  5
209
100
AcDbEntity
  8
Layer_1
 62
7
100
AcDbLine
 10
269.860423
 20
168.106149
 30
0.0
 11
269.860423
 21
168.106149
 31
0.0
  0
SPLINE
  5
20a
100
AcDbEntity
  8
Layer_1
 62
7
100
AcDbSpline
 70
8
 71
3
 72
8
 73
4
 74
0
 40
0
 40
0
 40
0
 40
0
 40
1
 40
1
 40
1
 40
1
 10
269.860423
 20
99.106118
 30
0.0
 10
269.860431
 20
98.255918
 30
0.0
 10
269.171214
 20
97.566688
 30
0.0
 10
268.321014
 20
97.566680
 30
0.0
  0
SPLINE
  5
20b
100
AcDbEntity
  8
Layer_1
 62
7
100
AcDbSpline
 70
8
 71
3
 72
8
 73
4
 74
0
 40
0
 40
0
 40
0
 40
0
 40
1
 40
1
 40
1
 40
1
 10
268.321014
 20
97.566680
 30
0.0
 10
267.912729
 20
97.566677
 30
0.0
 10
267.521164
 20
97.728866
 30
0.0
 10
267.232463
 20
98.017567
 30
0.0
  0
SPLINE
  5
20c
100
AcDbEntity
  8
Layer_1
 62
7
100
AcDbSpline
 70
8
 71
3
 72
8
 73
4
 74
0
 40
0
 40
0
 40
0
 40
0
 40
1
 40
1
 40
1
 40
1
 10
267.232463
 20
98.017567
 30
0.0
 10
266.943762
 20
98.306268
 30
0.0
 10
266.781573
 20
98.697833
 30
0.0
 10
266.781576
 20
99.106118
 30
0.0
  0
SPLINE
  5
20d
100
AcDbEntity
  8
Layer_1
 62
7
100
AcDbSpline
 70
8
 71
3
 72
8
 73
4
 74
0
 40
0
 40
0
 40
0
 40
0
 40
1
 40
1
 40
1
 40
1
 10
266.781576
 20
99.106118
 30
0.0
 10
266.781584
 20
99.956318
 30
0.0
 10
267.470814
 20
100.645535
 30
0.0
 10
268.321014
 20
100.645527
 30
0.0
  0
SPLINE
  5
20e
100
AcDbEntity
  8
Layer_1
 62
7
100
AcDbSpline
 70
8
 71
3
 72
8
 73
4
 74
0
 40
0
 40
0
 40
0
 40
0
 40
1
 40
1
 40
1
 40
1
 10
268.321014
 20
100.645527
 30
0.0
 10
269.171203
 20
100.645519
 30
0.0
 10
269.860415
 20
99.956307
 30
0.0
 10
269.860423
 20
99.106118
 30
0.0
  0
LINE
  5
20f
100
AcDbEntity
  8
Layer_1
 62
7
100
AcDbLine
 10
269.860423
 20
99.106118
 30
0.0
 11
269.860423
 21
99.106118
 31
0.0
  0
SPLINE
  5
210
100
AcDbEntity
  8
Layer_1
 62
7
100
AcDbSpline
 70
8
 71
3
 72
8
 73
4
 74
0
 40
0
 40
0
 40
0
 40
0
 40
1
 40
1
 40
1
 40
1
 10
443.850954
 20
168.106177
 30
0.0
 10
443.850961
 20
167.255977
 30
0.0
 10
443.161744
 20
166.566748
 30
0.0
 10
442.311544
 20
166.566740
 30
0.0
  0
SPLINE
  5
211
100
AcDbEntity
  8
Layer_1
 62
7
100
AcDbSpline
 70
8
 71
3
 72
8
 73
4
 74
0
 40
0
 40
0
 40
0
 40
0
 40
1
 40
1
 40
1
 40
1
 10
442.311544
 20
166.566740
 30
0.0
 10
441.903259
 20
166.566736
 30
0.0
 10
441.511695
 20
166.728925
 30
0.0
 10
441.222994
 20
167.017627
 30
0.0
  0
SPLINE
  5
212
100
AcDbEntity
  8
Layer_1
 62
7
100
AcDbSpline
 70
8
 71
3
 72
8
 73
4
 74
0
 40
0
 40
0
 40
0
 40
0
 40
1
 40
1
 40
1
 40
1
 10
441.222994
 20
167.017627
 30
0.0
 10
440.934292
 20
167.306328
 30
0.0
 10
440.772103
 20
167.697892
 30
0.0
 10
440.772107
 20
168.106177
 30
0.0
  0
SPLINE
  5
213
100
AcDbEntity
  8
Layer_1
 62
7
100
AcDbSpline
 70
8
 71
3
 72
8
 73
4
 74
0
 40
0
 40
0
 40
0
 40
0
 40
1
 40
1
 40
1
 40
1
 10
440.772107
 20
168.106177
 30
0.0
 10
440.772115
 20
168.956378
 30
0.0
 10
441.461344
 20
169.645594
 30
0.0
 10
442.311544
 20
169.645587
 30
0.0
  0
SPLINE
  5
214
100
AcDbEntity
  8
Layer_1
 62
7
100
AcDbSpline
 70
8
 71
3
 72
8
 73
4
 74
0
 40
0
 40
0
 40
0
 40
0
 40
1
 40
1
 40
1
 40
1
 10
442.311544
 20
169.645587
 30
0.0
 10
443.161733
 20
169.645579
 30
0.0
 10
443.850946
 20
168.956367
 30
0.0
 10
443.850954
 20
168.106177
 30
0.0
  0
LINE
  5
215
100
AcDbEntity
  8
Layer_1
 62
7
100
AcDbLine
 10
443.850954
 20
168.106177
 30
0.0
 11
443.850954
 21
168.106177
 31
0.0
  0
SPLINE
  5
216
100
AcDbEntity
  8
Layer_1
 62
7
100
AcDbSpline
 70
8
 71
3
 72
8
 73
4
 74
0
 40
0
 40
0
 40
0
 40
0
 40
1
 40
1
 40
1
 40
1
 10
443.850954
 20
99.106146
 30
0.0
 10
443.850961
 20
98.255946
 30
0.0
 10
443.161744
 20
97.566717
 30
0.0
 10
442.311544
 20
97.566709
 30
0.0
  0
SPLINE
  5
217
100
AcDbEntity
  8
Layer_1
 62
7
100
AcDbSpline
 70
8
 71
3
 72
8
 73
4
 74
0
 40
0
 40
0
 40
0
 40
0
 40
1
 40
1
 40
1
 40
1
 10
442.311544
 20
97.566709
 30
0.0
 10
441.903259
 20
97.566705
 30
0.0
 10
441.511695
 20
97.728894
 30
0.0
 10
441.222994
 20
98.017595
 30
0.0
  0
SPLINE
  5
218
100
AcDbEntity
  8
Layer_1
 62
7
100
AcDbSpline
 70
8
 71
3
 72
8
 73
4
 74
0
 40
0
 40
0
 40
0
 40
0
 40
1
 40
1
 40
1
 40
1
 10
441.222994
 20
98.017595
 30
0.0
 10
440.934292
 20
98.306297
 30
0.0
 10
440.772103
 20
98.697861
 30
0.0
 10
440.772107
 20
99.106146
 30
0.0
  0
SPLINE
  5
219
100
AcDbEntity
  8
Layer_1
 62
7
100
AcDbSpline
 70
8
 71
3
 72
8
 73
4
 74
0
 40
0
 40
0
 40
0
 40
0
 40
1
 40
1
 40
1
 40
1
 10
440.772107
 20
99.106146
 30
0.0
 10
440.772115
 20
99.956346
 30
0.0
 10
441.461345
 20
100.645563
 30
0.0
 10
442.311544
 20
100.645555
 30
0.0
  0
SPLINE
  5
21a
100
AcDbEntity
  8
Layer_1
 62
7
100
AcDbSpline
 70
8
 71
3
 72
8
 73
4
 74
0
 40
0
 40
0
 40
0
 40
0
 40
1
 40
1
 40
1
 40
1
 10
442.311544
 20
100.645555
 30
0.0
 10
443.161733
 20
100.645547
 30
0.0
 10
443.850946
 20
99.956335
 30
0.0
 10
443.850954
 20
99.106146
 30
0.0
  0
LINE
  5
21b
100
AcDbEntity
  8
Layer_1
 62
7
100
AcDbLine
 10
443.850954
 20
99.106146
 30
0.0
 11
443.850954
 21
99.106146
 31
0.0
  0
LINE
  5
21c
100
AcDbEntity
  8
Layer_1
 62
7
100
AcDbLine
 10
511.317531
 20
551.199674
 30
0.0
 11
509.466943
 21
553.568365
 31
0.0
  0
LINE
  5
21d
100
AcDbEntity
  8
Layer_1
 62
7
100
AcDbLine
 10
509.466943
 20
553.568365
 30
0.0
 11
533.182076
 21
572.088775
 31
0.0
  0
LINE
  5
21e
100
AcDbEntity
  8
Layer_1
 62
7
100
AcDbLine
 10
533.182076
 20
572.088775
 30
0.0
 11
535.025016
 21
569.729905
 31
0.0
  0
LINE
  5
21f
100
AcDbEntity
  8
Layer_1
 62
7
100
AcDbLine
 10
535.025016
 20
569.729905
 30
0.0
 11
565.690012
 21
593.688032
 31
0.0
  0
LINE
  5
220
100
AcDbEntity
  8
Layer_1
 62
7
100
AcDbLine
 10
565.690012
 20
593.688032
 30
0.0
 11
563.838324
 21
596.047974
 31
0.0
  0
LINE
  5
221
100
AcDbEntity
  8
Layer_1
 62
7
100
AcDbLine
 10
563.838324
 20
596.047974
 30
0.0
 11
587.554558
 21
614.577105
 31
0.0
  0
LINE
  5
222
100
AcDbEntity
  8
Layer_1
 62
7
100
AcDbLine
 10
587.554558
 20
614.577105
 30
0.0
 11
589.396425
 21
612.209486
 31
0.0
  0
LINE
  5
223
100
AcDbEntity
  8
Layer_1
 62
7
100
AcDbLine
 10
589.396425
 20
612.209486
 30
0.0
 11
617.732072
 21
634.347703
 31
0.0
  0
LINE
  5
224
100
AcDbEntity
  8
Layer_1
 62
7
100
AcDbLine
 10
617.732072
 20
634.347703
 30
0.0
 11
615.880384
 21
636.707645
 31
0.0
  0
LINE
  5
225
100
AcDbEntity
  8
Layer_1
 62
7
100
AcDbLine
 10
615.880384
 20
636.707645
 30
0.0
 11
639.596590
 21
655.236804
 31
0.0
  0
LINE
  5
226
100
AcDbEntity
  8
Layer_1
 62
7
100
AcDbLine
 10
639.596590
 20
655.236804
 30
0.0
 11
666.347983
 21
655.236804
 31
0.0
  0
LINE
  5
227
100
AcDbEntity
  8
Layer_1
 62
7
100
AcDbLine
 10
666.347983
 20
655.236804
 30
0.0
 11
666.347983
 21
652.238193
 31
0.0
  0
LINE
  5
228
100
AcDbEntity
  8
Layer_1
 62
7
100
AcDbLine
 10
666.347983
 20
652.238193
 30
0.0
 11
696.439927
 21
652.238193
 31
0.0
  0
LINE
  5
229
100
AcDbEntity
  8
Layer_1
 62
7
100
AcDbLine
 10
696.439927
 20
652.238193
 30
0.0
 11
696.439927
 21
655.236804
 31
0.0
  0
LINE
  5
22a
100
AcDbEntity
  8
Layer_1
 62
7
100
AcDbLine
 10
696.439927
 20
655.236804
 30
0.0
 11
722.977706
 21
655.236804
 31
0.0
  0
LINE
  5
22b
100
AcDbEntity
  8
Layer_1
 62
7
100
AcDbLine
 10
722.977706
 20
655.236804
 30
0.0
 11
722.977706
 21
631.657984
 31
0.0
  0
LINE
  5
22c
100
AcDbEntity
  8
Layer_1
 62
7
100
AcDbLine
 10
722.977706
 20
631.657984
 30
0.0
 11
725.985123
 21
631.657984
 31
0.0
  0
LINE
  5
22d
100
AcDbEntity
  8
Layer_1
 62
7
100
AcDbLine
 10
725.985123
 20
631.657984
 30
0.0
 11
725.985123
 21
601.566039
 31
0.0
  0
LINE
  5
22e
100
AcDbEntity
  8
Layer_1
 62
7
100
AcDbLine
 10
725.985123
 20
601.566039
 30
0.0
 11
722.977706
 21
601.566039
 31
0.0
  0
LINE
  5
22f
100
AcDbEntity
  8
Layer_1
 62
7
100
AcDbLine
 10
722.977706
 20
601.566039
 30
0.0
 11
722.977706
 21
559.153345
 31
0.0
  0
LINE
  5
230
100
AcDbEntity
  8
Layer_1
 62
7
100
AcDbLine
 10
722.977706
 20
559.153345
 30
0.0
 11
725.985123
 21
559.153345
 31
0.0
  0
LINE
  5
231
100
AcDbEntity
  8
Layer_1
 62
7
100
AcDbLine
 10
725.985123
 20
559.153345
 30
0.0
 11
725.985123
 21
529.070206
 31
0.0
  0
LINE
  5
232
100
AcDbEntity
  8
Layer_1
 62
7
100
AcDbLine
 10
725.985123
 20
529.070206
 30
0.0
 11
722.977706
 21
529.070206
 31
0.0
  0
LINE
  5
233
100
AcDbEntity
  8
Layer_1
 62
7
100
AcDbLine
 10
722.977706
 20
529.070206
 30
0.0
 11
722.977706
 21
489.612011
 31
0.0
  0
LINE
  5
234
100
AcDbEntity
  8
Layer_1
 62
7
100
AcDbLine
 10
722.977706
 20
489.612011
 30
0.0
 11
725.985123
 21
489.612011
 31
0.0
  0
LINE
  5
235
100
AcDbEntity
  8
Layer_1
 62
7
100
AcDbLine
 10
725.985123
 20
489.612011
 30
0.0
 11
725.985123
 21
459.520067
 31
0.0
  0
LINE
  5
236
100
AcDbEntity
  8
Layer_1
 62
7
100
AcDbLine
 10
725.985123
 20
459.520067
 30
0.0
 11
722.977706
 21
459.520067
 31
0.0
  0
LINE
  5
237
100
AcDbEntity
  8
Layer_1
 62
7
100
AcDbLine
 10
722.977706
 20
459.520067
 30
0.0
 11
722.977706
 21
417.116178
 31
0.0
  0
LINE
  5
238
100
AcDbEntity
  8
Layer_1
 62
7
100
AcDbLine
 10
722.977706
 20
417.116178
 30
0.0
 11
725.985123
 21
417.116178
 31
0.0
  0
LINE
  5
239
100
AcDbEntity
  8
Layer_1
 62
7
100
AcDbLine
 10
725.985123
 20
417.116178
 30
0.0
 11
725.985123
 21
387.024234
 31
0.0
  0
LINE
  5
23a
100
AcDbEntity
  8
Layer_1
 62
7
100
AcDbLine
 10
725.985123
 20
387.024234
 30
0.0
 11
722.977706
 21
387.024234
 31
0.0
  0
LINE
  5
23b
100
AcDbEntity
  8
Layer_1
 62
7
100
AcDbLine
 10
722.977706
 20
387.024234
 30
0.0
 11
722.977706
 21
344.611511
 31
0.0
  0
LINE
  5
23c
100
AcDbEntity
  8
Layer_1
 62
7
100
AcDbLine
 10
722.977706
 20
344.611511
 30
0.0
 11
725.985123
 21
344.611511
 31
0.0
  0
LINE
  5
23d
100
AcDbEntity
  8
Layer_1
 62
7
100
AcDbLine
 10
725.985123
 20
344.611511
 30
0.0
 11
725.985123
 21
314.519539
 31
0.0
  0
LINE
  5
23e
100
AcDbEntity
  8
Layer_1
 62
7
100
AcDbLine
 10
725.985123
 20
314.519539
 30
0.0
 11
722.977706
 21
314.519539
 31
0.0
  0
LINE
  5
23f
100
AcDbEntity
  8
Layer_1
 62
7
100
AcDbLine
 10
722.977706
 20
314.519539
 30
0.0
 11
722.977706
 21
275.070178
 31
0.0
  0
LINE
  5
240
100
AcDbEntity
  8
Layer_1
 62
7
100
AcDbLine
 10
722.977706
 20
275.070178
 30
0.0
 11
687.029651
 21
275.070178
 31
0.0
  0
LINE
  5
241
100
AcDbEntity
  8
Layer_1
 62
7
100
AcDbLine
 10
687.029651
 20
275.070178
 30
0.0
 11
687.029651
 21
272.071567
 31
0.0
  0
LINE
  5
242
100
AcDbEntity
  8
Layer_1
 62
7
100
AcDbLine
 10
687.029651
 20
272.071567
 30
0.0
 11
656.937706
 21
272.071567
 31
0.0
  0
LINE
  5
243
100
AcDbEntity
  8
Layer_1
 62
7
100
AcDbLine
 10
656.937706
 20
272.071567
 30
0.0
 11
656.937706
 21
275.070178
 31
0.0
  0
LINE
  5
244
100
AcDbEntity
  8
Layer_1
 62
7
100
AcDbLine
 10
656.937706
 20
275.070178
 30
0.0
 11
638.937206
 21
275.070178
 31
0.0
  0
LINE
  5
245
100
AcDbEntity
  8
Layer_1
 62
7
100
AcDbLine
 10
638.937206
 20
275.070178
 30
0.0
 11
638.937206
 21
278.933094
 31
0.0
  0
LINE
  5
246
100
AcDbEntity
  8
Layer_1
 62
7
100
AcDbLine
 10
638.937206
 20
278.933094
 30
0.0
 11
640.119012
 21
278.933094
 31
0.0
  0
LINE
  5
247
100
AcDbEntity
  8
Layer_1
 62
7
100
AcDbLine
 10
640.119012
 20
278.933094
 30
0.0
 11
640.119012
 21
281.111483
 31
0.0
  0
LINE
  5
248
100
AcDbEntity
  8
Layer_1
 62
7
100
AcDbLine
 10
640.119012
 20
281.111483
 30
0.0
 11
638.937206
 21
281.111483
 31
0.0
  0
LINE
  5
249
100
AcDbEntity
  8
Layer_1
 62
7
100
AcDbLine
 10
638.937206
 20
281.111483
 30
0.0
 11
638.937206
 21
284.974428
 31
0.0
  0
LINE
  5
24a
100
AcDbEntity
  8
Layer_1
 62
7
100
AcDbLine
 10
638.937206
 20
284.974428
 30
0.0
 11
636.026789
 21
284.974428
 31
0.0
  0
LINE
  5
24b
100
AcDbEntity
  8
Layer_1
 62
7
100
AcDbLine
 10
636.026789
 20
284.974428
 30
0.0
 11
636.026789
 21
281.111483
 31
0.0
  0
LINE
  5
24c
100
AcDbEntity
  8
Layer_1
 62
7
100
AcDbLine
 10
636.026789
 20
281.111483
 30
0.0
 11
634.844984
 21
281.111483
 31
0.0
  0
LINE
  5
24d
100
AcDbEntity
  8
Layer_1
 62
7
100
AcDbLine
 10
634.844984
 20
281.111483
 30
0.0
 11
634.844984
 21
278.933094
 31
0.0
  0
LINE
  5
24e
100
AcDbEntity
  8
Layer_1
 62
7
100
AcDbLine
 10
634.844984
 20
278.933094
 30
0.0
 11
636.026789
 21
278.933094
 31
0.0
  0
LINE
  5
24f
100
AcDbEntity
  8
Layer_1
 62
7
100
AcDbLine
 10
636.026789
 20
278.933094
 30
0.0
 11
636.026789
 21
275.070178
 31
0.0
  0
LINE
  5
250
100
AcDbEntity
  8
Layer_1
 62
7
100
AcDbLine
 10
636.026789
 20
275.070178
 30
0.0
 11
618.026317
 21
275.070178
 31
0.0
  0
LINE
  5
251
100
AcDbEntity
  8
Layer_1
 62
7
100
AcDbLine
 10
618.026317
 20
275.070178
 30
0.0
 11
618.026317
 21
272.071567
 31
0.0
  0
LINE
  5
252
100
AcDbEntity
  8
Layer_1
 62
7
100
AcDbLine
 10
618.026317
 20
272.071567
 30
0.0
 11
587.934373
 21
272.071567
 31
0.0
  0
LINE
  5
253
100
AcDbEntity
  8
Layer_1
 62
7
100
AcDbLine
 10
587.934373
 20
272.071567
 30
0.0
 11
587.934373
 21
275.070178
 31
0.0
  0
LINE
  5
254
100
AcDbEntity
  8
Layer_1
 62
7
100
AcDbLine
 10
587.934373
 20
275.070178
 30
0.0
 11
569.933873
 21
275.070178
 31
0.0
  0
LINE
  5
255
100
AcDbEntity
  8
Layer_1
 62
7
100
AcDbLine
 10
569.933873
 20
275.070178
 30
0.0
 11
569.933873
 21
278.933094
 31
0.0
  0
LINE
  5
256
100
AcDbEntity
  8
Layer_1
 62
7
100
AcDbLine
 10
569.933873
 20
278.933094
 30
0.0
 11
571.115678
 21
278.933094
 31
0.0
  0
LINE
  5
257
100
AcDbEntity
  8
Layer_1
 62
7
100
AcDbLine
 10
571.115678
 20
278.933094
 30
0.0
 11
571.115678
 21
281.111483
 31
0.0
  0
LINE
  5
258
100
AcDbEntity
  8
Layer_1
 62
7
100
AcDbLine
 10
571.115678
 20
281.111483
 30
0.0
 11
569.933873
 21
281.111483
 31
0.0
  0
LINE
  5
259
100
AcDbEntity
  8
Layer_1
 62
7
100
AcDbLine
 10
569.933873
 20
281.111483
 30
0.0
 11
569.933873
 21
284.974428
 31
0.0
  0
LINE
  5
25a
100
AcDbEntity
  8
Layer_1
 62
7
100
AcDbLine
 10
569.933873
 20
284.974428
 30
0.0
 11
567.032290
 21
284.974428
 31
0.0
  0
LINE
  5
25b
100
AcDbEntity
  8
Layer_1
 62
7
100
AcDbLine
 10
567.032290
 20
284.974428
 30
0.0
 11
567.032290
 21
281.111483
 31
0.0
  0
LINE
  5
25c
100
AcDbEntity
  8
Layer_1
 62
7
100
AcDbLine
 10
567.032290
 20
281.111483
 30
0.0
 11
565.841650
 21
281.111483
 31
0.0
  0
LINE
  5
25d
100
AcDbEntity
  8
Layer_1
 62
7
100
AcDbLine
 10
565.841650
 20
281.111483
 30
0.0
 11
565.841650
 21
278.933094
 31
0.0
  0
LINE
  5
25e
100
AcDbEntity
  8
Layer_1
 62
7
100
AcDbLine
 10
565.841650
 20
278.933094
 30
0.0
 11
567.032290
 21
278.933094
 31
0.0
  0
LINE
  5
25f
100
AcDbEntity
  8
Layer_1
 62
7
100
AcDbLine
 10
567.032290
 20
278.933094
 30
0.0
 11
567.032290
 21
275.070178
 31
0.0
  0
LINE
  5
260
100
AcDbEntity
  8
Layer_1
 62
7
100
AcDbLine
 10
567.032290
 20
275.070178
 30
0.0
 11
549.022984
 21
275.070178
 31
0.0
  0
LINE
  5
261
100
AcDbEntity
  8
Layer_1
 62
7
100
AcDbLine
 10
549.022984
 20
275.070178
 30
0.0
 11
549.022984
 21
272.071567
 31
0.0
  0
LINE
  5
262
100
AcDbEntity
  8
Layer_1
 62
7
100
AcDbLine
 10
549.022984
 20
272.071567
 30
0.0
 11
518.939845
 21
272.071567
 31
0.0
  0
LINE
  5
263
100
AcDbEntity
  8
Layer_1
 62
7
100
AcDbLine
 10
518.939845
 20
272.071567
 30
0.0
 11
518.939845
 21
275.070178
 31
0.0
  0
LINE
  5
264
100
AcDbEntity
  8
Layer_1
 62
7
100
AcDbLine
 10
518.939845
 20
275.070178
 30
0.0
 11
482.982984
 21
275.070178
 31
0.0
  0
LINE
  5
265
100
AcDbEntity
  8
Layer_1
 62
7
100
AcDbLine
 10
482.982984
 20
275.070178
 30
0.0
 11
482.982984
 21
314.519539
 31
0.0
  0
LINE
  5
266
100
AcDbEntity
  8
Layer_1
 62
7
100
AcDbLine
 10
482.982984
 20
314.519539
 30
0.0
 11
479.984373
 21
314.519539
 31
0.0
  0
LINE
  5
267
100
AcDbEntity
  8
Layer_1
 62
7
100
AcDbLine
 10
479.984373
 20
314.519539
 30
0.0
 11
479.984373
 21
344.611511
 31
0.0
  0
LINE
  5
268
100
AcDbEntity
  8
Layer_1
 62
7
100
AcDbLine
 10
479.984373
 20
344.611511
 30
0.0
 11
482.982984
 21
344.611511
 31
0.0
  0
LINE
  5
269
100
AcDbEntity
  8
Layer_1
 62
7
100
AcDbLine
 10
482.982984
 20
344.611511
 30
0.0
 11
482.982984
 21
387.024234
 31
0.0
  0
LINE
  5
26a
100
AcDbEntity
  8
Layer_1
 62
7
100
AcDbLine
 10
482.982984
 20
387.024234
 30
0.0
 11
479.984373
 21
387.024234
 31
0.0
  0
LINE
  5
26b
100
AcDbEntity
  8
Layer_1
 62
7
100
AcDbLine
 10
479.984373
 20
387.024234
 30
0.0
 11
479.984373
 21
417.116178
 31
0.0
  0
LINE
  5
26c
100
AcDbEntity
  8
Layer_1
 62
7
100
AcDbLine
 10
479.984373
 20
417.116178
 30
0.0
 11
482.982984
 21
417.116178
 31
0.0
  0
LINE
  5
26d
100
AcDbEntity
  8
Layer_1
 62
7
100
AcDbLine
 10
482.982984
 20
417.116178
 30
0.0
 11
482.982984
 21
459.520067
 31
0.0
  0
LINE
  5
26e
100
AcDbEntity
  8
Layer_1
 62
7
100
AcDbLine
 10
482.982984
 20
459.520067
 30
0.0
 11
479.984373
 21
459.520067
 31
0.0
  0
LINE
  5
26f
100
AcDbEntity
  8
Layer_1
 62
7
100
AcDbLine
 10
479.984373
 20
459.520067
 30
0.0
 11
479.984373
 21
489.612011
 31
0.0
  0
LINE
  5
270
100
AcDbEntity
  8
Layer_1
 62
7
100
AcDbLine
 10
479.984373
 20
489.612011
 30
0.0
 11
482.982984
 21
489.612011
 31
0.0
  0
LINE
  5
271
100
AcDbEntity
  8
Layer_1
 62
7
100
AcDbLine
 10
482.982984
 20
489.612011
 30
0.0
 11
482.982984
 21
529.070206
 31
0.0
  0
LINE
  5
272
100
AcDbEntity
  8
Layer_1
 62
7
100
AcDbLine
 10
482.982984
 20
529.070206
 30
0.0
 11
511.317531
 21
551.199674
 31
0.0
  0
LINE
  5
273
100
AcDbEntity
  8
Layer_1
 62
7
100
AcDbLine
 10
772.870277
 20
442.223344
 30
0.0
 11
871.756936
 21
442.223344
 31
0.0
  0
LINE
  5
274
100
AcDbEntity
  8
Layer_1
 62
7
100
AcDbLine
 10
871.756936
 20
442.223344
 30
0.0
 11
871.756936
 21
301.809689
 31
0.0
  0
LINE
  5
275
100
AcDbEntity
  8
Layer_1
 62
7
100
AcDbLine
 10
871.756936
 20
301.809689
 30
0.0
 11
772.870277
 21
301.809689
 31
0.0
  0
LINE
  5
276
100
AcDbEntity
  8
Layer_1
 62
7
100
AcDbLine
 10
772.870277
 20
301.809689
 30
0.0
 11
772.870277
 21
442.223344
 31
0.0
  0
LINE
  5
277
100
AcDbEntity
  8
Layer_1
 62
7
100
AcDbLine
 10
809.458328
 20
468.922752
 30
0.0
 11
835.168857
 21
468.922752
 31
0.0
  0
LINE
  5
278
100
AcDbEntity
  8
Layer_1
 62
7
100
AcDbLine
 10
835.168857
 20
468.922752
 30
0.0
 11
835.168857
 21
462.000687
 31
0.0
  0
LINE
  5
279
100
AcDbEntity
  8
Layer_1
 62
7
100
AcDbLine
 10
835.168857
 20
462.000687
 30
0.0
 11
809.458328
 21
462.000687
 31
0.0
  0
LINE
  5
27a
100
AcDbEntity
  8
Layer_1
 62
7
100
AcDbLine
 10
809.458328
 20
462.000687
 30
0.0
 11
809.458328
 21
468.922752
 31
0.0
  0
LINE
  5
27b
100
AcDbEntity
  8
Layer_1
 62
7
100
AcDbLine
 10
733.813064
 20
656.373962
 30
0.0
 11
733.813064
 21
632.799601
 31
0.0
  0
LINE
  5
27c
100
AcDbEntity
  8
Layer_1
 62
7
100
AcDbLine
 10
733.813064
 20
632.799601
 30
0.0
 11
736.811675
 21
632.799601
 31
0.0
  0
LINE
  5
27d
100
AcDbEntity
  8
Layer_1
 62
7
100
AcDbLine
 10
736.811675
 20
632.799601
 30
0.0
 11
736.811675
 21
602.707656
 31
0.0
  0
LINE
  5
27e
100
AcDbEntity
  8
Layer_1
 62
7
100
AcDbLine
 10
736.811675
 20
602.707656
 30
0.0
 11
733.813064
 21
602.707656
 31
0.0
  0
LINE
  5
27f
100
AcDbEntity
  8
Layer_1
 62
7
100
AcDbLine
 10
733.813064
 20
602.707656
 30
0.0
 11
733.813064
 21
560.303767
 31
0.0
  0
LINE
  5
280
100
AcDbEntity
  8
Layer_1
 62
7
100
AcDbLine
 10
733.813064
 20
560.303767
 30
0.0
 11
736.811675
 21
560.303767
 31
0.0
  0
LINE
  5
281
100
AcDbEntity
  8
Layer_1
 62
7
100
AcDbLine
 10
736.811675
 20
560.303767
 30
0.0
 11
736.811675
 21
530.211823
 31
0.0
  0
LINE
  5
282
100
AcDbEntity
  8
Layer_1
 62
7
100
AcDbLine
 10
736.811675
 20
530.211823
 30
0.0
 11
733.813064
 21
530.211823
 31
0.0
  0
LINE
  5
283
100
AcDbEntity
  8
Layer_1
 62
7
100
AcDbLine
 10
733.813064
 20
530.211823
 30
0.0
 11
733.813064
 21
490.753600
 31
0.0
  0
LINE
  5
284
100
AcDbEntity
  8
Layer_1
 62
7
100
AcDbLine
 10
733.813064
 20
490.753600
 30
0.0
 11
736.811675
 21
490.753600
 31
0.0
  0
LINE
  5
285
100
AcDbEntity
  8
Layer_1
 62
7
100
AcDbLine
 10
736.811675
 20
490.753600
 30
0.0
 11
736.811675
 21
460.661656
 31
0.0
  0
LINE
  5
286
100
AcDbEntity
  8
Layer_1
 62
7
100
AcDbLine
 10
736.811675
 20
460.661656
 30
0.0
 11
733.813064
 21
460.661656
 31
0.0
  0
LINE
  5
287
100
AcDbEntity
  8
Layer_1
 62
7
100
AcDbLine
 10
733.813064
 20
460.661656
 30
0.0
 11
733.813064
 21
418.257767
 31
0.0
  0
LINE
  5
288
100
AcDbEntity
  8
Layer_1
 62
7
100
AcDbLine
 10
733.813064
 20
418.257767
 30
0.0
 11
736.811675
 21
418.257767
 31
0.0
  0
LINE
  5
289
100
AcDbEntity
  8
Layer_1
 62
7
100
AcDbLine
 10
736.811675
 20
418.257767
 30
0.0
 11
736.811675
 21
388.165823
 31
0.0
  0
LINE
  5
28a
100
AcDbEntity
  8
Layer_1
 62
7
100
AcDbLine
 10
736.811675
 20
388.165823
 30
0.0
 11
733.813064
 21
388.165823
 31
0.0
  0
LINE
  5
28b
100
AcDbEntity
  8
Layer_1
 62
7
100
AcDbLine
 10
733.813064
 20
388.165823
 30
0.0
 11
733.813064
 21
345.753128
 31
0.0
  0
LINE
  5
28c
100
AcDbEntity
  8
Layer_1
 62
7
100
AcDbLine
 10
733.813064
 20
345.753128
 30
0.0
 11
736.811675
 21
345.753128
 31
0.0
  0
LINE
  5
28d
100
AcDbEntity
  8
Layer_1
 62
7
100
AcDbLine
 10
736.811675
 20
345.753128
 30
0.0
 11
736.811675
 21
315.661184
 31
0.0
  0
LINE
  5
28e
100
AcDbEntity
  8
Layer_1
 62
7
100
AcDbLine
 10
736.811675
 20
315.661184
 30
0.0
 11
733.813064
 21
315.661184
 31
0.0
  0
LINE
  5
28f
100
AcDbEntity
  8
Layer_1
 62
7
100
AcDbLine
 10
733.813064
 20
315.661184
 30
0.0
 11
733.813064
 21
276.211823
 31
0.0
  0
LINE
  5
290
100
AcDbEntity
  8
Layer_1
 62
7
100
AcDbLine
 10
733.813064
 20
276.211823
 30
0.0
 11
772.768536
 21
276.211823
 31
0.0
  0
LINE
  5
291
100
AcDbEntity
  8
Layer_1
 62
7
100
AcDbLine
 10
772.768536
 20
276.211823
 30
0.0
 11
772.768536
 21
273.213212
 31
0.0
  0
LINE
  5
292
100
AcDbEntity
  8
Layer_1
 62
7
100
AcDbLine
 10
772.768536
 20
273.213212
 30
0.0
 11
802.851675
 21
273.213212
 31
0.0
  0
LINE
  5
293
100
AcDbEntity
  8
Layer_1
 62
7
100
AcDbLine
 10
802.851675
 20
273.213212
 30
0.0
 11
802.851675
 21
276.211823
 31
0.0
  0
LINE
  5
294
100
AcDbEntity
  8
Layer_1
 62
7
100
AcDbLine
 10
802.851675
 20
276.211823
 30
0.0
 11
820.852147
 21
276.211823
 31
0.0
  0
LINE
  5
295
100
AcDbEntity
  8
Layer_1
 62
7
100
AcDbLine
 10
820.852147
 20
276.211823
 30
0.0
 11
820.852147
 21
280.074711
 31
0.0
  0
LINE
  5
296
100
AcDbEntity
  8
Layer_1
 62
7
100
AcDbLine
 10
820.852147
 20
280.074711
 30
0.0
 11
819.670370
 21
280.074711
 31
0.0
  0
LINE
  5
297
100
AcDbEntity
  8
Layer_1
 62
7
100
AcDbLine
 10
819.670370
 20
280.074711
 30
0.0
 11
819.670370
 21
282.253128
 31
0.0
  0
LINE
  5
298
100
AcDbEntity
  8
Layer_1
 62
7
100
AcDbLine
 10
819.670370
 20
282.253128
 30
0.0
 11
820.852147
 21
282.253128
 31
0.0
  0
LINE
  5
299
100
AcDbEntity
  8
Layer_1
 62
7
100
AcDbLine
 10
820.852147
 20
282.253128
 30
0.0
 11
820.852147
 21
286.116045
 31
0.0
  0
LINE
  5
29a
100
AcDbEntity
  8
Layer_1
 62
7
100
AcDbLine
 10
820.852147
 20
286.116045
 30
0.0
 11
823.762592
 21
286.116045
 31
0.0
  0
LINE
  5
29b
100
AcDbEntity
  8
Layer_1
 62
7
100
AcDbLine
 10
823.762592
 20
286.116045
 30
0.0
 11
823.762592
 21
282.253128
 31
0.0
  0
LINE
  5
29c
100
AcDbEntity
  8
Layer_1
 62
7
100
AcDbLine
 10
823.762592
 20
282.253128
 30
0.0
 11
824.944369
 21
282.253128
 31
0.0
  0
LINE
  5
29d
100
AcDbEntity
  8
Layer_1
 62
7
100
AcDbLine
 10
824.944369
 20
282.253128
 30
0.0
 11
824.944369
 21
280.074711
 31
0.0
  0
LINE
  5
29e
100
AcDbEntity
  8
Layer_1
 62
7
100
AcDbLine
 10
824.944369
 20
280.074711
 30
0.0
 11
823.762592
 21
280.074711
 31
0.0
  0
LINE
  5
29f
100
AcDbEntity
  8
Layer_1
 62
7
100
AcDbLine
 10
823.762592
 20
280.074711
 30
0.0
 11
823.762592
 21
276.211823
 31
0.0
  0
LINE
  5
2a0
100
AcDbEntity
  8
Layer_1
 62
7
100
AcDbLine
 10
823.762592
 20
276.211823
 30
0.0
 11
841.763064
 21
276.211823
 31
0.0
  0
LINE
  5
2a1
100
AcDbEntity
  8
Layer_1
 62
7
100
AcDbLine
 10
841.763064
 20
276.211823
 30
0.0
 11
841.763064
 21
273.213212
 31
0.0
  0
LINE
  5
2a2
100
AcDbEntity
  8
Layer_1
 62
7
100
AcDbLine
 10
841.763064
 20
273.213212
 30
0.0
 11
871.855008
 21
273.213212
 31
0.0
  0
LINE
  5
2a3
100
AcDbEntity
  8
Layer_1
 62
7
100
AcDbLine
 10
871.855008
 20
273.213212
 30
0.0
 11
871.855008
 21
276.211823
 31
0.0
  0
LINE
  5
2a4
100
AcDbEntity
  8
Layer_1
 62
7
100
AcDbLine
 10
871.855008
 20
276.211823
 30
0.0
 11
910.810480
 21
276.211823
 31
0.0
  0
LINE
  5
2a5
100
AcDbEntity
  8
Layer_1
 62
7
100
AcDbLine
 10
910.810480
 20
276.211823
 30
0.0
 11
910.810480
 21
315.661184
 31
0.0
  0
LINE
  5
2a6
100
AcDbEntity
  8
Layer_1
 62
7
100
AcDbLine
 10
910.810480
 20
315.661184
 30
0.0
 11
907.811869
 21
315.661184
 31
0.0
  0
LINE
  5
2a7
100
AcDbEntity
  8
Layer_1
 62
7
100
AcDbLine
 10
907.811869
 20
315.661184
 30
0.0
 11
907.811869
 21
345.753128
 31
0.0
  0
LINE
  5
2a8
100
AcDbEntity
  8
Layer_1
 62
7
100
AcDbLine
 10
907.811869
 20
345.753128
 30
0.0
 11
910.810480
 21
345.753128
 31
0.0
  0
LINE
  5
2a9
100
AcDbEntity
  8
Layer_1
 62
7
100
AcDbLine
 10
910.810480
 20
345.753128
 30
0.0
 11
910.810480
 21
388.165823
 31
0.0
  0
LINE
  5
2aa
100
AcDbEntity
  8
Layer_1
 62
7
100
AcDbLine
 10
910.810480
 20
388.165823
 30
0.0
 11
907.811869
 21
388.165823
 31
0.0
  0
LINE
  5
2ab
100
AcDbEntity
  8
Layer_1
 62
7
100
AcDbLine
 10
907.811869
 20
388.165823
 30
0.0
 11
907.811869
 21
418.257767
 31
0.0
  0
LINE
  5
2ac
100
AcDbEntity
  8
Layer_1
 62
7
100
AcDbLine
 10
907.811869
 20
418.257767
 30
0.0
 11
910.810480
 21
418.257767
 31
0.0
  0
LINE
  5
2ad
100
AcDbEntity
  8
Layer_1
 62
7
100
AcDbLine
 10
910.810480
 20
418.257767
 30
0.0
 11
910.810480
 21
460.661656
 31
0.0
  0
LINE
  5
2ae
100
AcDbEntity
  8
Layer_1
 62
7
100
AcDbLine
 10
910.810480
 20
460.661656
 30
0.0
 11
907.811869
 21
460.661656
 31
0.0
  0
LINE
  5
2af
100
AcDbEntity
  8
Layer_1
 62
7
100
AcDbLine
 10
907.811869
 20
460.661656
 30
0.0
 11
907.811869
 21
490.753600
 31
0.0
  0
LINE
  5
2b0
100
AcDbEntity
  8
Layer_1
 62
7
100
AcDbLine
 10
907.811869
 20
490.753600
 30
0.0
 11
910.810480
 21
490.753600
 31
0.0
  0
LINE
  5
2b1
100
AcDbEntity
  8
Layer_1
 62
7
100
AcDbLine
 10
910.810480
 20
490.753600
 30
0.0
 11
910.810480
 21
530.211823
 31
0.0
  0
LINE
  5
2b2
100
AcDbEntity
  8
Layer_1
 62
7
100
AcDbLine
 10
910.810480
 20
530.211823
 30
0.0
 11
907.811869
 21
530.211823
 31
0.0
  0
LINE
  5
2b3
100
AcDbEntity
  8
Layer_1
 62
7
100
AcDbLine
 10
907.811869
 20
530.211823
 30
0.0
 11
907.811869
 21
560.303767
 31
0.0
  0
LINE
  5
2b4
100
AcDbEntity
  8
Layer_1
 62
7
100
AcDbLine
 10
907.811869
 20
560.303767
 30
0.0
 11
910.810480
 21
560.303767
 31
0.0
  0
LINE
  5
2b5
100
AcDbEntity
  8
Layer_1
 62
7
100
AcDbLine
 10
910.810480
 20
560.303767
 30
0.0
 11
910.810480
 21
602.707656
 31
0.0
  0
LINE
  5
2b6
100
AcDbEntity
  8
Layer_1
 62
7
100
AcDbLine
 10
910.810480
 20
602.707656
 30
0.0
 11
907.811869
 21
602.707656
 31
0.0
  0
LINE
  5
2b7
100
AcDbEntity
  8
Layer_1
 62
7
100
AcDbLine
 10
907.811869
 20
602.707656
 30
0.0
 11
907.811869
 21
632.799601
 31
0.0
  0
LINE
  5
2b8
100
AcDbEntity
  8
Layer_1
 62
7
100
AcDbLine
 10
907.811869
 20
632.799601
 30
0.0
 11
910.810480
 21
632.799601
 31
0.0
  0
LINE
  5
2b9
100
AcDbEntity
  8
Layer_1
 62
7
100
AcDbLine
 10
910.810480
 20
632.799601
 30
0.0
 11
910.810480
 21
656.373962
 31
0.0
  0
LINE
  5
2ba
100
AcDbEntity
  8
Layer_1
 62
7
100
AcDbLine
 10
910.810480
 20
656.373962
 30
0.0
 11
871.855008
 21
656.373962
 31
0.0
  0
LINE
  5
2bb
100
AcDbEntity
  8
Layer_1
 62
7
100
AcDbLine
 10
871.855008
 20
656.373962
 30
0.0
 11
871.855008
 21
653.375351
 31
0.0
  0
LINE
  5
2bc
100
AcDbEntity
  8
Layer_1
 62
7
100
AcDbLine
 10
871.855008
 20
653.375351
 30
0.0
 11
841.763064
 21
653.375351
 31
0.0
  0
LINE
  5
2bd
100
AcDbEntity
  8
Layer_1
 62
7
100
AcDbLine
 10
841.763064
 20
653.375351
 30
0.0
 11
841.763064
 21
656.373962
 31
0.0
  0
LINE
  5
2be
100
AcDbEntity
  8
Layer_1
 62
7
100
AcDbLine
 10
841.763064
 20
656.373962
 30
0.0
 11
802.851675
 21
656.373962
 31
0.0
  0
LINE
  5
2bf
100
AcDbEntity
  8
Layer_1
 62
7
100
AcDbLine
 10
802.851675
 20
656.373962
 30
0.0
 11
802.851675
 21
653.375351
 31
0.0
  0
LINE
  5
2c0
100
AcDbEntity
  8
Layer_1
 62
7
100
AcDbLine
 10
802.851675
 20
653.375351
 30
0.0
 11
772.768536
 21
653.375351
 31
0.0
  0
LINE
  5
2c1
100
AcDbEntity
  8
Layer_1
 62
7
100
AcDbLine
 10
772.768536
 20
653.375351
 30
0.0
 11
772.768536
 21
656.373962
 31
0.0
  0
LINE
  5
2c2
100
AcDbEntity
  8
Layer_1
 62
7
100
AcDbLine
 10
772.768536
 20
656.373962
 30
0.0
 11
733.813064
 21
656.373962
 31
0.0
  0
LINE
  5
2c3
100
AcDbEntity
  8
Layer_1
 62
7
100
AcDbLine
 10
274.565547
 20
837.586711
 30
0.0
 11
271.566936
 21
837.586711
 31
0.0
  0
LINE
  5
2c4
100
AcDbEntity
  8
Layer_1
 62
7
100
AcDbLine
 10
271.566936
 20
837.586711
 30
0.0
 11
271.566936
 21
807.494767
 31
0.0
  0
LINE
  5
2c5
100
AcDbEntity
  8
Layer_1
 62
7
100
AcDbLine
 10
271.566936
 20
807.494767
 30
0.0
 11
274.565547
 21
807.494767
 31
0.0
  0
LINE
  5
2c6
100
AcDbEntity
  8
Layer_1
 62
7
100
AcDbLine
 10
274.565547
 20
807.494767
 30
0.0
 11
274.565547
 21
780.956988
 31
0.0
  0
LINE
  5
2c7
100
AcDbEntity
  8
Layer_1
 62
7
100
AcDbLine
 10
274.565547
 20
780.956988
 30
0.0
 11
445.457532
 21
780.956988
 31
0.0
  0
LINE
  5
2c8
100
AcDbEntity
  8
Layer_1
 62
7
100
AcDbLine
 10
445.457532
 20
780.956988
 30
0.0
 11
445.457532
 21
807.494767
 31
0.0
  0
LINE
  5
2c9
100
AcDbEntity
  8
Layer_1
 62
7
100
AcDbLine
 10
445.457532
 20
807.494767
 30
0.0
 11
448.456143
 21
807.494767
 31
0.0
  0
LINE
  5
2ca
100
AcDbEntity
  8
Layer_1
 62
7
100
AcDbLine
 10
448.456143
 20
807.494767
 30
0.0
 11
448.456143
 21
837.586711
 31
0.0
  0
LINE
  5
2cb
100
AcDbEntity
  8
Layer_1
 62
7
100
AcDbLine
 10
448.456143
 20
837.586711
 30
0.0
 11
445.457532
 21
837.586711
 31
0.0
  0
LINE
  5
2cc
100
AcDbEntity
  8
Layer_1
 62
7
100
AcDbLine
 10
445.457532
 20
837.586711
 30
0.0
 11
445.457532
 21
864.338104
 31
0.0
  0
LINE
  5
2cd
100
AcDbEntity
  8
Layer_1
 62
7
100
AcDbLine
 10
445.457532
 20
864.338104
 30
0.0
 11
409.609976
 21
864.324558
 31
0.0
  0
LINE
  5
2ce
100
AcDbEntity
  8
Layer_1
 62
7
100
AcDbLine
 10
409.609976
 20
864.324558
 30
0.0
 11
409.609976
 21
867.351532
 31
0.0
  0
LINE
  5
2cf
100
AcDbEntity
  8
Layer_1
 62
7
100
AcDbLine
 10
409.609976
 20
867.351532
 30
0.0
 11
379.520148
 21
867.351532
 31
0.0
  0
LINE
  5
2d0
100
AcDbEntity
  8
Layer_1
 62
7
100
AcDbLine
 10
379.520148
 20
867.351532
 30
0.0
 11
379.520148
 21
864.324558
 31
0.0
  0
LINE
  5
2d1
100
AcDbEntity
  8
Layer_1
 62
7
100
AcDbLine
 10
379.520148
 20
864.324558
 30
0.0
 11
340.610424
 21
864.324558
 31
0.0
  0
LINE
  5
2d2
100
AcDbEntity
  8
Layer_1
 62
7
100
AcDbLine
 10
340.610424
 20
864.324558
 30
0.0
 11
340.610424
 21
867.351532
 31
0.0
  0
LINE
  5
2d3
100
AcDbEntity
  8
Layer_1
 62
7
100
AcDbLine
 10
340.610424
 20
867.351532
 30
0.0
 11
310.520653
 21
867.351532
 31
0.0
  0
LINE
  5
2d4
100
AcDbEntity
  8
Layer_1
 62
7
100
AcDbLine
 10
310.520653
 20
867.351532
 30
0.0
 11
310.520653
 21
864.324558
 31
0.0
  0
LINE
  5
2d5
100
AcDbEntity
  8
Layer_1
 62
7
100
AcDbLine
 10
310.520653
 20
864.324558
 30
0.0
 11
274.565547
 21
864.338104
 31
0.0
  0
LINE
  5
2d6
100
AcDbEntity
  8
Layer_1
 62
7
100
AcDbLine
 10
274.565547
 20
864.338104
 30
0.0
 11
274.565547
 21
837.586711
 31
0.0
  0
LINE
  5
2d7
100
AcDbEntity
  8
Layer_1
 62
7
100
AcDbLine
 10
500.099988
 20
245.688276
 30
0.0
 11
500.099988
 21
251.504368
 31
0.0
  0
LINE
  5
2d8
100
AcDbEntity
  8
Layer_1
 62
7
100
AcDbLine
 10
500.099988
 20
251.504368
 30
0.0
 11
877.268002
 21
251.504368
 31
0.0
  0
LINE
  5
2d9
100
AcDbEntity
  8
Layer_1
 62
7
100
AcDbLine
 10
877.268002
 20
251.504368
 30
0.0
 11
877.268002
 21
245.688276
 31
0.0
  0
LINE
  5
2da
100
AcDbEntity
  8
Layer_1
 62
7
100
AcDbLine
 10
877.268002
 20
245.688276
 30
0.0
 11
500.099988
 21
245.688276
 31
0.0
  0
LINE
  5
2db
100
AcDbEntity
  8
Layer_1
 62
7
100
AcDbLine
 10
549.674692
 20
224.393932
 30
0.0
 11
549.674692
 21
230.209996
 31
0.0
  0
LINE
  5
2dc
100
AcDbEntity
  8
Layer_1
 62
7
100
AcDbLine
 10
549.674692
 20
230.209996
 30
0.0
 11
800.674500
 21
230.209996
 31
0.0
  0
LINE
  5
2dd
100
AcDbEntity
  8
Layer_1
 62
7
100
AcDbLine
 10
800.674500
 20
230.209996
 30
0.0
 11
800.674500
 21
224.393932
 31
0.0
  0
LINE
  5
2de
100
AcDbEntity
  8
Layer_1
 62
7
100
AcDbLine
 10
800.674500
 20
224.393932
 30
0.0
 11
549.674692
 21
224.393932
 31
0.0
  0
SPLINE
  5
2df
100
AcDbEntity
  8
Layer_1
 62
7
100
AcDbSpline
 70
8
 71
3
 72
8
 73
4
 74
0
 40
0
 40
0
 40
0
 40
0
 40
1
 40
1
 40
1
 40
1
 10
502.526591
 20
688.526128
 30
0.0
 10
502.526591
 20
687.421567
 30
0.0
 10
501.631156
 20
686.526132
 30
0.0
 10
500.526595
 20
686.526132
 30
0.0
  0
SPLINE
  5
2e0
100
AcDbEntity
  8
Layer_1
 62
7
100
AcDbSpline
 70
8
 71
3
 72
8
 73
4
 74
0
 40
0
 40
0
 40
0
 40
0
 40
1
 40
1
 40
1
 40
1
 10
500.526595
 20
686.526132
 30
0.0
 10
499.422005
 20
686.526132
 30
0.0
 10
498.526599
 20
687.421567
 30
0.0
 10
498.526599
 20
688.526128
 30
0.0
  0
SPLINE
  5
2e1
100
AcDbEntity
  8
Layer_1
 62
7
100
AcDbSpline
 70
8
 71
3
 72
8
 73
4
 74
0
 40
0
 40
0
 40
0
 40
0
 40
1
 40
1
 40
1
 40
1
 10
498.526599
 20
688.526128
 30
0.0
 10
498.526599
 20
689.630718
 30
0.0
 10
499.422005
 20
690.526153
 30
0.0
 10
500.526595
 20
690.526153
 30
0.0
  0
SPLINE
  5
2e2
100
AcDbEntity
  8
Layer_1
 62
7
100
AcDbSpline
 70
8
 71
3
 72
8
 73
4
 74
0
 40
0
 40
0
 40
0
 40
0
 40
1
 40
1
 40
1
 40
1
 10
500.526595
 20
690.526153
 30
0.0
 10
501.631156
 20
690.526153
 30
0.0
 10
502.526591
 20
689.630718
 30
0.0
 10
502.526591
 20
688.526128
 30
0.0
  0
LINE
  5
2e3
100
AcDbEntity
  8
Layer_1
 62
7
100
AcDbLine
 10
502.526591
 20
688.526128
 30
0.0
 11
502.526591
 21
688.526128
 31
0.0
  0
SPLINE
  5
2e4
100
AcDbEntity
  8
Layer_1
 62
7
100
AcDbSpline
 70
8
 71
3
 72
8
 73
4
 74
0
 40
0
 40
0
 40
0
 40
0
 40
1
 40
1
 40
1
 40
1
 10
639.948352
 20
688.526157
 30
0.0
 10
639.948352
 20
687.421567
 30
0.0
 10
639.052917
 20
686.526132
 30
0.0
 10
637.948356
 20
686.526132
 30
0.0
  0
SPLINE
  5
2e5
100
AcDbEntity
  8
Layer_1
 62
7
100
AcDbSpline
 70
8
 71
3
 72
8
 73
4
 74
0
 40
0
 40
0
 40
0
 40
0
 40
1
 40
1
 40
1
 40
1
 10
637.948356
 20
686.526132
 30
0.0
 10
636.843766
 20
686.526132
 30
0.0
 10
635.948360
 20
687.421567
 30
0.0
 10
635.948360
 20
688.526157
 30
0.0
  0
SPLINE
  5
2e6
100
AcDbEntity
  8
Layer_1
 62
7
100
AcDbSpline
 70
8
 71
3
 72
8
 73
4
 74
0
 40
0
 40
0
 40
0
 40
0
 40
1
 40
1
 40
1
 40
1
 10
635.948360
 20
688.526157
 30
0.0
 10
635.948360
 20
689.630718
 30
0.0
 10
636.843766
 20
690.526153
 30
0.0
 10
637.948356
 20
690.526153
 30
0.0
  0
SPLINE
  5
2e7
100
AcDbEntity
  8
Layer_1
 62
7
100
AcDbSpline
 70
8
 71
3
 72
8
 73
4
 74
0
 40
0
 40
0
 40
0
 40
0
 40
1
 40
1
 40
1
 40
1
 10
637.948356
 20
690.526153
 30
0.0
 10
639.052917
 20
690.526153
 30
0.0
 10
639.948352
 20
689.630718
 30
0.0
 10
639.948352
 20
688.526157
 30
0.0
  0
LINE
  5
2e8
100
AcDbEntity
  8
Layer_1
 62
7
100
AcDbLine
 10
639.948352
 20
688.526157
 30
0.0
 11
639.948352
 21
688.526157
 31
0.0
  0
SPLINE
  5
2e9
100
AcDbEntity
  8
Layer_1
 62
7
100
AcDbSpline
 70
8
 71
3
 72
8
 73
4
 74
0
 40
0
 40
0
 40
0
 40
0
 40
1
 40
1
 40
1
 40
1
 10
639.938756
 20
853.911043
 30
0.0
 10
639.938756
 20
852.806476
 30
0.0
 10
639.043322
 20
851.911044
 30
0.0
 10
637.938760
 20
851.911044
 30
0.0
  0
SPLINE
  5
2ea
100
AcDbEntity
  8
Layer_1
 62
7
100
AcDbSpline
 70
8
 71
3
 72
8
 73
4
 74
0
 40
0
 40
0
 40
0
 40
0
 40
1
 40
1
 40
1
 40
1
 10
637.938760
 20
851.911044
 30
0.0
 10
636.834171
 20
851.911044
 30
0.0
 10
635.938764
 20
852.806476
 30
0.0
 10
635.938764
 20
853.911043
 30
0.0
  0
SPLINE
  5
2eb
100
AcDbEntity
  8
Layer_1
 62
7
100
AcDbSpline
 70
8
 71
3
 72
8
 73
4
 74
0
 40
0
 40
0
 40
0
 40
0
 40
1
 40
1
 40
1
 40
1
 10
635.938764
 20
853.911043
 30
0.0
 10
635.938764
 20
855.015613
 30
0.0
 10
636.834171
 20
855.911045
 30
0.0
 10
637.938760
 20
855.911045
 30
0.0
  0
SPLINE
  5
2ec
100
AcDbEntity
  8
Layer_1
 62
7
100
AcDbSpline
 70
8
 71
3
 72
8
 73
4
 74
0
 40
0
 40
0
 40
0
 40
0
 40
1
 40
1
 40
1
 40
1
 10
637.938760
 20
855.911045
 30
0.0
 10
639.043322
 20
855.911045
 30
0.0
 10
639.938756
 20
855.015613
 30
0.0
 10
639.938756
 20
853.911043
 30
0.0
  0
LINE
  5
2ed
100
AcDbEntity
  8
Layer_1
 62
7
100
AcDbLine
 10
639.938756
 20
853.911043
 30
0.0
 11
639.938756
 21
853.911043
 31
0.0
  0
SPLINE
  5
2ee
100
AcDbEntity
  8
Layer_1
 62
7
100
AcDbSpline
 70
8
 71
3
 72
8
 73
4
 74
0
 40
0
 40
0
 40
0
 40
0
 40
1
 40
1
 40
1
 40
1
 10
502.526591
 20
853.945206
 30
0.0
 10
502.526591
 20
852.840639
 30
0.0
 10
501.631156
 20
851.945207
 30
0.0
 10
500.526595
 20
851.945207
 30
0.0
  0
SPLINE
  5
2ef
100
AcDbEntity
  8
Layer_1
 62
7
100
AcDbSpline
 70
8
 71
3
 72
8
 73
4
 74
0
 40
0
 40
0
 40
0
 40
0
 40
1
 40
1
 40
1
 40
1
 10
500.526595
 20
851.945207
 30
0.0
 10
499.422005
 20
851.945207
 30
0.0
 10
498.526599
 20
852.840639
 30
0.0
 10
498.526599
 20
853.945206
 30
0.0
  0
SPLINE
  5
2f0
100
AcDbEntity
  8
Layer_1
 62
7
100
AcDbSpline
 70
8
 71
3
 72
8
 73
4
 74
0
 40
0
 40
0
 40
0
 40
0
 40
1
 40
1
 40
1
 40
1
 10
498.526599
 20
853.945206
 30
0.0
 10
498.526599
 20
855.049776
 30
0.0
 10
499.422005
 20
855.945208
 30
0.0
 10
500.526595
 20
855.945208
 30
0.0
  0
SPLINE
  5
2f1
100
AcDbEntity
  8
Layer_1
 62
7
100
AcDbSpline
 70
8
 71
3
 72
8
 73
4
 74
0
 40
0
 40
0
 40
0
 40
0
 40
1
 40
1
 40
1
 40
1
 10
500.526595
 20
855.945208
 30
0.0
 10
501.631156
 20
855.945208
 30
0.0
 10
502.526591
 20
855.049776
 30
0.0
 10
502.526591
 20
853.945206
 30
0.0
  0
LINE
  5
2f2
100
AcDbEntity
  8
Layer_1
 62
7
100
AcDbLine
 10
502.526591
 20
853.945206
 30
0.0
 11
502.526591
 21
853.945206
 31
0.0
  0
LINE
  5
2f3
100
AcDbEntity
  8
Layer_1
 62
7
100
AcDbLine
 10
500.526595
 20
865.850556
 30
0.0
 11
637.938760
 21
865.850556
 31
0.0
  0
SPLINE
  5
2f4
100
AcDbEntity
  8
Layer_1
 62
7
100
AcDbSpline
 70
8
 71
3
 72
8
 73
4
 74
0
 40
0
 40
0
 40
0
 40
0
 40
1
 40
1
 40
1
 40
1
 10
637.938760
 20
865.850556
 30
0.0
 10
644.572168
 20
865.850556
 30
0.0
 10
649.912433
 20
860.510296
 30
0.0
 10
649.912433
 20
853.876880
 30
0.0
  0
LINE
  5
2f5
100
AcDbEntity
  8
Layer_1
 62
7
100
AcDbLine
 10
649.912433
 20
853.876880
 30
0.0
 11
649.912433
 21
688.526128
 31
0.0
  0
SPLINE
  5
2f6
100
AcDbEntity
  8
Layer_1
 62
7
100
AcDbSpline
 70
8
 71
3
 72
8
 73
4
 74
0
 40
0
 40
0
 40
0
 40
0
 40
1
 40
1
 40
1
 40
1
 10
649.912433
 20
688.526128
 30
0.0
 10
649.912433
 20
681.892721
 30
0.0
 10
644.572168
 20
676.552455
 30
0.0
 10
637.938760
 20
676.552455
 30
0.0
  0
LINE
  5
2f7
100
AcDbEntity
  8
Layer_1
 62
7
100
AcDbLine
 10
637.938760
 20
676.552455
 30
0.0
 11
500.526595
 21
676.552455
 31
0.0
  0
SPLINE
  5
2f8
100
AcDbEntity
  8
Layer_1
 62
7
100
AcDbSpline
 70
8
 71
3
 72
8
 73
4
 74
0
 40
0
 40
0
 40
0
 40
0
 40
1
 40
1
 40
1
 40
1
 10
500.526595
 20
676.552455
 30
0.0
 10
493.893187
 20
676.552455
 30
0.0
 10
488.552922
 20
681.892721
 30
0.0
 10
488.552922
 20
688.526128
 30
0.0
  0
LINE
  5
2f9
100
AcDbEntity
  8
Layer_1
 62
7
100
AcDbLine
 10
488.552922
 20
688.526128
 30
0.0
 11
488.552922
 21
853.876880
 31
0.0
  0
SPLINE
  5
2fa
100
AcDbEntity
  8
Layer_1
 62
7
100
AcDbSpline
 70
8
 71
3
 72
8
 73
4
 74
0
 40
0
 40
0
 40
0
 40
0
 40
1
 40
1
 40
1
 40
1
 10
488.552922
 20
853.876880
 30
0.0
 10
488.552922
 20
860.510296
 30
0.0
 10
493.893187
 20
865.850556
 30
0.0
 10
500.526595
 20
865.850556
 30
0.0
  0
LINE
  5
2fb
100
AcDbEntity
  8
Layer_1
 62
7
100
AcDbLine
 10
500.526595
 20
865.850556
 30
0.0
 11
500.526595
 21
865.850556
 31
0.0
  0
LINE
  5
2fc
100
AcDbEntity
  8
Layer_1
 62
7
100
AcDbLine
 10
620.859885
 20
791.058150
 30
0.0
 11
517.605442
 21
791.058150
 31
0.0
  0
LINE
  5
2fd
100
AcDbEntity
  8
Layer_1
 62
7
100
AcDbLine
 10
517.605442
 20
791.058150
 30
0.0
 11
517.605442
 21
751.344881
 31
0.0
  0
LINE
  5
2fe
100
AcDbEntity
  8
Layer_1
 62
7
100
AcDbLine
 10
517.605442
 20
751.344881
 30
0.0
 11
620.859885
 21
751.344881
 31
0.0
  0
LINE
  5
2ff
100
AcDbEntity
  8
Layer_1
 62
7
100
AcDbLine
 10
620.859885
 20
751.344881
 30
0.0
 11
620.859885
 21
791.058150
 31
0.0
  0
LINE
  5
300
100
AcDbEntity
  8
Layer_1
 62
7
100
AcDbLine
 10
620.859885
 20
791.058150
 30
0.0
 11
620.859885
 21
791.058150
 31
0.0
  0
LINE
  5
301
100
AcDbEntity
  8
Layer_1
 62
7
100
AcDbLine
 10
302.013056
 20
742.575217
 30
0.0
 11
302.013056
 21
728.719870
 31
0.0
  0
LINE
  5
302
100
AcDbEntity
  8
Layer_1
 62
7
100
AcDbLine
 10
302.013056
 20
728.719870
 30
0.0
 11
288.589861
 21
728.719870
 31
0.0
  0
LINE
  5
303
100
AcDbEntity
  8
Layer_1
 62
7
100
AcDbLine
 10
288.589861
 20
728.719870
 30
0.0
 11
288.589861
 21
588.764106
 31
0.0
  0
LINE
  5
304
100
AcDbEntity
  8
Layer_1
 62
7
100
AcDbLine
 10
288.589861
 20
588.764106
 30
0.0
 11
302.013056
 21
588.764106
 31
0.0
  0
LINE
  5
305
100
AcDbEntity
  8
Layer_1
 62
7
100
AcDbLine
 10
302.013056
 20
588.764106
 30
0.0
 11
302.013056
 21
574.908773
 31
0.0
  0
LINE
  5
306
100
AcDbEntity
  8
Layer_1
 62
7
100
AcDbLine
 10
302.013056
 20
574.908773
 30
0.0
 11
413.340917
 21
574.908773
 31
0.0
  0
LINE
  5
307
100
AcDbEntity
  8
Layer_1
 62
7
100
AcDbLine
 10
413.340917
 20
574.908773
 30
0.0
 11
413.340917
 21
588.764106
 31
0.0
  0
LINE
  5
308
100
AcDbEntity
  8
Layer_1
 62
7
100
AcDbLine
 10
413.340917
 20
588.764106
 30
0.0
 11
426.764083
 21
588.764106
 31
0.0
  0
LINE
  5
309
100
AcDbEntity
  8
Layer_1
 62
7
100
AcDbLine
 10
426.764083
 20
588.764106
 30
0.0
 11
426.764083
 21
728.719870
 31
0.0
  0
LINE
  5
30a
100
AcDbEntity
  8
Layer_1
 62
7
100
AcDbLine
 10
426.764083
 20
728.719870
 30
0.0
 11
413.340917
 21
728.719870
 31
0.0
  0
LINE
  5
30b
100
AcDbEntity
  8
Layer_1
 62
7
100
AcDbLine
 10
413.340917
 20
728.719870
 30
0.0
 11
413.340917
 21
742.575217
 31
0.0
  0
LINE
  5
30c
100
AcDbEntity
  8
Layer_1
 62
7
100
AcDbLine
 10
413.340917
 20
742.575217
 30
0.0
 11
302.013056
 21
742.575217
 31
0.0
  0
SPLINE
  5
30d
100
AcDbEntity
  8
Layer_1
 62
7
100
AcDbSpline
 70
8
 71
3
 72
8
 73
4
 74
0
 40
0
 40
0
 40
0
 40
0
 40
1
 40
1
 40
1
 40
1
 10
290.966200
 20
576.035799
 30
0.0
 10
290.966200
 20
574.931238
 30
0.0
 10
290.070766
 20
574.035803
 30
0.0
 10
288.966204
 20
574.035803
 30
0.0
  0
SPLINE
  5
30e
100
AcDbEntity
  8
Layer_1
 62
7
100
AcDbSpline
 70
8
 71
3
 72
8
 73
4
 74
0
 40
0
 40
0
 40
0
 40
0
 40
1
 40
1
 40
1
 40
1
 10
288.966204
 20
574.035803
 30
0.0
 10
287.861615
 20
574.035803
 30
0.0
 10
286.966208
 20
574.931238
 30
0.0
 10
286.966208
 20
576.035799
 30
0.0
  0
SPLINE
  5
30f
100
AcDbEntity
  8
Layer_1
 62
7
100
AcDbSpline
 70
8
 71
3
 72
8
 73
4
 74
0
 40
0
 40
0
 40
0
 40
0
 40
1
 40
1
 40
1
 40
1
 10
286.966208
 20
576.035799
 30
0.0
 10
286.966208
 20
577.140389
 30
0.0
 10
287.861615
 20
578.035824
 30
0.0
 10
288.966204
 20
578.035824
 30
0.0
  0
SPLINE
  5
310
100
AcDbEntity
  8
Layer_1
 62
7
100
AcDbSpline
 70
8
 71
3
 72
8
 73
4
 74
0
 40
0
 40
0
 40
0
 40
0
 40
1
 40
1
 40
1
 40
1
 10
288.966204
 20
578.035824
 30
0.0
 10
290.070766
 20
578.035824
 30
0.0
 10
290.966200
 20
577.140389
 30
0.0
 10
290.966200
 20
576.035799
 30
0.0
  0
LINE
  5
311
100
AcDbEntity
  8
Layer_1
 62
7
100
AcDbLine
 10
290.966200
 20
576.035799
 30
0.0
 11
290.966200
 21
576.035799
 31
0.0
  0
SPLINE
  5
312
100
AcDbEntity
  8
Layer_1
 62
7
100
AcDbSpline
 70
8
 71
3
 72
8
 73
4
 74
0
 40
0
 40
0
 40
0
 40
0
 40
1
 40
1
 40
1
 40
1
 10
428.387933
 20
576.035828
 30
0.0
 10
428.387933
 20
574.931238
 30
0.0
 10
427.492499
 20
574.035803
 30
0.0
 10
426.387937
 20
574.035803
 30
0.0
  0
SPLINE
  5
313
100
AcDbEntity
  8
Layer_1
 62
7
100
AcDbSpline
 70
8
 71
3
 72
8
 73
4
 74
0
 40
0
 40
0
 40
0
 40
0
 40
1
 40
1
 40
1
 40
1
 10
426.387937
 20
574.035803
 30
0.0
 10
425.283348
 20
574.035803
 30
0.0
 10
424.387941
 20
574.931238
 30
0.0
 10
424.387941
 20
576.035828
 30
0.0
  0
SPLINE
  5
314
100
AcDbEntity
  8
Layer_1
 62
7
100
AcDbSpline
 70
8
 71
3
 72
8
 73
4
 74
0
 40
0
 40
0
 40
0
 40
0
 40
1
 40
1
 40
1
 40
1
 10
424.387941
 20
576.035828
 30
0.0
 10
424.387941
 20
577.140389
 30
0.0
 10
425.283348
 20
578.035824
 30
0.0
 10
426.387937
 20
578.035824
 30
0.0
  0
SPLINE
  5
315
100
AcDbEntity
  8
Layer_1
 62
7
100
AcDbSpline
 70
8
 71
3
 72
8
 73
4
 74
0
 40
0
 40
0
 40
0
 40
0
 40
1
 40
1
 40
1
 40
1
 10
426.387937
 20
578.035824
 30
0.0
 10
427.492499
 20
578.035824
 30
0.0
 10
428.387933
 20
577.140389
 30
0.0
 10
428.387933
 20
576.035828
 30
0.0
  0
LINE
  5
316
100
AcDbEntity
  8
Layer_1
 62
7
100
AcDbLine
 10
428.387933
 20
576.035828
 30
0.0
 11
428.387933
 21
576.035828
 31
0.0
  0
SPLINE
  5
317
100
AcDbEntity
  8
Layer_1
 62
7
100
AcDbSpline
 70
8
 71
3
 72
8
 73
4
 74
0
 40
0
 40
0
 40
0
 40
0
 40
1
 40
1
 40
1
 40
1
 10
428.378338
 20
741.420717
 30
0.0
 10
428.378338
 20
740.316150
 30
0.0
 10
427.482903
 20
739.420718
 30
0.0
 10
426.378342
 20
739.420718
 30
0.0
  0
SPLINE
  5
318
100
AcDbEntity
  8
Layer_1
 62
7
100
AcDbSpline
 70
8
 71
3
 72
8
 73
4
 74
0
 40
0
 40
0
 40
0
 40
0
 40
1
 40
1
 40
1
 40
1
 10
426.378342
 20
739.420718
 30
0.0
 10
425.273752
 20
739.420718
 30
0.0
 10
424.378346
 20
740.316150
 30
0.0
 10
424.378346
 20
741.420717
 30
0.0
  0
SPLINE
  5
319
100
AcDbEntity
  8
Layer_1
 62
7
100
AcDbSpline
 70
8
 71
3
 72
8
 73
4
 74
0
 40
0
 40
0
 40
0
 40
0
 40
1
 40
1
 40
1
 40
1
 10
424.378346
 20
741.420717
 30
0.0
 10
424.378346
 20
742.525287
 30
0.0
 10
425.273752
 20
743.420718
 30
0.0
 10
426.378342
 20
743.420718
 30
0.0
  0
SPLINE
  5
31a
100
AcDbEntity
  8
Layer_1
 62
7
100
AcDbSpline
 70
8
 71
3
 72
8
 73
4
 74
0
 40
0
 40
0
 40
0
 40
0
 40
1
 40
1
 40
1
 40
1
 10
426.378342
 20
743.420718
 30
0.0
 10
427.482903
 20
743.420718
 30
0.0
 10
428.378338
 20
742.525287
 30
0.0
 10
428.378338
 20
741.420717
 30
0.0
  0
LINE
  5
31b
100
AcDbEntity
  8
Layer_1
 62
7
100
AcDbLine
 10
428.378338
 20
741.420717
 30
0.0
 11
428.378338
 21
741.420717
 31
0.0
  0
SPLINE
  5
31c
100
AcDbEntity
  8
Layer_1
 62
7
100
AcDbSpline
 70
8
 71
3
 72
8
 73
4
 74
0
 40
0
 40
0
 40
0
 40
0
 40
1
 40
1
 40
1
 40
1
 10
290.966200
 20
741.454880
 30
0.0
 10
290.966200
 20
740.350313
 30
0.0
 10
290.070766
 20
739.454881
 30
0.0
 10
288.966204
 20
739.454881
 30
0.0
  0
SPLINE
  5
31d
100
AcDbEntity
  8
Layer_1
 62
7
100
AcDbSpline
 70
8
 71
3
 72
8
 73
4
 74
0
 40
0
 40
0
 40
0
 40
0
 40
1
 40
1
 40
1
 40
1
 10
288.966204
 20
739.454881
 30
0.0
 10
287.861615
 20
739.454881
 30
0.0
 10
286.966208
 20
740.350313
 30
0.0
 10
286.966208
 20
741.454880
 30
0.0
  0
SPLINE
  5
31e
100
AcDbEntity
  8
Layer_1
 62
7
100
AcDbSpline
 70
8
 71
3
 72
8
 73
4
 74
0
 40
0
 40
0
 40
0
 40
0
 40
1
 40
1
 40
1
 40
1
 10
286.966208
 20
741.454880
 30
0.0
 10
286.966208
 20
742.559450
 30
0.0
 10
287.861615
 20
743.454881
 30
0.0
 10
288.966204
 20
743.454881
 30
0.0
  0
SPLINE
  5
31f
100
AcDbEntity
  8
Layer_1
 62
7
100
AcDbSpline
 70
8
 71
3
 72
8
 73
4
 74
0
 40
0
 40
0
 40
0
 40
0
 40
1
 40
1
 40
1
 40
1
 10
288.966204
 20
743.454881
 30
0.0
 10
290.070766
 20
743.454881
 30
0.0
 10
290.966200
 20
742.559450
 30
0.0
 10
290.966200
 20
741.454880
 30
0.0
  0
LINE
  5
320
100
AcDbEntity
  8
Layer_1
 62
7
100
AcDbLine
 10
290.966200
 20
741.454880
 30
0.0
 11
290.966200
 21
741.454880
 31
0.0
  0
LINE
  5
321
100
AcDbEntity
  8
Layer_1
 62
7
100
AcDbLine
 10
269.284814
 20
759.290283
 30
0.0
 11
446.069325
 21
759.290339
 31
0.0
  0
LINE
  5
322
100
AcDbEntity
  8
Layer_1
 62
7
100
AcDbLine
 10
446.069325
 20
759.290339
 30
0.0
 11
446.069353
 21
723.335313
 31
0.0
  0
LINE
  5
323
100
AcDbEntity
  8
Layer_1
 62
7
100
AcDbLine
 10
446.069353
 20
723.335313
 30
0.0
 11
443.069331
 21
723.335313
 31
0.0
  0
LINE
  5
324
100
AcDbEntity
  8
Layer_1
 62
7
100
AcDbLine
 10
443.069331
 20
723.335313
 30
0.0
 11
443.069303
 21
693.245364
 31
0.0
  0
LINE
  5
325
100
AcDbEntity
  8
Layer_1
 62
7
100
AcDbLine
 10
443.069303
 20
693.245364
 30
0.0
 11
446.069325
 21
693.245364
 31
0.0
  0
LINE
  5
326
100
AcDbEntity
  8
Layer_1
 62
7
100
AcDbLine
 10
446.069325
 20
693.245364
 30
0.0
 11
446.069325
 21
654.335329
 31
0.0
  0
LINE
  5
327
100
AcDbEntity
  8
Layer_1
 62
7
100
AcDbLine
 10
446.069325
 20
654.335329
 30
0.0
 11
443.069331
 21
654.335358
 31
0.0
  0
LINE
  5
328
100
AcDbEntity
  8
Layer_1
 62
7
100
AcDbLine
 10
443.069331
 20
654.335358
 30
0.0
 11
443.069331
 21
624.245361
 31
0.0
  0
LINE
  5
329
100
AcDbEntity
  8
Layer_1
 62
7
100
AcDbLine
 10
443.069331
 20
624.245361
 30
0.0
 11
446.069325
 21
624.245389
 31
0.0
  0
LINE
  5
32a
100
AcDbEntity
  8
Layer_1
 62
7
100
AcDbLine
 10
446.069325
 20
624.245389
 30
0.0
 11
446.069297
 21
588.290340
 31
0.0
  0
LINE
  5
32b
100
AcDbEntity
  8
Layer_1
 62
7
100
AcDbLine
 10
446.069297
 20
588.290340
 30
0.0
 11
443.069303
 21
588.290340
 31
0.0
  0
LINE
  5
32c
100
AcDbEntity
  8
Layer_1
 62
7
100
AcDbLine
 10
443.069303
 20
588.290340
 30
0.0
 11
443.176829
 21
558.200343
 31
0.0
  0
LINE
  5
32d
100
AcDbEntity
  8
Layer_1
 62
7
100
AcDbLine
 10
443.176829
 20
558.200343
 30
0.0
 11
272.284853
 21
558.200343
 31
0.0
  0
LINE
  5
32e
100
AcDbEntity
  8
Layer_1
 62
7
100
AcDbLine
 10
272.284853
 20
558.200343
 30
0.0
 11
272.284814
 21
588.290340
 31
0.0
  0
LINE
  5
32f
100
AcDbEntity
  8
Layer_1
 62
7
100
AcDbLine
 10
272.284814
 20
588.290340
 30
0.0
 11
269.284831
 21
588.290340
 31
0.0
  0
LINE
  5
330
100
AcDbEntity
  8
Layer_1
 62
7
100
AcDbLine
 10
269.284831
 20
588.290340
 30
0.0
 11
269.284811
 21
624.245361
 31
0.0
  0
LINE
  5
331
100
AcDbEntity
  8
Layer_1
 62
7
100
AcDbLine
 10
269.284811
 20
624.245361
 30
0.0
 11
272.284794
 21
624.245332
 31
0.0
  0
LINE
  5
332
100
AcDbEntity
  8
Layer_1
 62
7
100
AcDbLine
 10
272.284794
 20
624.245332
 30
0.0
 11
272.284797
 21
654.335329
 31
0.0
  0
LINE
  5
333
100
AcDbEntity
  8
Layer_1
 62
7
100
AcDbLine
 10
272.284797
 20
654.335329
 30
0.0
 11
269.284791
 21
654.335329
 31
0.0
  0
LINE
  5
334
100
AcDbEntity
  8
Layer_1
 62
7
100
AcDbLine
 10
269.284791
 20
654.335329
 30
0.0
 11
269.284794
 21
693.245364
 31
0.0
  0
LINE
  5
335
100
AcDbEntity
  8
Layer_1
 62
7
100
AcDbLine
 10
269.284794
 20
693.245364
 30
0.0
 11
272.284836
 21
693.245364
 31
0.0
  0
LINE
  5
336
100
AcDbEntity
  8
Layer_1
 62
7
100
AcDbLine
 10
272.284836
 20
693.245364
 30
0.0
 11
272.284797
 21
723.335285
 31
0.0
  0
LINE
  5
337
100
AcDbEntity
  8
Layer_1
 62
7
100
AcDbLine
 10
272.284797
 20
723.335285
 30
0.0
 11
269.284814
 21
723.335313
 31
0.0
  0
LINE
  5
338
100
AcDbEntity
  8
Layer_1
 62
7
100
AcDbLine
 10
269.284814
 20
723.335313
 30
0.0
 11
269.284814
 21
759.290283
 31
0.0
  0
LINE
  5
339
100
AcDbEntity
  8
Layer_1
 62
7
100
AcDbLine
 10
166.500378
 20
874.685429
 30
0.0
 11
191.452943
 21
874.685429
 31
0.0
  0
LINE
  5
33a
100
AcDbEntity
  8
Layer_1
 62
7
100
AcDbLine
 10
191.452943
 20
874.685429
 30
0.0
 11
191.452943
 21
849.732991
 31
0.0
  0
LINE
  5
33b
100
AcDbEntity
  8
Layer_1
 62
7
100
AcDbLine
 10
191.452943
 20
849.732991
 30
0.0
 11
166.500378
 21
849.732991
 31
0.0
  0
LINE
  5
33c
100
AcDbEntity
  8
Layer_1
 62
7
100
AcDbLine
 10
166.500378
 20
849.732991
 30
0.0
 11
166.500378
 21
874.685429
 31
0.0
  0
SPLINE
  5
33d
100
AcDbEntity
  8
Layer_1
 62
7
100
AcDbSpline
 70
8
 71
3
 72
8
 73
4
 74
0
 40
0
 40
0
 40
0
 40
0
 40
1
 40
1
 40
1
 40
1
 10
181.537799
 20
862.433838
 30
0.0
 10
181.537799
 20
861.329271
 30
0.0
 10
180.642364
 20
860.433839
 30
0.0
 10
179.537803
 20
860.433839
 30
0.0
  0
SPLINE
  5
33e
100
AcDbEntity
  8
Layer_1
 62
7
100
AcDbSpline
 70
8
 71
3
 72
8
 73
4
 74
0
 40
0
 40
0
 40
0
 40
0
 40
1
 40
1
 40
1
 40
1
 10
179.537803
 20
860.433839
 30
0.0
 10
178.433214
 20
860.433839
 30
0.0
 10
177.537807
 20
861.329271
 30
0.0
 10
177.537807
 20
862.433838
 30
0.0
  0
SPLINE
  5
33f
100
AcDbEntity
  8
Layer_1
 62
7
100
AcDbSpline
 70
8
 71
3
 72
8
 73
4
 74
0
 40
0
 40
0
 40
0
 40
0
 40
1
 40
1
 40
1
 40
1
 10
177.537807
 20
862.433838
 30
0.0
 10
177.537807
 20
863.538408
 30
0.0
 10
178.433214
 20
864.433840
 30
0.0
 10
179.537803
 20
864.433840
 30
0.0
  0
SPLINE
  5
340
100
AcDbEntity
  8
Layer_1
 62
7
100
AcDbSpline
 70
8
 71
3
 72
8
 73
4
 74
0
 40
0
 40
0
 40
0
 40
0
 40
1
 40
1
 40
1
 40
1
 10
179.537803
 20
864.433840
 30
0.0
 10
180.642364
 20
864.433840
 30
0.0
 10
181.537799
 20
863.538408
 30
0.0
 10
181.537799
 20
862.433838
 30
0.0
  0
LINE
  5
341
100
AcDbEntity
  8
Layer_1
 62
7
100
AcDbLine
 10
181.537799
 20
862.433838
 30
0.0
 11
181.537799
 21
862.433838
 31
0.0
  0
LINE
  5
342
100
AcDbEntity
  8
Layer_1
 62
7
100
AcDbLine
 10
30.219933
 20
874.685429
 30
0.0
 11
55.172511
 21
874.685429
 31
0.0
  0
LINE
  5
343
100
AcDbEntity
  8
Layer_1
 62
7
100
AcDbLine
 10
55.172511
 20
874.685429
 30
0.0
 11
55.172511
 21
849.732991
 31
0.0
  0
LINE
  5
344
100
AcDbEntity
  8
Layer_1
 62
7
100
AcDbLine
 10
55.172511
 20
849.732991
 30
0.0
 11
30.219933
 21
849.732991
 31
0.0
  0
LINE
  5
345
100
AcDbEntity
  8
Layer_1
 62
7
100
AcDbLine
 10
30.219933
 20
849.732991
 30
0.0
 11
30.219933
 21
874.685429
 31
0.0
  0
SPLINE
  5
346
100
AcDbEntity
  8
Layer_1
 62
7
100
AcDbSpline
 70
8
 71
3
 72
8
 73
4
 74
0
 40
0
 40
0
 40
0
 40
0
 40
1
 40
1
 40
1
 40
1
 10
44.125656
 20
862.468001
 30
0.0
 10
44.125656
 20
861.363434
 30
0.0
 10
43.230221
 20
860.468002
 30
0.0
 10
42.125649
 20
860.468002
 30
0.0
  0
SPLINE
  5
347
100
AcDbEntity
  8
Layer_1
 62
7
100
AcDbSpline
 70
8
 71
3
 72
8
 73
4
 74
0
 40
0
 40
0
 40
0
 40
0
 40
1
 40
1
 40
1
 40
1
 10
42.125649
 20
860.468002
 30
0.0
 10
41.021059
 20
860.468002
 30
0.0
 10
40.125653
 20
861.363434
 30
0.0
 10
40.125653
 20
862.468001
 30
0.0
  0
SPLINE
  5
348
100
AcDbEntity
  8
Layer_1
 62
7
100
AcDbSpline
 70
8
 71
3
 72
8
 73
4
 74
0
 40
0
 40
0
 40
0
 40
0
 40
1
 40
1
 40
1
 40
1
 10
40.125653
 20
862.468001
 30
0.0
 10
40.125653
 20
863.572571
 30
0.0
 10
41.021059
 20
864.468003
 30
0.0
 10
42.125649
 20
864.468003
 30
0.0
  0
SPLINE
  5
349
100
AcDbEntity
  8
Layer_1
 62
7
100
AcDbSpline
 70
8
 71
3
 72
8
 73
4
 74
0
 40
0
 40
0
 40
0
 40
0
 40
1
 40
1
 40
1
 40
1
 10
42.125649
 20
864.468003
 30
0.0
 10
43.230221
 20
864.468003
 30
0.0
 10
44.125656
 20
863.572571
 30
0.0
 10
44.125656
 20
862.468001
 30
0.0
  0
LINE
  5
34a
100
AcDbEntity
  8
Layer_1
 62
7
100
AcDbLine
 10
44.125656
 20
862.468001
 30
0.0
 11
44.125656
 21
862.468001
 31
0.0
  0
LINE
  5
34b
100
AcDbEntity
  8
Layer_1
 62
7
100
AcDbLine
 10
29.413694
 20
735.577229
 30
0.0
 11
54.366262
 21
735.577229
 31
0.0
  0
LINE
  5
34c
100
AcDbEntity
  8
Layer_1
 62
7
100
AcDbLine
 10
54.366262
 20
735.577229
 30
0.0
 11
54.366262
 21
710.624803
 31
0.0
  0
LINE
  5
34d
100
AcDbEntity
  8
Layer_1
 62
7
100
AcDbLine
 10
54.366262
 20
710.624803
 30
0.0
 11
29.413694
 21
710.624803
 31
0.0
  0
LINE
  5
34e
100
AcDbEntity
  8
Layer_1
 62
7
100
AcDbLine
 10
29.413694
 20
710.624803
 30
0.0
 11
29.413694
 21
735.577229
 31
0.0
  0
SPLINE
  5
34f
100
AcDbEntity
  8
Layer_1
 62
7
100
AcDbSpline
 70
8
 71
3
 72
8
 73
4
 74
0
 40
0
 40
0
 40
0
 40
0
 40
1
 40
1
 40
1
 40
1
 10
43.319406
 20
722.848923
 30
0.0
 10
43.319406
 20
721.744361
 30
0.0
 10
42.423972
 20
720.848927
 30
0.0
 10
41.319399
 20
720.848927
 30
0.0
  0
SPLINE
  5
350
100
AcDbEntity
  8
Layer_1
 62
7
100
AcDbSpline
 70
8
 71
3
 72
8
 73
4
 74
0
 40
0
 40
0
 40
0
 40
0
 40
1
 40
1
 40
1
 40
1
 10
41.319399
 20
720.848927
 30
0.0
 10
40.214810
 20
720.848927
 30
0.0
 10
39.319403
 20
721.744361
 30
0.0
 10
39.319403
 20
722.848923
 30
0.0
  0
SPLINE
  5
351
100
AcDbEntity
  8
Layer_1
 62
7
100
AcDbSpline
 70
8
 71
3
 72
8
 73
4
 74
0
 40
0
 40
0
 40
0
 40
0
 40
1
 40
1
 40
1
 40
1
 10
39.319403
 20
722.848923
 30
0.0
 10
39.319403
 20
723.953512
 30
0.0
 10
40.214810
 20
724.848947
 30
0.0
 10
41.319399
 20
724.848947
 30
0.0
  0
SPLINE
  5
352
100
AcDbEntity
  8
Layer_1
 62
7
100
AcDbSpline
 70
8
 71
3
 72
8
 73
4
 74
0
 40
0
 40
0
 40
0
 40
0
 40
1
 40
1
 40
1
 40
1
 10
41.319399
 20
724.848947
 30
0.0
 10
42.423972
 20
724.848947
 30
0.0
 10
43.319406
 20
723.953512
 30
0.0
 10
43.319406
 20
722.848923
 30
0.0
  0
LINE
  5
353
100
AcDbEntity
  8
Layer_1
 62
7
100
AcDbLine
 10
43.319406
 20
722.848923
 30
0.0
 11
43.319406
 21
722.848923
 31
0.0
  0
LINE
  5
354
100
AcDbEntity
  8
Layer_1
 62
7
100
AcDbLine
 10
165.694129
 20
735.577229
 30
0.0
 11
190.646693
 21
735.577229
 31
0.0
  0
LINE
  5
355
100
AcDbEntity
  8
Layer_1
 62
7
100
AcDbLine
 10
190.646693
 20
735.577229
 30
0.0
 11
190.646693
 21
710.624803
 31
0.0
  0
LINE
  5
356
100
AcDbEntity
  8
Layer_1
 62
7
100
AcDbLine
 10
190.646693
 20
710.624803
 30
0.0
 11
165.694129
 21
710.624803
 31
0.0
  0
LINE
  5
357
100
AcDbEntity
  8
Layer_1
 62
7
100
AcDbLine
 10
165.694129
 20
710.624803
 30
0.0
 11
165.694129
 21
735.577229
 31
0.0
  0
SPLINE
  5
358
100
AcDbEntity
  8
Layer_1
 62
7
100
AcDbSpline
 70
8
 71
3
 72
8
 73
4
 74
0
 40
0
 40
0
 40
0
 40
0
 40
1
 40
1
 40
1
 40
1
 10
180.741145
 20
722.848951
 30
0.0
 10
180.741145
 20
721.744361
 30
0.0
 10
179.845710
 20
720.848927
 30
0.0
 10
178.741149
 20
720.848927
 30
0.0
  0
SPLINE
  5
359
100
AcDbEntity
  8
Layer_1
 62
7
100
AcDbSpline
 70
8
 71
3
 72
8
 73
4
 74
0
 40
0
 40
0
 40
0
 40
0
 40
1
 40
1
 40
1
 40
1
 10
178.741149
 20
720.848927
 30
0.0
 10
177.636559
 20
720.848927
 30
0.0
 10
176.741153
 20
721.744361
 30
0.0
 10
176.741153
 20
722.848951
 30
0.0
  0
SPLINE
  5
35a
100
AcDbEntity
  8
Layer_1
 62
7
100
AcDbSpline
 70
8
 71
3
 72
8
 73
4
 74
0
 40
0
 40
0
 40
0
 40
0
 40
1
 40
1
 40
1
 40
1
 10
176.741153
 20
722.848951
 30
0.0
 10
176.741153
 20
723.953512
 30
0.0
 10
177.636559
 20
724.848947
 30
0.0
 10
178.741149
 20
724.848947
 30
0.0
  0
SPLINE
  5
35b
100
AcDbEntity
  8
Layer_1
 62
7
100
AcDbSpline
 70
8
 71
3
 72
8
 73
4
 74
0
 40
0
 40
0
 40
0
 40
0
 40
1
 40
1
 40
1
 40
1
 10
178.741149
 20
724.848947
 30
0.0
 10
179.845710
 20
724.848947
 30
0.0
 10
180.741145
 20
723.953512
 30
0.0
 10
180.741145
 20
722.848951
 30
0.0
  0
LINE
  5
35c
100
AcDbEntity
  8
Layer_1
 62
7
100
AcDbLine
 10
180.741145
 20
722.848951
 30
0.0
 11
180.741145
 21
722.848951
 31
0.0
  0
LINE
  5
35d
100
AcDbEntity
  8
Layer_1
 62
7
100
AcDbLine
 10
31.000453
 20
845.540306
 30
0.0
 11
55.953031
 21
845.540306
 31
0.0
  0
LINE
  5
35e
100
AcDbEntity
  8
Layer_1
 62
7
100
AcDbLine
 10
55.953031
 20
845.540306
 30
0.0
 11
55.953031
 21
820.587869
 31
0.0
  0
LINE
  5
35f
100
AcDbEntity
  8
Layer_1
 62
7
100
AcDbLine
 10
55.953031
 20
820.587869
 30
0.0
 11
31.000453
 21
820.587869
 31
0.0
  0
LINE
  5
360
100
AcDbEntity
  8
Layer_1
 62
7
100
AcDbLine
 10
31.000453
 20
820.587869
 30
0.0
 11
31.000453
 21
845.540306
 31
0.0
  0
LINE
  5
361
100
AcDbEntity
  8
Layer_1
 62
7
100
AcDbLine
 10
46.299648
 20
835.292397
 30
0.0
 11
46.299648
 21
831.353337
 31
0.0
  0
LINE
  5
362
100
AcDbEntity
  8
Layer_1
 62
7
100
AcDbLine
 10
46.299648
 20
831.353337
 30
0.0
 11
42.906174
 21
829.383821
 31
0.0
  0
LINE
  5
363
100
AcDbEntity
  8
Layer_1
 62
7
100
AcDbLine
 10
42.906174
 20
829.383821
 30
0.0
 11
39.512700
 21
831.353337
 31
0.0
  0
LINE
  5
364
100
AcDbEntity
  8
Layer_1
 62
7
100
AcDbLine
 10
39.512700
 20
831.353337
 30
0.0
 11
39.512700
 21
835.292397
 31
0.0
  0
LINE
  5
365
100
AcDbEntity
  8
Layer_1
 62
7
100
AcDbLine
 10
39.512700
 20
835.292397
 30
0.0
 11
42.906174
 21
837.261941
 31
0.0
  0
LINE
  5
366
100
AcDbEntity
  8
Layer_1
 62
7
100
AcDbLine
 10
42.906174
 20
837.261941
 30
0.0
 11
46.299648
 21
835.292397
 31
0.0
  0
LINE
  5
367
100
AcDbEntity
  8
Layer_1
 62
7
100
AcDbLine
 10
44.538386
 20
755.738697
 30
0.0
 11
44.538386
 21
751.799637
 31
0.0
  0
LINE
  5
368
100
AcDbEntity
  8
Layer_1
 62
7
100
AcDbLine
 10
44.538386
 20
751.799637
 30
0.0
 11
41.144912
 21
749.830121
 31
0.0
  0
LINE
  5
369
100
AcDbEntity
  8
Layer_1
 62
7
100
AcDbLine
 10
41.144912
 20
749.830121
 30
0.0
 11
37.751439
 21
751.799637
 31
0.0
  0
LINE
  5
36a
100
AcDbEntity
  8
Layer_1
 62
7
100
AcDbLine
 10
37.751439
 20
751.799637
 30
0.0
 11
37.751439
 21
755.738697
 31
0.0
  0
LINE
  5
36b
100
AcDbEntity
  8
Layer_1
 62
7
100
AcDbLine
 10
37.751439
 20
755.738697
 30
0.0
 11
41.144912
 21
757.708241
 31
0.0
  0
LINE
  5
36c
100
AcDbEntity
  8
Layer_1
 62
7
100
AcDbLine
 10
41.144912
 20
757.708241
 30
0.0
 11
44.538386
 21
755.738697
 31
0.0
  0
LINE
  5
36d
100
AcDbEntity
  8
Layer_1
 62
7
100
AcDbLine
 10
29.239201
 20
766.497474
 30
0.0
 11
54.191769
 21
766.497474
 31
0.0
  0
LINE
  5
36e
100
AcDbEntity
  8
Layer_1
 62
7
100
AcDbLine
 10
54.191769
 20
766.497474
 30
0.0
 11
54.191769
 21
741.545036
 31
0.0
  0
LINE
  5
36f
100
AcDbEntity
  8
Layer_1
 62
7
100
AcDbLine
 10
54.191769
 20
741.545036
 30
0.0
 11
29.239201
 21
741.545036
 31
0.0
  0
LINE
  5
370
100
AcDbEntity
  8
Layer_1
 62
7
100
AcDbLine
 10
29.239201
 20
741.545036
 30
0.0
 11
29.239201
 21
766.497474
 31
0.0
  0
LINE
  5
371
100
AcDbEntity
  8
Layer_1
 62
7
100
AcDbLine
 10
182.822088
 20
752.847658
 30
0.0
 11
182.822088
 21
748.908597
 31
0.0
  0
LINE
  5
372
100
AcDbEntity
  8
Layer_1
 62
7
100
AcDbLine
 10
182.822088
 20
748.908597
 30
0.0
 11
179.428614
 21
746.939081
 31
0.0
  0
LINE
  5
373
100
AcDbEntity
  8
Layer_1
 62
7
100
AcDbLine
 10
179.428614
 20
746.939081
 30
0.0
 11
176.035140
 21
748.908597
 31
0.0
  0
LINE
  5
374
100
AcDbEntity
  8
Layer_1
 62
7
100
AcDbLine
 10
176.035140
 20
748.908597
 30
0.0
 11
176.035140
 21
752.847658
 31
0.0
  0
LINE
  5
375
100
AcDbEntity
  8
Layer_1
 62
7
100
AcDbLine
 10
176.035140
 20
752.847658
 30
0.0
 11
179.428614
 21
754.817202
 31
0.0
  0
LINE
  5
376
100
AcDbEntity
  8
Layer_1
 62
7
100
AcDbLine
 10
179.428614
 20
754.817202
 30
0.0
 11
182.822088
 21
752.847658
 31
0.0
  0
LINE
  5
377
100
AcDbEntity
  8
Layer_1
 62
7
100
AcDbLine
 10
166.381594
 20
763.606434
 30
0.0
 11
191.334159
 21
763.606434
 31
0.0
  0
LINE
  5
378
100
AcDbEntity
  8
Layer_1
 62
7
100
AcDbLine
 10
191.334159
 20
763.606434
 30
0.0
 11
191.334159
 21
738.653996
 31
0.0
  0
LINE
  5
379
100
AcDbEntity
  8
Layer_1
 62
7
100
AcDbLine
 10
191.334159
 20
738.653996
 30
0.0
 11
166.381594
 21
738.653996
 31
0.0
  0
LINE
  5
37a
100
AcDbEntity
  8
Layer_1
 62
7
100
AcDbLine
 10
166.381594
 20
738.653996
 30
0.0
 11
166.381594
 21
763.606434
 31
0.0
  0
LINE
  5
37b
100
AcDbEntity
  8
Layer_1
 62
7
100
AcDbLine
 10
183.293173
 20
835.411103
 30
0.0
 11
183.293173
 21
831.472042
 31
0.0
  0
LINE
  5
37c
100
AcDbEntity
  8
Layer_1
 62
7
100
AcDbLine
 10
183.293173
 20
831.472042
 30
0.0
 11
179.899699
 21
829.502526
 31
0.0
  0
LINE
  5
37d
100
AcDbEntity
  8
Layer_1
 62
7
100
AcDbLine
 10
179.899699
 20
829.502526
 30
0.0
 11
176.506226
 21
831.472042
 31
0.0
  0
LINE
  5
37e
100
AcDbEntity
  8
Layer_1
 62
7
100
AcDbLine
 10
176.506226
 20
831.472042
 30
0.0
 11
176.506226
 21
835.411103
 31
0.0
  0
LINE
  5
37f
100
AcDbEntity
  8
Layer_1
 62
7
100
AcDbLine
 10
176.506226
 20
835.411103
 30
0.0
 11
179.899699
 21
837.380647
 31
0.0
  0
LINE
  5
380
100
AcDbEntity
  8
Layer_1
 62
7
100
AcDbLine
 10
179.899699
 20
837.380647
 30
0.0
 11
183.293173
 21
835.411103
 31
0.0
  0
LINE
  5
381
100
AcDbEntity
  8
Layer_1
 62
7
100
AcDbLine
 10
166.862275
 20
845.693175
 30
0.0
 11
191.814839
 21
845.693175
 31
0.0
  0
LINE
  5
382
100
AcDbEntity
  8
Layer_1
 62
7
100
AcDbLine
 10
191.814839
 20
845.693175
 30
0.0
 11
191.814839
 21
820.740740
 31
0.0
  0
LINE
  5
383
100
AcDbEntity
  8
Layer_1
 62
7
100
AcDbLine
 10
191.814839
 20
820.740740
 30
0.0
 11
166.862275
 21
820.740740
 31
0.0
  0
LINE
  5
384
100
AcDbEntity
  8
Layer_1
 62
7
100
AcDbLine
 10
166.862275
 20
820.740740
 30
0.0
 11
166.862275
 21
845.693175
 31
0.0
  0
LINE
  5
385
100
AcDbEntity
  8
Layer_1
 62
7
100
AcDbLine
 10
761.052504
 20
865.608079
 30
0.0
 11
880.466342
 21
865.608079
 31
0.0
  0
SPLINE
  5
386
100
AcDbEntity
  8
Layer_1
 62
7
100
AcDbSpline
 70
8
 71
3
 72
8
 73
4
 74
0
 40
0
 40
0
 40
0
 40
0
 40
1
 40
1
 40
1
 40
1
 10
880.466342
 20
865.608079
 30
0.0
 10
883.236353
 20
865.608079
 30
0.0
 10
885.466360
 20
863.378072
 30
0.0
 10
885.466360
 20
860.608061
 30
0.0
  0
LINE
  5
387
100
AcDbEntity
  8
Layer_1
 62
7
100
AcDbLine
 10
885.466360
 20
860.608061
 30
0.0
 11
885.466360
 21
671.800906
 31
0.0
  0
LINE
  5
388
100
AcDbEntity
  8
Layer_1
 62
7
100
AcDbLine
 10
885.466360
 20
671.800906
 30
0.0
 11
756.052514
 21
671.800906
 31
0.0
  0
LINE
  5
389
100
AcDbEntity
  8
Layer_1
 62
7
100
AcDbLine
 10
756.052514
 20
671.800906
 30
0.0
 11
756.052514
 21
860.608061
 31
0.0
  0
SPLINE
  5
38a
100
AcDbEntity
  8
Layer_1
 62
7
100
AcDbSpline
 70
8
 71
3
 72
8
 73
4
 74
0
 40
0
 40
0
 40
0
 40
0
 40
1
 40
1
 40
1
 40
1
 10
756.052514
 20
860.608061
 30
0.0
 10
756.052514
 20
863.378072
 30
0.0
 10
758.282493
 20
865.608079
 30
0.0
 10
761.052504
 20
865.608079
 30
0.0
  0
LINE
  5
38b
100
AcDbEntity
  8
Layer_1
 62
7
100
AcDbLine
 10
761.052504
 20
865.608079
 30
0.0
 11
761.052504
 21
865.608079
 31
0.0
  0
LINE
  5
38c
100
AcDbEntity
  8
Layer_1
 62
7
100
AcDbLine
 10
807.906021
 20
851.248697
 30
0.0
 11
833.616550
 21
851.248697
 31
0.0
  0
LINE
  5
38d
100
AcDbEntity
  8
Layer_1
 62
7
100
AcDbLine
 10
833.616550
 20
851.248697
 30
0.0
 11
833.616550
 21
844.326632
 31
0.0
  0
LINE
  5
38e
100
AcDbEntity
  8
Layer_1
 62
7
100
AcDbLine
 10
833.616550
 20
844.326632
 30
0.0
 11
807.906021
 21
844.326632
 31
0.0
  0
LINE
  5
38f
100
AcDbEntity
  8
Layer_1
 62
7
100
AcDbLine
 10
807.906021
 20
844.326632
 30
0.0
 11
807.906021
 21
851.248697
 31
0.0
  0
LINE
  5
390
100
AcDbEntity
  8
Layer_1
 62
7
100
AcDbLine
 10
727.256449
 20
48.412403
 30
0.0
 11
727.256449
 21
149.925253
 31
0.0
  0
SPLINE
  5
391
100
AcDbEntity
  8
Layer_1
 62
7
100
AcDbSpline
 70
8
 71
3
 72
8
 73
4
 74
0
 40
0
 40
0
 40
0
 40
0
 40
1
 40
1
 40
1
 40
1
 10
727.256449
 20
149.925253
 30
0.0
 10
727.256449
 20
155.479894
 30
0.0
 10
731.728232
 20
159.951649
 30
0.0
 10
737.282845
 20
159.951649
 30
0.0
  0
LINE
  5
392
100
AcDbEntity
  8
Layer_1
 62
7
100
AcDbLine
 10
737.282845
 20
159.951649
 30
0.0
 11
866.470632
 21
159.951649
 31
0.0
  0
SPLINE
  5
393
100
AcDbEntity
  8
Layer_1
 62
7
100
AcDbSpline
 70
8
 71
3
 72
8
 73
4
 74
0
 40
0
 40
0
 40
0
 40
0
 40
1
 40
1
 40
1
 40
1
 10
866.470632
 20
159.951649
 30
0.0
 10
872.025217
 20
159.951649
 30
0.0
 10
876.497000
 20
155.479894
 30
0.0
 10
876.497000
 20
149.925253
 30
0.0
  0
LINE
  5
394
100
AcDbEntity
  8
Layer_1
 62
7
100
AcDbLine
 10
876.497000
 20
149.925253
 30
0.0
 11
876.497000
 21
48.412403
 31
0.0
  0
SPLINE
  5
395
100
AcDbEntity
  8
Layer_1
 62
7
100
AcDbSpline
 70
8
 71
3
 72
8
 73
4
 74
0
 40
0
 40
0
 40
0
 40
0
 40
1
 40
1
 40
1
 40
1
 10
876.497000
 20
48.412403
 30
0.0
 10
876.497000
 20
42.857761
 30
0.0
 10
872.025217
 20
38.385979
 30
0.0
 10
866.470632
 20
38.385979
 30
0.0
  0
LINE
  5
396
100
AcDbEntity
  8
Layer_1
 62
7
100
AcDbLine
 10
866.470632
 20
38.385979
 30
0.0
 11
737.282845
 21
38.385979
 31
0.0
  0
SPLINE
  5
397
100
AcDbEntity
  8
Layer_1
 62
7
100
AcDbSpline
 70
8
 71
3
 72
8
 73
4
 74
0
 40
0
 40
0
 40
0
 40
0
 40
1
 40
1
 40
1
 40
1
 10
737.282845
 20
38.385979
 30
0.0
 10
731.728232
 20
38.385979
 30
0.0
 10
727.256449
 20
42.857761
 30
0.0
 10
727.256449
 20
48.412403
 30
0.0
  0
LINE
  5
398
100
AcDbEntity
  8
Layer_1
 62
7
100
AcDbLine
 10
727.256449
 20
48.412403
 30
0.0
 11
727.256449
 21
48.412403
 31
0.0
  0
LINE
  5
399
100
AcDbEntity
  8
Layer_1
 62
7
100
AcDbLine
 10
707.227674
 20
30.539890
 30
0.0
 11
707.227674
 21
167.952056
 31
0.0
  0
SPLINE
  5
39a
100
AcDbEntity
  8
Layer_1
 62
7
100
AcDbSpline
 70
8
 71
3
 72
8
 73
4
 74
0
 40
0
 40
0
 40
0
 40
0
 40
1
 40
1
 40
1
 40
1
 10
707.227674
 20
167.952056
 30
0.0
 10
707.227674
 20
174.585463
 30
0.0
 10
712.567940
 20
179.925729
 30
0.0
 10
719.201347
 20
179.925729
 30
0.0
  0
LINE
  5
39b
100
AcDbEntity
  8
Layer_1
 62
7
100
AcDbLine
 10
719.201347
 20
179.925729
 30
0.0
 11
884.552102
 21
179.925729
 31
0.0
  0
SPLINE
  5
39c
100
AcDbEntity
  8
Layer_1
 62
7
100
AcDbSpline
 70
8
 71
3
 72
8
 73
4
 74
0
 40
0
 40
0
 40
0
 40
0
 40
1
 40
1
 40
1
 40
1
 10
884.552102
 20
179.925729
 30
0.0
 10
891.185509
 20
179.925729
 30
0.0
 10
896.525774
 20
174.585463
 30
0.0
 10
896.525774
 20
167.952056
 30
0.0
  0
LINE
  5
39d
100
AcDbEntity
  8
Layer_1
 62
7
100
AcDbLine
 10
896.525774
 20
167.952056
 30
0.0
 11
896.525774
 21
30.539890
 31
0.0
  0
SPLINE
  5
39e
100
AcDbEntity
  8
Layer_1
 62
7
100
AcDbSpline
 70
8
 71
3
 72
8
 73
4
 74
0
 40
0
 40
0
 40
0
 40
0
 40
1
 40
1
 40
1
 40
1
 10
896.525774
 20
30.539890
 30
0.0
 10
896.525774
 20
23.906483
 30
0.0
 10
891.185509
 20
18.566217
 30
0.0
 10
884.552102
 20
18.566217
 30
0.0
  0
LINE
  5
39f
100
AcDbEntity
  8
Layer_1
 62
7
100
AcDbLine
 10
884.552102
 20
18.566217
 30
0.0
 11
719.201347
 21
18.566217
 31
0.0
  0
SPLINE
  5
3a0
100
AcDbEntity
  8
Layer_1
 62
7
100
AcDbSpline
 70
8
 71
3
 72
8
 73
4
 74
0
 40
0
 40
0
 40
0
 40
0
 40
1
 40
1
 40
1
 40
1
 10
719.201347
 20
18.566217
 30
0.0
 10
712.567940
 20
18.566217
 30
0.0
 10
707.227674
 20
23.906483
 30
0.0
 10
707.227674
 20
30.539890
 30
0.0
  0
LINE
  5
3a1
100
AcDbEntity
  8
Layer_1
 62
7
100
AcDbLine
 10
707.227674
 20
30.539890
 30
0.0
 11
707.227674
 21
30.539890
 31
0.0
  0
ENDSEC
  0
SECTION
  2
OBJECTS
  0
DICTIONARY
  5
C
330
0
100
AcDbDictionary
  3
ACAD_GROUP
350
D
  3
ACAD_MLINESTYLE
350
17
  0
DICTIONARY
  5
D
330
C
100
AcDbDictionary
  0
DICTIONARY
  5
1A
330
C
100
AcDbDictionary
  0
DICTIONARY
  5
17
330
C
100
AcDbDictionary
  3
STANDARD
350
18
  0
DICTIONARY
  5
19
330
C
100
AcDbDictionary
  0
ENDSEC
  0
EOF
