<?xml version="1.0" encoding="UTF-8" ?>
 <svg viewBox="-282.1209 -120.7033  592.9699 933.8094" xmlns="http://www.w3.org/2000/svg" version="1.0" overflow="visible">
  <defs/>
  <g id="draft" transform="matrix(1 0 0 -1 0 0)" stroke-width="0.19084741250000004">
   <g id="LAYER_1" color="rgb(0,0,0)" stroke="currentColor" fill="none" stroke-width="0.19084741250000004">
    <path d="M -72.638 -525.9555 L -39.6357 -525.9555 " id="ID_41"/>
    <path d="M -39.6357 -525.9555 L -39.6357 -528.9541 " id="ID_42"/>
    <path d="M -3.6382 -525.9555 L -3.6382 -528.9541 " id="ID_43"/>
    <path d="M -3.6382 -525.9555 L 32.3627 -525.9555 " id="ID_44"/>
    <path d="M 32.3627 -525.9555 L 32.3627 -528.9541 " id="ID_45"/>
    <path d="M 68.3637 -525.9555 L 68.3637 -528.9541 " id="ID_46"/>
    <path d="M 68.3637 -525.9555 L 101.3626 -525.9555 " id="ID_47"/>
    <path d="M -72.638 -351.9549 L -39.6357 -351.9549 " id="ID_48"/>
    <path d="M -39.6357 -348.9527 L -39.6357 -351.9549 " id="ID_49"/>
    <path d="M -3.6382 -348.9527 L -3.6382 -351.9549 " id="ID_4A"/>
    <path d="M -3.6382 -351.9549 L 32.3627 -351.9549 " id="ID_4B"/>
    <path d="M 32.3627 -348.9527 L 32.3627 -351.9549 " id="ID_4C"/>
    <path d="M 68.3637 -348.9527 L 68.3637 -351.9549 " id="ID_4D"/>
    <path d="M 68.3637 -351.9549 L 101.3626 -351.9549 " id="ID_4E"/>
    <path d="M -72.638 -525.9555 L -72.638 -492.9531 " id="ID_4F"/>
    <path d="M -72.638 -492.9531 L -75.6366 -492.9531 " id="ID_50"/>
    <path d="M -72.638 -456.9521 L -75.6366 -456.9521 " id="ID_51"/>
    <path d="M -72.638 -456.9521 L -72.638 -420.9547 " id="ID_52"/>
    <path d="M -72.638 -420.9547 L -75.6366 -420.9547 " id="ID_53"/>
    <path d="M -72.638 -384.9537 L -75.6366 -384.9537 " id="ID_54"/>
    <path d="M -72.638 -384.9537 L -72.638 -351.9549 " id="ID_55"/>
    <path d="M 101.3626 -525.9555 L 101.3626 -492.9531 " id="ID_56"/>
    <path d="M 104.3647 -492.9531 L 101.3626 -492.9531 " id="ID_57"/>
    <path d="M 104.3647 -456.9521 L 101.3626 -456.9521 " id="ID_58"/>
    <path d="M 101.3626 -456.9521 L 101.3626 -420.9547 " id="ID_59"/>
    <path d="M 104.3647 -420.9547 L 101.3626 -420.9547 " id="ID_5A"/>
    <path d="M 104.3647 -384.9537 L 101.3626 -384.9537 " id="ID_5B"/>
    <path d="M 101.3626 -384.9537 L 101.3626 -351.9549 " id="ID_5C"/>
    <path d="M -74.0141 -341.6309 L 102.7387 -341.6309 L 104.5362 -341.8135 L 106.213 -342.3369 L 107.7326 -343.1644 L 109.0582 -344.2593 L 110.1531 -345.5849 L 110.9806 -347.1045 L 111.504 -348.7813 L 111.6866 -350.5788 L 111.6866 -527.3316 L 111.504 -529.1291 L 110.9806 -530.8059 L 110.1531 -532.3255 L 109.0582 -533.6511 L 107.7326 -534.746 L 106.213 -535.5735 L 104.5362 -536.0969 L 102.7387 -536.2795 L -74.0141 -536.2795 L -75.8116 -536.0969 L -77.4884 -535.5735 L -79.008 -534.746 L -80.3336 -533.6511 L -81.4285 -532.3255 L -82.256 -530.8059 L -82.7794 -529.1291 L -82.962 -527.3316 L -82.962 -350.5788 L -82.7794 -348.7813 L -82.256 -347.1045 L -81.4285 -345.5849 L -80.3336 -344.2593 L -79.008 -343.1644 L -77.4884 -342.3369 L -75.8116 -341.8135 L -74.0141 -341.6309  z" id="ID_5D"/>
    <path d="M -75.6366 -384.9537 L -75.6366 -348.9527 L -39.6357 -348.9527 " id="ID_5E"/>
    <path d="M -3.6382 -348.9527 L 32.3627 -348.9527 " id="ID_5F"/>
    <path d="M -75.6366 -420.9547 L -75.6366 -456.9521 " id="ID_60"/>
    <path d="M -3.6382 -528.9541 L 32.3627 -528.9541 " id="ID_61"/>
    <path d="M 104.3647 -456.9521 L 104.3647 -420.9547 " id="ID_62"/>
    <path d="M 68.3637 -348.9527 L 104.3647 -348.9527 L 104.3647 -384.9537 " id="ID_63"/>
    <path d="M 104.3647 -492.9531 L 104.3647 -528.9541 L 68.3637 -528.9541 " id="ID_64"/>
    <path d="M -39.6357 -528.9541 L -75.6366 -528.9541 L -75.6366 -492.9531 " id="ID_65"/>
    <path d="M 50.3632 -525.9548 L 50.6655 -525.9853 L 50.9471 -526.0727 L 51.2019 -526.211 L 51.4239 -526.3942 L 51.607 -526.6161 L 51.7453 -526.8709 L 51.8327 -527.1525 L 51.8632 -527.4548 L 51.8327 -527.7571 L 51.7453 -528.0387 L 51.607 -528.2935 L 51.4239 -528.5155 L 51.2019 -528.6986 L 50.9471 -528.8369 L 50.6655 -528.9243 L 50.3632 -528.9548 L 50.0609 -528.9243 L 49.7793 -528.8369 L 49.5245 -528.6986 L 49.3026 -528.5155 L 49.1194 -528.2935 L 48.9811 -528.0387 L 48.8937 -527.7571 L 48.8632 -527.4548 L 48.8937 -527.1525 L 48.9811 -526.8709 L 49.1194 -526.6161 L 49.3026 -526.3942 L 49.5245 -526.211 L 49.7793 -526.0727 L 50.0609 -525.9853 L 50.3632 -525.9548  z" id="ID_66"/>
    <path d="M -39.6357 -525.9555 L -39.6357 -528.9541 " id="ID_67"/>
    <path d="M -3.6347 -525.9555 L -3.6347 -528.9541 " id="ID_68"/>
    <path d="M -21.6352 -525.9548 L -21.3329 -525.9853 L -21.0513 -526.0727 L -20.7965 -526.211 L -20.5746 -526.3942 L -20.3914 -526.6161 L -20.2531 -526.8709 L -20.1657 -527.1525 L -20.1352 -527.4548 L -20.1657 -527.7571 L -20.2531 -528.0387 L -20.3914 -528.2935 L -20.5746 -528.5155 L -20.7965 -528.6986 L -21.0513 -528.8369 L -21.3329 -528.9243 L -21.6352 -528.9548 L -21.9375 -528.9243 L -22.2191 -528.8369 L -22.4739 -528.6986 L -22.6959 -528.5155 L -22.879 -528.2935 L -23.0173 -528.0387 L -23.1047 -527.7571 L -23.1352 -527.4548 L -23.1047 -527.1525 L -23.0173 -526.8709 L -22.879 -526.6161 L -22.6959 -526.3942 L -22.4739 -526.211 L -22.2191 -526.0727 L -21.9375 -525.9853 L -21.6352 -525.9548  z" id="ID_69"/>
    <path d="M 32.3627 -348.9527 L 32.3627 -351.9513 " id="ID_6A"/>
    <path d="M 68.3637 -348.9527 L 68.3637 -351.9513 " id="ID_6B"/>
    <path d="M 50.3632 -348.952 L 50.6655 -348.9825 L 50.9471 -349.0699 L 51.2019 -349.2082 L 51.4239 -349.3914 L 51.607 -349.6133 L 51.7453 -349.8681 L 51.8327 -350.1497 L 51.8632 -350.452 L 51.8327 -350.7543 L 51.7453 -351.0359 L 51.607 -351.2907 L 51.4239 -351.5127 L 51.2019 -351.6958 L 50.9471 -351.8341 L 50.6655 -351.9215 L 50.3632 -351.952 L 50.0609 -351.9215 L 49.7793 -351.8341 L 49.5245 -351.6958 L 49.3026 -351.5127 L 49.1194 -351.2907 L 48.9811 -351.0359 L 48.8937 -350.7543 L 48.8632 -350.452 L 48.8937 -350.1497 L 48.9811 -349.8681 L 49.1194 -349.6133 L 49.3026 -349.3914 L 49.5245 -349.2082 L 49.7793 -349.0699 L 50.0609 -348.9825 L 50.3632 -348.952  z" id="ID_6C"/>
    <path d="M -39.6392 -348.9527 L -39.6392 -351.9513 " id="ID_6D"/>
    <path d="M -3.6382 -348.9527 L -3.6382 -351.9513 " id="ID_6E"/>
    <path d="M -21.6387 -348.952 L -21.3364 -348.9825 L -21.0548 -349.0699 L -20.8 -349.2082 L -20.5781 -349.3914 L -20.3949 -349.6133 L -20.2566 -349.8681 L -20.1692 -350.1497 L -20.1387 -350.452 L -20.1692 -350.7543 L -20.2566 -351.0359 L -20.3949 -351.2907 L -20.5781 -351.5127 L -20.8 -351.6958 L -21.0548 -351.8341 L -21.3364 -351.9215 L -21.6387 -351.952 L -21.941 -351.9215 L -22.2226 -351.8341 L -22.4774 -351.6958 L -22.6994 -351.5127 L -22.8825 -351.2907 L -23.0208 -351.0359 L -23.1082 -350.7543 L -23.1387 -350.452 L -23.1082 -350.1497 L -23.0208 -349.8681 L -22.8825 -349.6133 L -22.6994 -349.3914 L -22.4774 -349.2082 L -22.2226 -349.0699 L -21.941 -348.9825 L -21.6387 -348.952  z" id="ID_6F"/>
    <path d="M -75.6366 -420.9547 L -72.638 -420.9547 " id="ID_70"/>
    <path d="M -75.6366 -384.9537 L -72.638 -384.9537 " id="ID_71"/>
    <path d="M -75.6373 -402.9542 L -75.6068 -402.6519 L -75.5194 -402.3703 L -75.3811 -402.1155 L -75.198 -401.8936 L -74.976 -401.7104 L -74.7212 -401.5721 L -74.4396 -401.4847 L -74.1373 -401.4542 L -73.835 -401.4847 L -73.5534 -401.5721 L -73.2986 -401.7104 L -73.0767 -401.8936 L -72.8935 -402.1155 L -72.7552 -402.3703 L -72.6678 -402.6519 L -72.6373 -402.9542 L -72.6678 -403.2565 L -72.7552 -403.5381 L -72.8935 -403.7929 L -73.0767 -404.0149 L -73.2986 -404.198 L -73.5534 -404.3363 L -73.835 -404.4237 L -74.1373 -404.4542 L -74.4396 -404.4237 L -74.7212 -404.3363 L -74.976 -404.198 L -75.198 -404.0149 L -75.3811 -403.7929 L -75.5194 -403.5381 L -75.6068 -403.2565 L -75.6373 -402.9542  z" id="ID_72"/>
    <path d="M -75.6373 -474.9526 L -75.6068 -474.6503 L -75.5194 -474.3687 L -75.3811 -474.1139 L -75.198 -473.892 L -74.976 -473.7088 L -74.7212 -473.5705 L -74.4396 -473.4831 L -74.1373 -473.4526 L -73.835 -473.4831 L -73.5534 -473.5705 L -73.2986 -473.7088 L -73.0767 -473.892 L -72.8935 -474.1139 L -72.7552 -474.3687 L -72.6678 -474.6503 L -72.6373 -474.9526 L -72.6678 -475.2549 L -72.7552 -475.5365 L -72.8935 -475.7913 L -73.0767 -476.0133 L -73.2986 -476.1964 L -73.5534 -476.3347 L -73.835 -476.4221 L -74.1373 -476.4526 L -74.4396 -476.4221 L -74.7212 -476.3347 L -74.976 -476.1964 L -75.198 -476.0133 L -75.3811 -475.7913 L -75.5194 -475.5365 L -75.6068 -475.2549 L -75.6373 -474.9526  z" id="ID_73"/>
    <path d="M 101.3619 -402.9542 L 101.3924 -402.6519 L 101.4798 -402.3703 L 101.6181 -402.1155 L 101.8013 -401.8936 L 102.0232 -401.7104 L 102.278 -401.5721 L 102.5596 -401.4847 L 102.8619 -401.4542 L 103.1642 -401.4847 L 103.4458 -401.5721 L 103.7006 -401.7104 L 103.9226 -401.8936 L 104.1057 -402.1155 L 104.244 -402.3703 L 104.3314 -402.6519 L 104.3619 -402.9542 L 104.3314 -403.2565 L 104.244 -403.5381 L 104.1057 -403.7929 L 103.9226 -404.0149 L 103.7006 -404.198 L 103.4458 -404.3363 L 103.1642 -404.4237 L 102.8619 -404.4542 L 102.5596 -404.4237 L 102.278 -404.3363 L 102.0232 -404.198 L 101.8013 -404.0149 L 101.6181 -403.7929 L 101.4798 -403.5381 L 101.3924 -403.2565 L 101.3619 -402.9542  z" id="ID_74"/>
    <path d="M 101.3619 -474.9526 L 101.3924 -474.6503 L 101.4798 -474.3687 L 101.6181 -474.1139 L 101.8013 -473.892 L 102.0232 -473.7088 L 102.278 -473.5705 L 102.5596 -473.4831 L 102.8619 -473.4526 L 103.1642 -473.4831 L 103.4458 -473.5705 L 103.7006 -473.7088 L 103.9226 -473.892 L 104.1057 -474.1139 L 104.244 -474.3687 L 104.3314 -474.6503 L 104.3619 -474.9526 L 104.3314 -475.2549 L 104.244 -475.5365 L 104.1057 -475.7913 L 103.9226 -476.0133 L 103.7006 -476.1964 L 103.4458 -476.3347 L 103.1642 -476.4221 L 102.8619 -476.4526 L 102.5596 -476.4221 L 102.278 -476.3347 L 102.0232 -476.1964 L 101.8013 -476.0133 L 101.6181 -475.7913 L 101.4798 -475.5365 L 101.3924 -475.2549 L 101.3619 -474.9526  z" id="ID_75"/>
    <path d="M -72.638 -56.2959 L -39.6357 -56.2959 " id="ID_76"/>
    <path d="M -39.6357 -56.2959 L -39.6357 -59.2945 " id="ID_77"/>
    <path d="M -39.6357 -59.2945 L -3.6382 -59.2945 " id="ID_78"/>
    <path d="M -3.6382 -56.2959 L -3.6382 -59.2945 " id="ID_79"/>
    <path d="M -3.6382 -56.2959 L 32.3627 -56.2959 " id="ID_7A"/>
    <path d="M 32.3627 -56.2959 L 32.3627 -59.2945 " id="ID_7B"/>
    <path d="M 32.3627 -59.2945 L 68.3637 -59.2945 " id="ID_7C"/>
    <path d="M 68.3637 -56.2959 L 68.3637 -59.2945 " id="ID_7D"/>
    <path d="M 68.3637 -56.2959 L 101.3626 -56.2959 " id="ID_7E"/>
    <path d="M -72.638 117.7047 L -39.6357 117.7047 " id="ID_7F"/>
    <path d="M -39.6357 120.7033 L -39.6357 117.7047 " id="ID_80"/>
    <path d="M -39.6357 120.7033 L -3.6382 120.7033 " id="ID_81"/>
    <path d="M -3.6382 120.7033 L -3.6382 117.7047 " id="ID_82"/>
    <path d="M -3.6382 117.7047 L 32.3627 117.7047 " id="ID_83"/>
    <path d="M 32.3627 120.7033 L 32.3627 117.7047 " id="ID_84"/>
    <path d="M 32.3627 120.7033 L 68.3637 120.7033 " id="ID_85"/>
    <path d="M 68.3637 120.7033 L 68.3637 117.7047 " id="ID_86"/>
    <path d="M 68.3637 117.7047 L 101.3626 117.7047 " id="ID_87"/>
    <path d="M -72.638 -56.2959 L -72.638 -23.2935 " id="ID_88"/>
    <path d="M -72.638 -23.2935 L -75.6366 -23.2935 " id="ID_89"/>
    <path d="M -75.6366 -23.2935 L -75.6366 12.7039 " id="ID_8A"/>
    <path d="M -72.638 12.7039 L -75.6366 12.7039 " id="ID_8B"/>
    <path d="M -72.638 12.7039 L -72.638 48.7049 " id="ID_8C"/>
    <path d="M -72.638 48.7049 L -75.6366 48.7049 " id="ID_8D"/>
    <path d="M -75.6366 48.7049 L -75.6366 84.7058 " id="ID_8E"/>
    <path d="M -72.638 84.7058 L -75.6366 84.7058 " id="ID_8F"/>
    <path d="M -72.638 84.7058 L -72.638 117.7047 " id="ID_90"/>
    <path d="M 101.3626 -56.2959 L 101.3626 -23.2935 " id="ID_91"/>
    <path d="M 104.3647 -23.2935 L 101.3626 -23.2935 " id="ID_92"/>
    <path d="M 104.3647 -23.2935 L 104.3647 12.7039 " id="ID_93"/>
    <path d="M 104.3647 12.7039 L 101.3626 12.7039 " id="ID_94"/>
    <path d="M 101.3626 12.7039 L 101.3626 48.7049 " id="ID_95"/>
    <path d="M 104.3647 48.7049 L 101.3626 48.7049 " id="ID_96"/>
    <path d="M 104.3647 48.7049 L 104.3647 84.7058 " id="ID_97"/>
    <path d="M 104.3647 84.7058 L 101.3626 84.7058 " id="ID_98"/>
    <path d="M 101.3626 84.7058 L 101.3626 117.7047 " id="ID_99"/>
    <path d="M 130.8477 -328.7991 L 166.8487 -328.7991 " id="ID_9A"/>
    <path d="M 166.8487 -325.8005 L 166.8487 -328.7991 " id="ID_9B"/>
    <path d="M 202.8497 -325.8005 L 202.8497 -328.7991 " id="ID_9C"/>
    <path d="M 202.8497 -328.7991 L 238.8471 -328.7991 " id="ID_9D"/>
    <path d="M 238.8471 -325.8005 L 238.8471 -328.7991 " id="ID_9E"/>
    <path d="M 274.8481 -325.8005 L 274.8481 -328.7991 " id="ID_9F"/>
    <path d="M 274.8481 -328.7991 L 307.8469 -328.7991 " id="A0"/>
    <path d="M 130.8477 -68.7983 L 166.8487 -68.7983 " id="A1"/>
    <path d="M 166.8487 -68.7983 L 166.8487 -71.8005 " id="A2"/>
    <path d="M 166.8487 -71.8005 L 202.8497 -71.8005 " id="A3"/>
    <path d="M 202.8497 -68.7983 L 202.8497 -71.8005 " id="A4"/>
    <path d="M 202.8497 -68.7983 L 238.8471 -68.7983 " id="A5"/>
    <path d="M 238.8471 -68.7983 L 238.8471 -71.8005 " id="A6"/>
    <path d="M 238.8471 -71.8005 L 274.8481 -71.8005 " id="A7"/>
    <path d="M 274.8481 -68.7983 L 274.8481 -71.8005 " id="A8"/>
    <path d="M 274.8481 -68.7983 L 307.8469 -68.7983 " id="A9"/>
    <path d="M 130.8477 -328.7991 L 130.8477 -299.9101 " id="AA"/>
    <path d="M 133.8499 -299.9101 L 130.8477 -299.9101 " id="AB"/>
    <path d="M 133.8499 -299.9101 L 133.8499 -271.0211 " id="AC"/>
    <path d="M 133.8499 -271.0211 L 130.8477 -271.0211 " id="AD"/>
    <path d="M 130.8477 -271.0211 L 130.8477 -242.1322 " id="AE"/>
    <path d="M 133.8499 -242.1322 L 130.8477 -242.1322 " id="AF"/>
    <path d="M 133.8499 -242.1322 L 133.8499 -213.2432 " id="B0"/>
    <path d="M 133.8499 -213.2432 L 130.8477 -213.2432 " id="B1"/>
    <path d="M 130.8477 -213.2432 L 130.8477 -184.3542 " id="B2"/>
    <path d="M 133.8499 -184.3542 L 130.8477 -184.3542 " id="B3"/>
    <path d="M 133.8499 -184.3542 L 133.8499 -155.4652 " id="B4"/>
    <path d="M 133.8499 -155.4652 L 130.8477 -155.4652 " id="B5"/>
    <path d="M 130.8477 -155.4652 L 130.8477 -126.5763 " id="B6"/>
    <path d="M 133.8499 -126.5763 L 130.8477 -126.5763 " id="B7"/>
    <path d="M 133.8499 -126.5763 L 133.8499 -97.6873 " id="B8"/>
    <path d="M 133.8499 -97.6873 L 130.8477 -97.6873 " id="B9"/>
    <path d="M 130.8477 -97.6873 L 130.8477 -68.7983 " id="BA"/>
    <path d="M 307.8469 -328.7991 L 307.8469 -299.9101 " id="BB"/>
    <path d="M 310.849 -299.9101 L 307.8469 -299.9101 " id="BC"/>
    <path d="M 310.849 -299.9101 L 310.849 -271.0211 " id="BD"/>
    <path d="M 310.849 -271.0211 L 307.8469 -271.0211 " id="BE"/>
    <path d="M 307.8469 -271.0211 L 307.8469 -242.1322 " id="BF"/>
    <path d="M 310.849 -242.1322 L 307.8469 -242.1322 " id="C0"/>
    <path d="M 310.849 -242.1322 L 310.849 -213.2432 " id="C1"/>
    <path d="M 310.849 -213.2432 L 307.8469 -213.2432 " id="C2"/>
    <path d="M 307.8469 -213.2432 L 307.8469 -184.3542 " id="C3"/>
    <path d="M 310.849 -184.3542 L 307.8469 -184.3542 " id="C4"/>
    <path d="M 310.849 -184.3542 L 310.849 -155.4652 " id="C5"/>
    <path d="M 310.849 -155.4652 L 307.8469 -155.4652 " id="C6"/>
    <path d="M 307.8469 -155.4652 L 307.8469 -126.5763 " id="C7"/>
    <path d="M 310.849 -126.5763 L 307.8469 -126.5763 " id="C8"/>
    <path d="M 310.849 -126.5763 L 310.849 -97.6873 " id="C9"/>
    <path d="M 310.849 -97.6873 L 307.8469 -97.6873 " id="CA"/>
    <path d="M 307.8469 -97.6873 L 307.8469 -68.7983 " id="CB"/>
    <path d="M 202.8497 -325.8005 L 186.3492 -325.8005 " id="CC"/>
    <path d="M 183.3488 -325.8005 L 166.8487 -325.8005 " id="CD"/>
    <path d="M 186.3492 -325.8005 L 186.3492 -321.846 L 187.3992 -321.846 L 187.3992 -319.746 L 186.3492 -319.746 L 186.3492 -315.8005 L 183.3492 -315.8005 L 183.3492 -319.746 L 182.2992 -319.746 L 182.2992 -321.846 L 183.3492 -321.846 L 183.3492 -325.8005 " id="CE"/>
    <path d="M 274.8481 -325.8005 L 258.3476 -325.8005 " id="CF"/>
    <path d="M 255.3472 -325.8005 L 238.8471 -325.8005 " id="D0"/>
    <path d="M 258.3476 -325.8005 L 258.3476 -321.846 L 259.3976 -321.846 L 259.3976 -319.746 L 258.3476 -319.746 L 258.3476 -315.8005 L 255.3476 -315.8005 L 255.3476 -319.746 L 254.2976 -319.746 L 254.2976 -321.846 L 255.3476 -321.846 L 255.3476 -325.8005 " id="D1"/>
    <path d="M -75.6366 -329.2965 L -39.6357 -329.2965 " id="D2"/>
    <path d="M -39.6357 -326.2944 L -39.6357 -329.2965 " id="D3"/>
    <path d="M -3.6382 -326.2944 L -3.6382 -329.2965 " id="D4"/>
    <path d="M -3.6382 -329.2965 L 32.3627 -329.2965 " id="D5"/>
    <path d="M 32.3627 -326.2944 L 32.3627 -329.2965 " id="D6"/>
    <path d="M 68.3637 -326.2944 L 68.3637 -329.2965 " id="D7"/>
    <path d="M 68.3637 -329.2965 L 101.3626 -329.2965 " id="D8"/>
    <path d="M -75.6366 -69.2958 L -39.6357 -69.2958 " id="D9"/>
    <path d="M -39.6357 -69.2958 L -39.6357 -72.2944 " id="DA"/>
    <path d="M -39.6357 -72.2944 L -3.6382 -72.2944 " id="DB"/>
    <path d="M -3.6382 -69.2958 L -3.6382 -72.2944 " id="DC"/>
    <path d="M -3.6382 -69.2958 L 32.3627 -69.2958 " id="DD"/>
    <path d="M 32.3627 -69.2958 L 32.3627 -72.2944 " id="DE"/>
    <path d="M 32.3627 -72.2944 L 68.3637 -72.2944 " id="DF"/>
    <path d="M 68.3637 -69.2958 L 68.3637 -72.2944 " id="E0"/>
    <path d="M 68.3637 -69.2958 L 101.3626 -69.2958 " id="E1"/>
    <path d="M -75.6366 -329.2965 L -75.6366 -300.4075 " id="E2"/>
    <path d="M -72.638 -300.4075 L -75.6366 -300.4075 " id="E3"/>
    <path d="M -72.638 -300.4075 L -72.638 -271.5186 " id="E4"/>
    <path d="M -72.638 -271.5186 L -75.6366 -271.5186 " id="E5"/>
    <path d="M -75.6366 -271.5186 L -75.6366 -242.6296 " id="E6"/>
    <path d="M -72.638 -242.6296 L -75.6366 -242.6296 " id="E7"/>
    <path d="M -72.638 -242.6296 L -72.638 -213.7406 " id="E8"/>
    <path d="M -72.638 -213.7406 L -75.6366 -213.7406 " id="E9"/>
    <path d="M -75.6366 -213.7406 L -75.6366 -184.8517 " id="EA"/>
    <path d="M -72.638 -184.8517 L -75.6366 -184.8517 " id="EB"/>
    <path d="M -72.638 -184.8517 L -72.638 -155.9627 " id="EC"/>
    <path d="M -72.638 -155.9627 L -75.6366 -155.9627 " id="ED"/>
    <path d="M -75.6366 -155.9627 L -75.6366 -127.0737 " id="EE"/>
    <path d="M -72.638 -127.0737 L -75.6366 -127.0737 " id="EF"/>
    <path d="M -72.638 -127.0737 L -72.638 -98.1847 " id="F0"/>
    <path d="M -72.638 -98.1847 L -75.6366 -98.1847 " id="F1"/>
    <path d="M -75.6366 -98.1847 L -75.6366 -69.2958 " id="F2"/>
    <path d="M 101.3626 -329.2965 L 101.3626 -300.4075 " id="F3"/>
    <path d="M 104.3647 -300.4075 L 101.3626 -300.4075 " id="F4"/>
    <path d="M 104.3647 -300.4075 L 104.3647 -271.5186 " id="F5"/>
    <path d="M 104.3647 -271.5186 L 101.3626 -271.5186 " id="F6"/>
    <path d="M 101.3626 -271.5186 L 101.3626 -242.6296 " id="F7"/>
    <path d="M 104.3647 -242.6296 L 101.3626 -242.6296 " id="F8"/>
    <path d="M 104.3647 -242.6296 L 104.3647 -213.7406 " id="F9"/>
    <path d="M 104.3647 -213.7406 L 101.3626 -213.7406 " id="FA"/>
    <path d="M 101.3626 -213.7406 L 101.3626 -184.8517 " id="FB"/>
    <path d="M 104.3647 -184.8517 L 101.3626 -184.8517 " id="FC"/>
    <path d="M 104.3647 -184.8517 L 104.3647 -155.9627 " id="FD"/>
    <path d="M 104.3647 -155.9627 L 101.3626 -155.9627 " id="FE"/>
    <path d="M 101.3626 -155.9627 L 101.3626 -127.0737 " id="FF"/>
    <path d="M 104.3647 -127.0737 L 101.3626 -127.0737 " id="ID_100"/>
    <path d="M 104.3647 -127.0737 L 104.3647 -98.1847 " id="ID_101"/>
    <path d="M 104.3647 -98.1847 L 101.3626 -98.1847 " id="ID_102"/>
    <path d="M 101.3626 -98.1847 L 101.3626 -69.2958 " id="ID_103"/>
    <path d="M 68.3637 -326.2944 L 51.8632 -326.2944 " id="ID_104"/>
    <path d="M 48.8628 -326.2944 L 32.3627 -326.2944 " id="ID_105"/>
    <path d="M 51.8632 -326.2944 L 51.8632 -322.3399 L 52.9132 -322.3399 L 52.9132 -320.2399 L 51.8632 -320.2399 L 51.8632 -316.2944 L 48.8632 -316.2944 L 48.8632 -320.2399 L 47.8132 -320.2399 L 47.8132 -322.3399 L 48.8632 -322.3399 L 48.8632 -326.2944 " id="ID_106"/>
    <path d="M -3.6347 -326.2944 L -20.1352 -326.2944 " id="ID_107"/>
    <path d="M -23.1356 -326.2944 L -39.6357 -326.2944 " id="ID_108"/>
    <path d="M -20.1352 -326.2944 L -20.1352 -322.3399 L -19.0852 -322.3399 L -19.0852 -320.2399 L -20.1352 -320.2399 L -20.1352 -316.2944 L -23.1352 -316.2944 L -23.1352 -320.2399 L -24.1852 -320.2399 L -24.1852 -322.3399 L -23.1352 -322.3399 L -23.1352 -326.2944 " id="ID_109"/>
    <path d="M -282.1209 -330.6307 L -246.1235 -330.6307 " id="ID_10A"/>
    <path d="M -246.1235 -327.6321 L -246.1235 -330.6307 " id="ID_10B"/>
    <path d="M -210.1225 -327.6321 L -210.1225 -330.6307 " id="ID_10C"/>
    <path d="M -210.1225 -330.6307 L -174.1215 -330.6307 " id="ID_10D"/>
    <path d="M -174.1215 -327.6321 L -174.1215 -330.6307 " id="ID_10E"/>
    <path d="M -138.1205 -327.6321 L -138.1205 -330.6307 " id="ID_10F"/>
    <path d="M -138.1205 -330.6307 L -105.1217 -330.6307 " id="ID_110"/>
    <path d="M -282.1209 -70.6299 L -246.1235 -70.6299 " id="ID_111"/>
    <path d="M -246.1235 -70.6299 L -246.1235 -73.6321 " id="ID_112"/>
    <path d="M -246.1235 -73.6321 L -210.1225 -73.6321 " id="ID_113"/>
    <path d="M -210.1225 -70.6299 L -210.1225 -73.6321 " id="ID_114"/>
    <path d="M -210.1225 -70.6299 L -174.1215 -70.6299 " id="ID_115"/>
    <path d="M -174.1215 -70.6299 L -174.1215 -73.6321 " id="ID_116"/>
    <path d="M -174.1215 -73.6321 L -138.1205 -73.6321 " id="ID_117"/>
    <path d="M -138.1205 -70.6299 L -138.1205 -73.6321 " id="ID_118"/>
    <path d="M -138.1205 -70.6299 L -105.1217 -70.6299 " id="ID_119"/>
    <path d="M -282.1209 -330.6307 L -282.1209 -301.7417 " id="ID_11A"/>
    <path d="M -279.1223 -301.7417 L -282.1209 -301.7417 " id="ID_11B"/>
    <path d="M -279.1223 -301.7417 L -279.1223 -272.8527 " id="ID_11C"/>
    <path d="M -279.1223 -272.8527 L -282.1209 -272.8527 " id="ID_11D"/>
    <path d="M -282.1209 -272.8527 L -282.1209 -243.9638 " id="ID_11E"/>
    <path d="M -279.1223 -243.9638 L -282.1209 -243.9638 " id="ID_11F"/>
    <path d="M -279.1223 -243.9638 L -279.1223 -215.0748 " id="ID_120"/>
    <path d="M -279.1223 -215.0748 L -282.1209 -215.0748 " id="ID_121"/>
    <path d="M -282.1209 -215.0748 L -282.1209 -186.1858 " id="ID_122"/>
    <path d="M -279.1223 -186.1858 L -282.1209 -186.1858 " id="ID_123"/>
    <path d="M -279.1223 -186.1858 L -279.1223 -157.2968 " id="ID_124"/>
    <path d="M -279.1223 -157.2968 L -282.1209 -157.2968 " id="ID_125"/>
    <path d="M -282.1209 -157.2968 L -282.1209 -128.4079 " id="ID_126"/>
    <path d="M -279.1223 -128.4079 L -282.1209 -128.4079 " id="ID_127"/>
    <path d="M -279.1223 -128.4079 L -279.1223 -99.5189 " id="ID_128"/>
    <path d="M -279.1223 -99.5189 L -282.1209 -99.5189 " id="ID_129"/>
    <path d="M -282.1209 -99.5189 L -282.1209 -70.6299 " id="ID_12A"/>
    <path d="M -105.1217 -330.6307 L -105.1217 -301.7417 " id="ID_12B"/>
    <path d="M -102.1231 -301.7417 L -105.1217 -301.7417 " id="ID_12C"/>
    <path d="M -102.1231 -301.7417 L -102.1231 -272.8527 " id="ID_12D"/>
    <path d="M -102.1231 -272.8527 L -105.1217 -272.8527 " id="ID_12E"/>
    <path d="M -105.1217 -272.8527 L -105.1217 -243.9638 " id="ID_12F"/>
    <path d="M -102.1231 -243.9638 L -105.1217 -243.9638 " id="ID_130"/>
    <path d="M -102.1231 -243.9638 L -102.1231 -215.0748 " id="ID_131"/>
    <path d="M -102.1231 -215.0748 L -105.1217 -215.0748 " id="ID_132"/>
    <path d="M -105.1217 -215.0748 L -105.1217 -186.1858 " id="ID_133"/>
    <path d="M -102.1231 -186.1858 L -105.1217 -186.1858 " id="ID_134"/>
    <path d="M -102.1231 -186.1858 L -102.1231 -157.2968 " id="ID_135"/>
    <path d="M -102.1231 -157.2968 L -105.1217 -157.2968 " id="ID_136"/>
    <path d="M -105.1217 -157.2968 L -105.1217 -128.4079 " id="ID_137"/>
    <path d="M -102.1231 -128.4079 L -105.1217 -128.4079 " id="ID_138"/>
    <path d="M -102.1231 -128.4079 L -102.1231 -99.5189 " id="ID_139"/>
    <path d="M -102.1231 -99.5189 L -105.1217 -99.5189 " id="ID_13A"/>
    <path d="M -105.1217 -99.5189 L -105.1217 -70.6299 " id="ID_13B"/>
    <path d="M -138.1205 -327.6321 L -154.621 -327.6321 " id="ID_13C"/>
    <path d="M -157.6214 -327.6321 L -174.1215 -327.6321 " id="ID_13D"/>
    <path d="M -154.621 -327.6321 L -154.621 -323.6776 L -153.571 -323.6776 L -153.571 -321.5776 L -154.621 -321.5776 L -154.621 -317.6321 L -157.621 -317.6321 L -157.621 -321.5776 L -158.671 -321.5776 L -158.671 -323.6776 L -157.621 -323.6776 L -157.621 -327.6321 " id="ID_13E"/>
    <path d="M -210.1225 -327.6321 L -226.623 -327.6321 " id="ID_13F"/>
    <path d="M -229.6234 -327.6321 L -246.1235 -327.6321 " id="ID_140"/>
    <path d="M -226.623 -327.6321 L -226.623 -323.6776 L -225.573 -323.6776 L -225.573 -321.5776 L -226.623 -321.5776 L -226.623 -317.6321 L -229.623 -317.6321 L -229.623 -321.5776 L -230.673 -321.5776 L -230.673 -323.6776 L -229.623 -323.6776 L -229.623 -327.6321 " id="ID_141"/>
    <path d="M -75.6366 -813.1061 L -39.6357 -813.1061 " id="ID_142"/>
    <path d="M -39.6357 -810.1074 L -39.6357 -813.1061 " id="ID_143"/>
    <path d="M -39.6357 -810.1074 L -3.6382 -810.1074 " id="ID_144"/>
    <path d="M -3.6382 -810.1074 L -3.6382 -813.1061 " id="ID_145"/>
    <path d="M -3.6382 -813.1061 L 32.3627 -813.1061 " id="ID_146"/>
    <path d="M 32.3627 -810.1074 L 32.3627 -813.1061 " id="ID_147"/>
    <path d="M 32.3627 -810.1074 L 68.3637 -810.1074 " id="ID_148"/>
    <path d="M 68.3637 -810.1074 L 68.3637 -813.1061 " id="ID_149"/>
    <path d="M 68.3637 -813.1061 L 101.3626 -813.1061 " id="ID_14A"/>
    <path d="M -75.6366 -553.1088 L -39.6357 -553.1088 " id="ID_14B"/>
    <path d="M -39.6357 -553.1088 L -39.6357 -556.1074 " id="ID_14C"/>
    <path d="M -3.6382 -553.1088 L -3.6382 -556.1074 " id="ID_14D"/>
    <path d="M -3.6382 -553.1088 L 32.3627 -553.1088 " id="ID_14E"/>
    <path d="M 32.3627 -553.1088 L 32.3627 -556.1074 " id="ID_14F"/>
    <path d="M 68.3637 -553.1088 L 68.3637 -556.1074 " id="ID_150"/>
    <path d="M 68.3637 -553.1088 L 101.3626 -553.1088 " id="ID_151"/>
    <path d="M -75.6366 -813.1061 L -75.6366 -784.2171 " id="ID_152"/>
    <path d="M -72.638 -784.2171 L -75.6366 -784.2171 " id="ID_153"/>
    <path d="M -72.638 -784.2171 L -72.638 -755.3281 " id="ID_154"/>
    <path d="M -72.638 -755.3281 L -75.6366 -755.3281 " id="ID_155"/>
    <path d="M -75.6366 -755.3281 L -75.6366 -726.4391 " id="ID_156"/>
    <path d="M -72.638 -726.4391 L -75.6366 -726.4391 " id="ID_157"/>
    <path d="M -72.638 -726.4391 L -72.638 -697.5502 " id="ID_158"/>
    <path d="M -72.638 -697.5502 L -75.6366 -697.5502 " id="ID_159"/>
    <path d="M -75.6366 -697.5502 L -75.6366 -668.6612 " id="ID_15A"/>
    <path d="M -72.638 -668.6612 L -75.6366 -668.6612 " id="ID_15B"/>
    <path d="M -72.638 -668.6612 L -72.638 -639.7722 " id="ID_15C"/>
    <path d="M -72.638 -639.7722 L -75.6366 -639.7722 " id="ID_15D"/>
    <path d="M -75.6366 -639.7722 L -75.6366 -610.8868 " id="ID_15E"/>
    <path d="M -72.638 -610.8868 L -75.6366 -610.8868 " id="ID_15F"/>
    <path d="M -72.638 -610.8868 L -72.638 -581.9978 " id="ID_160"/>
    <path d="M -72.638 -581.9978 L -75.6366 -581.9978 " id="ID_161"/>
    <path d="M -75.6366 -581.9978 L -75.6366 -553.1088 " id="ID_162"/>
    <path d="M 101.3626 -813.1061 L 101.3626 -784.2171 " id="ID_163"/>
    <path d="M 104.3647 -784.2171 L 101.3626 -784.2171 " id="ID_164"/>
    <path d="M 104.3647 -784.2171 L 104.3647 -755.3281 " id="ID_165"/>
    <path d="M 104.3647 -755.3281 L 101.3626 -755.3281 " id="ID_166"/>
    <path d="M 101.3626 -755.3281 L 101.3626 -726.4391 " id="ID_167"/>
    <path d="M 104.3647 -726.4391 L 101.3626 -726.4391 " id="ID_168"/>
    <path d="M 104.3647 -726.4391 L 104.3647 -697.5502 " id="ID_169"/>
    <path d="M 104.3647 -697.5502 L 101.3626 -697.5502 " id="ID_16A"/>
    <path d="M 101.3626 -697.5502 L 101.3626 -668.6612 " id="ID_16B"/>
    <path d="M 104.3647 -668.6612 L 101.3626 -668.6612 " id="ID_16C"/>
    <path d="M 104.3647 -668.6612 L 104.3647 -639.7722 " id="ID_16D"/>
    <path d="M 104.3647 -639.7722 L 101.3626 -639.7722 " id="ID_16E"/>
    <path d="M 101.3626 -639.7722 L 101.3626 -610.8868 " id="ID_16F"/>
    <path d="M 104.3647 -610.8868 L 101.3626 -610.8868 " id="ID_170"/>
    <path d="M 104.3647 -610.8868 L 104.3647 -581.9978 " id="ID_171"/>
    <path d="M 104.3647 -581.9978 L 101.3626 -581.9978 " id="ID_172"/>
    <path d="M 101.3626 -581.9978 L 101.3626 -553.1088 " id="ID_173"/>
    <path d="M 32.3627 -556.1074 L 48.8632 -556.1074 " id="ID_174"/>
    <path d="M 51.8636 -556.1074 L 68.3637 -556.1074 " id="ID_175"/>
    <path d="M 48.8632 -556.1074 L 48.8632 -560.0619 L 47.8132 -560.0619 L 47.8132 -562.1619 L 48.8632 -562.1619 L 48.8632 -566.1074 L 51.8632 -566.1074 L 51.8632 -562.1619 L 52.9132 -562.1619 L 52.9132 -560.0619 L 51.8632 -560.0619 L 51.8632 -556.1074 " id="ID_176"/>
    <path d="M -39.6357 -556.1074 L -23.1352 -556.1074 " id="ID_177"/>
    <path d="M -20.1348 -556.1074 L -3.6347 -556.1074 " id="ID_178"/>
    <path d="M -23.1352 -556.1074 L -23.1352 -560.0619 L -24.1852 -560.0619 L -24.1852 -562.1619 L -23.1352 -562.1619 L -23.1352 -566.1074 L -20.1352 -566.1074 L -20.1352 -562.1619 L -19.0852 -562.1619 L -19.0852 -560.0619 L -20.1352 -560.0619 L -20.1352 -556.1074 " id="ID_179"/>
    <path d="M -37.636 -219.2961 L 66.364 -219.2961 L 66.364 -179.2961 L -37.636 -179.2961 L -37.636 -219.2961  z" color="rgb(0,0,0)" stroke="currentColor" id="ID_17A"/>
    <path d="M -21.986 -139.2961 L 76.014 -139.2961 L 76.014 -99.2961 L -21.986 -99.2961 L -21.986 -139.2961  z" color="rgb(0,0,0)" stroke="currentColor" id="ID_17B"/>
    <path d="M -39.286 -111.2961 L -40.84672257612903 -111.4498177567742 L -42.34746745892072 -111.9050637399097 L -43.73056186415682 -112.6443431015796 L -44.94285424949238 -113.6392457505076 L -45.93775689842036 -114.8515381358432 L -46.6770362600903 -116.2346325410793 L -47.13228224322584 -117.735377423871 L -47.286 -119.2961 L -47.13228224322584 -120.856822576129 L -46.6770362600903 -122.3575674589207 L -45.93775689842037 -123.7406618641568 L -44.94285424949238 -124.9529542494924 L -43.73056186415682 -125.9478568984204 L -42.34746745892072 -126.6871362600903 L -40.84672257612903 -127.1423822432258 L -39.28599999999999 -127.2961 L -37.72527742387097 -127.1423822432258 L -36.22453254107928 -126.6871362600903 L -34.84143813584318 -125.9478568984204 L -33.62914575050761 -124.9529542494924 L -32.63424310157963 -123.7406618641568 L -31.8949637399097 -122.3575674589207 L -31.43971775677415 -120.856822576129 L -31.286 -119.2961 L -31.43971775677416 -117.7353774238709 L -31.89496373990972 -116.2346325410793 L -32.63424310157966 -114.8515381358432 L -33.62914575050764 -113.6392457505076 L -34.84143813584321 -112.6443431015796 L -36.22453254107931 -111.9050637399097 L -37.72527742387101 -111.4498177567742  z" color="rgb(0,0,0)" stroke="currentColor" id="ID_17C"/>
    <path d="M 64.3622 -683.1088 L -35.6378 -683.1088 L -35.6378 -583.1088 L 64.3622 -583.1088 L 64.3622 -683.1088  z" color="rgb(0,0,0)" stroke="currentColor" id="ID_17D"/>
    <path d="M 27.3622 -710.1088 L 1.3622 -710.1088 L 1.3622 -703.1088 L 27.3622 -703.1088 L 27.3622 -710.1088  z" color="rgb(0,0,0)" stroke="currentColor" id="ID_17E"/>
   </g>
   <g id="ID_0" color="rgb(0,0,0)" stroke="currentColor" fill="none" stroke-width="0.19084741250000004"/>
  </g>
 </svg>