  0
SECTION
  2
HEADER
  9
$ACADVER
  1
AC1006
  9
$DWGCODEPAGE
  3
ansi_1252
  9
$INSBASE
 10
0.0
 20
0.0
 30
0.0
  9
$EXTMIN
 10
-282.159
 20
-813.1442
  9
$EXTMAX
 10
310.8871
 20
120.7414
  9
$LIMMIN
 10
0.0
 20
0.0
  9
$LIMMAX
 10
12.0
 20
9.0
  9
$ORTHOMODE
 70
     0
  9
$REGENMODE
 70
     1
  9
$FILLMODE
 70
     1
  9
$QTEXTMODE
 70
     0
  9
$MIRRTEXT
 70
     1
  9
$DRAGMODE
 70
     2
  9
$LTSCALE
 40
1.0
  9
$OSMODE
 70
    37
  9
$ATTMODE
 70
     1
  9
$TEXTSIZE
 40
0.2
  9
$TRACEWID
 40
0.05
  9
$TEXTSTYLE
  7
STANDARD
  9
$CLAYER
  8
0
  9
$CELTYPE
  6
BYLAYER
  9
$CECOLOR
 62
   256
  9
$DIMSCALE
 40
1.0
  9
$DIMASZ
 40
0.18
  9
$DIMEXO
 40
0.0625
  9
$DIMDLI
 40
0.38
  9
$DIMRND
 40
0.0
  9
$DIMDLE
 40
0.0
  9
$DIMEXE
 40
0.18
  9
$DIMTP
 40
0.0
  9
$DIMTM
 40
0.0
  9
$DIMTXT
 40
0.18
  9
$DIMCEN
 40
0.09
  9
$DIMTSZ
 40
0.0
  9
$DIMTOL
 70
     0
  9
$DIMLIM
 70
     0
  9
$DIMTIH
 70
     1
  9
$DIMTOH
 70
     1
  9
$DIMSE1
 70
     0
  9
$DIMSE2
 70
     0
  9
$DIMTAD
 70
     0
  9
$DIMZIN
 70
     0
  9
$DIMBLK
  1

  9
$DIMASO
 70
     1
  9
$DIMSHO
 70
     1
  9
$DIMPOST
  1

  9
$DIMAPOST
  1

  9
$DIMALT
 70
     0
  9
$DIMALTD
 70
     2
  9
$DIMALTF
 40
25.4
  9
$DIMLFAC
 40
1.0
  9
$DIMTOFL
 70
     0
  9
$DIMTVP
 40
0.0
  9
$DIMTIX
 70
     0
  9
$DIMSOXD
 70
     0
  9
$DIMSAH
 70
     0
  9
$DIMBLK1
  1

  9
$DIMBLK2
  1

  9
$LUNITS
 70
     2
  9
$LUPREC
 70
     4
  9
$SKETCHINC
 40
0.1
  9
$FILLETRAD
 40
0.5
  9
$AUNITS
 70
     0
  9
$AUPREC
 70
     0
  9
$MENU
  1
.
  9
$ELEVATION
 40
0.0
  9
$THICKNESS
 40
0.0
  9
$LIMCHECK
 70
     0
  9
$CHAMFERA
 40
0.5
  9
$CHAMFERB
 40
0.5
  9
$SKPOLY
 70
     0
  9
$TDCREATE
 40
2456715.90646838
  9
$TDUPDATE
 40
2456715.906468391
  9
$TDINDWG
 40
0.0000000116
  9
$TDUSRTIMER
 40
0.0000000116
  9
$USRTIMER
 70
     1
  9
$ANGBASE
 50
0.0
  9
$ANGDIR
 70
     0
  9
$PDMODE
 70
     0
  9
$PDSIZE
 40
0.0
  9
$PLINEWID
 40
0.0
  9
$COORDS
 70
     1
  9
$SPLFRAME
 70
     0
  9
$SPLINETYPE
 70
     6
  9
$SPLINESEGS
 70
     8
  9
$ATTDIA
 70
     0
  9
$ATTREQ
 70
     1
  9
$HANDLING
 70
     1
  9
$HANDSEED
  5
6D7
  9
$SURFTAB1
 70
     6
  9
$SURFTAB2
 70
     6
  9
$SURFTYPE
 70
     6
  9
$SURFU
 70
     6
  9
$SURFV
 70
     6
  9
$UCSNAME
  2

  9
$UCSORG
 10
0.0
 20
0.0
 30
0.0
  9
$UCSXDIR
 10
1.0
 20
0.0
 30
0.0
  9
$UCSYDIR
 10
0.0
 20
1.0
 30
0.0
  9
$USERI1
 70
     0
  9
$USERI2
 70
     0
  9
$USERI3
 70
     0
  9
$USERI4
 70
     0
  9
$USERI5
 70
     0
  9
$USERR1
 40
0.0
  9
$USERR2
 40
0.0
  9
$USERR3
 40
0.0
  9
$USERR4
 40
0.0
  9
$USERR5
 40
0.0
  9
$WORLDVIEW
 70
     1
  0
ENDSEC
  0
SECTION
  2
TABLES
  0
TABLE
  2
VPORT
 70
     1
  0
VPORT
  2
*ACTIVE
 70
     0
 10
0.0
 20
0.0
 11
1.0
 21
1.0
 12
10.42990654205607
 22
4.5
 13
0.0
 23
0.0
 14
0.5
 24
0.5
 15
0.5
 25
0.5
 16
0.0
 26
0.0
 36
1.0
 17
0.0
 27
0.0
 37
0.0
 40
9.0
 41
1.972972972850329
 42
50.0
 43
0.0
 44
0.0
 50
0.0
 51
0.0
 71
     0
 72
   100
 73
     1
 74
     3
 75
     0
 76
     0
 77
     0
 78
     0
  0
ENDTAB
  0
TABLE
  2
LTYPE
 70
     1
  0
LTYPE
  2
CONTINUOUS
 70
     0
  3
Solid line
 72
    65
 73
     0
 40
0.0
  0
ENDTAB
  0
TABLE
  2
LAYER
 70
     2
  0
LAYER
  2
0
 70
     0
 62
     7
  6
CONTINUOUS
  0
LAYER
  2
LAYER_1
 70
     0
 62
     7
  6
CONTINUOUS
  0
ENDTAB
  0
TABLE
  2
STYLE
 70
     1
  0
STYLE
  2
STANDARD
 70
     0
 40
0.0
 41
1.0
 50
0.0
 71
     0
 42
0.2
  3
txt
  4

  0
ENDTAB
  0
TABLE
  2
VIEW
 70
     0
  0
ENDTAB
  0
TABLE
  2
UCS
 70
     0
  0
ENDTAB
  0
ENDSEC
  0
SECTION
  2
BLOCKS
  0
ENDSEC
  0
SECTION
  2
ENTITIES
  0
POLYLINE
  5
41
  8
LAYER_1
 66
     1
 10
0.0
 20
0.0
 30
0.0
  0
VERTEX
  5
184
  8
LAYER_1
 10
-72.638
 20
-525.9555
 30
0.0
  0
VERTEX
  5
185
  8
LAYER_1
 10
-39.6357
 20
-525.9555
 30
0.0
  0
SEQEND
  5
186
  8
LAYER_1
  0
POLYLINE
  5
42
  8
LAYER_1
 66
     1
 10
0.0
 20
0.0
 30
0.0
  0
VERTEX
  5
187
  8
LAYER_1
 10
-39.6357
 20
-525.9555
 30
0.0
  0
VERTEX
  5
188
  8
LAYER_1
 10
-39.6357
 20
-528.9541
 30
0.0
  0
SEQEND
  5
189
  8
LAYER_1
  0
POLYLINE
  5
43
  8
LAYER_1
 66
     1
 10
0.0
 20
0.0
 30
0.0
  0
VERTEX
  5
18A
  8
LAYER_1
 10
-3.6382
 20
-525.9555
 30
0.0
  0
VERTEX
  5
18B
  8
LAYER_1
 10
-3.6382
 20
-528.9541
 30
0.0
  0
SEQEND
  5
18C
  8
LAYER_1
  0
POLYLINE
  5
44
  8
LAYER_1
 66
     1
 10
0.0
 20
0.0
 30
0.0
  0
VERTEX
  5
18D
  8
LAYER_1
 10
-3.6382
 20
-525.9555
 30
0.0
  0
VERTEX
  5
18E
  8
LAYER_1
 10
32.3627
 20
-525.9555
 30
0.0
  0
SEQEND
  5
18F
  8
LAYER_1
  0
POLYLINE
  5
45
  8
LAYER_1
 66
     1
 10
0.0
 20
0.0
 30
0.0
  0
VERTEX
  5
190
  8
LAYER_1
 10
32.3627
 20
-525.9555
 30
0.0
  0
VERTEX
  5
191
  8
LAYER_1
 10
32.3627
 20
-528.9541
 30
0.0
  0
SEQEND
  5
192
  8
LAYER_1
  0
POLYLINE
  5
46
  8
LAYER_1
 66
     1
 10
0.0
 20
0.0
 30
0.0
  0
VERTEX
  5
193
  8
LAYER_1
 10
68.3637
 20
-525.9555
 30
0.0
  0
VERTEX
  5
194
  8
LAYER_1
 10
68.3637
 20
-528.9541
 30
0.0
  0
SEQEND
  5
195
  8
LAYER_1
  0
POLYLINE
  5
47
  8
LAYER_1
 66
     1
 10
0.0
 20
0.0
 30
0.0
  0
VERTEX
  5
196
  8
LAYER_1
 10
68.3637
 20
-525.9555
 30
0.0
  0
VERTEX
  5
197
  8
LAYER_1
 10
101.3626
 20
-525.9555
 30
0.0
  0
SEQEND
  5
198
  8
LAYER_1
  0
POLYLINE
  5
48
  8
LAYER_1
 66
     1
 10
0.0
 20
0.0
 30
0.0
  0
VERTEX
  5
199
  8
LAYER_1
 10
-72.638
 20
-351.9549
 30
0.0
  0
VERTEX
  5
19A
  8
LAYER_1
 10
-39.6357
 20
-351.9549
 30
0.0
  0
SEQEND
  5
19B
  8
LAYER_1
  0
POLYLINE
  5
49
  8
LAYER_1
 66
     1
 10
0.0
 20
0.0
 30
0.0
  0
VERTEX
  5
19C
  8
LAYER_1
 10
-39.6357
 20
-348.9527
 30
0.0
  0
VERTEX
  5
19D
  8
LAYER_1
 10
-39.6357
 20
-351.9549
 30
0.0
  0
SEQEND
  5
19E
  8
LAYER_1
  0
POLYLINE
  5
4A
  8
LAYER_1
 66
     1
 10
0.0
 20
0.0
 30
0.0
  0
VERTEX
  5
19F
  8
LAYER_1
 10
-3.6382
 20
-348.9527
 30
0.0
  0
VERTEX
  5
1A0
  8
LAYER_1
 10
-3.6382
 20
-351.9549
 30
0.0
  0
SEQEND
  5
1A1
  8
LAYER_1
  0
POLYLINE
  5
4B
  8
LAYER_1
 66
     1
 10
0.0
 20
0.0
 30
0.0
  0
VERTEX
  5
1A2
  8
LAYER_1
 10
-3.6382
 20
-351.9549
 30
0.0
  0
VERTEX
  5
1A3
  8
LAYER_1
 10
32.3627
 20
-351.9549
 30
0.0
  0
SEQEND
  5
1A4
  8
LAYER_1
  0
POLYLINE
  5
4C
  8
LAYER_1
 66
     1
 10
0.0
 20
0.0
 30
0.0
  0
VERTEX
  5
1A5
  8
LAYER_1
 10
32.3627
 20
-348.9527
 30
0.0
  0
VERTEX
  5
1A6
  8
LAYER_1
 10
32.3627
 20
-351.9549
 30
0.0
  0
SEQEND
  5
1A7
  8
LAYER_1
  0
POLYLINE
  5
4D
  8
LAYER_1
 66
     1
 10
0.0
 20
0.0
 30
0.0
  0
VERTEX
  5
1A8
  8
LAYER_1
 10
68.3637
 20
-348.9527
 30
0.0
  0
VERTEX
  5
1A9
  8
LAYER_1
 10
68.3637
 20
-351.9549
 30
0.0
  0
SEQEND
  5
1AA
  8
LAYER_1
  0
POLYLINE
  5
4E
  8
LAYER_1
 66
     1
 10
0.0
 20
0.0
 30
0.0
  0
VERTEX
  5
1AB
  8
LAYER_1
 10
68.3637
 20
-351.9549
 30
0.0
  0
VERTEX
  5
1AC
  8
LAYER_1
 10
101.3626
 20
-351.9549
 30
0.0
  0
SEQEND
  5
1AD
  8
LAYER_1
  0
POLYLINE
  5
4F
  8
LAYER_1
 66
     1
 10
0.0
 20
0.0
 30
0.0
  0
VERTEX
  5
1AE
  8
LAYER_1
 10
-72.638
 20
-525.9555
 30
0.0
  0
VERTEX
  5
1AF
  8
LAYER_1
 10
-72.638
 20
-492.9531
 30
0.0
  0
SEQEND
  5
1B0
  8
LAYER_1
  0
POLYLINE
  5
50
  8
LAYER_1
 66
     1
 10
0.0
 20
0.0
 30
0.0
  0
VERTEX
  5
1B1
  8
LAYER_1
 10
-72.638
 20
-492.9531
 30
0.0
  0
VERTEX
  5
1B2
  8
LAYER_1
 10
-75.6366
 20
-492.9531
 30
0.0
  0
SEQEND
  5
1B3
  8
LAYER_1
  0
POLYLINE
  5
51
  8
LAYER_1
 66
     1
 10
0.0
 20
0.0
 30
0.0
  0
VERTEX
  5
1B4
  8
LAYER_1
 10
-72.638
 20
-456.9521
 30
0.0
  0
VERTEX
  5
1B5
  8
LAYER_1
 10
-75.6366
 20
-456.9521
 30
0.0
  0
SEQEND
  5
1B6
  8
LAYER_1
  0
POLYLINE
  5
52
  8
LAYER_1
 66
     1
 10
0.0
 20
0.0
 30
0.0
  0
VERTEX
  5
1B7
  8
LAYER_1
 10
-72.638
 20
-456.9521
 30
0.0
  0
VERTEX
  5
1B8
  8
LAYER_1
 10
-72.638
 20
-420.9547
 30
0.0
  0
SEQEND
  5
1B9
  8
LAYER_1
  0
POLYLINE
  5
53
  8
LAYER_1
 66
     1
 10
0.0
 20
0.0
 30
0.0
  0
VERTEX
  5
1BA
  8
LAYER_1
 10
-72.638
 20
-420.9547
 30
0.0
  0
VERTEX
  5
1BB
  8
LAYER_1
 10
-75.6366
 20
-420.9547
 30
0.0
  0
SEQEND
  5
1BC
  8
LAYER_1
  0
POLYLINE
  5
54
  8
LAYER_1
 66
     1
 10
0.0
 20
0.0
 30
0.0
  0
VERTEX
  5
1BD
  8
LAYER_1
 10
-72.638
 20
-384.9537
 30
0.0
  0
VERTEX
  5
1BE
  8
LAYER_1
 10
-75.6366
 20
-384.9537
 30
0.0
  0
SEQEND
  5
1BF
  8
LAYER_1
  0
POLYLINE
  5
55
  8
LAYER_1
 66
     1
 10
0.0
 20
0.0
 30
0.0
  0
VERTEX
  5
1C0
  8
LAYER_1
 10
-72.638
 20
-384.9537
 30
0.0
  0
VERTEX
  5
1C1
  8
LAYER_1
 10
-72.638
 20
-351.9549
 30
0.0
  0
SEQEND
  5
1C2
  8
LAYER_1
  0
POLYLINE
  5
56
  8
LAYER_1
 66
     1
 10
0.0
 20
0.0
 30
0.0
  0
VERTEX
  5
1C3
  8
LAYER_1
 10
101.3626
 20
-525.9555
 30
0.0
  0
VERTEX
  5
1C4
  8
LAYER_1
 10
101.3626
 20
-492.9531
 30
0.0
  0
SEQEND
  5
1C5
  8
LAYER_1
  0
POLYLINE
  5
57
  8
LAYER_1
 66
     1
 10
0.0
 20
0.0
 30
0.0
  0
VERTEX
  5
1C6
  8
LAYER_1
 10
104.3647
 20
-492.9531
 30
0.0
  0
VERTEX
  5
1C7
  8
LAYER_1
 10
101.3626
 20
-492.9531
 30
0.0
  0
SEQEND
  5
1C8
  8
LAYER_1
  0
POLYLINE
  5
58
  8
LAYER_1
 66
     1
 10
0.0
 20
0.0
 30
0.0
  0
VERTEX
  5
1C9
  8
LAYER_1
 10
104.3647
 20
-456.9521
 30
0.0
  0
VERTEX
  5
1CA
  8
LAYER_1
 10
101.3626
 20
-456.9521
 30
0.0
  0
SEQEND
  5
1CB
  8
LAYER_1
  0
POLYLINE
  5
59
  8
LAYER_1
 66
     1
 10
0.0
 20
0.0
 30
0.0
  0
VERTEX
  5
1CC
  8
LAYER_1
 10
101.3626
 20
-456.9521
 30
0.0
  0
VERTEX
  5
1CD
  8
LAYER_1
 10
101.3626
 20
-420.9547
 30
0.0
  0
SEQEND
  5
1CE
  8
LAYER_1
  0
POLYLINE
  5
5A
  8
LAYER_1
 66
     1
 10
0.0
 20
0.0
 30
0.0
  0
VERTEX
  5
1CF
  8
LAYER_1
 10
104.3647
 20
-420.9547
 30
0.0
  0
VERTEX
  5
1D0
  8
LAYER_1
 10
101.3626
 20
-420.9547
 30
0.0
  0
SEQEND
  5
1D1
  8
LAYER_1
  0
POLYLINE
  5
5B
  8
LAYER_1
 66
     1
 10
0.0
 20
0.0
 30
0.0
  0
VERTEX
  5
1D2
  8
LAYER_1
 10
104.3647
 20
-384.9537
 30
0.0
  0
VERTEX
  5
1D3
  8
LAYER_1
 10
101.3626
 20
-384.9537
 30
0.0
  0
SEQEND
  5
1D4
  8
LAYER_1
  0
POLYLINE
  5
5C
  8
LAYER_1
 66
     1
 10
0.0
 20
0.0
 30
0.0
  0
VERTEX
  5
1D5
  8
LAYER_1
 10
101.3626
 20
-384.9537
 30
0.0
  0
VERTEX
  5
1D6
  8
LAYER_1
 10
101.3626
 20
-351.9549
 30
0.0
  0
SEQEND
  5
1D7
  8
LAYER_1
  0
POLYLINE
  5
5D
  8
LAYER_1
 66
     1
 10
0.0
 20
0.0
 30
0.0
 70
     1
  0
VERTEX
  5
1D8
  8
LAYER_1
 10
-74.0141
 20
-341.6309
 30
0.0
  0
VERTEX
  5
1D9
  8
LAYER_1
 10
102.7387
 20
-341.6309
 30
0.0
  0
VERTEX
  5
1DA
  8
LAYER_1
 10
104.5362
 20
-341.8135
 30
0.0
  0
VERTEX
  5
1DB
  8
LAYER_1
 10
106.213
 20
-342.3369
 30
0.0
  0
VERTEX
  5
1DC
  8
LAYER_1
 10
107.7326
 20
-343.1644
 30
0.0
  0
VERTEX
  5
1DD
  8
LAYER_1
 10
109.0582
 20
-344.2593
 30
0.0
  0
VERTEX
  5
1DE
  8
LAYER_1
 10
110.1531
 20
-345.5849
 30
0.0
  0
VERTEX
  5
1DF
  8
LAYER_1
 10
110.9806
 20
-347.1045
 30
0.0
  0
VERTEX
  5
1E0
  8
LAYER_1
 10
111.504
 20
-348.7813
 30
0.0
  0
VERTEX
  5
1E1
  8
LAYER_1
 10
111.6866
 20
-350.5788
 30
0.0
  0
VERTEX
  5
1E2
  8
LAYER_1
 10
111.6866
 20
-527.3316
 30
0.0
  0
VERTEX
  5
1E3
  8
LAYER_1
 10
111.504
 20
-529.1291
 30
0.0
  0
VERTEX
  5
1E4
  8
LAYER_1
 10
110.9806
 20
-530.8059
 30
0.0
  0
VERTEX
  5
1E5
  8
LAYER_1
 10
110.1531
 20
-532.3255
 30
0.0
  0
VERTEX
  5
1E6
  8
LAYER_1
 10
109.0582
 20
-533.6511
 30
0.0
  0
VERTEX
  5
1E7
  8
LAYER_1
 10
107.7326
 20
-534.746
 30
0.0
  0
VERTEX
  5
1E8
  8
LAYER_1
 10
106.213
 20
-535.5735
 30
0.0
  0
VERTEX
  5
1E9
  8
LAYER_1
 10
104.5362
 20
-536.0969
 30
0.0
  0
VERTEX
  5
1EA
  8
LAYER_1
 10
102.7387
 20
-536.2795
 30
0.0
  0
VERTEX
  5
1EB
  8
LAYER_1
 10
-74.0141
 20
-536.2795
 30
0.0
  0
VERTEX
  5
1EC
  8
LAYER_1
 10
-75.8116
 20
-536.0969
 30
0.0
  0
VERTEX
  5
1ED
  8
LAYER_1
 10
-77.4884
 20
-535.5735
 30
0.0
  0
VERTEX
  5
1EE
  8
LAYER_1
 10
-79.008
 20
-534.746
 30
0.0
  0
VERTEX
  5
1EF
  8
LAYER_1
 10
-80.3336
 20
-533.6511
 30
0.0
  0
VERTEX
  5
1F0
  8
LAYER_1
 10
-81.4285
 20
-532.3255
 30
0.0
  0
VERTEX
  5
1F1
  8
LAYER_1
 10
-82.256
 20
-530.8059
 30
0.0
  0
VERTEX
  5
1F2
  8
LAYER_1
 10
-82.7794
 20
-529.1291
 30
0.0
  0
VERTEX
  5
1F3
  8
LAYER_1
 10
-82.962
 20
-527.3316
 30
0.0
  0
VERTEX
  5
1F4
  8
LAYER_1
 10
-82.962
 20
-350.5788
 30
0.0
  0
VERTEX
  5
1F5
  8
LAYER_1
 10
-82.7794
 20
-348.7813
 30
0.0
  0
VERTEX
  5
1F6
  8
LAYER_1
 10
-82.256
 20
-347.1045
 30
0.0
  0
VERTEX
  5
1F7
  8
LAYER_1
 10
-81.4285
 20
-345.5849
 30
0.0
  0
VERTEX
  5
1F8
  8
LAYER_1
 10
-80.3336
 20
-344.2593
 30
0.0
  0
VERTEX
  5
1F9
  8
LAYER_1
 10
-79.008
 20
-343.1644
 30
0.0
  0
VERTEX
  5
1FA
  8
LAYER_1
 10
-77.4884
 20
-342.3369
 30
0.0
  0
VERTEX
  5
1FB
  8
LAYER_1
 10
-75.8116
 20
-341.8135
 30
0.0
  0
VERTEX
  5
1FC
  8
LAYER_1
 10
-74.0141
 20
-341.6309
 30
0.0
  0
SEQEND
  5
1FD
  8
LAYER_1
  0
POLYLINE
  5
5E
  8
LAYER_1
 66
     1
 10
0.0
 20
0.0
 30
0.0
  0
VERTEX
  5
1FE
  8
LAYER_1
 10
-75.6366
 20
-384.9537
 30
0.0
  0
VERTEX
  5
1FF
  8
LAYER_1
 10
-75.6366
 20
-348.9527
 30
0.0
  0
VERTEX
  5
200
  8
LAYER_1
 10
-39.6357
 20
-348.9527
 30
0.0
  0
SEQEND
  5
201
  8
LAYER_1
  0
POLYLINE
  5
5F
  8
LAYER_1
 66
     1
 10
0.0
 20
0.0
 30
0.0
  0
VERTEX
  5
202
  8
LAYER_1
 10
-3.6382
 20
-348.9527
 30
0.0
  0
VERTEX
  5
203
  8
LAYER_1
 10
32.3627
 20
-348.9527
 30
0.0
  0
SEQEND
  5
204
  8
LAYER_1
  0
POLYLINE
  5
60
  8
LAYER_1
 66
     1
 10
0.0
 20
0.0
 30
0.0
  0
VERTEX
  5
205
  8
LAYER_1
 10
-75.6366
 20
-420.9547
 30
0.0
  0
VERTEX
  5
206
  8
LAYER_1
 10
-75.6366
 20
-456.9521
 30
0.0
  0
SEQEND
  5
207
  8
LAYER_1
  0
POLYLINE
  5
61
  8
LAYER_1
 66
     1
 10
0.0
 20
0.0
 30
0.0
  0
VERTEX
  5
208
  8
LAYER_1
 10
-3.6382
 20
-528.9541
 30
0.0
  0
VERTEX
  5
209
  8
LAYER_1
 10
32.3627
 20
-528.9541
 30
0.0
  0
SEQEND
  5
20A
  8
LAYER_1
  0
POLYLINE
  5
62
  8
LAYER_1
 66
     1
 10
0.0
 20
0.0
 30
0.0
  0
VERTEX
  5
20B
  8
LAYER_1
 10
104.3647
 20
-456.9521
 30
0.0
  0
VERTEX
  5
20C
  8
LAYER_1
 10
104.3647
 20
-420.9547
 30
0.0
  0
SEQEND
  5
20D
  8
LAYER_1
  0
POLYLINE
  5
63
  8
LAYER_1
 66
     1
 10
0.0
 20
0.0
 30
0.0
  0
VERTEX
  5
20E
  8
LAYER_1
 10
68.3637
 20
-348.9527
 30
0.0
  0
VERTEX
  5
20F
  8
LAYER_1
 10
104.3647
 20
-348.9527
 30
0.0
  0
VERTEX
  5
210
  8
LAYER_1
 10
104.3647
 20
-384.9537
 30
0.0
  0
SEQEND
  5
211
  8
LAYER_1
  0
POLYLINE
  5
64
  8
LAYER_1
 66
     1
 10
0.0
 20
0.0
 30
0.0
  0
VERTEX
  5
212
  8
LAYER_1
 10
104.3647
 20
-492.9531
 30
0.0
  0
VERTEX
  5
213
  8
LAYER_1
 10
104.3647
 20
-528.9541
 30
0.0
  0
VERTEX
  5
214
  8
LAYER_1
 10
68.3637
 20
-528.9541
 30
0.0
  0
SEQEND
  5
215
  8
LAYER_1
  0
POLYLINE
  5
65
  8
LAYER_1
 66
     1
 10
0.0
 20
0.0
 30
0.0
  0
VERTEX
  5
216
  8
LAYER_1
 10
-39.6357
 20
-528.9541
 30
0.0
  0
VERTEX
  5
217
  8
LAYER_1
 10
-75.6366
 20
-528.9541
 30
0.0
  0
VERTEX
  5
218
  8
LAYER_1
 10
-75.6366
 20
-492.9531
 30
0.0
  0
SEQEND
  5
219
  8
LAYER_1
  0
POLYLINE
  5
66
  8
LAYER_1
 66
     1
 10
0.0
 20
0.0
 30
0.0
 70
     1
  0
VERTEX
  5
21A
  8
LAYER_1
 10
50.3632
 20
-525.9548
 30
0.0
  0
VERTEX
  5
21B
  8
LAYER_1
 10
50.6655
 20
-525.9853
 30
0.0
  0
VERTEX
  5
21C
  8
LAYER_1
 10
50.9471
 20
-526.0727
 30
0.0
  0
VERTEX
  5
21D
  8
LAYER_1
 10
51.2019
 20
-526.211
 30
0.0
  0
VERTEX
  5
21E
  8
LAYER_1
 10
51.4239
 20
-526.3942
 30
0.0
  0
VERTEX
  5
21F
  8
LAYER_1
 10
51.607
 20
-526.6161
 30
0.0
  0
VERTEX
  5
220
  8
LAYER_1
 10
51.7453
 20
-526.8709
 30
0.0
  0
VERTEX
  5
221
  8
LAYER_1
 10
51.8327
 20
-527.1525
 30
0.0
  0
VERTEX
  5
222
  8
LAYER_1
 10
51.8632
 20
-527.4548
 30
0.0
  0
VERTEX
  5
223
  8
LAYER_1
 10
51.8327
 20
-527.7571
 30
0.0
  0
VERTEX
  5
224
  8
LAYER_1
 10
51.7453
 20
-528.0387
 30
0.0
  0
VERTEX
  5
225
  8
LAYER_1
 10
51.607
 20
-528.2935
 30
0.0
  0
VERTEX
  5
226
  8
LAYER_1
 10
51.4239
 20
-528.5155
 30
0.0
  0
VERTEX
  5
227
  8
LAYER_1
 10
51.2019
 20
-528.6986
 30
0.0
  0
VERTEX
  5
228
  8
LAYER_1
 10
50.9471
 20
-528.8369
 30
0.0
  0
VERTEX
  5
229
  8
LAYER_1
 10
50.6655
 20
-528.9243
 30
0.0
  0
VERTEX
  5
22A
  8
LAYER_1
 10
50.3632
 20
-528.9548
 30
0.0
  0
VERTEX
  5
22B
  8
LAYER_1
 10
50.0609
 20
-528.9243
 30
0.0
  0
VERTEX
  5
22C
  8
LAYER_1
 10
49.7793
 20
-528.8369
 30
0.0
  0
VERTEX
  5
22D
  8
LAYER_1
 10
49.5245
 20
-528.6986
 30
0.0
  0
VERTEX
  5
22E
  8
LAYER_1
 10
49.3026
 20
-528.5155
 30
0.0
  0
VERTEX
  5
22F
  8
LAYER_1
 10
49.1194
 20
-528.2935
 30
0.0
  0
VERTEX
  5
230
  8
LAYER_1
 10
48.9811
 20
-528.0387
 30
0.0
  0
VERTEX
  5
231
  8
LAYER_1
 10
48.8937
 20
-527.7571
 30
0.0
  0
VERTEX
  5
232
  8
LAYER_1
 10
48.8632
 20
-527.4548
 30
0.0
  0
VERTEX
  5
233
  8
LAYER_1
 10
48.8937
 20
-527.1525
 30
0.0
  0
VERTEX
  5
234
  8
LAYER_1
 10
48.9811
 20
-526.8709
 30
0.0
  0
VERTEX
  5
235
  8
LAYER_1
 10
49.1194
 20
-526.6161
 30
0.0
  0
VERTEX
  5
236
  8
LAYER_1
 10
49.3026
 20
-526.3942
 30
0.0
  0
VERTEX
  5
237
  8
LAYER_1
 10
49.5245
 20
-526.211
 30
0.0
  0
VERTEX
  5
238
  8
LAYER_1
 10
49.7793
 20
-526.0727
 30
0.0
  0
VERTEX
  5
239
  8
LAYER_1
 10
50.0609
 20
-525.9853
 30
0.0
  0
VERTEX
  5
23A
  8
LAYER_1
 10
50.3632
 20
-525.9548
 30
0.0
  0
SEQEND
  5
23B
  8
LAYER_1
  0
POLYLINE
  5
67
  8
LAYER_1
 66
     1
 10
0.0
 20
0.0
 30
0.0
  0
VERTEX
  5
23C
  8
LAYER_1
 10
-39.6357
 20
-525.9555
 30
0.0
  0
VERTEX
  5
23D
  8
LAYER_1
 10
-39.6357
 20
-528.9541
 30
0.0
  0
SEQEND
  5
23E
  8
LAYER_1
  0
POLYLINE
  5
68
  8
LAYER_1
 66
     1
 10
0.0
 20
0.0
 30
0.0
  0
VERTEX
  5
23F
  8
LAYER_1
 10
-3.6347
 20
-525.9555
 30
0.0
  0
VERTEX
  5
240
  8
LAYER_1
 10
-3.6347
 20
-528.9541
 30
0.0
  0
SEQEND
  5
241
  8
LAYER_1
  0
POLYLINE
  5
69
  8
LAYER_1
 66
     1
 10
0.0
 20
0.0
 30
0.0
 70
     1
  0
VERTEX
  5
242
  8
LAYER_1
 10
-21.6352
 20
-525.9548
 30
0.0
  0
VERTEX
  5
243
  8
LAYER_1
 10
-21.3329
 20
-525.9853
 30
0.0
  0
VERTEX
  5
244
  8
LAYER_1
 10
-21.0513
 20
-526.0727
 30
0.0
  0
VERTEX
  5
245
  8
LAYER_1
 10
-20.7965
 20
-526.211
 30
0.0
  0
VERTEX
  5
246
  8
LAYER_1
 10
-20.5746
 20
-526.3942
 30
0.0
  0
VERTEX
  5
247
  8
LAYER_1
 10
-20.3914
 20
-526.6161
 30
0.0
  0
VERTEX
  5
248
  8
LAYER_1
 10
-20.2531
 20
-526.8709
 30
0.0
  0
VERTEX
  5
249
  8
LAYER_1
 10
-20.1657
 20
-527.1525
 30
0.0
  0
VERTEX
  5
24A
  8
LAYER_1
 10
-20.1352
 20
-527.4548
 30
0.0
  0
VERTEX
  5
24B
  8
LAYER_1
 10
-20.1657
 20
-527.7571
 30
0.0
  0
VERTEX
  5
24C
  8
LAYER_1
 10
-20.2531
 20
-528.0387
 30
0.0
  0
VERTEX
  5
24D
  8
LAYER_1
 10
-20.3914
 20
-528.2935
 30
0.0
  0
VERTEX
  5
24E
  8
LAYER_1
 10
-20.5746
 20
-528.5155
 30
0.0
  0
VERTEX
  5
24F
  8
LAYER_1
 10
-20.7965
 20
-528.6986
 30
0.0
  0
VERTEX
  5
250
  8
LAYER_1
 10
-21.0513
 20
-528.8369
 30
0.0
  0
VERTEX
  5
251
  8
LAYER_1
 10
-21.3329
 20
-528.9243
 30
0.0
  0
VERTEX
  5
252
  8
LAYER_1
 10
-21.6352
 20
-528.9548
 30
0.0
  0
VERTEX
  5
253
  8
LAYER_1
 10
-21.9375
 20
-528.9243
 30
0.0
  0
VERTEX
  5
254
  8
LAYER_1
 10
-22.2191
 20
-528.8369
 30
0.0
  0
VERTEX
  5
255
  8
LAYER_1
 10
-22.4739
 20
-528.6986
 30
0.0
  0
VERTEX
  5
256
  8
LAYER_1
 10
-22.6959
 20
-528.5155
 30
0.0
  0
VERTEX
  5
257
  8
LAYER_1
 10
-22.879
 20
-528.2935
 30
0.0
  0
VERTEX
  5
258
  8
LAYER_1
 10
-23.0173
 20
-528.0387
 30
0.0
  0
VERTEX
  5
259
  8
LAYER_1
 10
-23.1047
 20
-527.7571
 30
0.0
  0
VERTEX
  5
25A
  8
LAYER_1
 10
-23.1352
 20
-527.4548
 30
0.0
  0
VERTEX
  5
25B
  8
LAYER_1
 10
-23.1047
 20
-527.1525
 30
0.0
  0
VERTEX
  5
25C
  8
LAYER_1
 10
-23.0173
 20
-526.8709
 30
0.0
  0
VERTEX
  5
25D
  8
LAYER_1
 10
-22.879
 20
-526.6161
 30
0.0
  0
VERTEX
  5
25E
  8
LAYER_1
 10
-22.6959
 20
-526.3942
 30
0.0
  0
VERTEX
  5
25F
  8
LAYER_1
 10
-22.4739
 20
-526.211
 30
0.0
  0
VERTEX
  5
260
  8
LAYER_1
 10
-22.2191
 20
-526.0727
 30
0.0
  0
VERTEX
  5
261
  8
LAYER_1
 10
-21.9375
 20
-525.9853
 30
0.0
  0
VERTEX
  5
262
  8
LAYER_1
 10
-21.6352
 20
-525.9548
 30
0.0
  0
SEQEND
  5
263
  8
LAYER_1
  0
POLYLINE
  5
6A
  8
LAYER_1
 66
     1
 10
0.0
 20
0.0
 30
0.0
  0
VERTEX
  5
264
  8
LAYER_1
 10
32.3627
 20
-348.9527
 30
0.0
  0
VERTEX
  5
265
  8
LAYER_1
 10
32.3627
 20
-351.9513
 30
0.0
  0
SEQEND
  5
266
  8
LAYER_1
  0
POLYLINE
  5
6B
  8
LAYER_1
 66
     1
 10
0.0
 20
0.0
 30
0.0
  0
VERTEX
  5
267
  8
LAYER_1
 10
68.3637
 20
-348.9527
 30
0.0
  0
VERTEX
  5
268
  8
LAYER_1
 10
68.3637
 20
-351.9513
 30
0.0
  0
SEQEND
  5
269
  8
LAYER_1
  0
POLYLINE
  5
6C
  8
LAYER_1
 66
     1
 10
0.0
 20
0.0
 30
0.0
 70
     1
  0
VERTEX
  5
26A
  8
LAYER_1
 10
50.3632
 20
-348.952
 30
0.0
  0
VERTEX
  5
26B
  8
LAYER_1
 10
50.6655
 20
-348.9825
 30
0.0
  0
VERTEX
  5
26C
  8
LAYER_1
 10
50.9471
 20
-349.0699
 30
0.0
  0
VERTEX
  5
26D
  8
LAYER_1
 10
51.2019
 20
-349.2082
 30
0.0
  0
VERTEX
  5
26E
  8
LAYER_1
 10
51.4239
 20
-349.3914
 30
0.0
  0
VERTEX
  5
26F
  8
LAYER_1
 10
51.607
 20
-349.6133
 30
0.0
  0
VERTEX
  5
270
  8
LAYER_1
 10
51.7453
 20
-349.8681
 30
0.0
  0
VERTEX
  5
271
  8
LAYER_1
 10
51.8327
 20
-350.1497
 30
0.0
  0
VERTEX
  5
272
  8
LAYER_1
 10
51.8632
 20
-350.452
 30
0.0
  0
VERTEX
  5
273
  8
LAYER_1
 10
51.8327
 20
-350.7543
 30
0.0
  0
VERTEX
  5
274
  8
LAYER_1
 10
51.7453
 20
-351.0359
 30
0.0
  0
VERTEX
  5
275
  8
LAYER_1
 10
51.607
 20
-351.2907
 30
0.0
  0
VERTEX
  5
276
  8
LAYER_1
 10
51.4239
 20
-351.5127
 30
0.0
  0
VERTEX
  5
277
  8
LAYER_1
 10
51.2019
 20
-351.6958
 30
0.0
  0
VERTEX
  5
278
  8
LAYER_1
 10
50.9471
 20
-351.8341
 30
0.0
  0
VERTEX
  5
279
  8
LAYER_1
 10
50.6655
 20
-351.9215
 30
0.0
  0
VERTEX
  5
27A
  8
LAYER_1
 10
50.3632
 20
-351.952
 30
0.0
  0
VERTEX
  5
27B
  8
LAYER_1
 10
50.0609
 20
-351.9215
 30
0.0
  0
VERTEX
  5
27C
  8
LAYER_1
 10
49.7793
 20
-351.8341
 30
0.0
  0
VERTEX
  5
27D
  8
LAYER_1
 10
49.5245
 20
-351.6958
 30
0.0
  0
VERTEX
  5
27E
  8
LAYER_1
 10
49.3026
 20
-351.5127
 30
0.0
  0
VERTEX
  5
27F
  8
LAYER_1
 10
49.1194
 20
-351.2907
 30
0.0
  0
VERTEX
  5
280
  8
LAYER_1
 10
48.9811
 20
-351.0359
 30
0.0
  0
VERTEX
  5
281
  8
LAYER_1
 10
48.8937
 20
-350.7543
 30
0.0
  0
VERTEX
  5
282
  8
LAYER_1
 10
48.8632
 20
-350.452
 30
0.0
  0
VERTEX
  5
283
  8
LAYER_1
 10
48.8937
 20
-350.1497
 30
0.0
  0
VERTEX
  5
284
  8
LAYER_1
 10
48.9811
 20
-349.8681
 30
0.0
  0
VERTEX
  5
285
  8
LAYER_1
 10
49.1194
 20
-349.6133
 30
0.0
  0
VERTEX
  5
286
  8
LAYER_1
 10
49.3026
 20
-349.3914
 30
0.0
  0
VERTEX
  5
287
  8
LAYER_1
 10
49.5245
 20
-349.2082
 30
0.0
  0
VERTEX
  5
288
  8
LAYER_1
 10
49.7793
 20
-349.0699
 30
0.0
  0
VERTEX
  5
289
  8
LAYER_1
 10
50.0609
 20
-348.9825
 30
0.0
  0
VERTEX
  5
28A
  8
LAYER_1
 10
50.3632
 20
-348.952
 30
0.0
  0
SEQEND
  5
28B
  8
LAYER_1
  0
POLYLINE
  5
6D
  8
LAYER_1
 66
     1
 10
0.0
 20
0.0
 30
0.0
  0
VERTEX
  5
28C
  8
LAYER_1
 10
-39.6392
 20
-348.9527
 30
0.0
  0
VERTEX
  5
28D
  8
LAYER_1
 10
-39.6392
 20
-351.9513
 30
0.0
  0
SEQEND
  5
28E
  8
LAYER_1
  0
POLYLINE
  5
6E
  8
LAYER_1
 66
     1
 10
0.0
 20
0.0
 30
0.0
  0
VERTEX
  5
28F
  8
LAYER_1
 10
-3.6382
 20
-348.9527
 30
0.0
  0
VERTEX
  5
290
  8
LAYER_1
 10
-3.6382
 20
-351.9513
 30
0.0
  0
SEQEND
  5
291
  8
LAYER_1
  0
POLYLINE
  5
6F
  8
LAYER_1
 66
     1
 10
0.0
 20
0.0
 30
0.0
 70
     1
  0
VERTEX
  5
292
  8
LAYER_1
 10
-21.6387
 20
-348.952
 30
0.0
  0
VERTEX
  5
293
  8
LAYER_1
 10
-21.3364
 20
-348.9825
 30
0.0
  0
VERTEX
  5
294
  8
LAYER_1
 10
-21.0548
 20
-349.0699
 30
0.0
  0
VERTEX
  5
295
  8
LAYER_1
 10
-20.8
 20
-349.2082
 30
0.0
  0
VERTEX
  5
296
  8
LAYER_1
 10
-20.5781
 20
-349.3914
 30
0.0
  0
VERTEX
  5
297
  8
LAYER_1
 10
-20.3949
 20
-349.6133
 30
0.0
  0
VERTEX
  5
298
  8
LAYER_1
 10
-20.2566
 20
-349.8681
 30
0.0
  0
VERTEX
  5
299
  8
LAYER_1
 10
-20.1692
 20
-350.1497
 30
0.0
  0
VERTEX
  5
29A
  8
LAYER_1
 10
-20.1387
 20
-350.452
 30
0.0
  0
VERTEX
  5
29B
  8
LAYER_1
 10
-20.1692
 20
-350.7543
 30
0.0
  0
VERTEX
  5
29C
  8
LAYER_1
 10
-20.2566
 20
-351.0359
 30
0.0
  0
VERTEX
  5
29D
  8
LAYER_1
 10
-20.3949
 20
-351.2907
 30
0.0
  0
VERTEX
  5
29E
  8
LAYER_1
 10
-20.5781
 20
-351.5127
 30
0.0
  0
VERTEX
  5
29F
  8
LAYER_1
 10
-20.8
 20
-351.6958
 30
0.0
  0
VERTEX
  5
2A0
  8
LAYER_1
 10
-21.0548
 20
-351.8341
 30
0.0
  0
VERTEX
  5
2A1
  8
LAYER_1
 10
-21.3364
 20
-351.9215
 30
0.0
  0
VERTEX
  5
2A2
  8
LAYER_1
 10
-21.6387
 20
-351.952
 30
0.0
  0
VERTEX
  5
2A3
  8
LAYER_1
 10
-21.941
 20
-351.9215
 30
0.0
  0
VERTEX
  5
2A4
  8
LAYER_1
 10
-22.2226
 20
-351.8341
 30
0.0
  0
VERTEX
  5
2A5
  8
LAYER_1
 10
-22.4774
 20
-351.6958
 30
0.0
  0
VERTEX
  5
2A6
  8
LAYER_1
 10
-22.6994
 20
-351.5127
 30
0.0
  0
VERTEX
  5
2A7
  8
LAYER_1
 10
-22.8825
 20
-351.2907
 30
0.0
  0
VERTEX
  5
2A8
  8
LAYER_1
 10
-23.0208
 20
-351.0359
 30
0.0
  0
VERTEX
  5
2A9
  8
LAYER_1
 10
-23.1082
 20
-350.7543
 30
0.0
  0
VERTEX
  5
2AA
  8
LAYER_1
 10
-23.1387
 20
-350.452
 30
0.0
  0
VERTEX
  5
2AB
  8
LAYER_1
 10
-23.1082
 20
-350.1497
 30
0.0
  0
VERTEX
  5
2AC
  8
LAYER_1
 10
-23.0208
 20
-349.8681
 30
0.0
  0
VERTEX
  5
2AD
  8
LAYER_1
 10
-22.8825
 20
-349.6133
 30
0.0
  0
VERTEX
  5
2AE
  8
LAYER_1
 10
-22.6994
 20
-349.3914
 30
0.0
  0
VERTEX
  5
2AF
  8
LAYER_1
 10
-22.4774
 20
-349.2082
 30
0.0
  0
VERTEX
  5
2B0
  8
LAYER_1
 10
-22.2226
 20
-349.0699
 30
0.0
  0
VERTEX
  5
2B1
  8
LAYER_1
 10
-21.941
 20
-348.9825
 30
0.0
  0
VERTEX
  5
2B2
  8
LAYER_1
 10
-21.6387
 20
-348.952
 30
0.0
  0
SEQEND
  5
2B3
  8
LAYER_1
  0
POLYLINE
  5
70
  8
LAYER_1
 66
     1
 10
0.0
 20
0.0
 30
0.0
  0
VERTEX
  5
2B4
  8
LAYER_1
 10
-75.6366
 20
-420.9547
 30
0.0
  0
VERTEX
  5
2B5
  8
LAYER_1
 10
-72.638
 20
-420.9547
 30
0.0
  0
SEQEND
  5
2B6
  8
LAYER_1
  0
POLYLINE
  5
71
  8
LAYER_1
 66
     1
 10
0.0
 20
0.0
 30
0.0
  0
VERTEX
  5
2B7
  8
LAYER_1
 10
-75.6366
 20
-384.9537
 30
0.0
  0
VERTEX
  5
2B8
  8
LAYER_1
 10
-72.638
 20
-384.9537
 30
0.0
  0
SEQEND
  5
2B9
  8
LAYER_1
  0
POLYLINE
  5
72
  8
LAYER_1
 66
     1
 10
0.0
 20
0.0
 30
0.0
 70
     1
  0
VERTEX
  5
2BA
  8
LAYER_1
 10
-75.6373
 20
-402.9542
 30
0.0
  0
VERTEX
  5
2BB
  8
LAYER_1
 10
-75.6068
 20
-402.6519
 30
0.0
  0
VERTEX
  5
2BC
  8
LAYER_1
 10
-75.5194
 20
-402.3703
 30
0.0
  0
VERTEX
  5
2BD
  8
LAYER_1
 10
-75.3811
 20
-402.1155
 30
0.0
  0
VERTEX
  5
2BE
  8
LAYER_1
 10
-75.198
 20
-401.8936
 30
0.0
  0
VERTEX
  5
2BF
  8
LAYER_1
 10
-74.976
 20
-401.7104
 30
0.0
  0
VERTEX
  5
2C0
  8
LAYER_1
 10
-74.7212
 20
-401.5721
 30
0.0
  0
VERTEX
  5
2C1
  8
LAYER_1
 10
-74.4396
 20
-401.4847
 30
0.0
  0
VERTEX
  5
2C2
  8
LAYER_1
 10
-74.1373
 20
-401.4542
 30
0.0
  0
VERTEX
  5
2C3
  8
LAYER_1
 10
-73.835
 20
-401.4847
 30
0.0
  0
VERTEX
  5
2C4
  8
LAYER_1
 10
-73.5534
 20
-401.5721
 30
0.0
  0
VERTEX
  5
2C5
  8
LAYER_1
 10
-73.2986
 20
-401.7104
 30
0.0
  0
VERTEX
  5
2C6
  8
LAYER_1
 10
-73.0767
 20
-401.8936
 30
0.0
  0
VERTEX
  5
2C7
  8
LAYER_1
 10
-72.8935
 20
-402.1155
 30
0.0
  0
VERTEX
  5
2C8
  8
LAYER_1
 10
-72.7552
 20
-402.3703
 30
0.0
  0
VERTEX
  5
2C9
  8
LAYER_1
 10
-72.6678
 20
-402.6519
 30
0.0
  0
VERTEX
  5
2CA
  8
LAYER_1
 10
-72.6373
 20
-402.9542
 30
0.0
  0
VERTEX
  5
2CB
  8
LAYER_1
 10
-72.6678
 20
-403.2565
 30
0.0
  0
VERTEX
  5
2CC
  8
LAYER_1
 10
-72.7552
 20
-403.5381
 30
0.0
  0
VERTEX
  5
2CD
  8
LAYER_1
 10
-72.8935
 20
-403.7929
 30
0.0
  0
VERTEX
  5
2CE
  8
LAYER_1
 10
-73.0767
 20
-404.0149
 30
0.0
  0
VERTEX
  5
2CF
  8
LAYER_1
 10
-73.2986
 20
-404.198
 30
0.0
  0
VERTEX
  5
2D0
  8
LAYER_1
 10
-73.5534
 20
-404.3363
 30
0.0
  0
VERTEX
  5
2D1
  8
LAYER_1
 10
-73.835
 20
-404.4237
 30
0.0
  0
VERTEX
  5
2D2
  8
LAYER_1
 10
-74.1373
 20
-404.4542
 30
0.0
  0
VERTEX
  5
2D3
  8
LAYER_1
 10
-74.4396
 20
-404.4237
 30
0.0
  0
VERTEX
  5
2D4
  8
LAYER_1
 10
-74.7212
 20
-404.3363
 30
0.0
  0
VERTEX
  5
2D5
  8
LAYER_1
 10
-74.976
 20
-404.198
 30
0.0
  0
VERTEX
  5
2D6
  8
LAYER_1
 10
-75.198
 20
-404.0149
 30
0.0
  0
VERTEX
  5
2D7
  8
LAYER_1
 10
-75.3811
 20
-403.7929
 30
0.0
  0
VERTEX
  5
2D8
  8
LAYER_1
 10
-75.5194
 20
-403.5381
 30
0.0
  0
VERTEX
  5
2D9
  8
LAYER_1
 10
-75.6068
 20
-403.2565
 30
0.0
  0
VERTEX
  5
2DA
  8
LAYER_1
 10
-75.6373
 20
-402.9542
 30
0.0
  0
SEQEND
  5
2DB
  8
LAYER_1
  0
POLYLINE
  5
73
  8
LAYER_1
 66
     1
 10
0.0
 20
0.0
 30
0.0
 70
     1
  0
VERTEX
  5
2DC
  8
LAYER_1
 10
-75.6373
 20
-474.9526
 30
0.0
  0
VERTEX
  5
2DD
  8
LAYER_1
 10
-75.6068
 20
-474.6503
 30
0.0
  0
VERTEX
  5
2DE
  8
LAYER_1
 10
-75.5194
 20
-474.3687
 30
0.0
  0
VERTEX
  5
2DF
  8
LAYER_1
 10
-75.3811
 20
-474.1139
 30
0.0
  0
VERTEX
  5
2E0
  8
LAYER_1
 10
-75.198
 20
-473.892
 30
0.0
  0
VERTEX
  5
2E1
  8
LAYER_1
 10
-74.976
 20
-473.7088
 30
0.0
  0
VERTEX
  5
2E2
  8
LAYER_1
 10
-74.7212
 20
-473.5705
 30
0.0
  0
VERTEX
  5
2E3
  8
LAYER_1
 10
-74.4396
 20
-473.4831
 30
0.0
  0
VERTEX
  5
2E4
  8
LAYER_1
 10
-74.1373
 20
-473.4526
 30
0.0
  0
VERTEX
  5
2E5
  8
LAYER_1
 10
-73.835
 20
-473.4831
 30
0.0
  0
VERTEX
  5
2E6
  8
LAYER_1
 10
-73.5534
 20
-473.5705
 30
0.0
  0
VERTEX
  5
2E7
  8
LAYER_1
 10
-73.2986
 20
-473.7088
 30
0.0
  0
VERTEX
  5
2E8
  8
LAYER_1
 10
-73.0767
 20
-473.892
 30
0.0
  0
VERTEX
  5
2E9
  8
LAYER_1
 10
-72.8935
 20
-474.1139
 30
0.0
  0
VERTEX
  5
2EA
  8
LAYER_1
 10
-72.7552
 20
-474.3687
 30
0.0
  0
VERTEX
  5
2EB
  8
LAYER_1
 10
-72.6678
 20
-474.6503
 30
0.0
  0
VERTEX
  5
2EC
  8
LAYER_1
 10
-72.6373
 20
-474.9526
 30
0.0
  0
VERTEX
  5
2ED
  8
LAYER_1
 10
-72.6678
 20
-475.2549
 30
0.0
  0
VERTEX
  5
2EE
  8
LAYER_1
 10
-72.7552
 20
-475.5365
 30
0.0
  0
VERTEX
  5
2EF
  8
LAYER_1
 10
-72.8935
 20
-475.7913
 30
0.0
  0
VERTEX
  5
2F0
  8
LAYER_1
 10
-73.0767
 20
-476.0133
 30
0.0
  0
VERTEX
  5
2F1
  8
LAYER_1
 10
-73.2986
 20
-476.1964
 30
0.0
  0
VERTEX
  5
2F2
  8
LAYER_1
 10
-73.5534
 20
-476.3347
 30
0.0
  0
VERTEX
  5
2F3
  8
LAYER_1
 10
-73.835
 20
-476.4221
 30
0.0
  0
VERTEX
  5
2F4
  8
LAYER_1
 10
-74.1373
 20
-476.4526
 30
0.0
  0
VERTEX
  5
2F5
  8
LAYER_1
 10
-74.4396
 20
-476.4221
 30
0.0
  0
VERTEX
  5
2F6
  8
LAYER_1
 10
-74.7212
 20
-476.3347
 30
0.0
  0
VERTEX
  5
2F7
  8
LAYER_1
 10
-74.976
 20
-476.1964
 30
0.0
  0
VERTEX
  5
2F8
  8
LAYER_1
 10
-75.198
 20
-476.0133
 30
0.0
  0
VERTEX
  5
2F9
  8
LAYER_1
 10
-75.3811
 20
-475.7913
 30
0.0
  0
VERTEX
  5
2FA
  8
LAYER_1
 10
-75.5194
 20
-475.5365
 30
0.0
  0
VERTEX
  5
2FB
  8
LAYER_1
 10
-75.6068
 20
-475.2549
 30
0.0
  0
VERTEX
  5
2FC
  8
LAYER_1
 10
-75.6373
 20
-474.9526
 30
0.0
  0
SEQEND
  5
2FD
  8
LAYER_1
  0
POLYLINE
  5
74
  8
LAYER_1
 66
     1
 10
0.0
 20
0.0
 30
0.0
 70
     1
  0
VERTEX
  5
2FE
  8
LAYER_1
 10
101.3619
 20
-402.9542
 30
0.0
  0
VERTEX
  5
2FF
  8
LAYER_1
 10
101.3924
 20
-402.6519
 30
0.0
  0
VERTEX
  5
300
  8
LAYER_1
 10
101.4798
 20
-402.3703
 30
0.0
  0
VERTEX
  5
301
  8
LAYER_1
 10
101.6181
 20
-402.1155
 30
0.0
  0
VERTEX
  5
302
  8
LAYER_1
 10
101.8013
 20
-401.8936
 30
0.0
  0
VERTEX
  5
303
  8
LAYER_1
 10
102.0232
 20
-401.7104
 30
0.0
  0
VERTEX
  5
304
  8
LAYER_1
 10
102.278
 20
-401.5721
 30
0.0
  0
VERTEX
  5
305
  8
LAYER_1
 10
102.5596
 20
-401.4847
 30
0.0
  0
VERTEX
  5
306
  8
LAYER_1
 10
102.8619
 20
-401.4542
 30
0.0
  0
VERTEX
  5
307
  8
LAYER_1
 10
103.1642
 20
-401.4847
 30
0.0
  0
VERTEX
  5
308
  8
LAYER_1
 10
103.4458
 20
-401.5721
 30
0.0
  0
VERTEX
  5
309
  8
LAYER_1
 10
103.7006
 20
-401.7104
 30
0.0
  0
VERTEX
  5
30A
  8
LAYER_1
 10
103.9226
 20
-401.8936
 30
0.0
  0
VERTEX
  5
30B
  8
LAYER_1
 10
104.1057
 20
-402.1155
 30
0.0
  0
VERTEX
  5
30C
  8
LAYER_1
 10
104.244
 20
-402.3703
 30
0.0
  0
VERTEX
  5
30D
  8
LAYER_1
 10
104.3314
 20
-402.6519
 30
0.0
  0
VERTEX
  5
30E
  8
LAYER_1
 10
104.3619
 20
-402.9542
 30
0.0
  0
VERTEX
  5
30F
  8
LAYER_1
 10
104.3314
 20
-403.2565
 30
0.0
  0
VERTEX
  5
310
  8
LAYER_1
 10
104.244
 20
-403.5381
 30
0.0
  0
VERTEX
  5
311
  8
LAYER_1
 10
104.1057
 20
-403.7929
 30
0.0
  0
VERTEX
  5
312
  8
LAYER_1
 10
103.9226
 20
-404.0149
 30
0.0
  0
VERTEX
  5
313
  8
LAYER_1
 10
103.7006
 20
-404.198
 30
0.0
  0
VERTEX
  5
314
  8
LAYER_1
 10
103.4458
 20
-404.3363
 30
0.0
  0
VERTEX
  5
315
  8
LAYER_1
 10
103.1642
 20
-404.4237
 30
0.0
  0
VERTEX
  5
316
  8
LAYER_1
 10
102.8619
 20
-404.4542
 30
0.0
  0
VERTEX
  5
317
  8
LAYER_1
 10
102.5596
 20
-404.4237
 30
0.0
  0
VERTEX
  5
318
  8
LAYER_1
 10
102.278
 20
-404.3363
 30
0.0
  0
VERTEX
  5
319
  8
LAYER_1
 10
102.0232
 20
-404.198
 30
0.0
  0
VERTEX
  5
31A
  8
LAYER_1
 10
101.8013
 20
-404.0149
 30
0.0
  0
VERTEX
  5
31B
  8
LAYER_1
 10
101.6181
 20
-403.7929
 30
0.0
  0
VERTEX
  5
31C
  8
LAYER_1
 10
101.4798
 20
-403.5381
 30
0.0
  0
VERTEX
  5
31D
  8
LAYER_1
 10
101.3924
 20
-403.2565
 30
0.0
  0
VERTEX
  5
31E
  8
LAYER_1
 10
101.3619
 20
-402.9542
 30
0.0
  0
SEQEND
  5
31F
  8
LAYER_1
  0
POLYLINE
  5
75
  8
LAYER_1
 66
     1
 10
0.0
 20
0.0
 30
0.0
 70
     1
  0
VERTEX
  5
320
  8
LAYER_1
 10
101.3619
 20
-474.9526
 30
0.0
  0
VERTEX
  5
321
  8
LAYER_1
 10
101.3924
 20
-474.6503
 30
0.0
  0
VERTEX
  5
322
  8
LAYER_1
 10
101.4798
 20
-474.3687
 30
0.0
  0
VERTEX
  5
323
  8
LAYER_1
 10
101.6181
 20
-474.1139
 30
0.0
  0
VERTEX
  5
324
  8
LAYER_1
 10
101.8013
 20
-473.892
 30
0.0
  0
VERTEX
  5
325
  8
LAYER_1
 10
102.0232
 20
-473.7088
 30
0.0
  0
VERTEX
  5
326
  8
LAYER_1
 10
102.278
 20
-473.5705
 30
0.0
  0
VERTEX
  5
327
  8
LAYER_1
 10
102.5596
 20
-473.4831
 30
0.0
  0
VERTEX
  5
328
  8
LAYER_1
 10
102.8619
 20
-473.4526
 30
0.0
  0
VERTEX
  5
329
  8
LAYER_1
 10
103.1642
 20
-473.4831
 30
0.0
  0
VERTEX
  5
32A
  8
LAYER_1
 10
103.4458
 20
-473.5705
 30
0.0
  0
VERTEX
  5
32B
  8
LAYER_1
 10
103.7006
 20
-473.7088
 30
0.0
  0
VERTEX
  5
32C
  8
LAYER_1
 10
103.9226
 20
-473.892
 30
0.0
  0
VERTEX
  5
32D
  8
LAYER_1
 10
104.1057
 20
-474.1139
 30
0.0
  0
VERTEX
  5
32E
  8
LAYER_1
 10
104.244
 20
-474.3687
 30
0.0
  0
VERTEX
  5
32F
  8
LAYER_1
 10
104.3314
 20
-474.6503
 30
0.0
  0
VERTEX
  5
330
  8
LAYER_1
 10
104.3619
 20
-474.9526
 30
0.0
  0
VERTEX
  5
331
  8
LAYER_1
 10
104.3314
 20
-475.2549
 30
0.0
  0
VERTEX
  5
332
  8
LAYER_1
 10
104.244
 20
-475.5365
 30
0.0
  0
VERTEX
  5
333
  8
LAYER_1
 10
104.1057
 20
-475.7913
 30
0.0
  0
VERTEX
  5
334
  8
LAYER_1
 10
103.9226
 20
-476.0133
 30
0.0
  0
VERTEX
  5
335
  8
LAYER_1
 10
103.7006
 20
-476.1964
 30
0.0
  0
VERTEX
  5
336
  8
LAYER_1
 10
103.4458
 20
-476.3347
 30
0.0
  0
VERTEX
  5
337
  8
LAYER_1
 10
103.1642
 20
-476.4221
 30
0.0
  0
VERTEX
  5
338
  8
LAYER_1
 10
102.8619
 20
-476.4526
 30
0.0
  0
VERTEX
  5
339
  8
LAYER_1
 10
102.5596
 20
-476.4221
 30
0.0
  0
VERTEX
  5
33A
  8
LAYER_1
 10
102.278
 20
-476.3347
 30
0.0
  0
VERTEX
  5
33B
  8
LAYER_1
 10
102.0232
 20
-476.1964
 30
0.0
  0
VERTEX
  5
33C
  8
LAYER_1
 10
101.8013
 20
-476.0133
 30
0.0
  0
VERTEX
  5
33D
  8
LAYER_1
 10
101.6181
 20
-475.7913
 30
0.0
  0
VERTEX
  5
33E
  8
LAYER_1
 10
101.4798
 20
-475.5365
 30
0.0
  0
VERTEX
  5
33F
  8
LAYER_1
 10
101.3924
 20
-475.2549
 30
0.0
  0
VERTEX
  5
340
  8
LAYER_1
 10
101.3619
 20
-474.9526
 30
0.0
  0
SEQEND
  5
341
  8
LAYER_1
  0
POLYLINE
  5
76
  8
LAYER_1
 66
     1
 10
0.0
 20
0.0
 30
0.0
  0
VERTEX
  5
342
  8
LAYER_1
 10
-72.638
 20
-56.2959
 30
0.0
  0
VERTEX
  5
343
  8
LAYER_1
 10
-39.6357
 20
-56.2959
 30
0.0
  0
SEQEND
  5
344
  8
LAYER_1
  0
POLYLINE
  5
77
  8
LAYER_1
 66
     1
 10
0.0
 20
0.0
 30
0.0
  0
VERTEX
  5
345
  8
LAYER_1
 10
-39.6357
 20
-56.2959
 30
0.0
  0
VERTEX
  5
346
  8
LAYER_1
 10
-39.6357
 20
-59.2945
 30
0.0
  0
SEQEND
  5
347
  8
LAYER_1
  0
POLYLINE
  5
78
  8
LAYER_1
 66
     1
 10
0.0
 20
0.0
 30
0.0
  0
VERTEX
  5
348
  8
LAYER_1
 10
-39.6357
 20
-59.2945
 30
0.0
  0
VERTEX
  5
349
  8
LAYER_1
 10
-3.6382
 20
-59.2945
 30
0.0
  0
SEQEND
  5
34A
  8
LAYER_1
  0
POLYLINE
  5
79
  8
LAYER_1
 66
     1
 10
0.0
 20
0.0
 30
0.0
  0
VERTEX
  5
34B
  8
LAYER_1
 10
-3.6382
 20
-56.2959
 30
0.0
  0
VERTEX
  5
34C
  8
LAYER_1
 10
-3.6382
 20
-59.2945
 30
0.0
  0
SEQEND
  5
34D
  8
LAYER_1
  0
POLYLINE
  5
7A
  8
LAYER_1
 66
     1
 10
0.0
 20
0.0
 30
0.0
  0
VERTEX
  5
34E
  8
LAYER_1
 10
-3.6382
 20
-56.2959
 30
0.0
  0
VERTEX
  5
34F
  8
LAYER_1
 10
32.3627
 20
-56.2959
 30
0.0
  0
SEQEND
  5
350
  8
LAYER_1
  0
POLYLINE
  5
7B
  8
LAYER_1
 66
     1
 10
0.0
 20
0.0
 30
0.0
  0
VERTEX
  5
351
  8
LAYER_1
 10
32.3627
 20
-56.2959
 30
0.0
  0
VERTEX
  5
352
  8
LAYER_1
 10
32.3627
 20
-59.2945
 30
0.0
  0
SEQEND
  5
353
  8
LAYER_1
  0
POLYLINE
  5
7C
  8
LAYER_1
 66
     1
 10
0.0
 20
0.0
 30
0.0
  0
VERTEX
  5
354
  8
LAYER_1
 10
32.3627
 20
-59.2945
 30
0.0
  0
VERTEX
  5
355
  8
LAYER_1
 10
68.3637
 20
-59.2945
 30
0.0
  0
SEQEND
  5
356
  8
LAYER_1
  0
POLYLINE
  5
7D
  8
LAYER_1
 66
     1
 10
0.0
 20
0.0
 30
0.0
  0
VERTEX
  5
357
  8
LAYER_1
 10
68.3637
 20
-56.2959
 30
0.0
  0
VERTEX
  5
358
  8
LAYER_1
 10
68.3637
 20
-59.2945
 30
0.0
  0
SEQEND
  5
359
  8
LAYER_1
  0
POLYLINE
  5
7E
  8
LAYER_1
 66
     1
 10
0.0
 20
0.0
 30
0.0
  0
VERTEX
  5
35A
  8
LAYER_1
 10
68.3637
 20
-56.2959
 30
0.0
  0
VERTEX
  5
35B
  8
LAYER_1
 10
101.3626
 20
-56.2959
 30
0.0
  0
SEQEND
  5
35C
  8
LAYER_1
  0
POLYLINE
  5
7F
  8
LAYER_1
 66
     1
 10
0.0
 20
0.0
 30
0.0
  0
VERTEX
  5
35D
  8
LAYER_1
 10
-72.638
 20
117.7047
 30
0.0
  0
VERTEX
  5
35E
  8
LAYER_1
 10
-39.6357
 20
117.7047
 30
0.0
  0
SEQEND
  5
35F
  8
LAYER_1
  0
POLYLINE
  5
80
  8
LAYER_1
 66
     1
 10
0.0
 20
0.0
 30
0.0
  0
VERTEX
  5
360
  8
LAYER_1
 10
-39.6357
 20
120.7033
 30
0.0
  0
VERTEX
  5
361
  8
LAYER_1
 10
-39.6357
 20
117.7047
 30
0.0
  0
SEQEND
  5
362
  8
LAYER_1
  0
POLYLINE
  5
81
  8
LAYER_1
 66
     1
 10
0.0
 20
0.0
 30
0.0
  0
VERTEX
  5
363
  8
LAYER_1
 10
-39.6357
 20
120.7033
 30
0.0
  0
VERTEX
  5
364
  8
LAYER_1
 10
-3.6382
 20
120.7033
 30
0.0
  0
SEQEND
  5
365
  8
LAYER_1
  0
POLYLINE
  5
82
  8
LAYER_1
 66
     1
 10
0.0
 20
0.0
 30
0.0
  0
VERTEX
  5
366
  8
LAYER_1
 10
-3.6382
 20
120.7033
 30
0.0
  0
VERTEX
  5
367
  8
LAYER_1
 10
-3.6382
 20
117.7047
 30
0.0
  0
SEQEND
  5
368
  8
LAYER_1
  0
POLYLINE
  5
83
  8
LAYER_1
 66
     1
 10
0.0
 20
0.0
 30
0.0
  0
VERTEX
  5
369
  8
LAYER_1
 10
-3.6382
 20
117.7047
 30
0.0
  0
VERTEX
  5
36A
  8
LAYER_1
 10
32.3627
 20
117.7047
 30
0.0
  0
SEQEND
  5
36B
  8
LAYER_1
  0
POLYLINE
  5
84
  8
LAYER_1
 66
     1
 10
0.0
 20
0.0
 30
0.0
  0
VERTEX
  5
36C
  8
LAYER_1
 10
32.3627
 20
120.7033
 30
0.0
  0
VERTEX
  5
36D
  8
LAYER_1
 10
32.3627
 20
117.7047
 30
0.0
  0
SEQEND
  5
36E
  8
LAYER_1
  0
POLYLINE
  5
85
  8
LAYER_1
 66
     1
 10
0.0
 20
0.0
 30
0.0
  0
VERTEX
  5
36F
  8
LAYER_1
 10
32.3627
 20
120.7033
 30
0.0
  0
VERTEX
  5
370
  8
LAYER_1
 10
68.3637
 20
120.7033
 30
0.0
  0
SEQEND
  5
371
  8
LAYER_1
  0
POLYLINE
  5
86
  8
LAYER_1
 66
     1
 10
0.0
 20
0.0
 30
0.0
  0
VERTEX
  5
372
  8
LAYER_1
 10
68.3637
 20
120.7033
 30
0.0
  0
VERTEX
  5
373
  8
LAYER_1
 10
68.3637
 20
117.7047
 30
0.0
  0
SEQEND
  5
374
  8
LAYER_1
  0
POLYLINE
  5
87
  8
LAYER_1
 66
     1
 10
0.0
 20
0.0
 30
0.0
  0
VERTEX
  5
375
  8
LAYER_1
 10
68.3637
 20
117.7047
 30
0.0
  0
VERTEX
  5
376
  8
LAYER_1
 10
101.3626
 20
117.7047
 30
0.0
  0
SEQEND
  5
377
  8
LAYER_1
  0
POLYLINE
  5
88
  8
LAYER_1
 66
     1
 10
0.0
 20
0.0
 30
0.0
  0
VERTEX
  5
378
  8
LAYER_1
 10
-72.638
 20
-56.2959
 30
0.0
  0
VERTEX
  5
379
  8
LAYER_1
 10
-72.638
 20
-23.2935
 30
0.0
  0
SEQEND
  5
37A
  8
LAYER_1
  0
POLYLINE
  5
89
  8
LAYER_1
 66
     1
 10
0.0
 20
0.0
 30
0.0
  0
VERTEX
  5
37B
  8
LAYER_1
 10
-72.638
 20
-23.2935
 30
0.0
  0
VERTEX
  5
37C
  8
LAYER_1
 10
-75.6366
 20
-23.2935
 30
0.0
  0
SEQEND
  5
37D
  8
LAYER_1
  0
POLYLINE
  5
8A
  8
LAYER_1
 66
     1
 10
0.0
 20
0.0
 30
0.0
  0
VERTEX
  5
37E
  8
LAYER_1
 10
-75.6366
 20
-23.2935
 30
0.0
  0
VERTEX
  5
37F
  8
LAYER_1
 10
-75.6366
 20
12.7039
 30
0.0
  0
SEQEND
  5
380
  8
LAYER_1
  0
POLYLINE
  5
8B
  8
LAYER_1
 66
     1
 10
0.0
 20
0.0
 30
0.0
  0
VERTEX
  5
381
  8
LAYER_1
 10
-72.638
 20
12.7039
 30
0.0
  0
VERTEX
  5
382
  8
LAYER_1
 10
-75.6366
 20
12.7039
 30
0.0
  0
SEQEND
  5
383
  8
LAYER_1
  0
POLYLINE
  5
8C
  8
LAYER_1
 66
     1
 10
0.0
 20
0.0
 30
0.0
  0
VERTEX
  5
384
  8
LAYER_1
 10
-72.638
 20
12.7039
 30
0.0
  0
VERTEX
  5
385
  8
LAYER_1
 10
-72.638
 20
48.7049
 30
0.0
  0
SEQEND
  5
386
  8
LAYER_1
  0
POLYLINE
  5
8D
  8
LAYER_1
 66
     1
 10
0.0
 20
0.0
 30
0.0
  0
VERTEX
  5
387
  8
LAYER_1
 10
-72.638
 20
48.7049
 30
0.0
  0
VERTEX
  5
388
  8
LAYER_1
 10
-75.6366
 20
48.7049
 30
0.0
  0
SEQEND
  5
389
  8
LAYER_1
  0
POLYLINE
  5
8E
  8
LAYER_1
 66
     1
 10
0.0
 20
0.0
 30
0.0
  0
VERTEX
  5
38A
  8
LAYER_1
 10
-75.6366
 20
48.7049
 30
0.0
  0
VERTEX
  5
38B
  8
LAYER_1
 10
-75.6366
 20
84.7058
 30
0.0
  0
SEQEND
  5
38C
  8
LAYER_1
  0
POLYLINE
  5
8F
  8
LAYER_1
 66
     1
 10
0.0
 20
0.0
 30
0.0
  0
VERTEX
  5
38D
  8
LAYER_1
 10
-72.638
 20
84.7058
 30
0.0
  0
VERTEX
  5
38E
  8
LAYER_1
 10
-75.6366
 20
84.7058
 30
0.0
  0
SEQEND
  5
38F
  8
LAYER_1
  0
POLYLINE
  5
90
  8
LAYER_1
 66
     1
 10
0.0
 20
0.0
 30
0.0
  0
VERTEX
  5
390
  8
LAYER_1
 10
-72.638
 20
84.7058
 30
0.0
  0
VERTEX
  5
391
  8
LAYER_1
 10
-72.638
 20
117.7047
 30
0.0
  0
SEQEND
  5
392
  8
LAYER_1
  0
POLYLINE
  5
91
  8
LAYER_1
 66
     1
 10
0.0
 20
0.0
 30
0.0
  0
VERTEX
  5
393
  8
LAYER_1
 10
101.3626
 20
-56.2959
 30
0.0
  0
VERTEX
  5
394
  8
LAYER_1
 10
101.3626
 20
-23.2935
 30
0.0
  0
SEQEND
  5
395
  8
LAYER_1
  0
POLYLINE
  5
92
  8
LAYER_1
 66
     1
 10
0.0
 20
0.0
 30
0.0
  0
VERTEX
  5
396
  8
LAYER_1
 10
104.3647
 20
-23.2935
 30
0.0
  0
VERTEX
  5
397
  8
LAYER_1
 10
101.3626
 20
-23.2935
 30
0.0
  0
SEQEND
  5
398
  8
LAYER_1
  0
POLYLINE
  5
93
  8
LAYER_1
 66
     1
 10
0.0
 20
0.0
 30
0.0
  0
VERTEX
  5
399
  8
LAYER_1
 10
104.3647
 20
-23.2935
 30
0.0
  0
VERTEX
  5
39A
  8
LAYER_1
 10
104.3647
 20
12.7039
 30
0.0
  0
SEQEND
  5
39B
  8
LAYER_1
  0
POLYLINE
  5
94
  8
LAYER_1
 66
     1
 10
0.0
 20
0.0
 30
0.0
  0
VERTEX
  5
39C
  8
LAYER_1
 10
104.3647
 20
12.7039
 30
0.0
  0
VERTEX
  5
39D
  8
LAYER_1
 10
101.3626
 20
12.7039
 30
0.0
  0
SEQEND
  5
39E
  8
LAYER_1
  0
POLYLINE
  5
95
  8
LAYER_1
 66
     1
 10
0.0
 20
0.0
 30
0.0
  0
VERTEX
  5
39F
  8
LAYER_1
 10
101.3626
 20
12.7039
 30
0.0
  0
VERTEX
  5
3A0
  8
LAYER_1
 10
101.3626
 20
48.7049
 30
0.0
  0
SEQEND
  5
3A1
  8
LAYER_1
  0
POLYLINE
  5
96
  8
LAYER_1
 66
     1
 10
0.0
 20
0.0
 30
0.0
  0
VERTEX
  5
3A2
  8
LAYER_1
 10
104.3647
 20
48.7049
 30
0.0
  0
VERTEX
  5
3A3
  8
LAYER_1
 10
101.3626
 20
48.7049
 30
0.0
  0
SEQEND
  5
3A4
  8
LAYER_1
  0
POLYLINE
  5
97
  8
LAYER_1
 66
     1
 10
0.0
 20
0.0
 30
0.0
  0
VERTEX
  5
3A5
  8
LAYER_1
 10
104.3647
 20
48.7049
 30
0.0
  0
VERTEX
  5
3A6
  8
LAYER_1
 10
104.3647
 20
84.7058
 30
0.0
  0
SEQEND
  5
3A7
  8
LAYER_1
  0
POLYLINE
  5
98
  8
LAYER_1
 66
     1
 10
0.0
 20
0.0
 30
0.0
  0
VERTEX
  5
3A8
  8
LAYER_1
 10
104.3647
 20
84.7058
 30
0.0
  0
VERTEX
  5
3A9
  8
LAYER_1
 10
101.3626
 20
84.7058
 30
0.0
  0
SEQEND
  5
3AA
  8
LAYER_1
  0
POLYLINE
  5
99
  8
LAYER_1
 66
     1
 10
0.0
 20
0.0
 30
0.0
  0
VERTEX
  5
3AB
  8
LAYER_1
 10
101.3626
 20
84.7058
 30
0.0
  0
VERTEX
  5
3AC
  8
LAYER_1
 10
101.3626
 20
117.7047
 30
0.0
  0
SEQEND
  5
3AD
  8
LAYER_1
  0
POLYLINE
  5
9A
  8
LAYER_1
 66
     1
 10
0.0
 20
0.0
 30
0.0
  0
VERTEX
  5
3AE
  8
LAYER_1
 10
130.8477
 20
-328.7991
 30
0.0
  0
VERTEX
  5
3AF
  8
LAYER_1
 10
166.8487
 20
-328.7991
 30
0.0
  0
SEQEND
  5
3B0
  8
LAYER_1
  0
POLYLINE
  5
9B
  8
LAYER_1
 66
     1
 10
0.0
 20
0.0
 30
0.0
  0
VERTEX
  5
3B1
  8
LAYER_1
 10
166.8487
 20
-325.8005
 30
0.0
  0
VERTEX
  5
3B2
  8
LAYER_1
 10
166.8487
 20
-328.7991
 30
0.0
  0
SEQEND
  5
3B3
  8
LAYER_1
  0
POLYLINE
  5
9C
  8
LAYER_1
 66
     1
 10
0.0
 20
0.0
 30
0.0
  0
VERTEX
  5
3B4
  8
LAYER_1
 10
202.8497
 20
-325.8005
 30
0.0
  0
VERTEX
  5
3B5
  8
LAYER_1
 10
202.8497
 20
-328.7991
 30
0.0
  0
SEQEND
  5
3B6
  8
LAYER_1
  0
POLYLINE
  5
9D
  8
LAYER_1
 66
     1
 10
0.0
 20
0.0
 30
0.0
  0
VERTEX
  5
3B7
  8
LAYER_1
 10
202.8497
 20
-328.7991
 30
0.0
  0
VERTEX
  5
3B8
  8
LAYER_1
 10
238.8471
 20
-328.7991
 30
0.0
  0
SEQEND
  5
3B9
  8
LAYER_1
  0
POLYLINE
  5
9E
  8
LAYER_1
 66
     1
 10
0.0
 20
0.0
 30
0.0
  0
VERTEX
  5
3BA
  8
LAYER_1
 10
238.8471
 20
-325.8005
 30
0.0
  0
VERTEX
  5
3BB
  8
LAYER_1
 10
238.8471
 20
-328.7991
 30
0.0
  0
SEQEND
  5
3BC
  8
LAYER_1
  0
POLYLINE
  5
9F
  8
LAYER_1
 66
     1
 10
0.0
 20
0.0
 30
0.0
  0
VERTEX
  5
3BD
  8
LAYER_1
 10
274.8481
 20
-325.8005
 30
0.0
  0
VERTEX
  5
3BE
  8
LAYER_1
 10
274.8481
 20
-328.7991
 30
0.0
  0
SEQEND
  5
3BF
  8
LAYER_1
  0
POLYLINE
  5
A0
  8
LAYER_1
 66
     1
 10
0.0
 20
0.0
 30
0.0
  0
VERTEX
  5
3C0
  8
LAYER_1
 10
274.8481
 20
-328.7991
 30
0.0
  0
VERTEX
  5
3C1
  8
LAYER_1
 10
307.8469
 20
-328.7991
 30
0.0
  0
SEQEND
  5
3C2
  8
LAYER_1
  0
POLYLINE
  5
A1
  8
LAYER_1
 66
     1
 10
0.0
 20
0.0
 30
0.0
  0
VERTEX
  5
3C3
  8
LAYER_1
 10
130.8477
 20
-68.7983
 30
0.0
  0
VERTEX
  5
3C4
  8
LAYER_1
 10
166.8487
 20
-68.7983
 30
0.0
  0
SEQEND
  5
3C5
  8
LAYER_1
  0
POLYLINE
  5
A2
  8
LAYER_1
 66
     1
 10
0.0
 20
0.0
 30
0.0
  0
VERTEX
  5
3C6
  8
LAYER_1
 10
166.8487
 20
-68.7983
 30
0.0
  0
VERTEX
  5
3C7
  8
LAYER_1
 10
166.8487
 20
-71.8005
 30
0.0
  0
SEQEND
  5
3C8
  8
LAYER_1
  0
POLYLINE
  5
A3
  8
LAYER_1
 66
     1
 10
0.0
 20
0.0
 30
0.0
  0
VERTEX
  5
3C9
  8
LAYER_1
 10
166.8487
 20
-71.8005
 30
0.0
  0
VERTEX
  5
3CA
  8
LAYER_1
 10
202.8497
 20
-71.8005
 30
0.0
  0
SEQEND
  5
3CB
  8
LAYER_1
  0
POLYLINE
  5
A4
  8
LAYER_1
 66
     1
 10
0.0
 20
0.0
 30
0.0
  0
VERTEX
  5
3CC
  8
LAYER_1
 10
202.8497
 20
-68.7983
 30
0.0
  0
VERTEX
  5
3CD
  8
LAYER_1
 10
202.8497
 20
-71.8005
 30
0.0
  0
SEQEND
  5
3CE
  8
LAYER_1
  0
POLYLINE
  5
A5
  8
LAYER_1
 66
     1
 10
0.0
 20
0.0
 30
0.0
  0
VERTEX
  5
3CF
  8
LAYER_1
 10
202.8497
 20
-68.7983
 30
0.0
  0
VERTEX
  5
3D0
  8
LAYER_1
 10
238.8471
 20
-68.7983
 30
0.0
  0
SEQEND
  5
3D1
  8
LAYER_1
  0
POLYLINE
  5
A6
  8
LAYER_1
 66
     1
 10
0.0
 20
0.0
 30
0.0
  0
VERTEX
  5
3D2
  8
LAYER_1
 10
238.8471
 20
-68.7983
 30
0.0
  0
VERTEX
  5
3D3
  8
LAYER_1
 10
238.8471
 20
-71.8005
 30
0.0
  0
SEQEND
  5
3D4
  8
LAYER_1
  0
POLYLINE
  5
A7
  8
LAYER_1
 66
     1
 10
0.0
 20
0.0
 30
0.0
  0
VERTEX
  5
3D5
  8
LAYER_1
 10
238.8471
 20
-71.8005
 30
0.0
  0
VERTEX
  5
3D6
  8
LAYER_1
 10
274.8481
 20
-71.8005
 30
0.0
  0
SEQEND
  5
3D7
  8
LAYER_1
  0
POLYLINE
  5
A8
  8
LAYER_1
 66
     1
 10
0.0
 20
0.0
 30
0.0
  0
VERTEX
  5
3D8
  8
LAYER_1
 10
274.8481
 20
-68.7983
 30
0.0
  0
VERTEX
  5
3D9
  8
LAYER_1
 10
274.8481
 20
-71.8005
 30
0.0
  0
SEQEND
  5
3DA
  8
LAYER_1
  0
POLYLINE
  5
A9
  8
LAYER_1
 66
     1
 10
0.0
 20
0.0
 30
0.0
  0
VERTEX
  5
3DB
  8
LAYER_1
 10
274.8481
 20
-68.7983
 30
0.0
  0
VERTEX
  5
3DC
  8
LAYER_1
 10
307.8469
 20
-68.7983
 30
0.0
  0
SEQEND
  5
3DD
  8
LAYER_1
  0
POLYLINE
  5
AA
  8
LAYER_1
 66
     1
 10
0.0
 20
0.0
 30
0.0
  0
VERTEX
  5
3DE
  8
LAYER_1
 10
130.8477
 20
-328.7991
 30
0.0
  0
VERTEX
  5
3DF
  8
LAYER_1
 10
130.8477
 20
-299.9101
 30
0.0
  0
SEQEND
  5
3E0
  8
LAYER_1
  0
POLYLINE
  5
AB
  8
LAYER_1
 66
     1
 10
0.0
 20
0.0
 30
0.0
  0
VERTEX
  5
3E1
  8
LAYER_1
 10
133.8499
 20
-299.9101
 30
0.0
  0
VERTEX
  5
3E2
  8
LAYER_1
 10
130.8477
 20
-299.9101
 30
0.0
  0
SEQEND
  5
3E3
  8
LAYER_1
  0
POLYLINE
  5
AC
  8
LAYER_1
 66
     1
 10
0.0
 20
0.0
 30
0.0
  0
VERTEX
  5
3E4
  8
LAYER_1
 10
133.8499
 20
-299.9101
 30
0.0
  0
VERTEX
  5
3E5
  8
LAYER_1
 10
133.8499
 20
-271.0211
 30
0.0
  0
SEQEND
  5
3E6
  8
LAYER_1
  0
POLYLINE
  5
AD
  8
LAYER_1
 66
     1
 10
0.0
 20
0.0
 30
0.0
  0
VERTEX
  5
3E7
  8
LAYER_1
 10
133.8499
 20
-271.0211
 30
0.0
  0
VERTEX
  5
3E8
  8
LAYER_1
 10
130.8477
 20
-271.0211
 30
0.0
  0
SEQEND
  5
3E9
  8
LAYER_1
  0
POLYLINE
  5
AE
  8
LAYER_1
 66
     1
 10
0.0
 20
0.0
 30
0.0
  0
VERTEX
  5
3EA
  8
LAYER_1
 10
130.8477
 20
-271.0211
 30
0.0
  0
VERTEX
  5
3EB
  8
LAYER_1
 10
130.8477
 20
-242.1322
 30
0.0
  0
SEQEND
  5
3EC
  8
LAYER_1
  0
POLYLINE
  5
AF
  8
LAYER_1
 66
     1
 10
0.0
 20
0.0
 30
0.0
  0
VERTEX
  5
3ED
  8
LAYER_1
 10
133.8499
 20
-242.1322
 30
0.0
  0
VERTEX
  5
3EE
  8
LAYER_1
 10
130.8477
 20
-242.1322
 30
0.0
  0
SEQEND
  5
3EF
  8
LAYER_1
  0
POLYLINE
  5
B0
  8
LAYER_1
 66
     1
 10
0.0
 20
0.0
 30
0.0
  0
VERTEX
  5
3F0
  8
LAYER_1
 10
133.8499
 20
-242.1322
 30
0.0
  0
VERTEX
  5
3F1
  8
LAYER_1
 10
133.8499
 20
-213.2432
 30
0.0
  0
SEQEND
  5
3F2
  8
LAYER_1
  0
POLYLINE
  5
B1
  8
LAYER_1
 66
     1
 10
0.0
 20
0.0
 30
0.0
  0
VERTEX
  5
3F3
  8
LAYER_1
 10
133.8499
 20
-213.2432
 30
0.0
  0
VERTEX
  5
3F4
  8
LAYER_1
 10
130.8477
 20
-213.2432
 30
0.0
  0
SEQEND
  5
3F5
  8
LAYER_1
  0
POLYLINE
  5
B2
  8
LAYER_1
 66
     1
 10
0.0
 20
0.0
 30
0.0
  0
VERTEX
  5
3F6
  8
LAYER_1
 10
130.8477
 20
-213.2432
 30
0.0
  0
VERTEX
  5
3F7
  8
LAYER_1
 10
130.8477
 20
-184.3542
 30
0.0
  0
SEQEND
  5
3F8
  8
LAYER_1
  0
POLYLINE
  5
B3
  8
LAYER_1
 66
     1
 10
0.0
 20
0.0
 30
0.0
  0
VERTEX
  5
3F9
  8
LAYER_1
 10
133.8499
 20
-184.3542
 30
0.0
  0
VERTEX
  5
3FA
  8
LAYER_1
 10
130.8477
 20
-184.3542
 30
0.0
  0
SEQEND
  5
3FB
  8
LAYER_1
  0
POLYLINE
  5
B4
  8
LAYER_1
 66
     1
 10
0.0
 20
0.0
 30
0.0
  0
VERTEX
  5
3FC
  8
LAYER_1
 10
133.8499
 20
-184.3542
 30
0.0
  0
VERTEX
  5
3FD
  8
LAYER_1
 10
133.8499
 20
-155.4652
 30
0.0
  0
SEQEND
  5
3FE
  8
LAYER_1
  0
POLYLINE
  5
B5
  8
LAYER_1
 66
     1
 10
0.0
 20
0.0
 30
0.0
  0
VERTEX
  5
3FF
  8
LAYER_1
 10
133.8499
 20
-155.4652
 30
0.0
  0
VERTEX
  5
400
  8
LAYER_1
 10
130.8477
 20
-155.4652
 30
0.0
  0
SEQEND
  5
401
  8
LAYER_1
  0
POLYLINE
  5
B6
  8
LAYER_1
 66
     1
 10
0.0
 20
0.0
 30
0.0
  0
VERTEX
  5
402
  8
LAYER_1
 10
130.8477
 20
-155.4652
 30
0.0
  0
VERTEX
  5
403
  8
LAYER_1
 10
130.8477
 20
-126.5763
 30
0.0
  0
SEQEND
  5
404
  8
LAYER_1
  0
POLYLINE
  5
B7
  8
LAYER_1
 66
     1
 10
0.0
 20
0.0
 30
0.0
  0
VERTEX
  5
405
  8
LAYER_1
 10
133.8499
 20
-126.5763
 30
0.0
  0
VERTEX
  5
406
  8
LAYER_1
 10
130.8477
 20
-126.5763
 30
0.0
  0
SEQEND
  5
407
  8
LAYER_1
  0
POLYLINE
  5
B8
  8
LAYER_1
 66
     1
 10
0.0
 20
0.0
 30
0.0
  0
VERTEX
  5
408
  8
LAYER_1
 10
133.8499
 20
-126.5763
 30
0.0
  0
VERTEX
  5
409
  8
LAYER_1
 10
133.8499
 20
-97.6873
 30
0.0
  0
SEQEND
  5
40A
  8
LAYER_1
  0
POLYLINE
  5
B9
  8
LAYER_1
 66
     1
 10
0.0
 20
0.0
 30
0.0
  0
VERTEX
  5
40B
  8
LAYER_1
 10
133.8499
 20
-97.6873
 30
0.0
  0
VERTEX
  5
40C
  8
LAYER_1
 10
130.8477
 20
-97.6873
 30
0.0
  0
SEQEND
  5
40D
  8
LAYER_1
  0
POLYLINE
  5
BA
  8
LAYER_1
 66
     1
 10
0.0
 20
0.0
 30
0.0
  0
VERTEX
  5
40E
  8
LAYER_1
 10
130.8477
 20
-97.6873
 30
0.0
  0
VERTEX
  5
40F
  8
LAYER_1
 10
130.8477
 20
-68.7983
 30
0.0
  0
SEQEND
  5
410
  8
LAYER_1
  0
POLYLINE
  5
BB
  8
LAYER_1
 66
     1
 10
0.0
 20
0.0
 30
0.0
  0
VERTEX
  5
411
  8
LAYER_1
 10
307.8469
 20
-328.7991
 30
0.0
  0
VERTEX
  5
412
  8
LAYER_1
 10
307.8469
 20
-299.9101
 30
0.0
  0
SEQEND
  5
413
  8
LAYER_1
  0
POLYLINE
  5
BC
  8
LAYER_1
 66
     1
 10
0.0
 20
0.0
 30
0.0
  0
VERTEX
  5
414
  8
LAYER_1
 10
310.849
 20
-299.9101
 30
0.0
  0
VERTEX
  5
415
  8
LAYER_1
 10
307.8469
 20
-299.9101
 30
0.0
  0
SEQEND
  5
416
  8
LAYER_1
  0
POLYLINE
  5
BD
  8
LAYER_1
 66
     1
 10
0.0
 20
0.0
 30
0.0
  0
VERTEX
  5
417
  8
LAYER_1
 10
310.849
 20
-299.9101
 30
0.0
  0
VERTEX
  5
418
  8
LAYER_1
 10
310.849
 20
-271.0211
 30
0.0
  0
SEQEND
  5
419
  8
LAYER_1
  0
POLYLINE
  5
BE
  8
LAYER_1
 66
     1
 10
0.0
 20
0.0
 30
0.0
  0
VERTEX
  5
41A
  8
LAYER_1
 10
310.849
 20
-271.0211
 30
0.0
  0
VERTEX
  5
41B
  8
LAYER_1
 10
307.8469
 20
-271.0211
 30
0.0
  0
SEQEND
  5
41C
  8
LAYER_1
  0
POLYLINE
  5
BF
  8
LAYER_1
 66
     1
 10
0.0
 20
0.0
 30
0.0
  0
VERTEX
  5
41D
  8
LAYER_1
 10
307.8469
 20
-271.0211
 30
0.0
  0
VERTEX
  5
41E
  8
LAYER_1
 10
307.8469
 20
-242.1322
 30
0.0
  0
SEQEND
  5
41F
  8
LAYER_1
  0
POLYLINE
  5
C0
  8
LAYER_1
 66
     1
 10
0.0
 20
0.0
 30
0.0
  0
VERTEX
  5
420
  8
LAYER_1
 10
310.849
 20
-242.1322
 30
0.0
  0
VERTEX
  5
421
  8
LAYER_1
 10
307.8469
 20
-242.1322
 30
0.0
  0
SEQEND
  5
422
  8
LAYER_1
  0
POLYLINE
  5
C1
  8
LAYER_1
 66
     1
 10
0.0
 20
0.0
 30
0.0
  0
VERTEX
  5
423
  8
LAYER_1
 10
310.849
 20
-242.1322
 30
0.0
  0
VERTEX
  5
424
  8
LAYER_1
 10
310.849
 20
-213.2432
 30
0.0
  0
SEQEND
  5
425
  8
LAYER_1
  0
POLYLINE
  5
C2
  8
LAYER_1
 66
     1
 10
0.0
 20
0.0
 30
0.0
  0
VERTEX
  5
426
  8
LAYER_1
 10
310.849
 20
-213.2432
 30
0.0
  0
VERTEX
  5
427
  8
LAYER_1
 10
307.8469
 20
-213.2432
 30
0.0
  0
SEQEND
  5
428
  8
LAYER_1
  0
POLYLINE
  5
C3
  8
LAYER_1
 66
     1
 10
0.0
 20
0.0
 30
0.0
  0
VERTEX
  5
429
  8
LAYER_1
 10
307.8469
 20
-213.2432
 30
0.0
  0
VERTEX
  5
42A
  8
LAYER_1
 10
307.8469
 20
-184.3542
 30
0.0
  0
SEQEND
  5
42B
  8
LAYER_1
  0
POLYLINE
  5
C4
  8
LAYER_1
 66
     1
 10
0.0
 20
0.0
 30
0.0
  0
VERTEX
  5
42C
  8
LAYER_1
 10
310.849
 20
-184.3542
 30
0.0
  0
VERTEX
  5
42D
  8
LAYER_1
 10
307.8469
 20
-184.3542
 30
0.0
  0
SEQEND
  5
42E
  8
LAYER_1
  0
POLYLINE
  5
C5
  8
LAYER_1
 66
     1
 10
0.0
 20
0.0
 30
0.0
  0
VERTEX
  5
42F
  8
LAYER_1
 10
310.849
 20
-184.3542
 30
0.0
  0
VERTEX
  5
430
  8
LAYER_1
 10
310.849
 20
-155.4652
 30
0.0
  0
SEQEND
  5
431
  8
LAYER_1
  0
POLYLINE
  5
C6
  8
LAYER_1
 66
     1
 10
0.0
 20
0.0
 30
0.0
  0
VERTEX
  5
432
  8
LAYER_1
 10
310.849
 20
-155.4652
 30
0.0
  0
VERTEX
  5
433
  8
LAYER_1
 10
307.8469
 20
-155.4652
 30
0.0
  0
SEQEND
  5
434
  8
LAYER_1
  0
POLYLINE
  5
C7
  8
LAYER_1
 66
     1
 10
0.0
 20
0.0
 30
0.0
  0
VERTEX
  5
435
  8
LAYER_1
 10
307.8469
 20
-155.4652
 30
0.0
  0
VERTEX
  5
436
  8
LAYER_1
 10
307.8469
 20
-126.5763
 30
0.0
  0
SEQEND
  5
437
  8
LAYER_1
  0
POLYLINE
  5
C8
  8
LAYER_1
 66
     1
 10
0.0
 20
0.0
 30
0.0
  0
VERTEX
  5
438
  8
LAYER_1
 10
310.849
 20
-126.5763
 30
0.0
  0
VERTEX
  5
439
  8
LAYER_1
 10
307.8469
 20
-126.5763
 30
0.0
  0
SEQEND
  5
43A
  8
LAYER_1
  0
POLYLINE
  5
C9
  8
LAYER_1
 66
     1
 10
0.0
 20
0.0
 30
0.0
  0
VERTEX
  5
43B
  8
LAYER_1
 10
310.849
 20
-126.5763
 30
0.0
  0
VERTEX
  5
43C
  8
LAYER_1
 10
310.849
 20
-97.6873
 30
0.0
  0
SEQEND
  5
43D
  8
LAYER_1
  0
POLYLINE
  5
CA
  8
LAYER_1
 66
     1
 10
0.0
 20
0.0
 30
0.0
  0
VERTEX
  5
43E
  8
LAYER_1
 10
310.849
 20
-97.6873
 30
0.0
  0
VERTEX
  5
43F
  8
LAYER_1
 10
307.8469
 20
-97.6873
 30
0.0
  0
SEQEND
  5
440
  8
LAYER_1
  0
POLYLINE
  5
CB
  8
LAYER_1
 66
     1
 10
0.0
 20
0.0
 30
0.0
  0
VERTEX
  5
441
  8
LAYER_1
 10
307.8469
 20
-97.6873
 30
0.0
  0
VERTEX
  5
442
  8
LAYER_1
 10
307.8469
 20
-68.7983
 30
0.0
  0
SEQEND
  5
443
  8
LAYER_1
  0
POLYLINE
  5
CC
  8
LAYER_1
 66
     1
 10
0.0
 20
0.0
 30
0.0
  0
VERTEX
  5
444
  8
LAYER_1
 10
202.8497
 20
-325.8005
 30
0.0
  0
VERTEX
  5
445
  8
LAYER_1
 10
186.3492
 20
-325.8005
 30
0.0
  0
SEQEND
  5
446
  8
LAYER_1
  0
POLYLINE
  5
CD
  8
LAYER_1
 66
     1
 10
0.0
 20
0.0
 30
0.0
  0
VERTEX
  5
447
  8
LAYER_1
 10
183.3488
 20
-325.8005
 30
0.0
  0
VERTEX
  5
448
  8
LAYER_1
 10
166.8487
 20
-325.8005
 30
0.0
  0
SEQEND
  5
449
  8
LAYER_1
  0
POLYLINE
  5
CE
  8
LAYER_1
 66
     1
 10
0.0
 20
0.0
 30
0.0
  0
VERTEX
  5
44A
  8
LAYER_1
 10
186.3492
 20
-325.8005
 30
0.0
  0
VERTEX
  5
44B
  8
LAYER_1
 10
186.3492
 20
-321.846
 30
0.0
  0
VERTEX
  5
44C
  8
LAYER_1
 10
187.3992
 20
-321.846
 30
0.0
  0
VERTEX
  5
44D
  8
LAYER_1
 10
187.3992
 20
-319.746
 30
0.0
  0
VERTEX
  5
44E
  8
LAYER_1
 10
186.3492
 20
-319.746
 30
0.0
  0
VERTEX
  5
44F
  8
LAYER_1
 10
186.3492
 20
-315.8005
 30
0.0
  0
VERTEX
  5
450
  8
LAYER_1
 10
183.3492
 20
-315.8005
 30
0.0
  0
VERTEX
  5
451
  8
LAYER_1
 10
183.3492
 20
-319.746
 30
0.0
  0
VERTEX
  5
452
  8
LAYER_1
 10
182.2992
 20
-319.746
 30
0.0
  0
VERTEX
  5
453
  8
LAYER_1
 10
182.2992
 20
-321.846
 30
0.0
  0
VERTEX
  5
454
  8
LAYER_1
 10
183.3492
 20
-321.846
 30
0.0
  0
VERTEX
  5
455
  8
LAYER_1
 10
183.3492
 20
-325.8005
 30
0.0
  0
SEQEND
  5
456
  8
LAYER_1
  0
POLYLINE
  5
CF
  8
LAYER_1
 66
     1
 10
0.0
 20
0.0
 30
0.0
  0
VERTEX
  5
457
  8
LAYER_1
 10
274.8481
 20
-325.8005
 30
0.0
  0
VERTEX
  5
458
  8
LAYER_1
 10
258.3476
 20
-325.8005
 30
0.0
  0
SEQEND
  5
459
  8
LAYER_1
  0
POLYLINE
  5
D0
  8
LAYER_1
 66
     1
 10
0.0
 20
0.0
 30
0.0
  0
VERTEX
  5
45A
  8
LAYER_1
 10
255.3472
 20
-325.8005
 30
0.0
  0
VERTEX
  5
45B
  8
LAYER_1
 10
238.8471
 20
-325.8005
 30
0.0
  0
SEQEND
  5
45C
  8
LAYER_1
  0
POLYLINE
  5
D1
  8
LAYER_1
 66
     1
 10
0.0
 20
0.0
 30
0.0
  0
VERTEX
  5
45D
  8
LAYER_1
 10
258.3476
 20
-325.8005
 30
0.0
  0
VERTEX
  5
45E
  8
LAYER_1
 10
258.3476
 20
-321.846
 30
0.0
  0
VERTEX
  5
45F
  8
LAYER_1
 10
259.3976
 20
-321.846
 30
0.0
  0
VERTEX
  5
460
  8
LAYER_1
 10
259.3976
 20
-319.746
 30
0.0
  0
VERTEX
  5
461
  8
LAYER_1
 10
258.3476
 20
-319.746
 30
0.0
  0
VERTEX
  5
462
  8
LAYER_1
 10
258.3476
 20
-315.8005
 30
0.0
  0
VERTEX
  5
463
  8
LAYER_1
 10
255.3476
 20
-315.8005
 30
0.0
  0
VERTEX
  5
464
  8
LAYER_1
 10
255.3476
 20
-319.746
 30
0.0
  0
VERTEX
  5
465
  8
LAYER_1
 10
254.2976
 20
-319.746
 30
0.0
  0
VERTEX
  5
466
  8
LAYER_1
 10
254.2976
 20
-321.846
 30
0.0
  0
VERTEX
  5
467
  8
LAYER_1
 10
255.3476
 20
-321.846
 30
0.0
  0
VERTEX
  5
468
  8
LAYER_1
 10
255.3476
 20
-325.8005
 30
0.0
  0
SEQEND
  5
469
  8
LAYER_1
  0
POLYLINE
  5
D2
  8
LAYER_1
 66
     1
 10
0.0
 20
0.0
 30
0.0
  0
VERTEX
  5
46A
  8
LAYER_1
 10
-75.6366
 20
-329.2965
 30
0.0
  0
VERTEX
  5
46B
  8
LAYER_1
 10
-39.6357
 20
-329.2965
 30
0.0
  0
SEQEND
  5
46C
  8
LAYER_1
  0
POLYLINE
  5
D3
  8
LAYER_1
 66
     1
 10
0.0
 20
0.0
 30
0.0
  0
VERTEX
  5
46D
  8
LAYER_1
 10
-39.6357
 20
-326.2944
 30
0.0
  0
VERTEX
  5
46E
  8
LAYER_1
 10
-39.6357
 20
-329.2965
 30
0.0
  0
SEQEND
  5
46F
  8
LAYER_1
  0
POLYLINE
  5
D4
  8
LAYER_1
 66
     1
 10
0.0
 20
0.0
 30
0.0
  0
VERTEX
  5
470
  8
LAYER_1
 10
-3.6382
 20
-326.2944
 30
0.0
  0
VERTEX
  5
471
  8
LAYER_1
 10
-3.6382
 20
-329.2965
 30
0.0
  0
SEQEND
  5
472
  8
LAYER_1
  0
POLYLINE
  5
D5
  8
LAYER_1
 66
     1
 10
0.0
 20
0.0
 30
0.0
  0
VERTEX
  5
473
  8
LAYER_1
 10
-3.6382
 20
-329.2965
 30
0.0
  0
VERTEX
  5
474
  8
LAYER_1
 10
32.3627
 20
-329.2965
 30
0.0
  0
SEQEND
  5
475
  8
LAYER_1
  0
POLYLINE
  5
D6
  8
LAYER_1
 66
     1
 10
0.0
 20
0.0
 30
0.0
  0
VERTEX
  5
476
  8
LAYER_1
 10
32.3627
 20
-326.2944
 30
0.0
  0
VERTEX
  5
477
  8
LAYER_1
 10
32.3627
 20
-329.2965
 30
0.0
  0
SEQEND
  5
478
  8
LAYER_1
  0
POLYLINE
  5
D7
  8
LAYER_1
 66
     1
 10
0.0
 20
0.0
 30
0.0
  0
VERTEX
  5
479
  8
LAYER_1
 10
68.3637
 20
-326.2944
 30
0.0
  0
VERTEX
  5
47A
  8
LAYER_1
 10
68.3637
 20
-329.2965
 30
0.0
  0
SEQEND
  5
47B
  8
LAYER_1
  0
POLYLINE
  5
D8
  8
LAYER_1
 66
     1
 10
0.0
 20
0.0
 30
0.0
  0
VERTEX
  5
47C
  8
LAYER_1
 10
68.3637
 20
-329.2965
 30
0.0
  0
VERTEX
  5
47D
  8
LAYER_1
 10
101.3626
 20
-329.2965
 30
0.0
  0
SEQEND
  5
47E
  8
LAYER_1
  0
POLYLINE
  5
D9
  8
LAYER_1
 66
     1
 10
0.0
 20
0.0
 30
0.0
  0
VERTEX
  5
47F
  8
LAYER_1
 10
-75.6366
 20
-69.2958
 30
0.0
  0
VERTEX
  5
480
  8
LAYER_1
 10
-39.6357
 20
-69.2958
 30
0.0
  0
SEQEND
  5
481
  8
LAYER_1
  0
POLYLINE
  5
DA
  8
LAYER_1
 66
     1
 10
0.0
 20
0.0
 30
0.0
  0
VERTEX
  5
482
  8
LAYER_1
 10
-39.6357
 20
-69.2958
 30
0.0
  0
VERTEX
  5
483
  8
LAYER_1
 10
-39.6357
 20
-72.2944
 30
0.0
  0
SEQEND
  5
484
  8
LAYER_1
  0
POLYLINE
  5
DB
  8
LAYER_1
 66
     1
 10
0.0
 20
0.0
 30
0.0
  0
VERTEX
  5
485
  8
LAYER_1
 10
-39.6357
 20
-72.2944
 30
0.0
  0
VERTEX
  5
486
  8
LAYER_1
 10
-3.6382
 20
-72.2944
 30
0.0
  0
SEQEND
  5
487
  8
LAYER_1
  0
POLYLINE
  5
DC
  8
LAYER_1
 66
     1
 10
0.0
 20
0.0
 30
0.0
  0
VERTEX
  5
488
  8
LAYER_1
 10
-3.6382
 20
-69.2958
 30
0.0
  0
VERTEX
  5
489
  8
LAYER_1
 10
-3.6382
 20
-72.2944
 30
0.0
  0
SEQEND
  5
48A
  8
LAYER_1
  0
POLYLINE
  5
DD
  8
LAYER_1
 66
     1
 10
0.0
 20
0.0
 30
0.0
  0
VERTEX
  5
48B
  8
LAYER_1
 10
-3.6382
 20
-69.2958
 30
0.0
  0
VERTEX
  5
48C
  8
LAYER_1
 10
32.3627
 20
-69.2958
 30
0.0
  0
SEQEND
  5
48D
  8
LAYER_1
  0
POLYLINE
  5
DE
  8
LAYER_1
 66
     1
 10
0.0
 20
0.0
 30
0.0
  0
VERTEX
  5
48E
  8
LAYER_1
 10
32.3627
 20
-69.2958
 30
0.0
  0
VERTEX
  5
48F
  8
LAYER_1
 10
32.3627
 20
-72.2944
 30
0.0
  0
SEQEND
  5
490
  8
LAYER_1
  0
POLYLINE
  5
DF
  8
LAYER_1
 66
     1
 10
0.0
 20
0.0
 30
0.0
  0
VERTEX
  5
491
  8
LAYER_1
 10
32.3627
 20
-72.2944
 30
0.0
  0
VERTEX
  5
492
  8
LAYER_1
 10
68.3637
 20
-72.2944
 30
0.0
  0
SEQEND
  5
493
  8
LAYER_1
  0
POLYLINE
  5
E0
  8
LAYER_1
 66
     1
 10
0.0
 20
0.0
 30
0.0
  0
VERTEX
  5
494
  8
LAYER_1
 10
68.3637
 20
-69.2958
 30
0.0
  0
VERTEX
  5
495
  8
LAYER_1
 10
68.3637
 20
-72.2944
 30
0.0
  0
SEQEND
  5
496
  8
LAYER_1
  0
POLYLINE
  5
E1
  8
LAYER_1
 66
     1
 10
0.0
 20
0.0
 30
0.0
  0
VERTEX
  5
497
  8
LAYER_1
 10
68.3637
 20
-69.2958
 30
0.0
  0
VERTEX
  5
498
  8
LAYER_1
 10
101.3626
 20
-69.2958
 30
0.0
  0
SEQEND
  5
499
  8
LAYER_1
  0
POLYLINE
  5
E2
  8
LAYER_1
 66
     1
 10
0.0
 20
0.0
 30
0.0
  0
VERTEX
  5
49A
  8
LAYER_1
 10
-75.6366
 20
-329.2965
 30
0.0
  0
VERTEX
  5
49B
  8
LAYER_1
 10
-75.6366
 20
-300.4075
 30
0.0
  0
SEQEND
  5
49C
  8
LAYER_1
  0
POLYLINE
  5
E3
  8
LAYER_1
 66
     1
 10
0.0
 20
0.0
 30
0.0
  0
VERTEX
  5
49D
  8
LAYER_1
 10
-72.638
 20
-300.4075
 30
0.0
  0
VERTEX
  5
49E
  8
LAYER_1
 10
-75.6366
 20
-300.4075
 30
0.0
  0
SEQEND
  5
49F
  8
LAYER_1
  0
POLYLINE
  5
E4
  8
LAYER_1
 66
     1
 10
0.0
 20
0.0
 30
0.0
  0
VERTEX
  5
4A0
  8
LAYER_1
 10
-72.638
 20
-300.4075
 30
0.0
  0
VERTEX
  5
4A1
  8
LAYER_1
 10
-72.638
 20
-271.5186
 30
0.0
  0
SEQEND
  5
4A2
  8
LAYER_1
  0
POLYLINE
  5
E5
  8
LAYER_1
 66
     1
 10
0.0
 20
0.0
 30
0.0
  0
VERTEX
  5
4A3
  8
LAYER_1
 10
-72.638
 20
-271.5186
 30
0.0
  0
VERTEX
  5
4A4
  8
LAYER_1
 10
-75.6366
 20
-271.5186
 30
0.0
  0
SEQEND
  5
4A5
  8
LAYER_1
  0
POLYLINE
  5
E6
  8
LAYER_1
 66
     1
 10
0.0
 20
0.0
 30
0.0
  0
VERTEX
  5
4A6
  8
LAYER_1
 10
-75.6366
 20
-271.5186
 30
0.0
  0
VERTEX
  5
4A7
  8
LAYER_1
 10
-75.6366
 20
-242.6296
 30
0.0
  0
SEQEND
  5
4A8
  8
LAYER_1
  0
POLYLINE
  5
E7
  8
LAYER_1
 66
     1
 10
0.0
 20
0.0
 30
0.0
  0
VERTEX
  5
4A9
  8
LAYER_1
 10
-72.638
 20
-242.6296
 30
0.0
  0
VERTEX
  5
4AA
  8
LAYER_1
 10
-75.6366
 20
-242.6296
 30
0.0
  0
SEQEND
  5
4AB
  8
LAYER_1
  0
POLYLINE
  5
E8
  8
LAYER_1
 66
     1
 10
0.0
 20
0.0
 30
0.0
  0
VERTEX
  5
4AC
  8
LAYER_1
 10
-72.638
 20
-242.6296
 30
0.0
  0
VERTEX
  5
4AD
  8
LAYER_1
 10
-72.638
 20
-213.7406
 30
0.0
  0
SEQEND
  5
4AE
  8
LAYER_1
  0
POLYLINE
  5
E9
  8
LAYER_1
 66
     1
 10
0.0
 20
0.0
 30
0.0
  0
VERTEX
  5
4AF
  8
LAYER_1
 10
-72.638
 20
-213.7406
 30
0.0
  0
VERTEX
  5
4B0
  8
LAYER_1
 10
-75.6366
 20
-213.7406
 30
0.0
  0
SEQEND
  5
4B1
  8
LAYER_1
  0
POLYLINE
  5
EA
  8
LAYER_1
 66
     1
 10
0.0
 20
0.0
 30
0.0
  0
VERTEX
  5
4B2
  8
LAYER_1
 10
-75.6366
 20
-213.7406
 30
0.0
  0
VERTEX
  5
4B3
  8
LAYER_1
 10
-75.6366
 20
-184.8517
 30
0.0
  0
SEQEND
  5
4B4
  8
LAYER_1
  0
POLYLINE
  5
EB
  8
LAYER_1
 66
     1
 10
0.0
 20
0.0
 30
0.0
  0
VERTEX
  5
4B5
  8
LAYER_1
 10
-72.638
 20
-184.8517
 30
0.0
  0
VERTEX
  5
4B6
  8
LAYER_1
 10
-75.6366
 20
-184.8517
 30
0.0
  0
SEQEND
  5
4B7
  8
LAYER_1
  0
POLYLINE
  5
EC
  8
LAYER_1
 66
     1
 10
0.0
 20
0.0
 30
0.0
  0
VERTEX
  5
4B8
  8
LAYER_1
 10
-72.638
 20
-184.8517
 30
0.0
  0
VERTEX
  5
4B9
  8
LAYER_1
 10
-72.638
 20
-155.9627
 30
0.0
  0
SEQEND
  5
4BA
  8
LAYER_1
  0
POLYLINE
  5
ED
  8
LAYER_1
 66
     1
 10
0.0
 20
0.0
 30
0.0
  0
VERTEX
  5
4BB
  8
LAYER_1
 10
-72.638
 20
-155.9627
 30
0.0
  0
VERTEX
  5
4BC
  8
LAYER_1
 10
-75.6366
 20
-155.9627
 30
0.0
  0
SEQEND
  5
4BD
  8
LAYER_1
  0
POLYLINE
  5
EE
  8
LAYER_1
 66
     1
 10
0.0
 20
0.0
 30
0.0
  0
VERTEX
  5
4BE
  8
LAYER_1
 10
-75.6366
 20
-155.9627
 30
0.0
  0
VERTEX
  5
4BF
  8
LAYER_1
 10
-75.6366
 20
-127.0737
 30
0.0
  0
SEQEND
  5
4C0
  8
LAYER_1
  0
POLYLINE
  5
EF
  8
LAYER_1
 66
     1
 10
0.0
 20
0.0
 30
0.0
  0
VERTEX
  5
4C1
  8
LAYER_1
 10
-72.638
 20
-127.0737
 30
0.0
  0
VERTEX
  5
4C2
  8
LAYER_1
 10
-75.6366
 20
-127.0737
 30
0.0
  0
SEQEND
  5
4C3
  8
LAYER_1
  0
POLYLINE
  5
F0
  8
LAYER_1
 66
     1
 10
0.0
 20
0.0
 30
0.0
  0
VERTEX
  5
4C4
  8
LAYER_1
 10
-72.638
 20
-127.0737
 30
0.0
  0
VERTEX
  5
4C5
  8
LAYER_1
 10
-72.638
 20
-98.1847
 30
0.0
  0
SEQEND
  5
4C6
  8
LAYER_1
  0
POLYLINE
  5
F1
  8
LAYER_1
 66
     1
 10
0.0
 20
0.0
 30
0.0
  0
VERTEX
  5
4C7
  8
LAYER_1
 10
-72.638
 20
-98.1847
 30
0.0
  0
VERTEX
  5
4C8
  8
LAYER_1
 10
-75.6366
 20
-98.1847
 30
0.0
  0
SEQEND
  5
4C9
  8
LAYER_1
  0
POLYLINE
  5
F2
  8
LAYER_1
 66
     1
 10
0.0
 20
0.0
 30
0.0
  0
VERTEX
  5
4CA
  8
LAYER_1
 10
-75.6366
 20
-98.1847
 30
0.0
  0
VERTEX
  5
4CB
  8
LAYER_1
 10
-75.6366
 20
-69.2958
 30
0.0
  0
SEQEND
  5
4CC
  8
LAYER_1
  0
POLYLINE
  5
F3
  8
LAYER_1
 66
     1
 10
0.0
 20
0.0
 30
0.0
  0
VERTEX
  5
4CD
  8
LAYER_1
 10
101.3626
 20
-329.2965
 30
0.0
  0
VERTEX
  5
4CE
  8
LAYER_1
 10
101.3626
 20
-300.4075
 30
0.0
  0
SEQEND
  5
4CF
  8
LAYER_1
  0
POLYLINE
  5
F4
  8
LAYER_1
 66
     1
 10
0.0
 20
0.0
 30
0.0
  0
VERTEX
  5
4D0
  8
LAYER_1
 10
104.3647
 20
-300.4075
 30
0.0
  0
VERTEX
  5
4D1
  8
LAYER_1
 10
101.3626
 20
-300.4075
 30
0.0
  0
SEQEND
  5
4D2
  8
LAYER_1
  0
POLYLINE
  5
F5
  8
LAYER_1
 66
     1
 10
0.0
 20
0.0
 30
0.0
  0
VERTEX
  5
4D3
  8
LAYER_1
 10
104.3647
 20
-300.4075
 30
0.0
  0
VERTEX
  5
4D4
  8
LAYER_1
 10
104.3647
 20
-271.5186
 30
0.0
  0
SEQEND
  5
4D5
  8
LAYER_1
  0
POLYLINE
  5
F6
  8
LAYER_1
 66
     1
 10
0.0
 20
0.0
 30
0.0
  0
VERTEX
  5
4D6
  8
LAYER_1
 10
104.3647
 20
-271.5186
 30
0.0
  0
VERTEX
  5
4D7
  8
LAYER_1
 10
101.3626
 20
-271.5186
 30
0.0
  0
SEQEND
  5
4D8
  8
LAYER_1
  0
POLYLINE
  5
F7
  8
LAYER_1
 66
     1
 10
0.0
 20
0.0
 30
0.0
  0
VERTEX
  5
4D9
  8
LAYER_1
 10
101.3626
 20
-271.5186
 30
0.0
  0
VERTEX
  5
4DA
  8
LAYER_1
 10
101.3626
 20
-242.6296
 30
0.0
  0
SEQEND
  5
4DB
  8
LAYER_1
  0
POLYLINE
  5
F8
  8
LAYER_1
 66
     1
 10
0.0
 20
0.0
 30
0.0
  0
VERTEX
  5
4DC
  8
LAYER_1
 10
104.3647
 20
-242.6296
 30
0.0
  0
VERTEX
  5
4DD
  8
LAYER_1
 10
101.3626
 20
-242.6296
 30
0.0
  0
SEQEND
  5
4DE
  8
LAYER_1
  0
POLYLINE
  5
F9
  8
LAYER_1
 66
     1
 10
0.0
 20
0.0
 30
0.0
  0
VERTEX
  5
4DF
  8
LAYER_1
 10
104.3647
 20
-242.6296
 30
0.0
  0
VERTEX
  5
4E0
  8
LAYER_1
 10
104.3647
 20
-213.7406
 30
0.0
  0
SEQEND
  5
4E1
  8
LAYER_1
  0
POLYLINE
  5
FA
  8
LAYER_1
 66
     1
 10
0.0
 20
0.0
 30
0.0
  0
VERTEX
  5
4E2
  8
LAYER_1
 10
104.3647
 20
-213.7406
 30
0.0
  0
VERTEX
  5
4E3
  8
LAYER_1
 10
101.3626
 20
-213.7406
 30
0.0
  0
SEQEND
  5
4E4
  8
LAYER_1
  0
POLYLINE
  5
FB
  8
LAYER_1
 66
     1
 10
0.0
 20
0.0
 30
0.0
  0
VERTEX
  5
4E5
  8
LAYER_1
 10
101.3626
 20
-213.7406
 30
0.0
  0
VERTEX
  5
4E6
  8
LAYER_1
 10
101.3626
 20
-184.8517
 30
0.0
  0
SEQEND
  5
4E7
  8
LAYER_1
  0
POLYLINE
  5
FC
  8
LAYER_1
 66
     1
 10
0.0
 20
0.0
 30
0.0
  0
VERTEX
  5
4E8
  8
LAYER_1
 10
104.3647
 20
-184.8517
 30
0.0
  0
VERTEX
  5
4E9
  8
LAYER_1
 10
101.3626
 20
-184.8517
 30
0.0
  0
SEQEND
  5
4EA
  8
LAYER_1
  0
POLYLINE
  5
FD
  8
LAYER_1
 66
     1
 10
0.0
 20
0.0
 30
0.0
  0
VERTEX
  5
4EB
  8
LAYER_1
 10
104.3647
 20
-184.8517
 30
0.0
  0
VERTEX
  5
4EC
  8
LAYER_1
 10
104.3647
 20
-155.9627
 30
0.0
  0
SEQEND
  5
4ED
  8
LAYER_1
  0
POLYLINE
  5
FE
  8
LAYER_1
 66
     1
 10
0.0
 20
0.0
 30
0.0
  0
VERTEX
  5
4EE
  8
LAYER_1
 10
104.3647
 20
-155.9627
 30
0.0
  0
VERTEX
  5
4EF
  8
LAYER_1
 10
101.3626
 20
-155.9627
 30
0.0
  0
SEQEND
  5
4F0
  8
LAYER_1
  0
POLYLINE
  5
FF
  8
LAYER_1
 66
     1
 10
0.0
 20
0.0
 30
0.0
  0
VERTEX
  5
4F1
  8
LAYER_1
 10
101.3626
 20
-155.9627
 30
0.0
  0
VERTEX
  5
4F2
  8
LAYER_1
 10
101.3626
 20
-127.0737
 30
0.0
  0
SEQEND
  5
4F3
  8
LAYER_1
  0
POLYLINE
  5
100
  8
LAYER_1
 66
     1
 10
0.0
 20
0.0
 30
0.0
  0
VERTEX
  5
4F4
  8
LAYER_1
 10
104.3647
 20
-127.0737
 30
0.0
  0
VERTEX
  5
4F5
  8
LAYER_1
 10
101.3626
 20
-127.0737
 30
0.0
  0
SEQEND
  5
4F6
  8
LAYER_1
  0
POLYLINE
  5
101
  8
LAYER_1
 66
     1
 10
0.0
 20
0.0
 30
0.0
  0
VERTEX
  5
4F7
  8
LAYER_1
 10
104.3647
 20
-127.0737
 30
0.0
  0
VERTEX
  5
4F8
  8
LAYER_1
 10
104.3647
 20
-98.1847
 30
0.0
  0
SEQEND
  5
4F9
  8
LAYER_1
  0
POLYLINE
  5
102
  8
LAYER_1
 66
     1
 10
0.0
 20
0.0
 30
0.0
  0
VERTEX
  5
4FA
  8
LAYER_1
 10
104.3647
 20
-98.1847
 30
0.0
  0
VERTEX
  5
4FB
  8
LAYER_1
 10
101.3626
 20
-98.1847
 30
0.0
  0
SEQEND
  5
4FC
  8
LAYER_1
  0
POLYLINE
  5
103
  8
LAYER_1
 66
     1
 10
0.0
 20
0.0
 30
0.0
  0
VERTEX
  5
4FD
  8
LAYER_1
 10
101.3626
 20
-98.1847
 30
0.0
  0
VERTEX
  5
4FE
  8
LAYER_1
 10
101.3626
 20
-69.2958
 30
0.0
  0
SEQEND
  5
4FF
  8
LAYER_1
  0
POLYLINE
  5
104
  8
LAYER_1
 66
     1
 10
0.0
 20
0.0
 30
0.0
  0
VERTEX
  5
500
  8
LAYER_1
 10
68.3637
 20
-326.2944
 30
0.0
  0
VERTEX
  5
501
  8
LAYER_1
 10
51.8632
 20
-326.2944
 30
0.0
  0
SEQEND
  5
502
  8
LAYER_1
  0
POLYLINE
  5
105
  8
LAYER_1
 66
     1
 10
0.0
 20
0.0
 30
0.0
  0
VERTEX
  5
503
  8
LAYER_1
 10
48.8628
 20
-326.2944
 30
0.0
  0
VERTEX
  5
504
  8
LAYER_1
 10
32.3627
 20
-326.2944
 30
0.0
  0
SEQEND
  5
505
  8
LAYER_1
  0
POLYLINE
  5
106
  8
LAYER_1
 66
     1
 10
0.0
 20
0.0
 30
0.0
  0
VERTEX
  5
506
  8
LAYER_1
 10
51.8632
 20
-326.2944
 30
0.0
  0
VERTEX
  5
507
  8
LAYER_1
 10
51.8632
 20
-322.3399
 30
0.0
  0
VERTEX
  5
508
  8
LAYER_1
 10
52.9132
 20
-322.3399
 30
0.0
  0
VERTEX
  5
509
  8
LAYER_1
 10
52.9132
 20
-320.2399
 30
0.0
  0
VERTEX
  5
50A
  8
LAYER_1
 10
51.8632
 20
-320.2399
 30
0.0
  0
VERTEX
  5
50B
  8
LAYER_1
 10
51.8632
 20
-316.2944
 30
0.0
  0
VERTEX
  5
50C
  8
LAYER_1
 10
48.8632
 20
-316.2944
 30
0.0
  0
VERTEX
  5
50D
  8
LAYER_1
 10
48.8632
 20
-320.2399
 30
0.0
  0
VERTEX
  5
50E
  8
LAYER_1
 10
47.8132
 20
-320.2399
 30
0.0
  0
VERTEX
  5
50F
  8
LAYER_1
 10
47.8132
 20
-322.3399
 30
0.0
  0
VERTEX
  5
510
  8
LAYER_1
 10
48.8632
 20
-322.3399
 30
0.0
  0
VERTEX
  5
511
  8
LAYER_1
 10
48.8632
 20
-326.2944
 30
0.0
  0
SEQEND
  5
512
  8
LAYER_1
  0
POLYLINE
  5
107
  8
LAYER_1
 66
     1
 10
0.0
 20
0.0
 30
0.0
  0
VERTEX
  5
513
  8
LAYER_1
 10
-3.6347
 20
-326.2944
 30
0.0
  0
VERTEX
  5
514
  8
LAYER_1
 10
-20.1352
 20
-326.2944
 30
0.0
  0
SEQEND
  5
515
  8
LAYER_1
  0
POLYLINE
  5
108
  8
LAYER_1
 66
     1
 10
0.0
 20
0.0
 30
0.0
  0
VERTEX
  5
516
  8
LAYER_1
 10
-23.1356
 20
-326.2944
 30
0.0
  0
VERTEX
  5
517
  8
LAYER_1
 10
-39.6357
 20
-326.2944
 30
0.0
  0
SEQEND
  5
518
  8
LAYER_1
  0
POLYLINE
  5
109
  8
LAYER_1
 66
     1
 10
0.0
 20
0.0
 30
0.0
  0
VERTEX
  5
519
  8
LAYER_1
 10
-20.1352
 20
-326.2944
 30
0.0
  0
VERTEX
  5
51A
  8
LAYER_1
 10
-20.1352
 20
-322.3399
 30
0.0
  0
VERTEX
  5
51B
  8
LAYER_1
 10
-19.0852
 20
-322.3399
 30
0.0
  0
VERTEX
  5
51C
  8
LAYER_1
 10
-19.0852
 20
-320.2399
 30
0.0
  0
VERTEX
  5
51D
  8
LAYER_1
 10
-20.1352
 20
-320.2399
 30
0.0
  0
VERTEX
  5
51E
  8
LAYER_1
 10
-20.1352
 20
-316.2944
 30
0.0
  0
VERTEX
  5
51F
  8
LAYER_1
 10
-23.1352
 20
-316.2944
 30
0.0
  0
VERTEX
  5
520
  8
LAYER_1
 10
-23.1352
 20
-320.2399
 30
0.0
  0
VERTEX
  5
521
  8
LAYER_1
 10
-24.1852
 20
-320.2399
 30
0.0
  0
VERTEX
  5
522
  8
LAYER_1
 10
-24.1852
 20
-322.3399
 30
0.0
  0
VERTEX
  5
523
  8
LAYER_1
 10
-23.1352
 20
-322.3399
 30
0.0
  0
VERTEX
  5
524
  8
LAYER_1
 10
-23.1352
 20
-326.2944
 30
0.0
  0
SEQEND
  5
525
  8
LAYER_1
  0
POLYLINE
  5
10A
  8
LAYER_1
 66
     1
 10
0.0
 20
0.0
 30
0.0
  0
VERTEX
  5
526
  8
LAYER_1
 10
-282.1209
 20
-330.6307
 30
0.0
  0
VERTEX
  5
527
  8
LAYER_1
 10
-246.1235
 20
-330.6307
 30
0.0
  0
SEQEND
  5
528
  8
LAYER_1
  0
POLYLINE
  5
10B
  8
LAYER_1
 66
     1
 10
0.0
 20
0.0
 30
0.0
  0
VERTEX
  5
529
  8
LAYER_1
 10
-246.1235
 20
-327.6321
 30
0.0
  0
VERTEX
  5
52A
  8
LAYER_1
 10
-246.1235
 20
-330.6307
 30
0.0
  0
SEQEND
  5
52B
  8
LAYER_1
  0
POLYLINE
  5
10C
  8
LAYER_1
 66
     1
 10
0.0
 20
0.0
 30
0.0
  0
VERTEX
  5
52C
  8
LAYER_1
 10
-210.1225
 20
-327.6321
 30
0.0
  0
VERTEX
  5
52D
  8
LAYER_1
 10
-210.1225
 20
-330.6307
 30
0.0
  0
SEQEND
  5
52E
  8
LAYER_1
  0
POLYLINE
  5
10D
  8
LAYER_1
 66
     1
 10
0.0
 20
0.0
 30
0.0
  0
VERTEX
  5
52F
  8
LAYER_1
 10
-210.1225
 20
-330.6307
 30
0.0
  0
VERTEX
  5
530
  8
LAYER_1
 10
-174.1215
 20
-330.6307
 30
0.0
  0
SEQEND
  5
531
  8
LAYER_1
  0
POLYLINE
  5
10E
  8
LAYER_1
 66
     1
 10
0.0
 20
0.0
 30
0.0
  0
VERTEX
  5
532
  8
LAYER_1
 10
-174.1215
 20
-327.6321
 30
0.0
  0
VERTEX
  5
533
  8
LAYER_1
 10
-174.1215
 20
-330.6307
 30
0.0
  0
SEQEND
  5
534
  8
LAYER_1
  0
POLYLINE
  5
10F
  8
LAYER_1
 66
     1
 10
0.0
 20
0.0
 30
0.0
  0
VERTEX
  5
535
  8
LAYER_1
 10
-138.1205
 20
-327.6321
 30
0.0
  0
VERTEX
  5
536
  8
LAYER_1
 10
-138.1205
 20
-330.6307
 30
0.0
  0
SEQEND
  5
537
  8
LAYER_1
  0
POLYLINE
  5
110
  8
LAYER_1
 66
     1
 10
0.0
 20
0.0
 30
0.0
  0
VERTEX
  5
538
  8
LAYER_1
 10
-138.1205
 20
-330.6307
 30
0.0
  0
VERTEX
  5
539
  8
LAYER_1
 10
-105.1217
 20
-330.6307
 30
0.0
  0
SEQEND
  5
53A
  8
LAYER_1
  0
POLYLINE
  5
111
  8
LAYER_1
 66
     1
 10
0.0
 20
0.0
 30
0.0
  0
VERTEX
  5
53B
  8
LAYER_1
 10
-282.1209
 20
-70.6299
 30
0.0
  0
VERTEX
  5
53C
  8
LAYER_1
 10
-246.1235
 20
-70.6299
 30
0.0
  0
SEQEND
  5
53D
  8
LAYER_1
  0
POLYLINE
  5
112
  8
LAYER_1
 66
     1
 10
0.0
 20
0.0
 30
0.0
  0
VERTEX
  5
53E
  8
LAYER_1
 10
-246.1235
 20
-70.6299
 30
0.0
  0
VERTEX
  5
53F
  8
LAYER_1
 10
-246.1235
 20
-73.6321
 30
0.0
  0
SEQEND
  5
540
  8
LAYER_1
  0
POLYLINE
  5
113
  8
LAYER_1
 66
     1
 10
0.0
 20
0.0
 30
0.0
  0
VERTEX
  5
541
  8
LAYER_1
 10
-246.1235
 20
-73.6321
 30
0.0
  0
VERTEX
  5
542
  8
LAYER_1
 10
-210.1225
 20
-73.6321
 30
0.0
  0
SEQEND
  5
543
  8
LAYER_1
  0
POLYLINE
  5
114
  8
LAYER_1
 66
     1
 10
0.0
 20
0.0
 30
0.0
  0
VERTEX
  5
544
  8
LAYER_1
 10
-210.1225
 20
-70.6299
 30
0.0
  0
VERTEX
  5
545
  8
LAYER_1
 10
-210.1225
 20
-73.6321
 30
0.0
  0
SEQEND
  5
546
  8
LAYER_1
  0
POLYLINE
  5
115
  8
LAYER_1
 66
     1
 10
0.0
 20
0.0
 30
0.0
  0
VERTEX
  5
547
  8
LAYER_1
 10
-210.1225
 20
-70.6299
 30
0.0
  0
VERTEX
  5
548
  8
LAYER_1
 10
-174.1215
 20
-70.6299
 30
0.0
  0
SEQEND
  5
549
  8
LAYER_1
  0
POLYLINE
  5
116
  8
LAYER_1
 66
     1
 10
0.0
 20
0.0
 30
0.0
  0
VERTEX
  5
54A
  8
LAYER_1
 10
-174.1215
 20
-70.6299
 30
0.0
  0
VERTEX
  5
54B
  8
LAYER_1
 10
-174.1215
 20
-73.6321
 30
0.0
  0
SEQEND
  5
54C
  8
LAYER_1
  0
POLYLINE
  5
117
  8
LAYER_1
 66
     1
 10
0.0
 20
0.0
 30
0.0
  0
VERTEX
  5
54D
  8
LAYER_1
 10
-174.1215
 20
-73.6321
 30
0.0
  0
VERTEX
  5
54E
  8
LAYER_1
 10
-138.1205
 20
-73.6321
 30
0.0
  0
SEQEND
  5
54F
  8
LAYER_1
  0
POLYLINE
  5
118
  8
LAYER_1
 66
     1
 10
0.0
 20
0.0
 30
0.0
  0
VERTEX
  5
550
  8
LAYER_1
 10
-138.1205
 20
-70.6299
 30
0.0
  0
VERTEX
  5
551
  8
LAYER_1
 10
-138.1205
 20
-73.6321
 30
0.0
  0
SEQEND
  5
552
  8
LAYER_1
  0
POLYLINE
  5
119
  8
LAYER_1
 66
     1
 10
0.0
 20
0.0
 30
0.0
  0
VERTEX
  5
553
  8
LAYER_1
 10
-138.1205
 20
-70.6299
 30
0.0
  0
VERTEX
  5
554
  8
LAYER_1
 10
-105.1217
 20
-70.6299
 30
0.0
  0
SEQEND
  5
555
  8
LAYER_1
  0
POLYLINE
  5
11A
  8
LAYER_1
 66
     1
 10
0.0
 20
0.0
 30
0.0
  0
VERTEX
  5
556
  8
LAYER_1
 10
-282.1209
 20
-330.6307
 30
0.0
  0
VERTEX
  5
557
  8
LAYER_1
 10
-282.1209
 20
-301.7417
 30
0.0
  0
SEQEND
  5
558
  8
LAYER_1
  0
POLYLINE
  5
11B
  8
LAYER_1
 66
     1
 10
0.0
 20
0.0
 30
0.0
  0
VERTEX
  5
559
  8
LAYER_1
 10
-279.1223
 20
-301.7417
 30
0.0
  0
VERTEX
  5
55A
  8
LAYER_1
 10
-282.1209
 20
-301.7417
 30
0.0
  0
SEQEND
  5
55B
  8
LAYER_1
  0
POLYLINE
  5
11C
  8
LAYER_1
 66
     1
 10
0.0
 20
0.0
 30
0.0
  0
VERTEX
  5
55C
  8
LAYER_1
 10
-279.1223
 20
-301.7417
 30
0.0
  0
VERTEX
  5
55D
  8
LAYER_1
 10
-279.1223
 20
-272.8527
 30
0.0
  0
SEQEND
  5
55E
  8
LAYER_1
  0
POLYLINE
  5
11D
  8
LAYER_1
 66
     1
 10
0.0
 20
0.0
 30
0.0
  0
VERTEX
  5
55F
  8
LAYER_1
 10
-279.1223
 20
-272.8527
 30
0.0
  0
VERTEX
  5
560
  8
LAYER_1
 10
-282.1209
 20
-272.8527
 30
0.0
  0
SEQEND
  5
561
  8
LAYER_1
  0
POLYLINE
  5
11E
  8
LAYER_1
 66
     1
 10
0.0
 20
0.0
 30
0.0
  0
VERTEX
  5
562
  8
LAYER_1
 10
-282.1209
 20
-272.8527
 30
0.0
  0
VERTEX
  5
563
  8
LAYER_1
 10
-282.1209
 20
-243.9638
 30
0.0
  0
SEQEND
  5
564
  8
LAYER_1
  0
POLYLINE
  5
11F
  8
LAYER_1
 66
     1
 10
0.0
 20
0.0
 30
0.0
  0
VERTEX
  5
565
  8
LAYER_1
 10
-279.1223
 20
-243.9638
 30
0.0
  0
VERTEX
  5
566
  8
LAYER_1
 10
-282.1209
 20
-243.9638
 30
0.0
  0
SEQEND
  5
567
  8
LAYER_1
  0
POLYLINE
  5
120
  8
LAYER_1
 66
     1
 10
0.0
 20
0.0
 30
0.0
  0
VERTEX
  5
568
  8
LAYER_1
 10
-279.1223
 20
-243.9638
 30
0.0
  0
VERTEX
  5
569
  8
LAYER_1
 10
-279.1223
 20
-215.0748
 30
0.0
  0
SEQEND
  5
56A
  8
LAYER_1
  0
POLYLINE
  5
121
  8
LAYER_1
 66
     1
 10
0.0
 20
0.0
 30
0.0
  0
VERTEX
  5
56B
  8
LAYER_1
 10
-279.1223
 20
-215.0748
 30
0.0
  0
VERTEX
  5
56C
  8
LAYER_1
 10
-282.1209
 20
-215.0748
 30
0.0
  0
SEQEND
  5
56D
  8
LAYER_1
  0
POLYLINE
  5
122
  8
LAYER_1
 66
     1
 10
0.0
 20
0.0
 30
0.0
  0
VERTEX
  5
56E
  8
LAYER_1
 10
-282.1209
 20
-215.0748
 30
0.0
  0
VERTEX
  5
56F
  8
LAYER_1
 10
-282.1209
 20
-186.1858
 30
0.0
  0
SEQEND
  5
570
  8
LAYER_1
  0
POLYLINE
  5
123
  8
LAYER_1
 66
     1
 10
0.0
 20
0.0
 30
0.0
  0
VERTEX
  5
571
  8
LAYER_1
 10
-279.1223
 20
-186.1858
 30
0.0
  0
VERTEX
  5
572
  8
LAYER_1
 10
-282.1209
 20
-186.1858
 30
0.0
  0
SEQEND
  5
573
  8
LAYER_1
  0
POLYLINE
  5
124
  8
LAYER_1
 66
     1
 10
0.0
 20
0.0
 30
0.0
  0
VERTEX
  5
574
  8
LAYER_1
 10
-279.1223
 20
-186.1858
 30
0.0
  0
VERTEX
  5
575
  8
LAYER_1
 10
-279.1223
 20
-157.2968
 30
0.0
  0
SEQEND
  5
576
  8
LAYER_1
  0
POLYLINE
  5
125
  8
LAYER_1
 66
     1
 10
0.0
 20
0.0
 30
0.0
  0
VERTEX
  5
577
  8
LAYER_1
 10
-279.1223
 20
-157.2968
 30
0.0
  0
VERTEX
  5
578
  8
LAYER_1
 10
-282.1209
 20
-157.2968
 30
0.0
  0
SEQEND
  5
579
  8
LAYER_1
  0
POLYLINE
  5
126
  8
LAYER_1
 66
     1
 10
0.0
 20
0.0
 30
0.0
  0
VERTEX
  5
57A
  8
LAYER_1
 10
-282.1209
 20
-157.2968
 30
0.0
  0
VERTEX
  5
57B
  8
LAYER_1
 10
-282.1209
 20
-128.4079
 30
0.0
  0
SEQEND
  5
57C
  8
LAYER_1
  0
POLYLINE
  5
127
  8
LAYER_1
 66
     1
 10
0.0
 20
0.0
 30
0.0
  0
VERTEX
  5
57D
  8
LAYER_1
 10
-279.1223
 20
-128.4079
 30
0.0
  0
VERTEX
  5
57E
  8
LAYER_1
 10
-282.1209
 20
-128.4079
 30
0.0
  0
SEQEND
  5
57F
  8
LAYER_1
  0
POLYLINE
  5
128
  8
LAYER_1
 66
     1
 10
0.0
 20
0.0
 30
0.0
  0
VERTEX
  5
580
  8
LAYER_1
 10
-279.1223
 20
-128.4079
 30
0.0
  0
VERTEX
  5
581
  8
LAYER_1
 10
-279.1223
 20
-99.5189
 30
0.0
  0
SEQEND
  5
582
  8
LAYER_1
  0
POLYLINE
  5
129
  8
LAYER_1
 66
     1
 10
0.0
 20
0.0
 30
0.0
  0
VERTEX
  5
583
  8
LAYER_1
 10
-279.1223
 20
-99.5189
 30
0.0
  0
VERTEX
  5
584
  8
LAYER_1
 10
-282.1209
 20
-99.5189
 30
0.0
  0
SEQEND
  5
585
  8
LAYER_1
  0
POLYLINE
  5
12A
  8
LAYER_1
 66
     1
 10
0.0
 20
0.0
 30
0.0
  0
VERTEX
  5
586
  8
LAYER_1
 10
-282.1209
 20
-99.5189
 30
0.0
  0
VERTEX
  5
587
  8
LAYER_1
 10
-282.1209
 20
-70.6299
 30
0.0
  0
SEQEND
  5
588
  8
LAYER_1
  0
POLYLINE
  5
12B
  8
LAYER_1
 66
     1
 10
0.0
 20
0.0
 30
0.0
  0
VERTEX
  5
589
  8
LAYER_1
 10
-105.1217
 20
-330.6307
 30
0.0
  0
VERTEX
  5
58A
  8
LAYER_1
 10
-105.1217
 20
-301.7417
 30
0.0
  0
SEQEND
  5
58B
  8
LAYER_1
  0
POLYLINE
  5
12C
  8
LAYER_1
 66
     1
 10
0.0
 20
0.0
 30
0.0
  0
VERTEX
  5
58C
  8
LAYER_1
 10
-102.1231
 20
-301.7417
 30
0.0
  0
VERTEX
  5
58D
  8
LAYER_1
 10
-105.1217
 20
-301.7417
 30
0.0
  0
SEQEND
  5
58E
  8
LAYER_1
  0
POLYLINE
  5
12D
  8
LAYER_1
 66
     1
 10
0.0
 20
0.0
 30
0.0
  0
VERTEX
  5
58F
  8
LAYER_1
 10
-102.1231
 20
-301.7417
 30
0.0
  0
VERTEX
  5
590
  8
LAYER_1
 10
-102.1231
 20
-272.8527
 30
0.0
  0
SEQEND
  5
591
  8
LAYER_1
  0
POLYLINE
  5
12E
  8
LAYER_1
 66
     1
 10
0.0
 20
0.0
 30
0.0
  0
VERTEX
  5
592
  8
LAYER_1
 10
-102.1231
 20
-272.8527
 30
0.0
  0
VERTEX
  5
593
  8
LAYER_1
 10
-105.1217
 20
-272.8527
 30
0.0
  0
SEQEND
  5
594
  8
LAYER_1
  0
POLYLINE
  5
12F
  8
LAYER_1
 66
     1
 10
0.0
 20
0.0
 30
0.0
  0
VERTEX
  5
595
  8
LAYER_1
 10
-105.1217
 20
-272.8527
 30
0.0
  0
VERTEX
  5
596
  8
LAYER_1
 10
-105.1217
 20
-243.9638
 30
0.0
  0
SEQEND
  5
597
  8
LAYER_1
  0
POLYLINE
  5
130
  8
LAYER_1
 66
     1
 10
0.0
 20
0.0
 30
0.0
  0
VERTEX
  5
598
  8
LAYER_1
 10
-102.1231
 20
-243.9638
 30
0.0
  0
VERTEX
  5
599
  8
LAYER_1
 10
-105.1217
 20
-243.9638
 30
0.0
  0
SEQEND
  5
59A
  8
LAYER_1
  0
POLYLINE
  5
131
  8
LAYER_1
 66
     1
 10
0.0
 20
0.0
 30
0.0
  0
VERTEX
  5
59B
  8
LAYER_1
 10
-102.1231
 20
-243.9638
 30
0.0
  0
VERTEX
  5
59C
  8
LAYER_1
 10
-102.1231
 20
-215.0748
 30
0.0
  0
SEQEND
  5
59D
  8
LAYER_1
  0
POLYLINE
  5
132
  8
LAYER_1
 66
     1
 10
0.0
 20
0.0
 30
0.0
  0
VERTEX
  5
59E
  8
LAYER_1
 10
-102.1231
 20
-215.0748
 30
0.0
  0
VERTEX
  5
59F
  8
LAYER_1
 10
-105.1217
 20
-215.0748
 30
0.0
  0
SEQEND
  5
5A0
  8
LAYER_1
  0
POLYLINE
  5
133
  8
LAYER_1
 66
     1
 10
0.0
 20
0.0
 30
0.0
  0
VERTEX
  5
5A1
  8
LAYER_1
 10
-105.1217
 20
-215.0748
 30
0.0
  0
VERTEX
  5
5A2
  8
LAYER_1
 10
-105.1217
 20
-186.1858
 30
0.0
  0
SEQEND
  5
5A3
  8
LAYER_1
  0
POLYLINE
  5
134
  8
LAYER_1
 66
     1
 10
0.0
 20
0.0
 30
0.0
  0
VERTEX
  5
5A4
  8
LAYER_1
 10
-102.1231
 20
-186.1858
 30
0.0
  0
VERTEX
  5
5A5
  8
LAYER_1
 10
-105.1217
 20
-186.1858
 30
0.0
  0
SEQEND
  5
5A6
  8
LAYER_1
  0
POLYLINE
  5
135
  8
LAYER_1
 66
     1
 10
0.0
 20
0.0
 30
0.0
  0
VERTEX
  5
5A7
  8
LAYER_1
 10
-102.1231
 20
-186.1858
 30
0.0
  0
VERTEX
  5
5A8
  8
LAYER_1
 10
-102.1231
 20
-157.2968
 30
0.0
  0
SEQEND
  5
5A9
  8
LAYER_1
  0
POLYLINE
  5
136
  8
LAYER_1
 66
     1
 10
0.0
 20
0.0
 30
0.0
  0
VERTEX
  5
5AA
  8
LAYER_1
 10
-102.1231
 20
-157.2968
 30
0.0
  0
VERTEX
  5
5AB
  8
LAYER_1
 10
-105.1217
 20
-157.2968
 30
0.0
  0
SEQEND
  5
5AC
  8
LAYER_1
  0
POLYLINE
  5
137
  8
LAYER_1
 66
     1
 10
0.0
 20
0.0
 30
0.0
  0
VERTEX
  5
5AD
  8
LAYER_1
 10
-105.1217
 20
-157.2968
 30
0.0
  0
VERTEX
  5
5AE
  8
LAYER_1
 10
-105.1217
 20
-128.4079
 30
0.0
  0
SEQEND
  5
5AF
  8
LAYER_1
  0
POLYLINE
  5
138
  8
LAYER_1
 66
     1
 10
0.0
 20
0.0
 30
0.0
  0
VERTEX
  5
5B0
  8
LAYER_1
 10
-102.1231
 20
-128.4079
 30
0.0
  0
VERTEX
  5
5B1
  8
LAYER_1
 10
-105.1217
 20
-128.4079
 30
0.0
  0
SEQEND
  5
5B2
  8
LAYER_1
  0
POLYLINE
  5
139
  8
LAYER_1
 66
     1
 10
0.0
 20
0.0
 30
0.0
  0
VERTEX
  5
5B3
  8
LAYER_1
 10
-102.1231
 20
-128.4079
 30
0.0
  0
VERTEX
  5
5B4
  8
LAYER_1
 10
-102.1231
 20
-99.5189
 30
0.0
  0
SEQEND
  5
5B5
  8
LAYER_1
  0
POLYLINE
  5
13A
  8
LAYER_1
 66
     1
 10
0.0
 20
0.0
 30
0.0
  0
VERTEX
  5
5B6
  8
LAYER_1
 10
-102.1231
 20
-99.5189
 30
0.0
  0
VERTEX
  5
5B7
  8
LAYER_1
 10
-105.1217
 20
-99.5189
 30
0.0
  0
SEQEND
  5
5B8
  8
LAYER_1
  0
POLYLINE
  5
13B
  8
LAYER_1
 66
     1
 10
0.0
 20
0.0
 30
0.0
  0
VERTEX
  5
5B9
  8
LAYER_1
 10
-105.1217
 20
-99.5189
 30
0.0
  0
VERTEX
  5
5BA
  8
LAYER_1
 10
-105.1217
 20
-70.6299
 30
0.0
  0
SEQEND
  5
5BB
  8
LAYER_1
  0
POLYLINE
  5
13C
  8
LAYER_1
 66
     1
 10
0.0
 20
0.0
 30
0.0
  0
VERTEX
  5
5BC
  8
LAYER_1
 10
-138.1205
 20
-327.6321
 30
0.0
  0
VERTEX
  5
5BD
  8
LAYER_1
 10
-154.621
 20
-327.6321
 30
0.0
  0
SEQEND
  5
5BE
  8
LAYER_1
  0
POLYLINE
  5
13D
  8
LAYER_1
 66
     1
 10
0.0
 20
0.0
 30
0.0
  0
VERTEX
  5
5BF
  8
LAYER_1
 10
-157.6214
 20
-327.6321
 30
0.0
  0
VERTEX
  5
5C0
  8
LAYER_1
 10
-174.1215
 20
-327.6321
 30
0.0
  0
SEQEND
  5
5C1
  8
LAYER_1
  0
POLYLINE
  5
13E
  8
LAYER_1
 66
     1
 10
0.0
 20
0.0
 30
0.0
  0
VERTEX
  5
5C2
  8
LAYER_1
 10
-154.621
 20
-327.6321
 30
0.0
  0
VERTEX
  5
5C3
  8
LAYER_1
 10
-154.621
 20
-323.6776
 30
0.0
  0
VERTEX
  5
5C4
  8
LAYER_1
 10
-153.571
 20
-323.6776
 30
0.0
  0
VERTEX
  5
5C5
  8
LAYER_1
 10
-153.571
 20
-321.5776
 30
0.0
  0
VERTEX
  5
5C6
  8
LAYER_1
 10
-154.621
 20
-321.5776
 30
0.0
  0
VERTEX
  5
5C7
  8
LAYER_1
 10
-154.621
 20
-317.6321
 30
0.0
  0
VERTEX
  5
5C8
  8
LAYER_1
 10
-157.621
 20
-317.6321
 30
0.0
  0
VERTEX
  5
5C9
  8
LAYER_1
 10
-157.621
 20
-321.5776
 30
0.0
  0
VERTEX
  5
5CA
  8
LAYER_1
 10
-158.671
 20
-321.5776
 30
0.0
  0
VERTEX
  5
5CB
  8
LAYER_1
 10
-158.671
 20
-323.6776
 30
0.0
  0
VERTEX
  5
5CC
  8
LAYER_1
 10
-157.621
 20
-323.6776
 30
0.0
  0
VERTEX
  5
5CD
  8
LAYER_1
 10
-157.621
 20
-327.6321
 30
0.0
  0
SEQEND
  5
5CE
  8
LAYER_1
  0
POLYLINE
  5
13F
  8
LAYER_1
 66
     1
 10
0.0
 20
0.0
 30
0.0
  0
VERTEX
  5
5CF
  8
LAYER_1
 10
-210.1225
 20
-327.6321
 30
0.0
  0
VERTEX
  5
5D0
  8
LAYER_1
 10
-226.623
 20
-327.6321
 30
0.0
  0
SEQEND
  5
5D1
  8
LAYER_1
  0
POLYLINE
  5
140
  8
LAYER_1
 66
     1
 10
0.0
 20
0.0
 30
0.0
  0
VERTEX
  5
5D2
  8
LAYER_1
 10
-229.6234
 20
-327.6321
 30
0.0
  0
VERTEX
  5
5D3
  8
LAYER_1
 10
-246.1235
 20
-327.6321
 30
0.0
  0
SEQEND
  5
5D4
  8
LAYER_1
  0
POLYLINE
  5
141
  8
LAYER_1
 66
     1
 10
0.0
 20
0.0
 30
0.0
  0
VERTEX
  5
5D5
  8
LAYER_1
 10
-226.623
 20
-327.6321
 30
0.0
  0
VERTEX
  5
5D6
  8
LAYER_1
 10
-226.623
 20
-323.6776
 30
0.0
  0
VERTEX
  5
5D7
  8
LAYER_1
 10
-225.573
 20
-323.6776
 30
0.0
  0
VERTEX
  5
5D8
  8
LAYER_1
 10
-225.573
 20
-321.5776
 30
0.0
  0
VERTEX
  5
5D9
  8
LAYER_1
 10
-226.623
 20
-321.5776
 30
0.0
  0
VERTEX
  5
5DA
  8
LAYER_1
 10
-226.623
 20
-317.6321
 30
0.0
  0
VERTEX
  5
5DB
  8
LAYER_1
 10
-229.623
 20
-317.6321
 30
0.0
  0
VERTEX
  5
5DC
  8
LAYER_1
 10
-229.623
 20
-321.5776
 30
0.0
  0
VERTEX
  5
5DD
  8
LAYER_1
 10
-230.673
 20
-321.5776
 30
0.0
  0
VERTEX
  5
5DE
  8
LAYER_1
 10
-230.673
 20
-323.6776
 30
0.0
  0
VERTEX
  5
5DF
  8
LAYER_1
 10
-229.623
 20
-323.6776
 30
0.0
  0
VERTEX
  5
5E0
  8
LAYER_1
 10
-229.623
 20
-327.6321
 30
0.0
  0
SEQEND
  5
5E1
  8
LAYER_1
  0
POLYLINE
  5
142
  8
LAYER_1
 66
     1
 10
0.0
 20
0.0
 30
0.0
  0
VERTEX
  5
5E2
  8
LAYER_1
 10
-75.6366
 20
-813.1061
 30
0.0
  0
VERTEX
  5
5E3
  8
LAYER_1
 10
-39.6357
 20
-813.1061
 30
0.0
  0
SEQEND
  5
5E4
  8
LAYER_1
  0
POLYLINE
  5
143
  8
LAYER_1
 66
     1
 10
0.0
 20
0.0
 30
0.0
  0
VERTEX
  5
5E5
  8
LAYER_1
 10
-39.6357
 20
-810.1074
 30
0.0
  0
VERTEX
  5
5E6
  8
LAYER_1
 10
-39.6357
 20
-813.1061
 30
0.0
  0
SEQEND
  5
5E7
  8
LAYER_1
  0
POLYLINE
  5
144
  8
LAYER_1
 66
     1
 10
0.0
 20
0.0
 30
0.0
  0
VERTEX
  5
5E8
  8
LAYER_1
 10
-39.6357
 20
-810.1074
 30
0.0
  0
VERTEX
  5
5E9
  8
LAYER_1
 10
-3.6382
 20
-810.1074
 30
0.0
  0
SEQEND
  5
5EA
  8
LAYER_1
  0
POLYLINE
  5
145
  8
LAYER_1
 66
     1
 10
0.0
 20
0.0
 30
0.0
  0
VERTEX
  5
5EB
  8
LAYER_1
 10
-3.6382
 20
-810.1074
 30
0.0
  0
VERTEX
  5
5EC
  8
LAYER_1
 10
-3.6382
 20
-813.1061
 30
0.0
  0
SEQEND
  5
5ED
  8
LAYER_1
  0
POLYLINE
  5
146
  8
LAYER_1
 66
     1
 10
0.0
 20
0.0
 30
0.0
  0
VERTEX
  5
5EE
  8
LAYER_1
 10
-3.6382
 20
-813.1061
 30
0.0
  0
VERTEX
  5
5EF
  8
LAYER_1
 10
32.3627
 20
-813.1061
 30
0.0
  0
SEQEND
  5
5F0
  8
LAYER_1
  0
POLYLINE
  5
147
  8
LAYER_1
 66
     1
 10
0.0
 20
0.0
 30
0.0
  0
VERTEX
  5
5F1
  8
LAYER_1
 10
32.3627
 20
-810.1074
 30
0.0
  0
VERTEX
  5
5F2
  8
LAYER_1
 10
32.3627
 20
-813.1061
 30
0.0
  0
SEQEND
  5
5F3
  8
LAYER_1
  0
POLYLINE
  5
148
  8
LAYER_1
 66
     1
 10
0.0
 20
0.0
 30
0.0
  0
VERTEX
  5
5F4
  8
LAYER_1
 10
32.3627
 20
-810.1074
 30
0.0
  0
VERTEX
  5
5F5
  8
LAYER_1
 10
68.3637
 20
-810.1074
 30
0.0
  0
SEQEND
  5
5F6
  8
LAYER_1
  0
POLYLINE
  5
149
  8
LAYER_1
 66
     1
 10
0.0
 20
0.0
 30
0.0
  0
VERTEX
  5
5F7
  8
LAYER_1
 10
68.3637
 20
-810.1074
 30
0.0
  0
VERTEX
  5
5F8
  8
LAYER_1
 10
68.3637
 20
-813.1061
 30
0.0
  0
SEQEND
  5
5F9
  8
LAYER_1
  0
POLYLINE
  5
14A
  8
LAYER_1
 66
     1
 10
0.0
 20
0.0
 30
0.0
  0
VERTEX
  5
5FA
  8
LAYER_1
 10
68.3637
 20
-813.1061
 30
0.0
  0
VERTEX
  5
5FB
  8
LAYER_1
 10
101.3626
 20
-813.1061
 30
0.0
  0
SEQEND
  5
5FC
  8
LAYER_1
  0
POLYLINE
  5
14B
  8
LAYER_1
 66
     1
 10
0.0
 20
0.0
 30
0.0
  0
VERTEX
  5
5FD
  8
LAYER_1
 10
-75.6366
 20
-553.1088
 30
0.0
  0
VERTEX
  5
5FE
  8
LAYER_1
 10
-39.6357
 20
-553.1088
 30
0.0
  0
SEQEND
  5
5FF
  8
LAYER_1
  0
POLYLINE
  5
14C
  8
LAYER_1
 66
     1
 10
0.0
 20
0.0
 30
0.0
  0
VERTEX
  5
600
  8
LAYER_1
 10
-39.6357
 20
-553.1088
 30
0.0
  0
VERTEX
  5
601
  8
LAYER_1
 10
-39.6357
 20
-556.1074
 30
0.0
  0
SEQEND
  5
602
  8
LAYER_1
  0
POLYLINE
  5
14D
  8
LAYER_1
 66
     1
 10
0.0
 20
0.0
 30
0.0
  0
VERTEX
  5
603
  8
LAYER_1
 10
-3.6382
 20
-553.1088
 30
0.0
  0
VERTEX
  5
604
  8
LAYER_1
 10
-3.6382
 20
-556.1074
 30
0.0
  0
SEQEND
  5
605
  8
LAYER_1
  0
POLYLINE
  5
14E
  8
LAYER_1
 66
     1
 10
0.0
 20
0.0
 30
0.0
  0
VERTEX
  5
606
  8
LAYER_1
 10
-3.6382
 20
-553.1088
 30
0.0
  0
VERTEX
  5
607
  8
LAYER_1
 10
32.3627
 20
-553.1088
 30
0.0
  0
SEQEND
  5
608
  8
LAYER_1
  0
POLYLINE
  5
14F
  8
LAYER_1
 66
     1
 10
0.0
 20
0.0
 30
0.0
  0
VERTEX
  5
609
  8
LAYER_1
 10
32.3627
 20
-553.1088
 30
0.0
  0
VERTEX
  5
60A
  8
LAYER_1
 10
32.3627
 20
-556.1074
 30
0.0
  0
SEQEND
  5
60B
  8
LAYER_1
  0
POLYLINE
  5
150
  8
LAYER_1
 66
     1
 10
0.0
 20
0.0
 30
0.0
  0
VERTEX
  5
60C
  8
LAYER_1
 10
68.3637
 20
-553.1088
 30
0.0
  0
VERTEX
  5
60D
  8
LAYER_1
 10
68.3637
 20
-556.1074
 30
0.0
  0
SEQEND
  5
60E
  8
LAYER_1
  0
POLYLINE
  5
151
  8
LAYER_1
 66
     1
 10
0.0
 20
0.0
 30
0.0
  0
VERTEX
  5
60F
  8
LAYER_1
 10
68.3637
 20
-553.1088
 30
0.0
  0
VERTEX
  5
610
  8
LAYER_1
 10
101.3626
 20
-553.1088
 30
0.0
  0
SEQEND
  5
611
  8
LAYER_1
  0
POLYLINE
  5
152
  8
LAYER_1
 66
     1
 10
0.0
 20
0.0
 30
0.0
  0
VERTEX
  5
612
  8
LAYER_1
 10
-75.6366
 20
-813.1061
 30
0.0
  0
VERTEX
  5
613
  8
LAYER_1
 10
-75.6366
 20
-784.2171
 30
0.0
  0
SEQEND
  5
614
  8
LAYER_1
  0
POLYLINE
  5
153
  8
LAYER_1
 66
     1
 10
0.0
 20
0.0
 30
0.0
  0
VERTEX
  5
615
  8
LAYER_1
 10
-72.638
 20
-784.2171
 30
0.0
  0
VERTEX
  5
616
  8
LAYER_1
 10
-75.6366
 20
-784.2171
 30
0.0
  0
SEQEND
  5
617
  8
LAYER_1
  0
POLYLINE
  5
154
  8
LAYER_1
 66
     1
 10
0.0
 20
0.0
 30
0.0
  0
VERTEX
  5
618
  8
LAYER_1
 10
-72.638
 20
-784.2171
 30
0.0
  0
VERTEX
  5
619
  8
LAYER_1
 10
-72.638
 20
-755.3281
 30
0.0
  0
SEQEND
  5
61A
  8
LAYER_1
  0
POLYLINE
  5
155
  8
LAYER_1
 66
     1
 10
0.0
 20
0.0
 30
0.0
  0
VERTEX
  5
61B
  8
LAYER_1
 10
-72.638
 20
-755.3281
 30
0.0
  0
VERTEX
  5
61C
  8
LAYER_1
 10
-75.6366
 20
-755.3281
 30
0.0
  0
SEQEND
  5
61D
  8
LAYER_1
  0
POLYLINE
  5
156
  8
LAYER_1
 66
     1
 10
0.0
 20
0.0
 30
0.0
  0
VERTEX
  5
61E
  8
LAYER_1
 10
-75.6366
 20
-755.3281
 30
0.0
  0
VERTEX
  5
61F
  8
LAYER_1
 10
-75.6366
 20
-726.4391
 30
0.0
  0
SEQEND
  5
620
  8
LAYER_1
  0
POLYLINE
  5
157
  8
LAYER_1
 66
     1
 10
0.0
 20
0.0
 30
0.0
  0
VERTEX
  5
621
  8
LAYER_1
 10
-72.638
 20
-726.4391
 30
0.0
  0
VERTEX
  5
622
  8
LAYER_1
 10
-75.6366
 20
-726.4391
 30
0.0
  0
SEQEND
  5
623
  8
LAYER_1
  0
POLYLINE
  5
158
  8
LAYER_1
 66
     1
 10
0.0
 20
0.0
 30
0.0
  0
VERTEX
  5
624
  8
LAYER_1
 10
-72.638
 20
-726.4391
 30
0.0
  0
VERTEX
  5
625
  8
LAYER_1
 10
-72.638
 20
-697.5502
 30
0.0
  0
SEQEND
  5
626
  8
LAYER_1
  0
POLYLINE
  5
159
  8
LAYER_1
 66
     1
 10
0.0
 20
0.0
 30
0.0
  0
VERTEX
  5
627
  8
LAYER_1
 10
-72.638
 20
-697.5502
 30
0.0
  0
VERTEX
  5
628
  8
LAYER_1
 10
-75.6366
 20
-697.5502
 30
0.0
  0
SEQEND
  5
629
  8
LAYER_1
  0
POLYLINE
  5
15A
  8
LAYER_1
 66
     1
 10
0.0
 20
0.0
 30
0.0
  0
VERTEX
  5
62A
  8
LAYER_1
 10
-75.6366
 20
-697.5502
 30
0.0
  0
VERTEX
  5
62B
  8
LAYER_1
 10
-75.6366
 20
-668.6612
 30
0.0
  0
SEQEND
  5
62C
  8
LAYER_1
  0
POLYLINE
  5
15B
  8
LAYER_1
 66
     1
 10
0.0
 20
0.0
 30
0.0
  0
VERTEX
  5
62D
  8
LAYER_1
 10
-72.638
 20
-668.6612
 30
0.0
  0
VERTEX
  5
62E
  8
LAYER_1
 10
-75.6366
 20
-668.6612
 30
0.0
  0
SEQEND
  5
62F
  8
LAYER_1
  0
POLYLINE
  5
15C
  8
LAYER_1
 66
     1
 10
0.0
 20
0.0
 30
0.0
  0
VERTEX
  5
630
  8
LAYER_1
 10
-72.638
 20
-668.6612
 30
0.0
  0
VERTEX
  5
631
  8
LAYER_1
 10
-72.638
 20
-639.7722
 30
0.0
  0
SEQEND
  5
632
  8
LAYER_1
  0
POLYLINE
  5
15D
  8
LAYER_1
 66
     1
 10
0.0
 20
0.0
 30
0.0
  0
VERTEX
  5
633
  8
LAYER_1
 10
-72.638
 20
-639.7722
 30
0.0
  0
VERTEX
  5
634
  8
LAYER_1
 10
-75.6366
 20
-639.7722
 30
0.0
  0
SEQEND
  5
635
  8
LAYER_1
  0
POLYLINE
  5
15E
  8
LAYER_1
 66
     1
 10
0.0
 20
0.0
 30
0.0
  0
VERTEX
  5
636
  8
LAYER_1
 10
-75.6366
 20
-639.7722
 30
0.0
  0
VERTEX
  5
637
  8
LAYER_1
 10
-75.6366
 20
-610.8868
 30
0.0
  0
SEQEND
  5
638
  8
LAYER_1
  0
POLYLINE
  5
15F
  8
LAYER_1
 66
     1
 10
0.0
 20
0.0
 30
0.0
  0
VERTEX
  5
639
  8
LAYER_1
 10
-72.638
 20
-610.8868
 30
0.0
  0
VERTEX
  5
63A
  8
LAYER_1
 10
-75.6366
 20
-610.8868
 30
0.0
  0
SEQEND
  5
63B
  8
LAYER_1
  0
POLYLINE
  5
160
  8
LAYER_1
 66
     1
 10
0.0
 20
0.0
 30
0.0
  0
VERTEX
  5
63C
  8
LAYER_1
 10
-72.638
 20
-610.8868
 30
0.0
  0
VERTEX
  5
63D
  8
LAYER_1
 10
-72.638
 20
-581.9978
 30
0.0
  0
SEQEND
  5
63E
  8
LAYER_1
  0
POLYLINE
  5
161
  8
LAYER_1
 66
     1
 10
0.0
 20
0.0
 30
0.0
  0
VERTEX
  5
63F
  8
LAYER_1
 10
-72.638
 20
-581.9978
 30
0.0
  0
VERTEX
  5
640
  8
LAYER_1
 10
-75.6366
 20
-581.9978
 30
0.0
  0
SEQEND
  5
641
  8
LAYER_1
  0
POLYLINE
  5
162
  8
LAYER_1
 66
     1
 10
0.0
 20
0.0
 30
0.0
  0
VERTEX
  5
642
  8
LAYER_1
 10
-75.6366
 20
-581.9978
 30
0.0
  0
VERTEX
  5
643
  8
LAYER_1
 10
-75.6366
 20
-553.1088
 30
0.0
  0
SEQEND
  5
644
  8
LAYER_1
  0
POLYLINE
  5
163
  8
LAYER_1
 66
     1
 10
0.0
 20
0.0
 30
0.0
  0
VERTEX
  5
645
  8
LAYER_1
 10
101.3626
 20
-813.1061
 30
0.0
  0
VERTEX
  5
646
  8
LAYER_1
 10
101.3626
 20
-784.2171
 30
0.0
  0
SEQEND
  5
647
  8
LAYER_1
  0
POLYLINE
  5
164
  8
LAYER_1
 66
     1
 10
0.0
 20
0.0
 30
0.0
  0
VERTEX
  5
648
  8
LAYER_1
 10
104.3647
 20
-784.2171
 30
0.0
  0
VERTEX
  5
649
  8
LAYER_1
 10
101.3626
 20
-784.2171
 30
0.0
  0
SEQEND
  5
64A
  8
LAYER_1
  0
POLYLINE
  5
165
  8
LAYER_1
 66
     1
 10
0.0
 20
0.0
 30
0.0
  0
VERTEX
  5
64B
  8
LAYER_1
 10
104.3647
 20
-784.2171
 30
0.0
  0
VERTEX
  5
64C
  8
LAYER_1
 10
104.3647
 20
-755.3281
 30
0.0
  0
SEQEND
  5
64D
  8
LAYER_1
  0
POLYLINE
  5
166
  8
LAYER_1
 66
     1
 10
0.0
 20
0.0
 30
0.0
  0
VERTEX
  5
64E
  8
LAYER_1
 10
104.3647
 20
-755.3281
 30
0.0
  0
VERTEX
  5
64F
  8
LAYER_1
 10
101.3626
 20
-755.3281
 30
0.0
  0
SEQEND
  5
650
  8
LAYER_1
  0
POLYLINE
  5
167
  8
LAYER_1
 66
     1
 10
0.0
 20
0.0
 30
0.0
  0
VERTEX
  5
651
  8
LAYER_1
 10
101.3626
 20
-755.3281
 30
0.0
  0
VERTEX
  5
652
  8
LAYER_1
 10
101.3626
 20
-726.4391
 30
0.0
  0
SEQEND
  5
653
  8
LAYER_1
  0
POLYLINE
  5
168
  8
LAYER_1
 66
     1
 10
0.0
 20
0.0
 30
0.0
  0
VERTEX
  5
654
  8
LAYER_1
 10
104.3647
 20
-726.4391
 30
0.0
  0
VERTEX
  5
655
  8
LAYER_1
 10
101.3626
 20
-726.4391
 30
0.0
  0
SEQEND
  5
656
  8
LAYER_1
  0
POLYLINE
  5
169
  8
LAYER_1
 66
     1
 10
0.0
 20
0.0
 30
0.0
  0
VERTEX
  5
657
  8
LAYER_1
 10
104.3647
 20
-726.4391
 30
0.0
  0
VERTEX
  5
658
  8
LAYER_1
 10
104.3647
 20
-697.5502
 30
0.0
  0
SEQEND
  5
659
  8
LAYER_1
  0
POLYLINE
  5
16A
  8
LAYER_1
 66
     1
 10
0.0
 20
0.0
 30
0.0
  0
VERTEX
  5
65A
  8
LAYER_1
 10
104.3647
 20
-697.5502
 30
0.0
  0
VERTEX
  5
65B
  8
LAYER_1
 10
101.3626
 20
-697.5502
 30
0.0
  0
SEQEND
  5
65C
  8
LAYER_1
  0
POLYLINE
  5
16B
  8
LAYER_1
 66
     1
 10
0.0
 20
0.0
 30
0.0
  0
VERTEX
  5
65D
  8
LAYER_1
 10
101.3626
 20
-697.5502
 30
0.0
  0
VERTEX
  5
65E
  8
LAYER_1
 10
101.3626
 20
-668.6612
 30
0.0
  0
SEQEND
  5
65F
  8
LAYER_1
  0
POLYLINE
  5
16C
  8
LAYER_1
 66
     1
 10
0.0
 20
0.0
 30
0.0
  0
VERTEX
  5
660
  8
LAYER_1
 10
104.3647
 20
-668.6612
 30
0.0
  0
VERTEX
  5
661
  8
LAYER_1
 10
101.3626
 20
-668.6612
 30
0.0
  0
SEQEND
  5
662
  8
LAYER_1
  0
POLYLINE
  5
16D
  8
LAYER_1
 66
     1
 10
0.0
 20
0.0
 30
0.0
  0
VERTEX
  5
663
  8
LAYER_1
 10
104.3647
 20
-668.6612
 30
0.0
  0
VERTEX
  5
664
  8
LAYER_1
 10
104.3647
 20
-639.7722
 30
0.0
  0
SEQEND
  5
665
  8
LAYER_1
  0
POLYLINE
  5
16E
  8
LAYER_1
 66
     1
 10
0.0
 20
0.0
 30
0.0
  0
VERTEX
  5
666
  8
LAYER_1
 10
104.3647
 20
-639.7722
 30
0.0
  0
VERTEX
  5
667
  8
LAYER_1
 10
101.3626
 20
-639.7722
 30
0.0
  0
SEQEND
  5
668
  8
LAYER_1
  0
POLYLINE
  5
16F
  8
LAYER_1
 66
     1
 10
0.0
 20
0.0
 30
0.0
  0
VERTEX
  5
669
  8
LAYER_1
 10
101.3626
 20
-639.7722
 30
0.0
  0
VERTEX
  5
66A
  8
LAYER_1
 10
101.3626
 20
-610.8868
 30
0.0
  0
SEQEND
  5
66B
  8
LAYER_1
  0
POLYLINE
  5
170
  8
LAYER_1
 66
     1
 10
0.0
 20
0.0
 30
0.0
  0
VERTEX
  5
66C
  8
LAYER_1
 10
104.3647
 20
-610.8868
 30
0.0
  0
VERTEX
  5
66D
  8
LAYER_1
 10
101.3626
 20
-610.8868
 30
0.0
  0
SEQEND
  5
66E
  8
LAYER_1
  0
POLYLINE
  5
171
  8
LAYER_1
 66
     1
 10
0.0
 20
0.0
 30
0.0
  0
VERTEX
  5
66F
  8
LAYER_1
 10
104.3647
 20
-610.8868
 30
0.0
  0
VERTEX
  5
670
  8
LAYER_1
 10
104.3647
 20
-581.9978
 30
0.0
  0
SEQEND
  5
671
  8
LAYER_1
  0
POLYLINE
  5
172
  8
LAYER_1
 66
     1
 10
0.0
 20
0.0
 30
0.0
  0
VERTEX
  5
672
  8
LAYER_1
 10
104.3647
 20
-581.9978
 30
0.0
  0
VERTEX
  5
673
  8
LAYER_1
 10
101.3626
 20
-581.9978
 30
0.0
  0
SEQEND
  5
674
  8
LAYER_1
  0
POLYLINE
  5
173
  8
LAYER_1
 66
     1
 10
0.0
 20
0.0
 30
0.0
  0
VERTEX
  5
675
  8
LAYER_1
 10
101.3626
 20
-581.9978
 30
0.0
  0
VERTEX
  5
676
  8
LAYER_1
 10
101.3626
 20
-553.1088
 30
0.0
  0
SEQEND
  5
677
  8
LAYER_1
  0
POLYLINE
  5
174
  8
LAYER_1
 66
     1
 10
0.0
 20
0.0
 30
0.0
  0
VERTEX
  5
678
  8
LAYER_1
 10
32.3627
 20
-556.1074
 30
0.0
  0
VERTEX
  5
679
  8
LAYER_1
 10
48.8632
 20
-556.1074
 30
0.0
  0
SEQEND
  5
67A
  8
LAYER_1
  0
POLYLINE
  5
175
  8
LAYER_1
 66
     1
 10
0.0
 20
0.0
 30
0.0
  0
VERTEX
  5
67B
  8
LAYER_1
 10
51.8636
 20
-556.1074
 30
0.0
  0
VERTEX
  5
67C
  8
LAYER_1
 10
68.3637
 20
-556.1074
 30
0.0
  0
SEQEND
  5
67D
  8
LAYER_1
  0
POLYLINE
  5
176
  8
LAYER_1
 66
     1
 10
0.0
 20
0.0
 30
0.0
  0
VERTEX
  5
67E
  8
LAYER_1
 10
48.8632
 20
-556.1074
 30
0.0
  0
VERTEX
  5
67F
  8
LAYER_1
 10
48.8632
 20
-560.0619
 30
0.0
  0
VERTEX
  5
680
  8
LAYER_1
 10
47.8132
 20
-560.0619
 30
0.0
  0
VERTEX
  5
681
  8
LAYER_1
 10
47.8132
 20
-562.1619
 30
0.0
  0
VERTEX
  5
682
  8
LAYER_1
 10
48.8632
 20
-562.1619
 30
0.0
  0
VERTEX
  5
683
  8
LAYER_1
 10
48.8632
 20
-566.1074
 30
0.0
  0
VERTEX
  5
684
  8
LAYER_1
 10
51.8632
 20
-566.1074
 30
0.0
  0
VERTEX
  5
685
  8
LAYER_1
 10
51.8632
 20
-562.1619
 30
0.0
  0
VERTEX
  5
686
  8
LAYER_1
 10
52.9132
 20
-562.1619
 30
0.0
  0
VERTEX
  5
687
  8
LAYER_1
 10
52.9132
 20
-560.0619
 30
0.0
  0
VERTEX
  5
688
  8
LAYER_1
 10
51.8632
 20
-560.0619
 30
0.0
  0
VERTEX
  5
689
  8
LAYER_1
 10
51.8632
 20
-556.1074
 30
0.0
  0
SEQEND
  5
68A
  8
LAYER_1
  0
POLYLINE
  5
177
  8
LAYER_1
 66
     1
 10
0.0
 20
0.0
 30
0.0
  0
VERTEX
  5
68B
  8
LAYER_1
 10
-39.6357
 20
-556.1074
 30
0.0
  0
VERTEX
  5
68C
  8
LAYER_1
 10
-23.1352
 20
-556.1074
 30
0.0
  0
SEQEND
  5
68D
  8
LAYER_1
  0
POLYLINE
  5
178
  8
LAYER_1
 66
     1
 10
0.0
 20
0.0
 30
0.0
  0
VERTEX
  5
68E
  8
LAYER_1
 10
-20.1348
 20
-556.1074
 30
0.0
  0
VERTEX
  5
68F
  8
LAYER_1
 10
-3.6347
 20
-556.1074
 30
0.0
  0
SEQEND
  5
690
  8
LAYER_1
  0
POLYLINE
  5
179
  8
LAYER_1
 66
     1
 10
0.0
 20
0.0
 30
0.0
  0
VERTEX
  5
691
  8
LAYER_1
 10
-23.1352
 20
-556.1074
 30
0.0
  0
VERTEX
  5
692
  8
LAYER_1
 10
-23.1352
 20
-560.0619
 30
0.0
  0
VERTEX
  5
693
  8
LAYER_1
 10
-24.1852
 20
-560.0619
 30
0.0
  0
VERTEX
  5
694
  8
LAYER_1
 10
-24.1852
 20
-562.1619
 30
0.0
  0
VERTEX
  5
695
  8
LAYER_1
 10
-23.1352
 20
-562.1619
 30
0.0
  0
VERTEX
  5
696
  8
LAYER_1
 10
-23.1352
 20
-566.1074
 30
0.0
  0
VERTEX
  5
697
  8
LAYER_1
 10
-20.1352
 20
-566.1074
 30
0.0
  0
VERTEX
  5
698
  8
LAYER_1
 10
-20.1352
 20
-562.1619
 30
0.0
  0
VERTEX
  5
699
  8
LAYER_1
 10
-19.0852
 20
-562.1619
 30
0.0
  0
VERTEX
  5
69A
  8
LAYER_1
 10
-19.0852
 20
-560.0619
 30
0.0
  0
VERTEX
  5
69B
  8
LAYER_1
 10
-20.1352
 20
-560.0619
 30
0.0
  0
VERTEX
  5
69C
  8
LAYER_1
 10
-20.1352
 20
-556.1074
 30
0.0
  0
SEQEND
  5
69D
  8
LAYER_1
  0
POLYLINE
  5
17A
  8
LAYER_1
 62
   250
 66
     1
 10
0.0
 20
0.0
 30
0.0
 70
     1
  0
VERTEX
  5
69E
  8
LAYER_1
 62
   250
 10
-37.636
 20
-219.2961
 30
0.0
  0
VERTEX
  5
69F
  8
LAYER_1
 62
   250
 10
66.364
 20
-219.2961
 30
0.0
  0
VERTEX
  5
6A0
  8
LAYER_1
 62
   250
 10
66.364
 20
-179.2961
 30
0.0
  0
VERTEX
  5
6A1
  8
LAYER_1
 62
   250
 10
-37.636
 20
-179.2961
 30
0.0
  0
VERTEX
  5
6A2
  8
LAYER_1
 62
   250
 10
-37.636
 20
-219.2961
 30
0.0
  0
SEQEND
  5
6A3
  8
LAYER_1
 62
   250
  0
POLYLINE
  5
17B
  8
LAYER_1
 62
   250
 66
     1
 10
0.0
 20
0.0
 30
0.0
 70
     1
  0
VERTEX
  5
6A4
  8
LAYER_1
 62
   250
 10
-21.986
 20
-139.2961
 30
0.0
  0
VERTEX
  5
6A5
  8
LAYER_1
 62
   250
 10
76.014
 20
-139.2961
 30
0.0
  0
VERTEX
  5
6A6
  8
LAYER_1
 62
   250
 10
76.014
 20
-99.2961
 30
0.0
  0
VERTEX
  5
6A7
  8
LAYER_1
 62
   250
 10
-21.986
 20
-99.2961
 30
0.0
  0
VERTEX
  5
6A8
  8
LAYER_1
 62
   250
 10
-21.986
 20
-139.2961
 30
0.0
  0
SEQEND
  5
6A9
  8
LAYER_1
 62
   250
  0
POLYLINE
  5
17C
  8
LAYER_1
 62
   250
 66
     1
 10
0.0
 20
0.0
 30
0.0
 70
     1
  0
VERTEX
  5
6AA
  8
LAYER_1
 62
   250
 10
-39.286
 20
-111.2961
 30
0.0
  0
VERTEX
  5
6AB
  8
LAYER_1
 62
   250
 10
-40.84672257612903
 20
-111.4498177567742
 30
0.0
  0
VERTEX
  5
6AC
  8
LAYER_1
 62
   250
 10
-42.34746745892072
 20
-111.9050637399097
 30
0.0
  0
VERTEX
  5
6AD
  8
LAYER_1
 62
   250
 10
-43.73056186415682
 20
-112.6443431015796
 30
0.0
  0
VERTEX
  5
6AE
  8
LAYER_1
 62
   250
 10
-44.94285424949238
 20
-113.6392457505076
 30
0.0
  0
VERTEX
  5
6AF
  8
LAYER_1
 62
   250
 10
-45.93775689842036
 20
-114.8515381358432
 30
0.0
  0
VERTEX
  5
6B0
  8
LAYER_1
 62
   250
 10
-46.6770362600903
 20
-116.2346325410793
 30
0.0
  0
VERTEX
  5
6B1
  8
LAYER_1
 62
   250
 10
-47.13228224322584
 20
-117.735377423871
 30
0.0
  0
VERTEX
  5
6B2
  8
LAYER_1
 62
   250
 10
-47.286
 20
-119.2961
 30
0.0
  0
VERTEX
  5
6B3
  8
LAYER_1
 62
   250
 10
-47.13228224322584
 20
-120.856822576129
 30
0.0
  0
VERTEX
  5
6B4
  8
LAYER_1
 62
   250
 10
-46.6770362600903
 20
-122.3575674589207
 30
0.0
  0
VERTEX
  5
6B5
  8
LAYER_1
 62
   250
 10
-45.93775689842037
 20
-123.7406618641568
 30
0.0
  0
VERTEX
  5
6B6
  8
LAYER_1
 62
   250
 10
-44.94285424949238
 20
-124.9529542494924
 30
0.0
  0
VERTEX
  5
6B7
  8
LAYER_1
 62
   250
 10
-43.73056186415682
 20
-125.9478568984204
 30
0.0
  0
VERTEX
  5
6B8
  8
LAYER_1
 62
   250
 10
-42.34746745892072
 20
-126.6871362600903
 30
0.0
  0
VERTEX
  5
6B9
  8
LAYER_1
 62
   250
 10
-40.84672257612903
 20
-127.1423822432258
 30
0.0
  0
VERTEX
  5
6BA
  8
LAYER_1
 62
   250
 10
-39.28599999999999
 20
-127.2961
 30
0.0
  0
VERTEX
  5
6BB
  8
LAYER_1
 62
   250
 10
-37.72527742387097
 20
-127.1423822432258
 30
0.0
  0
VERTEX
  5
6BC
  8
LAYER_1
 62
   250
 10
-36.22453254107928
 20
-126.6871362600903
 30
0.0
  0
VERTEX
  5
6BD
  8
LAYER_1
 62
   250
 10
-34.84143813584318
 20
-125.9478568984204
 30
0.0
  0
VERTEX
  5
6BE
  8
LAYER_1
 62
   250
 10
-33.62914575050761
 20
-124.9529542494924
 30
0.0
  0
VERTEX
  5
6BF
  8
LAYER_1
 62
   250
 10
-32.63424310157963
 20
-123.7406618641568
 30
0.0
  0
VERTEX
  5
6C0
  8
LAYER_1
 62
   250
 10
-31.8949637399097
 20
-122.3575674589207
 30
0.0
  0
VERTEX
  5
6C1
  8
LAYER_1
 62
   250
 10
-31.43971775677415
 20
-120.856822576129
 30
0.0
  0
VERTEX
  5
6C2
  8
LAYER_1
 62
   250
 10
-31.286
 20
-119.2961
 30
0.0
  0
VERTEX
  5
6C3
  8
LAYER_1
 62
   250
 10
-31.43971775677416
 20
-117.7353774238709
 30
0.0
  0
VERTEX
  5
6C4
  8
LAYER_1
 62
   250
 10
-31.89496373990972
 20
-116.2346325410793
 30
0.0
  0
VERTEX
  5
6C5
  8
LAYER_1
 62
   250
 10
-32.63424310157966
 20
-114.8515381358432
 30
0.0
  0
VERTEX
  5
6C6
  8
LAYER_1
 62
   250
 10
-33.62914575050764
 20
-113.6392457505076
 30
0.0
  0
VERTEX
  5
6C7
  8
LAYER_1
 62
   250
 10
-34.84143813584321
 20
-112.6443431015796
 30
0.0
  0
VERTEX
  5
6C8
  8
LAYER_1
 62
   250
 10
-36.22453254107931
 20
-111.9050637399097
 30
0.0
  0
VERTEX
  5
6C9
  8
LAYER_1
 62
   250
 10
-37.72527742387101
 20
-111.4498177567742
 30
0.0
  0
SEQEND
  5
6CA
  8
LAYER_1
 62
   250
  0
POLYLINE
  5
17D
  8
LAYER_1
 62
   250
 66
     1
 10
0.0
 20
0.0
 30
0.0
 70
     1
  0
VERTEX
  5
6CB
  8
LAYER_1
 62
   250
 10
64.3622
 20
-683.1088
 30
0.0
  0
VERTEX
  5
6CC
  8
LAYER_1
 62
   250
 10
-35.6378
 20
-683.1088
 30
0.0
  0
VERTEX
  5
6CD
  8
LAYER_1
 62
   250
 10
-35.6378
 20
-583.1088
 30
0.0
  0
VERTEX
  5
6CE
  8
LAYER_1
 62
   250
 10
64.3622
 20
-583.1088
 30
0.0
  0
VERTEX
  5
6CF
  8
LAYER_1
 62
   250
 10
64.3622
 20
-683.1088
 30
0.0
  0
SEQEND
  5
6D0
  8
LAYER_1
 62
   250
  0
POLYLINE
  5
17E
  8
LAYER_1
 62
   250
 66
     1
 10
0.0
 20
0.0
 30
0.0
 70
     1
  0
VERTEX
  5
6D1
  8
LAYER_1
 62
   250
 10
27.3622
 20
-710.1088
 30
0.0
  0
VERTEX
  5
6D2
  8
LAYER_1
 62
   250
 10
1.3622
 20
-710.1088
 30
0.0
  0
VERTEX
  5
6D3
  8
LAYER_1
 62
   250
 10
1.3622
 20
-703.1088
 30
0.0
  0
VERTEX
  5
6D4
  8
LAYER_1
 62
   250
 10
27.3622
 20
-703.1088
 30
0.0
  0
VERTEX
  5
6D5
  8
LAYER_1
 62
   250
 10
27.3622
 20
-710.1088
 30
0.0
  0
SEQEND
  5
6D6
  8
LAYER_1
 62
   250
  0
ENDSEC
  0
EOF
